<svg xmlns="http://www.w3.org/2000/svg" width="150" viewBox="0 0 150 37.5" height="37.5" version="1.0"><defs><clipPath id="a"><path d="M 10 3.699219 L 31 3.699219 L 31 12 L 10 12 Z M 10 3.699219"/></clipPath><clipPath id="b"><path d="M 16 3.699219 L 24 3.699219 L 24 16 L 16 16 Z M 16 3.699219"/></clipPath><clipPath id="c"><path d="M 22 13 L 36.511719 13 L 36.511719 32 L 22 32 Z M 22 13"/></clipPath><clipPath id="d"><path d="M 18 20 L 26 20 L 26 33.304688 L 18 33.304688 Z M 18 20"/></clipPath><clipPath id="e"><path d="M 4.6875 14 L 20 14 L 20 32 L 4.6875 32 Z M 4.6875 14"/></clipPath></defs><path fill="#6ABE52" d="M 29.191406 10.496094 C 29.203125 10.511719 29.21875 10.523438 29.230469 10.535156 L 27.867188 15.636719 L 23.035156 14.324219 L 17.65625 5.015625 L 26.058594 5.015625 Z M 29.191406 10.496094"/><path fill="#6ABE52" d="M 29.796875 30.46875 L 23.519531 30.453125 C 23.5 30.453125 23.484375 30.460938 23.464844 30.464844 L 19.773438 26.71875 L 23.324219 23.160156 L 34 23.160156 Z M 29.796875 30.46875"/><path fill="#6ABE52" d="M 8.984375 15.175781 C 8.992188 15.15625 8.996094 15.140625 9 15.121094 L 14.066406 13.773438 L 15.34375 18.65625 L 10.03125 28.03125 L 5.828125 20.644531 Z M 8.984375 15.175781"/><g clip-path="url(#a)"><path fill="#21212D" d="M 10.972656 11.707031 C 10.855469 11.707031 10.738281 11.675781 10.628906 11.613281 C 10.296875 11.417969 10.183594 10.992188 10.375 10.65625 L 14.058594 4.222656 C 14.183594 4.007812 14.410156 3.871094 14.660156 3.871094 L 26.242188 3.871094 C 26.492188 3.871094 26.71875 4.007812 26.84375 4.222656 L 30.078125 9.878906 C 30.269531 10.210938 30.15625 10.640625 29.824219 10.832031 C 29.492188 11.027344 29.070312 10.910156 28.878906 10.578125 L 25.84375 5.269531 L 15.058594 5.269531 L 11.574219 11.355469 C 11.445312 11.582031 11.214844 11.707031 10.972656 11.707031 Z M 10.972656 11.707031"/></g><g clip-path="url(#b)"><path fill="#21212D" d="M 22.792969 15.230469 C 22.550781 15.230469 22.320312 15.105469 22.191406 14.882812 L 16.4375 4.925781 C 16.246094 4.589844 16.359375 4.164062 16.6875 3.96875 C 17.019531 3.773438 17.441406 3.886719 17.636719 4.21875 L 23.390625 14.179688 C 23.582031 14.511719 23.46875 14.941406 23.140625 15.136719 C 23.03125 15.199219 22.910156 15.230469 22.792969 15.230469 Z M 22.792969 15.230469"/></g><path fill="#21212D" d="M 28.101562 16.671875 C 28.039062 16.671875 27.980469 16.660156 27.917969 16.644531 L 19.925781 14.476562 C 19.558594 14.378906 19.339844 13.992188 19.4375 13.621094 C 19.539062 13.246094 19.917969 13.027344 20.289062 13.128906 L 27.609375 15.113281 L 29.578125 7.730469 C 29.679688 7.359375 30.0625 7.136719 30.429688 7.238281 C 30.800781 7.339844 31.019531 7.722656 30.917969 8.09375 L 28.769531 16.152344 C 28.683594 16.464844 28.40625 16.671875 28.101562 16.671875 Z M 28.101562 16.671875"/><g clip-path="url(#c)"><path fill="#21212D" d="M 29.980469 31.425781 C 29.980469 31.425781 29.976562 31.425781 29.976562 31.425781 L 23.503906 31.410156 C 23.121094 31.410156 22.8125 31.09375 22.8125 30.710938 C 22.8125 30.324219 23.121094 30.011719 23.503906 30.011719 C 23.507812 30.011719 23.507812 30.011719 23.507812 30.011719 L 29.582031 30.023438 L 34.988281 20.621094 L 31.515625 14.527344 C 31.328125 14.191406 31.441406 13.765625 31.773438 13.574219 C 32.105469 13.382812 32.527344 13.496094 32.71875 13.832031 L 36.390625 20.273438 C 36.515625 20.488281 36.515625 20.757812 36.390625 20.972656 L 30.578125 31.074219 C 30.457031 31.292969 30.226562 31.425781 29.980469 31.425781 Z M 29.980469 31.425781"/></g><g clip-path="url(#d)"><path fill="#21212D" d="M 25.105469 33.242188 C 24.925781 33.242188 24.746094 33.175781 24.613281 33.039062 L 18.777344 27.121094 C 18.507812 26.847656 18.507812 26.402344 18.78125 26.132812 L 24.648438 20.246094 C 24.921875 19.972656 25.359375 19.976562 25.628906 20.25 C 25.898438 20.523438 25.898438 20.964844 25.628906 21.238281 L 20.25 26.628906 L 25.59375 32.050781 C 25.863281 32.324219 25.863281 32.769531 25.59375 33.039062 C 25.457031 33.175781 25.28125 33.242188 25.105469 33.242188 Z M 25.105469 33.242188"/></g><g clip-path="url(#e)"><path fill="#21212D" d="M 18.546875 31.402344 L 11.175781 31.382812 C 10.929688 31.378906 10.699219 31.246094 10.578125 31.03125 L 4.8125 20.898438 C 4.691406 20.679688 4.691406 20.414062 4.816406 20.199219 L 8.070312 14.554688 C 8.261719 14.222656 8.6875 14.109375 9.019531 14.300781 C 9.347656 14.496094 9.460938 14.921875 9.269531 15.257812 L 6.214844 20.550781 L 11.578125 29.984375 L 18.546875 30.003906 C 18.929688 30.003906 19.242188 30.320312 19.238281 30.707031 C 19.238281 31.089844 18.929688 31.402344 18.546875 31.402344 Z M 18.546875 31.402344"/></g><path fill="#21212D" d="M 10.019531 29.34375 C 9.902344 29.34375 9.78125 29.3125 9.675781 29.25 C 9.34375 29.058594 9.226562 28.632812 9.417969 28.296875 L 15.097656 18.269531 C 15.285156 17.933594 15.710938 17.816406 16.042969 18.007812 C 16.375 18.199219 16.492188 18.625 16.300781 18.960938 L 10.621094 28.992188 C 10.492188 29.214844 10.257812 29.34375 10.019531 29.34375 Z M 10.019531 29.34375"/><path fill="#21212D" d="M 16.40625 22.023438 C 16.101562 22.023438 15.820312 21.816406 15.738281 21.503906 L 13.804688 14.109375 L 6.472656 16.058594 C 6.101562 16.15625 5.722656 15.9375 5.625 15.5625 C 5.527344 15.1875 5.75 14.808594 6.117188 14.707031 L 14.121094 12.578125 C 14.296875 12.53125 14.484375 12.558594 14.644531 12.652344 C 14.804688 12.746094 14.921875 12.898438 14.96875 13.078125 L 17.078125 21.144531 C 17.175781 21.519531 16.953125 21.902344 16.585938 22 C 16.527344 22.015625 16.46875 22.023438 16.40625 22.023438 Z M 16.40625 22.023438"/><path fill="#21212D" d="M 34.535156 23.417969 L 23.167969 23.417969 C 22.785156 23.417969 22.476562 23.105469 22.476562 22.71875 C 22.476562 22.332031 22.785156 22.019531 23.167969 22.019531 L 34.535156 22.019531 C 34.917969 22.019531 35.230469 22.332031 35.230469 22.71875 C 35.230469 23.105469 34.917969 23.417969 34.535156 23.417969 Z M 34.535156 23.417969"/><g fill="#21212D"><g><g><path d="M 4.078125 -7.15625 C 4.078125 -7.351562 4.078125 -7.546875 4.078125 -7.734375 C 4.078125 -7.929688 4.097656 -8.128906 4.140625 -8.328125 C 4.210938 -8.785156 4.351562 -9.222656 4.5625 -9.640625 C 4.78125 -10.054688 5.039062 -10.429688 5.34375 -10.765625 C 5.582031 -10.972656 5.859375 -11.117188 6.171875 -11.203125 C 6.484375 -11.296875 6.800781 -11.320312 7.125 -11.28125 C 7.445312 -11.238281 7.742188 -11.132812 8.015625 -10.96875 C 8.285156 -10.800781 8.476562 -10.566406 8.59375 -10.265625 C 8.800781 -9.492188 8.914062 -8.691406 8.9375 -7.859375 C 8.96875 -7.023438 8.984375 -6.207031 8.984375 -5.40625 C 8.972656 -5.21875 8.953125 -5.03125 8.921875 -4.84375 C 8.890625 -4.65625 8.84375 -4.472656 8.78125 -4.296875 C 8.71875 -4.128906 8.632812 -3.976562 8.53125 -3.84375 C 8.4375 -3.71875 8.296875 -3.625 8.109375 -3.5625 C 7.585938 -3.394531 7.023438 -3.359375 6.421875 -3.453125 C 5.816406 -3.546875 5.335938 -3.8125 4.984375 -4.25 C 4.378906 -4.976562 4.078125 -5.851562 4.078125 -6.875 Z M 9.296875 6.03125 C 9.535156 6.007812 9.796875 5.96875 10.078125 5.90625 C 10.359375 5.851562 10.640625 5.75 10.921875 5.59375 C 11.203125 5.445312 11.488281 5.242188 11.78125 4.984375 C 12.070312 4.722656 12.359375 4.367188 12.640625 3.921875 C 12.835938 3.597656 12.925781 3.195312 12.90625 2.71875 C 12.894531 2.25 12.894531 1.773438 12.90625 1.296875 C 13.03125 -1.597656 13.085938 -4.414062 13.078125 -7.15625 C 13.066406 -9.90625 13.019531 -12.539062 12.9375 -15.0625 C 12.257812 -15.0625 11.578125 -15.070312 10.890625 -15.09375 C 10.203125 -15.125 9.53125 -15.101562 8.875 -15.03125 C 8.8125 -14.925781 8.785156 -14.785156 8.796875 -14.609375 C 8.804688 -14.441406 8.816406 -14.269531 8.828125 -14.09375 C 8.835938 -13.925781 8.835938 -13.785156 8.828125 -13.671875 C 8.816406 -13.566406 8.769531 -13.535156 8.6875 -13.578125 C 8.445312 -14.140625 8.050781 -14.523438 7.5 -14.734375 C 6.945312 -14.953125 6.347656 -15.039062 5.703125 -15 C 4.410156 -14.914062 3.421875 -14.546875 2.734375 -13.890625 C 2.054688 -13.234375 1.5625 -12.425781 1.25 -11.46875 C 0.9375 -10.519531 0.757812 -9.5 0.71875 -8.40625 C 0.675781 -7.320312 0.65625 -6.3125 0.65625 -5.375 C 0.695312 -4.75 0.78125 -4.140625 0.90625 -3.546875 C 1.03125 -2.953125 1.234375 -2.382812 1.515625 -1.84375 C 1.691406 -1.457031 1.921875 -1.144531 2.203125 -0.90625 C 2.484375 -0.664062 2.800781 -0.472656 3.15625 -0.328125 C 3.507812 -0.191406 3.878906 -0.09375 4.265625 -0.03125 C 4.660156 0.03125 5.050781 0.0625 5.4375 0.0625 C 5.71875 0.0390625 6.015625 0.03125 6.328125 0.03125 C 6.648438 0.03125 6.96875 0.0078125 7.28125 -0.03125 C 7.59375 -0.0703125 7.882812 -0.140625 8.15625 -0.234375 C 8.425781 -0.335938 8.664062 -0.5 8.875 -0.71875 C 8.832031 -0.363281 8.832031 -0.015625 8.875 0.328125 C 8.894531 0.492188 8.894531 0.679688 8.875 0.890625 C 8.851562 1.097656 8.832031 1.304688 8.8125 1.515625 C 8.6875 2.078125 8.425781 2.476562 8.03125 2.71875 C 7.644531 2.957031 7.242188 3.054688 6.828125 3.015625 C 6.421875 2.972656 6.050781 2.796875 5.71875 2.484375 C 5.382812 2.171875 5.21875 1.753906 5.21875 1.234375 C 4.976562 1.191406 4.679688 1.15625 4.328125 1.125 C 3.972656 1.101562 3.609375 1.085938 3.234375 1.078125 C 2.867188 1.066406 2.515625 1.070312 2.171875 1.09375 C 1.828125 1.125 1.554688 1.179688 1.359375 1.265625 C 1.335938 1.429688 1.332031 1.625 1.34375 1.84375 C 1.351562 2.0625 1.382812 2.289062 1.4375 2.53125 C 1.488281 2.769531 1.546875 3.003906 1.609375 3.234375 C 1.679688 3.472656 1.757812 3.660156 1.84375 3.796875 C 2.300781 4.484375 2.898438 5.023438 3.640625 5.421875 C 4.390625 5.828125 5.238281 6.03125 6.1875 6.03125 C 7.007812 6.03125 7.679688 6.039062 8.203125 6.0625 C 8.722656 6.082031 9.085938 6.070312 9.296875 6.03125 Z M 9.296875 6.03125" transform="translate(38.068 26.101)"/></g></g></g><g fill="#21212D"><g><g><path d="M 5.21875 -14.03125 C 5.21875 -14.164062 5.210938 -14.265625 5.203125 -14.328125 C 5.191406 -14.390625 5.1875 -14.445312 5.1875 -14.5 C 5.1875 -14.550781 5.1875 -14.613281 5.1875 -14.6875 C 5.1875 -14.769531 5.1875 -14.894531 5.1875 -15.0625 C 5.1875 -15.09375 5.097656 -15.113281 4.921875 -15.125 C 4.753906 -15.132812 4.554688 -15.128906 4.328125 -15.109375 C 4.097656 -15.085938 3.875 -15.066406 3.65625 -15.046875 C 3.445312 -15.035156 3.304688 -15.03125 3.234375 -15.03125 C 2.984375 -15.007812 2.78125 -14.992188 2.625 -14.984375 C 2.46875 -14.972656 2.316406 -14.96875 2.171875 -14.96875 C 2.035156 -14.96875 1.882812 -14.972656 1.71875 -14.984375 C 1.5625 -14.992188 1.359375 -15.007812 1.109375 -15.03125 C 1.035156 -12.375 1.019531 -9.804688 1.0625 -7.328125 C 1.113281 -4.859375 1.140625 -2.382812 1.140625 0.09375 C 1.628906 0.0507812 2.046875 0.0390625 2.390625 0.0625 C 2.742188 0.0820312 3.070312 0.0976562 3.375 0.109375 C 3.675781 0.117188 3.96875 0.113281 4.25 0.09375 C 4.53125 0.0703125 4.84375 0.0078125 5.1875 -0.09375 L 5.1875 -0.21875 C 5.1875 -0.957031 5.179688 -1.648438 5.171875 -2.296875 C 5.160156 -2.953125 5.15625 -3.597656 5.15625 -4.234375 C 5.15625 -4.867188 5.144531 -5.5 5.125 -6.125 C 5.101562 -6.75 5.082031 -7.410156 5.0625 -8.109375 C 5.039062 -8.679688 5.117188 -9.113281 5.296875 -9.40625 C 5.484375 -9.707031 5.742188 -9.925781 6.078125 -10.0625 C 6.410156 -10.207031 6.800781 -10.28125 7.25 -10.28125 C 7.707031 -10.28125 8.207031 -10.253906 8.75 -10.203125 C 8.769531 -10.203125 8.90625 -10.179688 9.15625 -10.140625 C 9.40625 -10.097656 9.648438 -10.046875 9.890625 -9.984375 C 9.992188 -9.941406 10.097656 -9.90625 10.203125 -9.875 C 10.316406 -9.851562 10.425781 -9.820312 10.53125 -9.78125 L 10.796875 -9.6875 C 10.773438 -9.988281 10.765625 -10.304688 10.765625 -10.640625 C 10.765625 -10.984375 10.765625 -11.363281 10.765625 -11.78125 C 10.765625 -12.195312 10.769531 -12.664062 10.78125 -13.1875 C 10.789062 -13.707031 10.796875 -14.3125 10.796875 -15 C 10.796875 -15.019531 10.648438 -15.035156 10.359375 -15.046875 C 10.066406 -15.054688 9.707031 -15.050781 9.28125 -15.03125 C 8.863281 -15.007812 8.414062 -14.960938 7.9375 -14.890625 C 7.457031 -14.816406 7.023438 -14.722656 6.640625 -14.609375 C 6.359375 -14.503906 6.070312 -14.390625 5.78125 -14.265625 C 5.488281 -14.148438 5.300781 -14.070312 5.21875 -14.03125 Z M 5.21875 -14.03125" transform="translate(52.155 26.101)"/></g></g></g><g fill="#21212D"><g><g><path d="M 4.703125 -7.578125 C 4.910156 -7.535156 5.234375 -7.503906 5.671875 -7.484375 C 6.117188 -7.460938 6.617188 -7.453125 7.171875 -7.453125 C 7.722656 -7.453125 8.300781 -7.460938 8.90625 -7.484375 C 9.507812 -7.503906 10.078125 -7.535156 10.609375 -7.578125 C 11.140625 -7.617188 11.597656 -7.65625 11.984375 -7.6875 C 12.378906 -7.726562 12.648438 -7.769531 12.796875 -7.8125 C 12.859375 -8.65625 12.859375 -9.488281 12.796875 -10.3125 C 12.734375 -11.144531 12.554688 -11.898438 12.265625 -12.578125 C 11.972656 -13.265625 11.546875 -13.847656 10.984375 -14.328125 C 10.421875 -14.816406 9.675781 -15.140625 8.75 -15.296875 C 8.019531 -15.472656 7.273438 -15.550781 6.515625 -15.53125 C 5.753906 -15.519531 5.03125 -15.40625 4.34375 -15.1875 C 3.65625 -14.976562 3.039062 -14.664062 2.5 -14.25 C 1.957031 -13.84375 1.554688 -13.347656 1.296875 -12.765625 C 1.054688 -12.097656 0.898438 -11.414062 0.828125 -10.71875 C 0.753906 -10.03125 0.691406 -9.3125 0.640625 -8.5625 C 0.597656 -7.738281 0.613281 -6.914062 0.6875 -6.09375 C 0.769531 -5.269531 0.921875 -4.488281 1.140625 -3.75 C 1.367188 -3.019531 1.660156 -2.347656 2.015625 -1.734375 C 2.378906 -1.117188 2.832031 -0.617188 3.375 -0.234375 C 3.863281 0.046875 4.390625 0.222656 4.953125 0.296875 C 5.515625 0.296875 6.128906 0.316406 6.796875 0.359375 C 7.472656 0.398438 8.132812 0.398438 8.78125 0.359375 C 9.425781 0.316406 10.019531 0.195312 10.5625 0 C 11.101562 -0.195312 11.546875 -0.539062 11.890625 -1.03125 C 12.023438 -1.144531 12.140625 -1.359375 12.234375 -1.671875 C 12.328125 -1.984375 12.398438 -2.351562 12.453125 -2.78125 C 12.515625 -3.21875 12.566406 -3.6875 12.609375 -4.1875 C 12.648438 -4.695312 12.691406 -5.210938 12.734375 -5.734375 C 12.515625 -5.796875 12.234375 -5.832031 11.890625 -5.84375 C 11.546875 -5.851562 11.1875 -5.847656 10.8125 -5.828125 C 10.445312 -5.804688 10.09375 -5.789062 9.75 -5.78125 C 9.40625 -5.769531 9.132812 -5.773438 8.9375 -5.796875 C 8.96875 -4.972656 8.835938 -4.351562 8.546875 -3.9375 C 8.253906 -3.519531 7.894531 -3.269531 7.46875 -3.1875 C 7.050781 -3.113281 6.617188 -3.1875 6.171875 -3.40625 C 5.734375 -3.625 5.394531 -3.96875 5.15625 -4.4375 C 4.9375 -4.800781 4.8125 -5.171875 4.78125 -5.546875 C 4.75 -5.929688 4.722656 -6.425781 4.703125 -7.03125 Z M 8.359375 -12.25 C 8.722656 -12.070312 9.007812 -11.800781 9.21875 -11.4375 C 9.425781 -11.070312 9.53125 -10.6875 9.53125 -10.28125 C 9.53125 -10.125 9.53125 -10.019531 9.53125 -9.96875 C 9.53125 -9.914062 9.472656 -9.882812 9.359375 -9.875 C 9.253906 -9.863281 9.070312 -9.867188 8.8125 -9.890625 C 8.550781 -9.910156 8.160156 -9.921875 7.640625 -9.921875 C 6.867188 -9.921875 6.285156 -9.914062 5.890625 -9.90625 C 5.503906 -9.894531 5.21875 -9.90625 5.03125 -9.9375 C 4.851562 -9.96875 4.757812 -10.03125 4.75 -10.125 C 4.738281 -10.21875 4.753906 -10.375 4.796875 -10.59375 C 4.835938 -10.851562 4.898438 -11.101562 4.984375 -11.34375 C 5.078125 -11.582031 5.210938 -11.789062 5.390625 -11.96875 C 5.578125 -12.15625 5.820312 -12.296875 6.125 -12.390625 C 6.425781 -12.492188 6.816406 -12.546875 7.296875 -12.546875 C 7.523438 -12.546875 7.71875 -12.519531 7.875 -12.46875 C 8.03125 -12.425781 8.191406 -12.351562 8.359375 -12.25 Z M 8.359375 -12.25" transform="translate(63.255 26.101)"/></g></g></g><g fill="#21212D"><g><g><path d="M 4.703125 -7.578125 C 4.910156 -7.535156 5.234375 -7.503906 5.671875 -7.484375 C 6.117188 -7.460938 6.617188 -7.453125 7.171875 -7.453125 C 7.722656 -7.453125 8.300781 -7.460938 8.90625 -7.484375 C 9.507812 -7.503906 10.078125 -7.535156 10.609375 -7.578125 C 11.140625 -7.617188 11.597656 -7.65625 11.984375 -7.6875 C 12.378906 -7.726562 12.648438 -7.769531 12.796875 -7.8125 C 12.859375 -8.65625 12.859375 -9.488281 12.796875 -10.3125 C 12.734375 -11.144531 12.554688 -11.898438 12.265625 -12.578125 C 11.972656 -13.265625 11.546875 -13.847656 10.984375 -14.328125 C 10.421875 -14.816406 9.675781 -15.140625 8.75 -15.296875 C 8.019531 -15.472656 7.273438 -15.550781 6.515625 -15.53125 C 5.753906 -15.519531 5.03125 -15.40625 4.34375 -15.1875 C 3.65625 -14.976562 3.039062 -14.664062 2.5 -14.25 C 1.957031 -13.84375 1.554688 -13.347656 1.296875 -12.765625 C 1.054688 -12.097656 0.898438 -11.414062 0.828125 -10.71875 C 0.753906 -10.03125 0.691406 -9.3125 0.640625 -8.5625 C 0.597656 -7.738281 0.613281 -6.914062 0.6875 -6.09375 C 0.769531 -5.269531 0.921875 -4.488281 1.140625 -3.75 C 1.367188 -3.019531 1.660156 -2.347656 2.015625 -1.734375 C 2.378906 -1.117188 2.832031 -0.617188 3.375 -0.234375 C 3.863281 0.046875 4.390625 0.222656 4.953125 0.296875 C 5.515625 0.296875 6.128906 0.316406 6.796875 0.359375 C 7.472656 0.398438 8.132812 0.398438 8.78125 0.359375 C 9.425781 0.316406 10.019531 0.195312 10.5625 0 C 11.101562 -0.195312 11.546875 -0.539062 11.890625 -1.03125 C 12.023438 -1.144531 12.140625 -1.359375 12.234375 -1.671875 C 12.328125 -1.984375 12.398438 -2.351562 12.453125 -2.78125 C 12.515625 -3.21875 12.566406 -3.6875 12.609375 -4.1875 C 12.648438 -4.695312 12.691406 -5.210938 12.734375 -5.734375 C 12.515625 -5.796875 12.234375 -5.832031 11.890625 -5.84375 C 11.546875 -5.851562 11.1875 -5.847656 10.8125 -5.828125 C 10.445312 -5.804688 10.09375 -5.789062 9.75 -5.78125 C 9.40625 -5.769531 9.132812 -5.773438 8.9375 -5.796875 C 8.96875 -4.972656 8.835938 -4.351562 8.546875 -3.9375 C 8.253906 -3.519531 7.894531 -3.269531 7.46875 -3.1875 C 7.050781 -3.113281 6.617188 -3.1875 6.171875 -3.40625 C 5.734375 -3.625 5.394531 -3.96875 5.15625 -4.4375 C 4.9375 -4.800781 4.8125 -5.171875 4.78125 -5.546875 C 4.75 -5.929688 4.722656 -6.425781 4.703125 -7.03125 Z M 8.359375 -12.25 C 8.722656 -12.070312 9.007812 -11.800781 9.21875 -11.4375 C 9.425781 -11.070312 9.53125 -10.6875 9.53125 -10.28125 C 9.53125 -10.125 9.53125 -10.019531 9.53125 -9.96875 C 9.53125 -9.914062 9.472656 -9.882812 9.359375 -9.875 C 9.253906 -9.863281 9.070312 -9.867188 8.8125 -9.890625 C 8.550781 -9.910156 8.160156 -9.921875 7.640625 -9.921875 C 6.867188 -9.921875 6.285156 -9.914062 5.890625 -9.90625 C 5.503906 -9.894531 5.21875 -9.90625 5.03125 -9.9375 C 4.851562 -9.96875 4.757812 -10.03125 4.75 -10.125 C 4.738281 -10.21875 4.753906 -10.375 4.796875 -10.59375 C 4.835938 -10.851562 4.898438 -11.101562 4.984375 -11.34375 C 5.078125 -11.582031 5.210938 -11.789062 5.390625 -11.96875 C 5.578125 -12.15625 5.820312 -12.296875 6.125 -12.390625 C 6.425781 -12.492188 6.816406 -12.546875 7.296875 -12.546875 C 7.523438 -12.546875 7.71875 -12.519531 7.875 -12.46875 C 8.03125 -12.425781 8.191406 -12.351562 8.359375 -12.25 Z M 8.359375 -12.25" transform="translate(76.648 26.101)"/></g></g></g><g fill="#21212D"><g><g><path d="M 5.09375 -13.453125 C 5.070312 -13.734375 5.066406 -13.984375 5.078125 -14.203125 C 5.085938 -14.429688 5.070312 -14.71875 5.03125 -15.0625 C 5.03125 -15.113281 4.953125 -15.144531 4.796875 -15.15625 C 4.640625 -15.164062 4.457031 -15.160156 4.25 -15.140625 C 4.050781 -15.117188 3.847656 -15.09375 3.640625 -15.0625 C 3.441406 -15.039062 3.304688 -15.03125 3.234375 -15.03125 C 2.984375 -15.007812 2.78125 -14.992188 2.625 -14.984375 C 2.46875 -14.972656 2.316406 -14.96875 2.171875 -14.96875 C 2.035156 -14.96875 1.882812 -14.972656 1.71875 -14.984375 C 1.5625 -14.992188 1.359375 -15.007812 1.109375 -15.03125 C 1.035156 -12.375 1.019531 -9.804688 1.0625 -7.328125 C 1.113281 -4.859375 1.140625 -2.382812 1.140625 0.09375 C 1.628906 0.0507812 2.035156 0.0390625 2.359375 0.0625 C 2.679688 0.0820312 2.972656 0.0976562 3.234375 0.109375 C 3.492188 0.117188 3.75 0.113281 4 0.09375 C 4.25 0.0703125 4.546875 0.0078125 4.890625 -0.09375 L 4.890625 -0.21875 C 4.972656 -0.875 5.015625 -1.535156 5.015625 -2.203125 C 5.015625 -2.867188 5 -3.535156 4.96875 -4.203125 C 4.9375 -4.878906 4.910156 -5.550781 4.890625 -6.21875 C 4.867188 -6.894531 4.878906 -7.585938 4.921875 -8.296875 C 4.960938 -8.835938 5.101562 -9.242188 5.34375 -9.515625 C 5.582031 -9.785156 5.851562 -9.96875 6.15625 -10.0625 C 6.457031 -10.15625 6.765625 -10.175781 7.078125 -10.125 C 7.390625 -10.070312 7.625 -10.003906 7.78125 -9.921875 C 7.800781 -9.898438 7.820312 -9.890625 7.84375 -9.890625 C 7.863281 -9.890625 7.882812 -9.878906 7.90625 -9.859375 C 8.0625 -9.742188 8.1875 -9.570312 8.28125 -9.34375 C 8.375 -9.125 8.441406 -8.875 8.484375 -8.59375 C 8.535156 -8.3125 8.570312 -8.023438 8.59375 -7.734375 C 8.613281 -7.441406 8.632812 -7.175781 8.65625 -6.9375 C 8.695312 -6.394531 8.722656 -5.8125 8.734375 -5.1875 C 8.742188 -4.5625 8.742188 -3.9375 8.734375 -3.3125 C 8.722656 -2.695312 8.71875 -2.097656 8.71875 -1.515625 C 8.71875 -0.929688 8.738281 -0.40625 8.78125 0.0625 C 9.488281 0.0625 10.117188 0.0664062 10.671875 0.078125 C 11.222656 0.0859375 11.847656 0.0390625 12.546875 -0.0625 C 12.503906 -0.75 12.492188 -1.539062 12.515625 -2.4375 C 12.535156 -3.34375 12.554688 -4.285156 12.578125 -5.265625 C 12.597656 -6.242188 12.613281 -7.207031 12.625 -8.15625 C 12.632812 -9.113281 12.625 -9.992188 12.59375 -10.796875 C 12.5625 -11.609375 12.488281 -12.300781 12.375 -12.875 C 12.269531 -13.445312 12.117188 -13.820312 11.921875 -14 C 11.492188 -14.363281 11.019531 -14.613281 10.5 -14.75 C 9.976562 -14.894531 9.441406 -14.957031 8.890625 -14.9375 C 8.335938 -14.914062 7.796875 -14.8125 7.265625 -14.625 C 6.742188 -14.445312 6.273438 -14.207031 5.859375 -13.90625 C 5.753906 -13.820312 5.625 -13.738281 5.46875 -13.65625 C 5.320312 -13.582031 5.195312 -13.515625 5.09375 -13.453125 Z M 5.09375 -13.453125" transform="translate(90.04 26.101)"/></g></g></g><g fill="#21212D"><g><g><path d="M 5.828125 -16.359375 C 5.984375 -16.515625 6.207031 -16.625 6.5 -16.6875 C 6.789062 -16.75 7.066406 -16.796875 7.328125 -16.828125 C 7.910156 -16.847656 8.335938 -16.726562 8.609375 -16.46875 C 8.878906 -16.207031 9.066406 -15.867188 9.171875 -15.453125 C 9.273438 -15.046875 9.332031 -14.597656 9.34375 -14.109375 C 9.351562 -13.628906 9.382812 -13.203125 9.4375 -12.828125 C 10.207031 -12.679688 10.945312 -12.582031 11.65625 -12.53125 C 12.375 -12.488281 13.101562 -12.546875 13.84375 -12.703125 C 14.164062 -13.628906 14.285156 -14.535156 14.203125 -15.421875 C 14.128906 -16.304688 13.898438 -17.125 13.515625 -17.875 C 13.128906 -18.632812 12.613281 -19.304688 11.96875 -19.890625 C 11.332031 -20.472656 10.613281 -20.9375 9.8125 -21.28125 C 9.019531 -21.632812 8.171875 -21.84375 7.265625 -21.90625 C 6.359375 -21.96875 5.445312 -21.847656 4.53125 -21.546875 C 4.25 -21.460938 3.972656 -21.363281 3.703125 -21.25 C 3.441406 -21.144531 3.203125 -21.007812 2.984375 -20.84375 C 2.597656 -20.5 2.269531 -20.109375 2 -19.671875 C 1.726562 -19.234375 1.503906 -18.75 1.328125 -18.21875 C 1.203125 -17.914062 1.101562 -17.585938 1.03125 -17.234375 C 0.96875 -16.890625 0.957031 -16.546875 1 -16.203125 C 0.976562 -14.578125 0.960938 -13.144531 0.953125 -11.90625 C 0.941406 -10.664062 0.941406 -9.554688 0.953125 -8.578125 C 0.960938 -7.609375 0.976562 -6.726562 1 -5.9375 C 1.019531 -5.15625 1.050781 -4.40625 1.09375 -3.6875 C 1.164062 -2.832031 1.425781 -2.125 1.875 -1.5625 C 2.332031 -1 2.894531 -0.5625 3.5625 -0.25 C 4.226562 0.0625 4.941406 0.257812 5.703125 0.34375 C 6.460938 0.4375 7.207031 0.429688 7.9375 0.328125 C 9.039062 0.304688 10.03125 0.03125 10.90625 -0.5 C 11.78125 -1.03125 12.488281 -1.707031 13.03125 -2.53125 C 13.570312 -3.351562 13.921875 -4.28125 14.078125 -5.3125 C 14.242188 -6.351562 14.15625 -7.398438 13.8125 -8.453125 C 13.53125 -8.523438 13.210938 -8.570312 12.859375 -8.59375 C 12.515625 -8.613281 12.160156 -8.625 11.796875 -8.625 C 11.429688 -8.625 11.070312 -8.613281 10.71875 -8.59375 C 10.375 -8.570312 10.0625 -8.582031 9.78125 -8.625 C 9.675781 -8.125 9.640625 -7.617188 9.671875 -7.109375 C 9.703125 -6.597656 9.609375 -6.109375 9.390625 -5.640625 C 9.179688 -5.234375 8.878906 -4.945312 8.484375 -4.78125 C 8.097656 -4.613281 7.679688 -4.550781 7.234375 -4.59375 C 6.648438 -4.75 6.234375 -5.101562 5.984375 -5.65625 C 5.734375 -6.207031 5.578125 -6.773438 5.515625 -7.359375 C 5.460938 -8.066406 5.4375 -8.894531 5.4375 -9.84375 C 5.4375 -10.800781 5.441406 -11.722656 5.453125 -12.609375 C 5.472656 -13.492188 5.5 -14.257812 5.53125 -14.90625 C 5.5625 -15.550781 5.597656 -15.898438 5.640625 -15.953125 C 5.660156 -15.992188 5.6875 -16.0625 5.71875 -16.15625 C 5.75 -16.25 5.785156 -16.316406 5.828125 -16.359375 Z M 5.828125 -16.359375" transform="translate(103.615 26.101)"/></g></g></g><g fill="#21212D"><g><g><path d="M 13.25 -15.03125 C 12.601562 -15.0625 12.03125 -15.085938 11.53125 -15.109375 C 11.039062 -15.128906 10.625 -15.148438 10.28125 -15.171875 C 10.226562 -15.171875 10.117188 -15.171875 9.953125 -15.171875 C 9.796875 -15.171875 9.632812 -15.175781 9.46875 -15.1875 C 9.3125 -15.195312 9.164062 -15.195312 9.03125 -15.1875 C 8.90625 -15.175781 8.84375 -15.160156 8.84375 -15.140625 C 8.84375 -14.898438 8.816406 -14.664062 8.765625 -14.4375 C 8.710938 -14.207031 8.695312 -13.929688 8.71875 -13.609375 C 8.582031 -13.953125 8.410156 -14.21875 8.203125 -14.40625 C 8.003906 -14.59375 7.773438 -14.734375 7.515625 -14.828125 C 7.253906 -14.921875 6.96875 -14.972656 6.65625 -14.984375 C 6.34375 -14.992188 6.003906 -15 5.640625 -15 C 4.941406 -14.976562 4.28125 -14.789062 3.65625 -14.4375 C 3.03125 -14.082031 2.488281 -13.597656 2.03125 -12.984375 C 1.582031 -12.367188 1.226562 -11.640625 0.96875 -10.796875 C 0.707031 -9.953125 0.578125 -9.03125 0.578125 -8.03125 C 0.578125 -7.21875 0.660156 -6.335938 0.828125 -5.390625 C 1.003906 -4.453125 1.269531 -3.578125 1.625 -2.765625 C 1.988281 -1.960938 2.445312 -1.289062 3 -0.75 C 3.550781 -0.207031 4.222656 0.0625 5.015625 0.0625 C 5.710938 0.0625 6.425781 -0.109375 7.15625 -0.453125 C 7.894531 -0.796875 8.503906 -1.207031 8.984375 -1.6875 C 8.984375 -1.488281 8.960938 -1.316406 8.921875 -1.171875 C 8.890625 -1.035156 8.875 -0.859375 8.875 -0.640625 C 8.875 -0.472656 8.894531 -0.328125 8.9375 -0.203125 C 8.988281 -0.0859375 9.085938 -0.0078125 9.234375 0.03125 C 9.453125 0.03125 9.664062 0.015625 9.875 -0.015625 C 10.09375 -0.046875 10.3125 -0.0625 10.53125 -0.0625 C 10.851562 -0.0625 11.179688 -0.046875 11.515625 -0.015625 C 11.847656 0.015625 12.171875 0.03125 12.484375 0.03125 L 12.859375 0.03125 C 13.097656 -0.0078125 13.222656 -0.160156 13.234375 -0.421875 C 13.242188 -0.679688 13.25 -0.941406 13.25 -1.203125 C 13.382812 -3.359375 13.410156 -5.484375 13.328125 -7.578125 C 13.253906 -9.679688 13.25 -11.820312 13.3125 -14 L 13.3125 -14.296875 C 13.3125 -14.421875 13.304688 -14.539062 13.296875 -14.65625 C 13.285156 -14.78125 13.269531 -14.90625 13.25 -15.03125 Z M 4.46875 -9.015625 C 4.5625 -9.523438 4.84375 -9.972656 5.3125 -10.359375 C 5.789062 -10.753906 6.441406 -10.953125 7.265625 -10.953125 C 7.691406 -10.953125 8.007812 -10.921875 8.21875 -10.859375 C 8.425781 -10.796875 8.578125 -10.65625 8.671875 -10.4375 C 8.765625 -10.21875 8.816406 -9.898438 8.828125 -9.484375 C 8.835938 -9.078125 8.84375 -8.519531 8.84375 -7.8125 C 8.84375 -7.25 8.835938 -6.738281 8.828125 -6.28125 C 8.816406 -5.832031 8.753906 -5.453125 8.640625 -5.140625 C 8.535156 -4.828125 8.351562 -4.582031 8.09375 -4.40625 C 7.84375 -4.238281 7.46875 -4.15625 6.96875 -4.15625 C 6.125 -4.15625 5.460938 -4.472656 4.984375 -5.109375 C 4.515625 -5.742188 4.28125 -6.515625 4.28125 -7.421875 C 4.28125 -7.679688 4.289062 -7.945312 4.3125 -8.21875 C 4.332031 -8.488281 4.382812 -8.753906 4.46875 -9.015625 Z M 4.46875 -9.015625" transform="translate(118.335 26.101)"/></g></g></g><g fill="#21212D"><g><g><path d="M 5.09375 -13.453125 C 5.070312 -13.734375 5.066406 -13.984375 5.078125 -14.203125 C 5.085938 -14.429688 5.070312 -14.71875 5.03125 -15.0625 C 5.03125 -15.113281 4.953125 -15.144531 4.796875 -15.15625 C 4.640625 -15.164062 4.457031 -15.160156 4.25 -15.140625 C 4.050781 -15.117188 3.847656 -15.09375 3.640625 -15.0625 C 3.441406 -15.039062 3.304688 -15.03125 3.234375 -15.03125 C 2.984375 -15.007812 2.78125 -14.992188 2.625 -14.984375 C 2.46875 -14.972656 2.316406 -14.96875 2.171875 -14.96875 C 2.035156 -14.96875 1.882812 -14.972656 1.71875 -14.984375 C 1.5625 -14.992188 1.359375 -15.007812 1.109375 -15.03125 C 1.035156 -12.375 1.019531 -9.804688 1.0625 -7.328125 C 1.113281 -4.859375 1.140625 -2.382812 1.140625 0.09375 C 1.628906 0.0507812 2.035156 0.0390625 2.359375 0.0625 C 2.679688 0.0820312 2.972656 0.0976562 3.234375 0.109375 C 3.492188 0.117188 3.75 0.113281 4 0.09375 C 4.25 0.0703125 4.546875 0.0078125 4.890625 -0.09375 L 4.890625 -0.21875 C 4.972656 -0.875 5.015625 -1.535156 5.015625 -2.203125 C 5.015625 -2.867188 5 -3.535156 4.96875 -4.203125 C 4.9375 -4.878906 4.910156 -5.550781 4.890625 -6.21875 C 4.867188 -6.894531 4.878906 -7.585938 4.921875 -8.296875 C 4.960938 -8.835938 5.101562 -9.242188 5.34375 -9.515625 C 5.582031 -9.785156 5.851562 -9.96875 6.15625 -10.0625 C 6.457031 -10.15625 6.765625 -10.175781 7.078125 -10.125 C 7.390625 -10.070312 7.625 -10.003906 7.78125 -9.921875 C 7.800781 -9.898438 7.820312 -9.890625 7.84375 -9.890625 C 7.863281 -9.890625 7.882812 -9.878906 7.90625 -9.859375 C 8.0625 -9.742188 8.1875 -9.570312 8.28125 -9.34375 C 8.375 -9.125 8.441406 -8.875 8.484375 -8.59375 C 8.535156 -8.3125 8.570312 -8.023438 8.59375 -7.734375 C 8.613281 -7.441406 8.632812 -7.175781 8.65625 -6.9375 C 8.695312 -6.394531 8.722656 -5.8125 8.734375 -5.1875 C 8.742188 -4.5625 8.742188 -3.9375 8.734375 -3.3125 C 8.722656 -2.695312 8.71875 -2.097656 8.71875 -1.515625 C 8.71875 -0.929688 8.738281 -0.40625 8.78125 0.0625 C 9.488281 0.0625 10.117188 0.0664062 10.671875 0.078125 C 11.222656 0.0859375 11.847656 0.0390625 12.546875 -0.0625 C 12.503906 -0.75 12.492188 -1.539062 12.515625 -2.4375 C 12.535156 -3.34375 12.554688 -4.285156 12.578125 -5.265625 C 12.597656 -6.242188 12.613281 -7.207031 12.625 -8.15625 C 12.632812 -9.113281 12.625 -9.992188 12.59375 -10.796875 C 12.5625 -11.609375 12.488281 -12.300781 12.375 -12.875 C 12.269531 -13.445312 12.117188 -13.820312 11.921875 -14 C 11.492188 -14.363281 11.019531 -14.613281 10.5 -14.75 C 9.976562 -14.894531 9.441406 -14.957031 8.890625 -14.9375 C 8.335938 -14.914062 7.796875 -14.8125 7.265625 -14.625 C 6.742188 -14.445312 6.273438 -14.207031 5.859375 -13.90625 C 5.753906 -13.820312 5.625 -13.738281 5.46875 -13.65625 C 5.320312 -13.582031 5.195312 -13.515625 5.09375 -13.453125 Z M 5.09375 -13.453125" transform="translate(132.693 26.101)"/></g></g></g></svg>