<svg xmlns="http://www.w3.org/2000/svg" width="120" viewBox="0 0 120 37.5" height="37.5" version="1.0"><defs><clipPath id="a"><path d="M 6 3.699219 L 27 3.699219 L 27 12 L 6 12 Z M 6 3.699219"/></clipPath><clipPath id="b"><path d="M 12 3.699219 L 20 3.699219 L 20 16 L 12 16 Z M 12 3.699219"/></clipPath><clipPath id="c"><path d="M 18 13 L 32.613281 13 L 32.613281 32 L 18 32 Z M 18 13"/></clipPath><clipPath id="d"><path d="M 14 20 L 22 20 L 22 33.304688 L 14 33.304688 Z M 14 20"/></clipPath><clipPath id="e"><path d="M 0.789062 14 L 16 14 L 16 32 L 0.789062 32 Z M 0.789062 14"/></clipPath></defs><path fill="#6ABE52" d="M 25.296875 10.496094 C 25.304688 10.511719 25.320312 10.523438 25.332031 10.535156 L 23.972656 15.636719 L 19.136719 14.324219 L 13.757812 5.015625 L 22.160156 5.015625 Z M 25.296875 10.496094"/><path fill="#6ABE52" d="M 25.898438 30.46875 L 19.621094 30.453125 C 19.601562 30.453125 19.585938 30.460938 19.566406 30.464844 L 15.875 26.71875 L 19.425781 23.160156 L 30.101562 23.160156 Z M 25.898438 30.46875"/><path fill="#6ABE52" d="M 5.085938 15.175781 C 5.09375 15.15625 5.097656 15.140625 5.101562 15.121094 L 10.167969 13.773438 L 11.445312 18.65625 L 6.136719 28.03125 L 1.933594 20.644531 Z M 5.085938 15.175781"/><g clip-path="url(#a)"><path fill="#21212D" d="M 7.074219 11.707031 C 6.957031 11.707031 6.839844 11.675781 6.730469 11.613281 C 6.398438 11.417969 6.285156 10.992188 6.476562 10.65625 L 10.160156 4.222656 C 10.285156 4.007812 10.515625 3.871094 10.761719 3.871094 L 22.34375 3.871094 C 22.59375 3.871094 22.820312 4.007812 22.945312 4.222656 L 26.179688 9.878906 C 26.371094 10.210938 26.257812 10.640625 25.925781 10.832031 C 25.59375 11.027344 25.171875 10.910156 24.980469 10.578125 L 21.945312 5.269531 L 11.160156 5.269531 L 7.675781 11.355469 C 7.546875 11.582031 7.316406 11.707031 7.074219 11.707031 Z M 7.074219 11.707031"/></g><g clip-path="url(#b)"><path fill="#21212D" d="M 18.894531 15.230469 C 18.65625 15.230469 18.421875 15.105469 18.292969 14.882812 L 12.539062 4.925781 C 12.347656 4.589844 12.460938 4.164062 12.789062 3.96875 C 13.121094 3.773438 13.546875 3.886719 13.738281 4.21875 L 19.492188 14.179688 C 19.683594 14.511719 19.570312 14.941406 19.242188 15.136719 C 19.132812 15.199219 19.011719 15.230469 18.894531 15.230469 Z M 18.894531 15.230469"/></g><path fill="#21212D" d="M 24.203125 16.671875 C 24.140625 16.671875 24.082031 16.660156 24.019531 16.644531 L 16.027344 14.476562 C 15.660156 14.378906 15.441406 13.992188 15.539062 13.621094 C 15.640625 13.246094 16.019531 13.027344 16.390625 13.128906 L 23.710938 15.113281 L 25.683594 7.730469 C 25.78125 7.359375 26.164062 7.136719 26.53125 7.238281 C 26.902344 7.339844 27.121094 7.722656 27.019531 8.09375 L 24.871094 16.152344 C 24.785156 16.464844 24.507812 16.671875 24.203125 16.671875 Z M 24.203125 16.671875"/><g clip-path="url(#c)"><path fill="#21212D" d="M 26.082031 31.425781 C 26.082031 31.425781 26.078125 31.425781 26.078125 31.425781 L 19.605469 31.410156 C 19.222656 31.410156 18.914062 31.09375 18.914062 30.710938 C 18.914062 30.324219 19.226562 30.011719 19.605469 30.011719 C 19.609375 30.011719 19.609375 30.011719 19.609375 30.011719 L 25.683594 30.023438 L 31.089844 20.621094 L 27.621094 14.527344 C 27.429688 14.191406 27.542969 13.765625 27.875 13.574219 C 28.207031 13.382812 28.632812 13.496094 28.820312 13.832031 L 32.492188 20.273438 C 32.617188 20.488281 32.617188 20.757812 32.492188 20.972656 L 26.679688 31.074219 C 26.558594 31.292969 26.328125 31.425781 26.082031 31.425781 Z M 26.082031 31.425781"/></g><g clip-path="url(#d)"><path fill="#21212D" d="M 21.207031 33.242188 C 21.027344 33.242188 20.847656 33.175781 20.714844 33.039062 L 14.878906 27.121094 C 14.609375 26.847656 14.613281 26.402344 14.882812 26.132812 L 20.753906 20.246094 C 21.023438 19.972656 21.460938 19.976562 21.734375 20.25 C 22.003906 20.523438 22 20.964844 21.730469 21.238281 L 16.351562 26.628906 L 21.695312 32.050781 C 21.96875 32.324219 21.964844 32.769531 21.695312 33.039062 C 21.558594 33.175781 21.382812 33.242188 21.207031 33.242188 Z M 21.207031 33.242188"/></g><g clip-path="url(#e)"><path fill="#21212D" d="M 14.648438 31.402344 L 7.277344 31.382812 C 7.03125 31.378906 6.800781 31.246094 6.679688 31.03125 L 0.914062 20.898438 C 0.792969 20.679688 0.792969 20.414062 0.917969 20.199219 L 4.171875 14.554688 C 4.363281 14.222656 4.789062 14.109375 5.121094 14.300781 C 5.449219 14.496094 5.5625 14.921875 5.371094 15.257812 L 2.316406 20.550781 L 7.683594 29.984375 L 14.652344 30.003906 C 15.035156 30.003906 15.34375 30.320312 15.34375 30.707031 C 15.339844 31.089844 15.03125 31.402344 14.648438 31.402344 Z M 14.648438 31.402344"/></g><path fill="#21212D" d="M 6.121094 29.34375 C 6.003906 29.34375 5.882812 29.3125 5.777344 29.25 C 5.445312 29.058594 5.328125 28.632812 5.519531 28.296875 L 11.199219 18.269531 C 11.390625 17.933594 11.8125 17.816406 12.144531 18.007812 C 12.476562 18.199219 12.59375 18.625 12.402344 18.960938 L 6.722656 28.992188 C 6.59375 29.214844 6.359375 29.34375 6.121094 29.34375 Z M 6.121094 29.34375"/><path fill="#21212D" d="M 12.507812 22.023438 C 12.203125 22.023438 11.921875 21.816406 11.839844 21.503906 L 9.90625 14.109375 L 2.574219 16.058594 C 2.203125 16.15625 1.824219 15.9375 1.726562 15.5625 C 1.628906 15.1875 1.851562 14.808594 2.222656 14.707031 L 10.222656 12.578125 C 10.398438 12.53125 10.589844 12.558594 10.746094 12.652344 C 10.90625 12.746094 11.023438 12.898438 11.070312 13.078125 L 13.179688 21.144531 C 13.277344 21.519531 13.058594 21.902344 12.6875 22 C 12.628906 22.015625 12.570312 22.023438 12.507812 22.023438 Z M 12.507812 22.023438"/><path fill="#21212D" d="M 30.636719 23.417969 L 19.269531 23.417969 C 18.886719 23.417969 18.578125 23.105469 18.578125 22.71875 C 18.578125 22.332031 18.886719 22.019531 19.269531 22.019531 L 30.636719 22.019531 C 31.019531 22.019531 31.332031 22.332031 31.332031 22.71875 C 31.332031 23.105469 31.019531 23.417969 30.636719 23.417969 Z M 30.636719 23.417969"/><g fill="#21212D"><g><g><path d="M 3.015625 -5.296875 C 3.015625 -5.453125 3.015625 -5.597656 3.015625 -5.734375 C 3.015625 -5.878906 3.03125 -6.023438 3.0625 -6.171875 C 3.125 -6.515625 3.234375 -6.835938 3.390625 -7.140625 C 3.546875 -7.453125 3.734375 -7.734375 3.953125 -7.984375 C 4.140625 -8.140625 4.347656 -8.25 4.578125 -8.3125 C 4.804688 -8.375 5.039062 -8.390625 5.28125 -8.359375 C 5.519531 -8.335938 5.738281 -8.257812 5.9375 -8.125 C 6.144531 -8 6.289062 -7.828125 6.375 -7.609375 C 6.519531 -7.035156 6.601562 -6.441406 6.625 -5.828125 C 6.65625 -5.210938 6.671875 -4.601562 6.671875 -4 C 6.648438 -3.863281 6.628906 -3.722656 6.609375 -3.578125 C 6.585938 -3.441406 6.550781 -3.3125 6.5 -3.1875 C 6.457031 -3.0625 6.398438 -2.945312 6.328125 -2.84375 C 6.253906 -2.75 6.148438 -2.679688 6.015625 -2.640625 C 5.628906 -2.523438 5.210938 -2.5 4.765625 -2.5625 C 4.316406 -2.625 3.957031 -2.820312 3.6875 -3.15625 C 3.238281 -3.6875 3.015625 -4.332031 3.015625 -5.09375 Z M 6.890625 4.46875 C 7.066406 4.457031 7.257812 4.425781 7.46875 4.375 C 7.675781 4.332031 7.882812 4.253906 8.09375 4.140625 C 8.300781 4.035156 8.515625 3.882812 8.734375 3.6875 C 8.953125 3.5 9.164062 3.238281 9.375 2.90625 C 9.519531 2.664062 9.582031 2.367188 9.5625 2.015625 C 9.550781 1.671875 9.554688 1.320312 9.578125 0.96875 C 9.660156 -1.1875 9.695312 -3.28125 9.6875 -5.3125 C 9.6875 -7.351562 9.65625 -9.304688 9.59375 -11.171875 C 9.09375 -11.171875 8.585938 -11.179688 8.078125 -11.203125 C 7.566406 -11.222656 7.066406 -11.203125 6.578125 -11.140625 C 6.535156 -11.066406 6.515625 -10.96875 6.515625 -10.84375 C 6.523438 -10.71875 6.535156 -10.585938 6.546875 -10.453125 C 6.554688 -10.328125 6.554688 -10.222656 6.546875 -10.140625 C 6.535156 -10.066406 6.5 -10.039062 6.4375 -10.0625 C 6.257812 -10.476562 5.960938 -10.765625 5.546875 -10.921875 C 5.140625 -11.085938 4.703125 -11.15625 4.234375 -11.125 C 3.273438 -11.0625 2.539062 -10.785156 2.03125 -10.296875 C 1.53125 -9.816406 1.160156 -9.222656 0.921875 -8.515625 C 0.691406 -7.804688 0.5625 -7.046875 0.53125 -6.234375 C 0.507812 -5.429688 0.5 -4.679688 0.5 -3.984375 C 0.519531 -3.523438 0.578125 -3.070312 0.671875 -2.625 C 0.765625 -2.1875 0.914062 -1.765625 1.125 -1.359375 C 1.25 -1.078125 1.414062 -0.847656 1.625 -0.671875 C 1.84375 -0.492188 2.082031 -0.351562 2.34375 -0.25 C 2.601562 -0.144531 2.878906 -0.0664062 3.171875 -0.015625 C 3.460938 0.0234375 3.75 0.046875 4.03125 0.046875 C 4.238281 0.0234375 4.460938 0.015625 4.703125 0.015625 C 4.941406 0.015625 5.175781 0.00390625 5.40625 -0.015625 C 5.632812 -0.046875 5.847656 -0.0976562 6.046875 -0.171875 C 6.253906 -0.253906 6.429688 -0.375 6.578125 -0.53125 C 6.546875 -0.269531 6.546875 -0.0078125 6.578125 0.25 C 6.585938 0.363281 6.585938 0.5 6.578125 0.65625 C 6.566406 0.8125 6.550781 0.96875 6.53125 1.125 C 6.445312 1.539062 6.257812 1.835938 5.96875 2.015625 C 5.675781 2.191406 5.375 2.265625 5.0625 2.234375 C 4.757812 2.203125 4.484375 2.070312 4.234375 1.84375 C 3.992188 1.613281 3.875 1.304688 3.875 0.921875 C 3.695312 0.890625 3.472656 0.863281 3.203125 0.84375 C 2.941406 0.820312 2.671875 0.804688 2.390625 0.796875 C 2.117188 0.785156 1.859375 0.789062 1.609375 0.8125 C 1.359375 0.832031 1.15625 0.875 1 0.9375 C 0.988281 1.0625 0.984375 1.203125 0.984375 1.359375 C 0.992188 1.523438 1.019531 1.695312 1.0625 1.875 C 1.101562 2.050781 1.148438 2.222656 1.203125 2.390625 C 1.253906 2.566406 1.304688 2.707031 1.359375 2.8125 C 1.703125 3.320312 2.148438 3.722656 2.703125 4.015625 C 3.253906 4.316406 3.882812 4.46875 4.59375 4.46875 C 5.195312 4.46875 5.691406 4.472656 6.078125 4.484375 C 6.472656 4.503906 6.742188 4.5 6.890625 4.46875 Z M 6.890625 4.46875" transform="translate(34.633 26.646)"/></g></g></g><g fill="#21212D"><g><g><path d="M 3.875 -10.40625 C 3.875 -10.507812 3.867188 -10.582031 3.859375 -10.625 C 3.847656 -10.664062 3.84375 -10.707031 3.84375 -10.75 C 3.84375 -10.789062 3.84375 -10.835938 3.84375 -10.890625 C 3.84375 -10.953125 3.84375 -11.046875 3.84375 -11.171875 C 3.84375 -11.191406 3.78125 -11.207031 3.65625 -11.21875 C 3.53125 -11.226562 3.378906 -11.222656 3.203125 -11.203125 C 3.035156 -11.191406 2.875 -11.175781 2.71875 -11.15625 C 2.5625 -11.144531 2.453125 -11.140625 2.390625 -11.140625 C 2.210938 -11.128906 2.0625 -11.117188 1.9375 -11.109375 C 1.820312 -11.097656 1.710938 -11.09375 1.609375 -11.09375 C 1.503906 -11.09375 1.390625 -11.097656 1.265625 -11.109375 C 1.148438 -11.117188 1.003906 -11.128906 0.828125 -11.140625 C 0.765625 -9.171875 0.75 -7.269531 0.78125 -5.4375 C 0.820312 -3.601562 0.84375 -1.769531 0.84375 0.0625 C 1.207031 0.03125 1.519531 0.0195312 1.78125 0.03125 C 2.039062 0.0507812 2.28125 0.0664062 2.5 0.078125 C 2.726562 0.0859375 2.945312 0.0820312 3.15625 0.0625 C 3.363281 0.0507812 3.59375 0.0078125 3.84375 -0.0625 L 3.84375 -0.15625 C 3.84375 -0.707031 3.835938 -1.222656 3.828125 -1.703125 C 3.828125 -2.191406 3.828125 -2.671875 3.828125 -3.140625 C 3.828125 -3.609375 3.816406 -4.070312 3.796875 -4.53125 C 3.785156 -5 3.773438 -5.492188 3.765625 -6.015625 C 3.742188 -6.429688 3.800781 -6.75 3.9375 -6.96875 C 4.070312 -7.195312 4.257812 -7.363281 4.5 -7.46875 C 4.75 -7.570312 5.039062 -7.625 5.375 -7.625 C 5.71875 -7.625 6.085938 -7.601562 6.484375 -7.5625 C 6.503906 -7.5625 6.609375 -7.546875 6.796875 -7.515625 C 6.984375 -7.484375 7.164062 -7.445312 7.34375 -7.40625 C 7.414062 -7.375 7.492188 -7.347656 7.578125 -7.328125 C 7.660156 -7.304688 7.738281 -7.28125 7.8125 -7.25 L 8.015625 -7.1875 C 7.992188 -7.40625 7.984375 -7.640625 7.984375 -7.890625 C 7.984375 -8.148438 7.984375 -8.429688 7.984375 -8.734375 C 7.984375 -9.046875 7.988281 -9.394531 8 -9.78125 C 8.007812 -10.164062 8.015625 -10.613281 8.015625 -11.125 C 8.015625 -11.132812 7.90625 -11.144531 7.6875 -11.15625 C 7.46875 -11.164062 7.203125 -11.160156 6.890625 -11.140625 C 6.578125 -11.128906 6.238281 -11.097656 5.875 -11.046875 C 5.519531 -10.992188 5.203125 -10.921875 4.921875 -10.828125 C 4.710938 -10.753906 4.5 -10.671875 4.28125 -10.578125 C 4.0625 -10.492188 3.925781 -10.4375 3.875 -10.40625 Z M 3.875 -10.40625" transform="translate(45.083 26.646)"/></g></g></g><g fill="#21212D"><g><g><path d="M 3.484375 -5.609375 C 3.640625 -5.585938 3.878906 -5.566406 4.203125 -5.546875 C 4.535156 -5.535156 4.90625 -5.53125 5.3125 -5.53125 C 5.71875 -5.53125 6.144531 -5.535156 6.59375 -5.546875 C 7.039062 -5.566406 7.460938 -5.585938 7.859375 -5.609375 C 8.253906 -5.640625 8.597656 -5.671875 8.890625 -5.703125 C 9.179688 -5.734375 9.378906 -5.765625 9.484375 -5.796875 C 9.523438 -6.421875 9.523438 -7.035156 9.484375 -7.640625 C 9.441406 -8.253906 9.3125 -8.816406 9.09375 -9.328125 C 8.875 -9.835938 8.554688 -10.269531 8.140625 -10.625 C 7.722656 -10.988281 7.171875 -11.226562 6.484375 -11.34375 C 5.953125 -11.476562 5.398438 -11.535156 4.828125 -11.515625 C 4.265625 -11.503906 3.726562 -11.421875 3.21875 -11.265625 C 2.71875 -11.109375 2.265625 -10.875 1.859375 -10.5625 C 1.453125 -10.257812 1.15625 -9.894531 0.96875 -9.46875 C 0.78125 -8.96875 0.660156 -8.460938 0.609375 -7.953125 C 0.554688 -7.441406 0.507812 -6.910156 0.46875 -6.359375 C 0.4375 -5.742188 0.453125 -5.128906 0.515625 -4.515625 C 0.578125 -3.910156 0.6875 -3.332031 0.84375 -2.78125 C 1.007812 -2.238281 1.226562 -1.738281 1.5 -1.28125 C 1.769531 -0.832031 2.101562 -0.460938 2.5 -0.171875 C 2.863281 0.0351562 3.253906 0.164062 3.671875 0.21875 C 4.085938 0.21875 4.546875 0.234375 5.046875 0.265625 C 5.546875 0.296875 6.035156 0.296875 6.515625 0.265625 C 6.992188 0.234375 7.429688 0.144531 7.828125 0 C 8.234375 -0.144531 8.5625 -0.398438 8.8125 -0.765625 C 8.914062 -0.847656 9 -1.003906 9.0625 -1.234375 C 9.132812 -1.472656 9.191406 -1.75 9.234375 -2.0625 C 9.285156 -2.382812 9.320312 -2.734375 9.34375 -3.109375 C 9.375 -3.484375 9.40625 -3.863281 9.4375 -4.25 C 9.28125 -4.289062 9.070312 -4.316406 8.8125 -4.328125 C 8.5625 -4.335938 8.296875 -4.332031 8.015625 -4.3125 C 7.742188 -4.300781 7.476562 -4.289062 7.21875 -4.28125 C 6.96875 -4.28125 6.769531 -4.285156 6.625 -4.296875 C 6.65625 -3.679688 6.5625 -3.222656 6.34375 -2.921875 C 6.125 -2.617188 5.859375 -2.4375 5.546875 -2.375 C 5.234375 -2.3125 4.910156 -2.363281 4.578125 -2.53125 C 4.253906 -2.695312 4.003906 -2.953125 3.828125 -3.296875 C 3.660156 -3.554688 3.566406 -3.828125 3.546875 -4.109375 C 3.523438 -4.398438 3.503906 -4.769531 3.484375 -5.21875 Z M 6.203125 -9.078125 C 6.460938 -8.953125 6.671875 -8.753906 6.828125 -8.484375 C 6.992188 -8.210938 7.078125 -7.925781 7.078125 -7.625 C 7.078125 -7.507812 7.078125 -7.429688 7.078125 -7.390625 C 7.078125 -7.359375 7.035156 -7.335938 6.953125 -7.328125 C 6.867188 -7.316406 6.726562 -7.316406 6.53125 -7.328125 C 6.34375 -7.347656 6.050781 -7.359375 5.65625 -7.359375 C 5.09375 -7.359375 4.664062 -7.351562 4.375 -7.34375 C 4.082031 -7.34375 3.867188 -7.351562 3.734375 -7.375 C 3.597656 -7.394531 3.523438 -7.4375 3.515625 -7.5 C 3.515625 -7.570312 3.53125 -7.691406 3.5625 -7.859375 C 3.59375 -8.046875 3.640625 -8.226562 3.703125 -8.40625 C 3.765625 -8.59375 3.863281 -8.75 4 -8.875 C 4.132812 -9.007812 4.3125 -9.113281 4.53125 -9.1875 C 4.757812 -9.269531 5.054688 -9.3125 5.421875 -9.3125 C 5.578125 -9.3125 5.710938 -9.289062 5.828125 -9.25 C 5.953125 -9.21875 6.078125 -9.160156 6.203125 -9.078125 Z M 6.203125 -9.078125" transform="translate(53.318 26.646)"/></g></g></g><g fill="#21212D"><g><g><path d="M 3.484375 -5.609375 C 3.640625 -5.585938 3.878906 -5.566406 4.203125 -5.546875 C 4.535156 -5.535156 4.90625 -5.53125 5.3125 -5.53125 C 5.71875 -5.53125 6.144531 -5.535156 6.59375 -5.546875 C 7.039062 -5.566406 7.460938 -5.585938 7.859375 -5.609375 C 8.253906 -5.640625 8.597656 -5.671875 8.890625 -5.703125 C 9.179688 -5.734375 9.378906 -5.765625 9.484375 -5.796875 C 9.523438 -6.421875 9.523438 -7.035156 9.484375 -7.640625 C 9.441406 -8.253906 9.3125 -8.816406 9.09375 -9.328125 C 8.875 -9.835938 8.554688 -10.269531 8.140625 -10.625 C 7.722656 -10.988281 7.171875 -11.226562 6.484375 -11.34375 C 5.953125 -11.476562 5.398438 -11.535156 4.828125 -11.515625 C 4.265625 -11.503906 3.726562 -11.421875 3.21875 -11.265625 C 2.71875 -11.109375 2.265625 -10.875 1.859375 -10.5625 C 1.453125 -10.257812 1.15625 -9.894531 0.96875 -9.46875 C 0.78125 -8.96875 0.660156 -8.460938 0.609375 -7.953125 C 0.554688 -7.441406 0.507812 -6.910156 0.46875 -6.359375 C 0.4375 -5.742188 0.453125 -5.128906 0.515625 -4.515625 C 0.578125 -3.910156 0.6875 -3.332031 0.84375 -2.78125 C 1.007812 -2.238281 1.226562 -1.738281 1.5 -1.28125 C 1.769531 -0.832031 2.101562 -0.460938 2.5 -0.171875 C 2.863281 0.0351562 3.253906 0.164062 3.671875 0.21875 C 4.085938 0.21875 4.546875 0.234375 5.046875 0.265625 C 5.546875 0.296875 6.035156 0.296875 6.515625 0.265625 C 6.992188 0.234375 7.429688 0.144531 7.828125 0 C 8.234375 -0.144531 8.5625 -0.398438 8.8125 -0.765625 C 8.914062 -0.847656 9 -1.003906 9.0625 -1.234375 C 9.132812 -1.472656 9.191406 -1.75 9.234375 -2.0625 C 9.285156 -2.382812 9.320312 -2.734375 9.34375 -3.109375 C 9.375 -3.484375 9.40625 -3.863281 9.4375 -4.25 C 9.28125 -4.289062 9.070312 -4.316406 8.8125 -4.328125 C 8.5625 -4.335938 8.296875 -4.332031 8.015625 -4.3125 C 7.742188 -4.300781 7.476562 -4.289062 7.21875 -4.28125 C 6.96875 -4.28125 6.769531 -4.285156 6.625 -4.296875 C 6.65625 -3.679688 6.5625 -3.222656 6.34375 -2.921875 C 6.125 -2.617188 5.859375 -2.4375 5.546875 -2.375 C 5.234375 -2.3125 4.910156 -2.363281 4.578125 -2.53125 C 4.253906 -2.695312 4.003906 -2.953125 3.828125 -3.296875 C 3.660156 -3.554688 3.566406 -3.828125 3.546875 -4.109375 C 3.523438 -4.398438 3.503906 -4.769531 3.484375 -5.21875 Z M 6.203125 -9.078125 C 6.460938 -8.953125 6.671875 -8.753906 6.828125 -8.484375 C 6.992188 -8.210938 7.078125 -7.925781 7.078125 -7.625 C 7.078125 -7.507812 7.078125 -7.429688 7.078125 -7.390625 C 7.078125 -7.359375 7.035156 -7.335938 6.953125 -7.328125 C 6.867188 -7.316406 6.726562 -7.316406 6.53125 -7.328125 C 6.34375 -7.347656 6.050781 -7.359375 5.65625 -7.359375 C 5.09375 -7.359375 4.664062 -7.351562 4.375 -7.34375 C 4.082031 -7.34375 3.867188 -7.351562 3.734375 -7.375 C 3.597656 -7.394531 3.523438 -7.4375 3.515625 -7.5 C 3.515625 -7.570312 3.53125 -7.691406 3.5625 -7.859375 C 3.59375 -8.046875 3.640625 -8.226562 3.703125 -8.40625 C 3.765625 -8.59375 3.863281 -8.75 4 -8.875 C 4.132812 -9.007812 4.3125 -9.113281 4.53125 -9.1875 C 4.757812 -9.269531 5.054688 -9.3125 5.421875 -9.3125 C 5.578125 -9.3125 5.710938 -9.289062 5.828125 -9.25 C 5.953125 -9.21875 6.078125 -9.160156 6.203125 -9.078125 Z M 6.203125 -9.078125" transform="translate(63.253 26.646)"/></g></g></g><g fill="#21212D"><g><g><path d="M 3.78125 -9.984375 C 3.769531 -10.191406 3.765625 -10.375 3.765625 -10.53125 C 3.773438 -10.695312 3.765625 -10.910156 3.734375 -11.171875 C 3.734375 -11.210938 3.671875 -11.234375 3.546875 -11.234375 C 3.429688 -11.242188 3.300781 -11.238281 3.15625 -11.21875 C 3.007812 -11.207031 2.859375 -11.191406 2.703125 -11.171875 C 2.554688 -11.148438 2.453125 -11.140625 2.390625 -11.140625 C 2.210938 -11.128906 2.0625 -11.117188 1.9375 -11.109375 C 1.820312 -11.097656 1.710938 -11.09375 1.609375 -11.09375 C 1.503906 -11.09375 1.390625 -11.097656 1.265625 -11.109375 C 1.148438 -11.117188 1.003906 -11.128906 0.828125 -11.140625 C 0.765625 -9.171875 0.75 -7.269531 0.78125 -5.4375 C 0.820312 -3.601562 0.84375 -1.769531 0.84375 0.0625 C 1.207031 0.03125 1.507812 0.0195312 1.75 0.03125 C 1.988281 0.0507812 2.203125 0.0664062 2.390625 0.078125 C 2.585938 0.0859375 2.78125 0.0820312 2.96875 0.0625 C 3.15625 0.0507812 3.375 0.0078125 3.625 -0.0625 L 3.625 -0.15625 C 3.6875 -0.644531 3.71875 -1.132812 3.71875 -1.625 C 3.71875 -2.125 3.703125 -2.625 3.671875 -3.125 C 3.648438 -3.625 3.632812 -4.125 3.625 -4.625 C 3.613281 -5.125 3.617188 -5.632812 3.640625 -6.15625 C 3.671875 -6.550781 3.773438 -6.847656 3.953125 -7.046875 C 4.140625 -7.253906 4.34375 -7.390625 4.5625 -7.453125 C 4.789062 -7.523438 5.019531 -7.539062 5.25 -7.5 C 5.476562 -7.46875 5.648438 -7.421875 5.765625 -7.359375 C 5.785156 -7.347656 5.800781 -7.34375 5.8125 -7.34375 C 5.832031 -7.34375 5.847656 -7.332031 5.859375 -7.3125 C 5.984375 -7.226562 6.078125 -7.101562 6.140625 -6.9375 C 6.210938 -6.769531 6.265625 -6.582031 6.296875 -6.375 C 6.335938 -6.164062 6.363281 -5.953125 6.375 -5.734375 C 6.394531 -5.523438 6.410156 -5.328125 6.421875 -5.140625 C 6.453125 -4.742188 6.46875 -4.3125 6.46875 -3.84375 C 6.476562 -3.382812 6.476562 -2.921875 6.46875 -2.453125 C 6.46875 -1.992188 6.46875 -1.546875 6.46875 -1.109375 C 6.46875 -0.679688 6.484375 -0.296875 6.515625 0.046875 C 7.035156 0.046875 7.5 0.046875 7.90625 0.046875 C 8.320312 0.0546875 8.789062 0.0234375 9.3125 -0.046875 C 9.28125 -0.554688 9.269531 -1.144531 9.28125 -1.8125 C 9.300781 -2.476562 9.316406 -3.171875 9.328125 -3.890625 C 9.347656 -4.617188 9.359375 -5.335938 9.359375 -6.046875 C 9.367188 -6.753906 9.363281 -7.40625 9.34375 -8 C 9.320312 -8.601562 9.269531 -9.117188 9.1875 -9.546875 C 9.101562 -9.972656 8.988281 -10.25 8.84375 -10.375 C 8.53125 -10.644531 8.175781 -10.832031 7.78125 -10.9375 C 7.394531 -11.039062 6.992188 -11.082031 6.578125 -11.0625 C 6.171875 -11.050781 5.773438 -10.976562 5.390625 -10.84375 C 5.003906 -10.71875 4.65625 -10.539062 4.34375 -10.3125 C 4.269531 -10.25 4.175781 -10.1875 4.0625 -10.125 C 3.945312 -10.070312 3.851562 -10.023438 3.78125 -9.984375 Z M 3.78125 -9.984375" transform="translate(73.189 26.646)"/></g></g></g><g fill="#21212D"><g><g><path d="M 4.3125 -12.125 C 4.4375 -12.25 4.601562 -12.332031 4.8125 -12.375 C 5.03125 -12.414062 5.238281 -12.453125 5.4375 -12.484375 C 5.875 -12.492188 6.191406 -12.398438 6.390625 -12.203125 C 6.585938 -12.015625 6.722656 -11.769531 6.796875 -11.46875 C 6.867188 -11.164062 6.910156 -10.832031 6.921875 -10.46875 C 6.929688 -10.113281 6.957031 -9.796875 7 -9.515625 C 7.570312 -9.410156 8.117188 -9.335938 8.640625 -9.296875 C 9.171875 -9.253906 9.710938 -9.296875 10.265625 -9.421875 C 10.503906 -10.109375 10.59375 -10.78125 10.53125 -11.4375 C 10.476562 -12.09375 10.304688 -12.695312 10.015625 -13.25 C 9.734375 -13.8125 9.351562 -14.304688 8.875 -14.734375 C 8.40625 -15.171875 7.875 -15.519531 7.28125 -15.78125 C 6.695312 -16.039062 6.066406 -16.191406 5.390625 -16.234375 C 4.722656 -16.285156 4.046875 -16.195312 3.359375 -15.96875 C 3.148438 -15.914062 2.945312 -15.847656 2.75 -15.765625 C 2.5625 -15.679688 2.382812 -15.582031 2.21875 -15.46875 C 1.9375 -15.207031 1.691406 -14.910156 1.484375 -14.578125 C 1.285156 -14.253906 1.117188 -13.898438 0.984375 -13.515625 C 0.890625 -13.285156 0.816406 -13.039062 0.765625 -12.78125 C 0.710938 -12.519531 0.703125 -12.265625 0.734375 -12.015625 C 0.722656 -10.804688 0.710938 -9.742188 0.703125 -8.828125 C 0.691406 -7.910156 0.691406 -7.085938 0.703125 -6.359375 C 0.710938 -5.640625 0.722656 -4.988281 0.734375 -4.40625 C 0.753906 -3.820312 0.78125 -3.265625 0.8125 -2.734375 C 0.863281 -2.109375 1.054688 -1.582031 1.390625 -1.15625 C 1.734375 -0.738281 2.148438 -0.414062 2.640625 -0.1875 C 3.128906 0.0390625 3.65625 0.1875 4.21875 0.25 C 4.789062 0.320312 5.347656 0.320312 5.890625 0.25 C 6.703125 0.226562 7.429688 0.0195312 8.078125 -0.375 C 8.734375 -0.769531 9.257812 -1.269531 9.65625 -1.875 C 10.0625 -2.488281 10.320312 -3.175781 10.4375 -3.9375 C 10.5625 -4.707031 10.5 -5.484375 10.25 -6.265625 C 10.039062 -6.328125 9.804688 -6.363281 9.546875 -6.375 C 9.285156 -6.394531 9.019531 -6.40625 8.75 -6.40625 C 8.476562 -6.40625 8.210938 -6.394531 7.953125 -6.375 C 7.691406 -6.363281 7.457031 -6.375 7.25 -6.40625 C 7.175781 -6.03125 7.148438 -5.648438 7.171875 -5.265625 C 7.191406 -4.890625 7.117188 -4.53125 6.953125 -4.1875 C 6.804688 -3.882812 6.585938 -3.671875 6.296875 -3.546875 C 6.003906 -3.421875 5.695312 -3.375 5.375 -3.40625 C 4.9375 -3.519531 4.625 -3.78125 4.4375 -4.1875 C 4.25 -4.601562 4.132812 -5.023438 4.09375 -5.453125 C 4.050781 -5.984375 4.03125 -6.601562 4.03125 -7.3125 C 4.03125 -8.019531 4.035156 -8.703125 4.046875 -9.359375 C 4.066406 -10.015625 4.085938 -10.578125 4.109375 -11.046875 C 4.128906 -11.523438 4.15625 -11.789062 4.1875 -11.84375 C 4.195312 -11.863281 4.210938 -11.90625 4.234375 -11.96875 C 4.265625 -12.039062 4.289062 -12.09375 4.3125 -12.125 Z M 4.3125 -12.125" transform="translate(83.259 26.646)"/></g></g></g><g fill="#21212D"><g><g><path d="M 9.828125 -11.140625 C 9.347656 -11.171875 8.925781 -11.191406 8.5625 -11.203125 C 8.195312 -11.222656 7.882812 -11.238281 7.625 -11.25 C 7.582031 -11.25 7.5 -11.25 7.375 -11.25 C 7.257812 -11.25 7.140625 -11.253906 7.015625 -11.265625 C 6.898438 -11.273438 6.796875 -11.273438 6.703125 -11.265625 C 6.609375 -11.253906 6.5625 -11.242188 6.5625 -11.234375 C 6.5625 -11.054688 6.539062 -10.878906 6.5 -10.703125 C 6.457031 -10.535156 6.445312 -10.332031 6.46875 -10.09375 C 6.363281 -10.34375 6.234375 -10.535156 6.078125 -10.671875 C 5.929688 -10.816406 5.757812 -10.921875 5.5625 -10.984375 C 5.375 -11.054688 5.164062 -11.097656 4.9375 -11.109375 C 4.707031 -11.117188 4.457031 -11.125 4.1875 -11.125 C 3.664062 -11.101562 3.171875 -10.960938 2.703125 -10.703125 C 2.242188 -10.441406 1.84375 -10.082031 1.5 -9.625 C 1.164062 -9.175781 0.898438 -8.640625 0.703125 -8.015625 C 0.515625 -7.390625 0.421875 -6.703125 0.421875 -5.953125 C 0.421875 -5.359375 0.484375 -4.707031 0.609375 -4 C 0.742188 -3.300781 0.941406 -2.648438 1.203125 -2.046875 C 1.472656 -1.453125 1.8125 -0.953125 2.21875 -0.546875 C 2.632812 -0.148438 3.132812 0.046875 3.71875 0.046875 C 4.238281 0.046875 4.769531 -0.078125 5.3125 -0.328125 C 5.851562 -0.585938 6.304688 -0.894531 6.671875 -1.25 C 6.671875 -1.101562 6.65625 -0.976562 6.625 -0.875 C 6.59375 -0.769531 6.578125 -0.632812 6.578125 -0.46875 C 6.578125 -0.351562 6.59375 -0.25 6.625 -0.15625 C 6.664062 -0.0625 6.738281 -0.00390625 6.84375 0.015625 C 7.007812 0.015625 7.171875 0.00390625 7.328125 -0.015625 C 7.484375 -0.0351562 7.644531 -0.046875 7.8125 -0.046875 C 8.050781 -0.046875 8.289062 -0.0351562 8.53125 -0.015625 C 8.78125 0.00390625 9.023438 0.015625 9.265625 0.015625 L 9.53125 0.015625 C 9.707031 -0.00390625 9.800781 -0.113281 9.8125 -0.3125 C 9.820312 -0.507812 9.828125 -0.703125 9.828125 -0.890625 C 9.929688 -2.492188 9.953125 -4.070312 9.890625 -5.625 C 9.828125 -7.1875 9.820312 -8.769531 9.875 -10.375 L 9.875 -10.609375 C 9.875 -10.691406 9.867188 -10.78125 9.859375 -10.875 C 9.847656 -10.96875 9.835938 -11.054688 9.828125 -11.140625 Z M 3.3125 -6.6875 C 3.382812 -7.0625 3.59375 -7.394531 3.9375 -7.6875 C 4.289062 -7.976562 4.773438 -8.125 5.390625 -8.125 C 5.703125 -8.125 5.9375 -8.097656 6.09375 -8.046875 C 6.25 -8.003906 6.359375 -7.898438 6.421875 -7.734375 C 6.492188 -7.578125 6.535156 -7.34375 6.546875 -7.03125 C 6.554688 -6.726562 6.5625 -6.316406 6.5625 -5.796875 C 6.5625 -5.378906 6.554688 -5 6.546875 -4.65625 C 6.535156 -4.320312 6.488281 -4.039062 6.40625 -3.8125 C 6.320312 -3.582031 6.1875 -3.40625 6 -3.28125 C 5.820312 -3.15625 5.546875 -3.09375 5.171875 -3.09375 C 4.546875 -3.09375 4.054688 -3.328125 3.703125 -3.796875 C 3.347656 -4.265625 3.171875 -4.832031 3.171875 -5.5 C 3.171875 -5.695312 3.175781 -5.894531 3.1875 -6.09375 C 3.207031 -6.300781 3.25 -6.5 3.3125 -6.6875 Z M 3.3125 -6.6875" transform="translate(94.179 26.646)"/></g></g></g><g fill="#21212D"><g><g><path d="M 3.78125 -9.984375 C 3.769531 -10.191406 3.765625 -10.375 3.765625 -10.53125 C 3.773438 -10.695312 3.765625 -10.910156 3.734375 -11.171875 C 3.734375 -11.210938 3.671875 -11.234375 3.546875 -11.234375 C 3.429688 -11.242188 3.300781 -11.238281 3.15625 -11.21875 C 3.007812 -11.207031 2.859375 -11.191406 2.703125 -11.171875 C 2.554688 -11.148438 2.453125 -11.140625 2.390625 -11.140625 C 2.210938 -11.128906 2.0625 -11.117188 1.9375 -11.109375 C 1.820312 -11.097656 1.710938 -11.09375 1.609375 -11.09375 C 1.503906 -11.09375 1.390625 -11.097656 1.265625 -11.109375 C 1.148438 -11.117188 1.003906 -11.128906 0.828125 -11.140625 C 0.765625 -9.171875 0.75 -7.269531 0.78125 -5.4375 C 0.820312 -3.601562 0.84375 -1.769531 0.84375 0.0625 C 1.207031 0.03125 1.507812 0.0195312 1.75 0.03125 C 1.988281 0.0507812 2.203125 0.0664062 2.390625 0.078125 C 2.585938 0.0859375 2.78125 0.0820312 2.96875 0.0625 C 3.15625 0.0507812 3.375 0.0078125 3.625 -0.0625 L 3.625 -0.15625 C 3.6875 -0.644531 3.71875 -1.132812 3.71875 -1.625 C 3.71875 -2.125 3.703125 -2.625 3.671875 -3.125 C 3.648438 -3.625 3.632812 -4.125 3.625 -4.625 C 3.613281 -5.125 3.617188 -5.632812 3.640625 -6.15625 C 3.671875 -6.550781 3.773438 -6.847656 3.953125 -7.046875 C 4.140625 -7.253906 4.34375 -7.390625 4.5625 -7.453125 C 4.789062 -7.523438 5.019531 -7.539062 5.25 -7.5 C 5.476562 -7.46875 5.648438 -7.421875 5.765625 -7.359375 C 5.785156 -7.347656 5.800781 -7.34375 5.8125 -7.34375 C 5.832031 -7.34375 5.847656 -7.332031 5.859375 -7.3125 C 5.984375 -7.226562 6.078125 -7.101562 6.140625 -6.9375 C 6.210938 -6.769531 6.265625 -6.582031 6.296875 -6.375 C 6.335938 -6.164062 6.363281 -5.953125 6.375 -5.734375 C 6.394531 -5.523438 6.410156 -5.328125 6.421875 -5.140625 C 6.453125 -4.742188 6.46875 -4.3125 6.46875 -3.84375 C 6.476562 -3.382812 6.476562 -2.921875 6.46875 -2.453125 C 6.46875 -1.992188 6.46875 -1.546875 6.46875 -1.109375 C 6.46875 -0.679688 6.484375 -0.296875 6.515625 0.046875 C 7.035156 0.046875 7.5 0.046875 7.90625 0.046875 C 8.320312 0.0546875 8.789062 0.0234375 9.3125 -0.046875 C 9.28125 -0.554688 9.269531 -1.144531 9.28125 -1.8125 C 9.300781 -2.476562 9.316406 -3.171875 9.328125 -3.890625 C 9.347656 -4.617188 9.359375 -5.335938 9.359375 -6.046875 C 9.367188 -6.753906 9.363281 -7.40625 9.34375 -8 C 9.320312 -8.601562 9.269531 -9.117188 9.1875 -9.546875 C 9.101562 -9.972656 8.988281 -10.25 8.84375 -10.375 C 8.53125 -10.644531 8.175781 -10.832031 7.78125 -10.9375 C 7.394531 -11.039062 6.992188 -11.082031 6.578125 -11.0625 C 6.171875 -11.050781 5.773438 -10.976562 5.390625 -10.84375 C 5.003906 -10.71875 4.65625 -10.539062 4.34375 -10.3125 C 4.269531 -10.25 4.175781 -10.1875 4.0625 -10.125 C 3.945312 -10.070312 3.851562 -10.023438 3.78125 -9.984375 Z M 3.78125 -9.984375" transform="translate(104.83 26.646)"/></g></g></g></svg>