<svg xmlns="http://www.w3.org/2000/svg" width="375" viewBox="0 0 375 375" height="375" version="1.0"><path fill="#6ABE52" d="M 288.75 93.871094 C 288.859375 94.0625 289.039062 94.1875 289.179688 94.359375 L 273.144531 153.90625 L 216.167969 138.582031 L 152.800781 29.867188 L 251.800781 29.867188 Z M 288.75 93.871094"/><path fill="#6ABE52" d="M 295.84375 327.148438 L 221.910156 326.980469 C 221.902344 326.980469 221.902344 326.980469 221.902344 326.980469 C 221.675781 326.980469 221.480469 327.074219 221.265625 327.105469 L 177.773438 283.371094 L 219.605469 241.800781 L 345.367188 241.800781 Z M 295.84375 327.148438"/><path fill="#6ABE52" d="M 50.617188 148.523438 C 50.726562 148.332031 50.753906 148.113281 50.824219 147.917969 L 110.488281 132.179688 L 125.550781 189.207031 L 62.984375 298.699219 L 13.464844 212.40625 Z M 50.617188 148.523438"/><path fill="#21212D" d="M 74.070312 108.023438 C 72.683594 108.023438 71.277344 107.671875 69.992188 106.921875 C 66.082031 104.675781 64.742188 99.679688 67 95.777344 L 110.425781 20.621094 C 111.886719 18.09375 114.582031 16.539062 117.503906 16.539062 L 253.992188 16.539062 C 256.902344 16.539062 259.597656 18.101562 261.066406 20.621094 L 299.191406 86.664062 C 301.4375 90.570312 300.101562 95.570312 296.195312 97.816406 C 292.285156 100.074219 287.285156 98.726562 285.042969 94.828125 L 249.265625 32.867188 L 122.21875 32.867188 L 81.152344 103.941406 C 79.636719 106.558594 76.894531 108.023438 74.070312 108.023438 Z M 74.070312 108.023438"/><path fill="#21212D" d="M 213.320312 149.175781 C 210.503906 149.175781 207.765625 147.726562 206.253906 145.121094 L 138.457031 28.816406 C 136.183594 24.917969 137.507812 19.921875 141.398438 17.648438 C 145.308594 15.375 150.300781 16.699219 152.574219 20.597656 L 220.367188 136.898438 C 222.640625 140.800781 221.316406 145.796875 217.414062 148.070312 C 216.128906 148.820312 214.714844 149.175781 213.320312 149.175781 Z M 213.320312 149.175781"/><path fill="#21212D" d="M 275.863281 165.996094 C 275.15625 165.996094 274.445312 165.902344 273.730469 165.710938 L 179.566406 140.386719 C 175.210938 139.21875 172.628906 134.738281 173.800781 130.382812 C 174.976562 126.03125 179.472656 123.457031 183.8125 124.621094 L 270.09375 147.820312 L 293.308594 61.605469 C 294.472656 57.246094 298.972656 54.671875 303.3125 55.84375 C 307.667969 57.019531 310.261719 61.5 309.082031 65.847656 L 283.746094 159.945312 C 282.761719 163.59375 279.460938 165.996094 275.863281 165.996094 Z M 275.863281 165.996094"/><path fill="#21212D" d="M 298.015625 338.316406 C 298.003906 338.316406 297.996094 338.316406 297.996094 338.316406 L 221.714844 338.148438 C 217.199219 338.140625 213.554688 334.472656 213.558594 329.96875 C 213.566406 325.46875 217.222656 321.816406 221.726562 321.816406 C 221.734375 321.816406 221.734375 321.816406 221.746094 321.816406 L 293.320312 321.96875 L 357.050781 212.132812 L 316.136719 140.972656 C 313.890625 137.0625 315.234375 132.078125 319.152344 129.828125 C 323.054688 127.585938 328.054688 128.925781 330.300781 132.839844 L 373.570312 208.082031 C 375.019531 210.605469 375.011719 213.730469 373.554688 216.246094 L 305.082031 334.246094 C 303.617188 336.761719 300.925781 338.316406 298.015625 338.316406 Z M 298.015625 338.316406"/><path fill="#21212D" d="M 240.566406 359.5625 C 238.464844 359.5625 236.359375 358.757812 234.769531 357.152344 L 166.035156 288.03125 C 162.851562 284.835938 162.867188 279.664062 166.066406 276.488281 L 235.21875 207.777344 C 238.414062 204.589844 243.582031 204.601562 246.769531 207.808594 C 249.949219 211.007812 249.933594 216.171875 246.738281 219.355469 L 183.375 282.308594 L 246.351562 345.640625 C 249.535156 348.835938 249.523438 354 246.316406 357.183594 C 244.726562 358.773438 242.640625 359.5625 240.566406 359.5625 Z M 240.566406 359.5625"/><path fill="#21212D" d="M 163.304688 338.058594 C 163.296875 338.058594 163.289062 338.058594 163.28125 338.058594 L 76.453125 337.8125 C 73.535156 337.800781 70.847656 336.238281 69.394531 333.703125 L 1.488281 215.371094 C 0.0351562 212.84375 0.046875 209.726562 1.511719 207.207031 L 39.855469 141.292969 C 42.125 137.398438 47.117188 136.070312 51.023438 138.335938 C 54.917969 140.597656 56.242188 145.597656 53.976562 149.5 L 18 211.339844 L 81.214844 321.492188 L 163.328125 321.734375 C 167.835938 321.742188 171.476562 325.410156 171.46875 329.917969 C 171.457031 334.417969 167.804688 338.058594 163.304688 338.058594 Z M 163.304688 338.058594"/><path fill="#21212D" d="M 62.804688 314 C 61.433594 314 60.035156 313.652344 58.765625 312.921875 C 54.84375 310.679688 53.480469 305.703125 55.722656 301.785156 L 122.65625 184.65625 C 124.890625 180.742188 129.886719 179.386719 133.800781 181.621094 C 137.714844 183.851562 139.078125 188.839844 136.839844 192.757812 L 69.90625 309.886719 C 68.398438 312.515625 65.636719 314 62.804688 314 Z M 62.804688 314"/><path fill="#21212D" d="M 138.097656 228.519531 C 134.484375 228.519531 131.175781 226.097656 130.207031 222.433594 L 107.410156 136.089844 L 21.03125 158.871094 C 16.667969 160.003906 12.203125 157.417969 11.050781 153.0625 C 9.898438 148.699219 12.507812 144.234375 16.867188 143.085938 L 111.144531 118.222656 C 113.234375 117.652344 115.457031 117.964844 117.332031 119.058594 C 119.207031 120.148438 120.574219 121.9375 121.121094 124.023438 L 146 218.261719 C 147.148438 222.628906 144.546875 227.09375 140.183594 228.238281 C 139.496094 228.425781 138.796875 228.519531 138.097656 228.519531 Z M 138.097656 228.519531"/><path fill="#21212D" d="M 351.699219 244.808594 L 217.753906 244.808594 C 213.238281 244.808594 209.589844 241.144531 209.589844 236.644531 C 209.589844 232.128906 213.242188 228.480469 217.753906 228.480469 L 351.699219 228.480469 C 356.207031 228.480469 359.867188 232.132812 359.867188 236.644531 C 359.867188 241.144531 356.203125 244.808594 351.699219 244.808594 Z M 351.699219 244.808594"/></svg>