<svg xmlns="http://www.w3.org/2000/svg" width="60" viewBox="0 0 60 75" height="75" version="1.0"><defs><clipPath id="a"><path d="M 1.875 0 L 58.125 0 L 58.125 75 L 1.875 75 Z M 1.875 0"/></clipPath></defs><g clip-path="url(#a)"><path fill="#03989E" d="M 30 0 C 14.488281 0 1.875 12.613281 1.875 28.125 C 1.875 47.621094 27.261719 73.234375 28.339844 74.316406 C 28.800781 74.769531 29.398438 75 30 75 C 30.601562 75 31.199219 74.769531 31.660156 74.316406 C 32.738281 73.234375 58.125 47.621094 58.125 28.125 C 58.125 12.613281 45.511719 0 30 0 Z M 30 0"/></g><path fill="#FAFAFA" d="M 44.0625 28.125 C 44.0625 29.046875 43.972656 29.960938 43.792969 30.867188 C 43.613281 31.773438 43.34375 32.652344 42.992188 33.507812 C 42.640625 34.359375 42.207031 35.171875 41.691406 35.9375 C 41.179688 36.707031 40.597656 37.414062 39.945312 38.070312 C 39.289062 38.722656 38.582031 39.304688 37.8125 39.816406 C 37.046875 40.332031 36.234375 40.765625 35.382812 41.117188 C 34.527344 41.46875 33.648438 41.738281 32.742188 41.917969 C 31.835938 42.097656 30.921875 42.1875 30 42.1875 C 29.078125 42.1875 28.164062 42.097656 27.257812 41.917969 C 26.351562 41.738281 25.472656 41.46875 24.617188 41.117188 C 23.765625 40.765625 22.953125 40.332031 22.1875 39.816406 C 21.417969 39.304688 20.710938 38.722656 20.054688 38.070312 C 19.402344 37.414062 18.820312 36.707031 18.308594 35.9375 C 17.792969 35.171875 17.359375 34.359375 17.007812 33.507812 C 16.65625 32.652344 16.386719 31.773438 16.207031 30.867188 C 16.027344 29.960938 15.9375 29.046875 15.9375 28.125 C 15.9375 27.203125 16.027344 26.289062 16.207031 25.382812 C 16.386719 24.476562 16.65625 23.597656 17.007812 22.742188 C 17.359375 21.890625 17.792969 21.078125 18.308594 20.3125 C 18.820312 19.542969 19.402344 18.835938 20.054688 18.179688 C 20.710938 17.527344 21.417969 16.945312 22.1875 16.433594 C 22.953125 15.917969 23.765625 15.484375 24.617188 15.132812 C 25.472656 14.78125 26.351562 14.511719 27.257812 14.332031 C 28.164062 14.152344 29.078125 14.0625 30 14.0625 C 30.921875 14.0625 31.835938 14.152344 32.742188 14.332031 C 33.648438 14.511719 34.527344 14.78125 35.382812 15.132812 C 36.234375 15.484375 37.046875 15.917969 37.8125 16.433594 C 38.582031 16.945312 39.289062 17.527344 39.945312 18.179688 C 40.597656 18.835938 41.179688 19.542969 41.691406 20.3125 C 42.207031 21.078125 42.640625 21.890625 42.992188 22.742188 C 43.34375 23.597656 43.613281 24.476562 43.792969 25.382812 C 43.972656 26.289062 44.0625 27.203125 44.0625 28.125 Z M 44.0625 28.125"/></svg>