<svg xmlns="http://www.w3.org/2000/svg" xmlns:xlink="http://www.w3.org/1999/xlink" width="375" zoomAndPan="magnify" viewBox="0 0 375 374.999991" height="374.999991" preserveAspectRatio="xMidYMid meet" version="1.0"><path fill="rgb(59.609985%, 77.648926%, 38.42926%)" d="M 375.089844 187.574219 C 375.089844 234.171875 358.066406 276.832031 329.929688 309.628906 C 320.859375 320.199219 310.613281 329.753906 299.441406 338.058594 C 268.21875 361.328125 229.511719 375.089844 187.589844 375.089844 C 160.789062 375.089844 135.328125 369.472656 112.28125 359.34375 C 99.226562 353.625 86.964844 346.46875 75.675781 338.058594 C 64.519531 329.722656 54.300781 320.199219 45.230469 309.644531 C 17.097656 276.847656 0.0585938 234.1875 0.0585938 187.574219 C 0.0585938 84.011719 84.027344 0.0585938 187.589844 0.0585938 C 258.648438 0.0585938 320.476562 39.601562 352.289062 97.886719 C 366.828125 124.523438 375.089844 155.085938 375.089844 187.574219 Z M 375.089844 187.574219 " fill-opacity="1" fill-rule="nonzero"/><path fill="rgb(34.509277%, 70.588684%, 39.608765%)" d="M 261.792969 61.960938 C 261.792969 61.960938 230.6875 65.914062 217.578125 59.609375 L 210.578125 74.441406 L 196.378906 74.234375 L 112.28125 359.359375 C 135.328125 369.488281 160.789062 375.101562 187.589844 375.101562 C 229.511719 375.101562 268.21875 361.34375 299.441406 338.074219 C 310.613281 329.769531 320.859375 320.214844 329.929688 309.644531 C 358.066406 276.847656 375.089844 234.1875 375.089844 187.589844 C 375.089844 169.773438 372.589844 152.542969 367.945312 136.210938 C 355.917969 130.316406 261.792969 61.960938 261.792969 61.960938 Z M 261.792969 61.960938 " fill-opacity="1" fill-rule="nonzero"/><path fill="rgb(98.429871%, 79.60968%, 59.609985%)" d="M 124.511719 126.980469 C 122.644531 124.9375 119.777344 123.964844 118.160156 126.773438 C 115.835938 130.800781 116.070312 136.210938 116.410156 140.664062 C 116.691406 144.265625 117.128906 147.882812 118.070312 151.398438 C 118.878906 154.425781 119.996094 158.601562 122.703125 160.480469 C 123.320312 160.90625 124.15625 161.335938 124.9375 161.496094 C 125.363281 161.582031 127.949219 161.628906 127.066406 160.511719 " fill-opacity="1" fill-rule="nonzero"/><path fill="rgb(98.429871%, 79.60968%, 59.609985%)" d="M 250.429688 126.980469 C 252.296875 124.9375 255.164062 123.964844 256.78125 126.773438 C 259.105469 130.800781 258.867188 136.210938 258.53125 140.664062 C 258.25 144.265625 257.8125 147.882812 256.871094 151.398438 C 256.0625 154.425781 254.945312 158.601562 252.238281 160.480469 C 251.621094 160.90625 250.785156 161.335938 250.003906 161.496094 C 249.578125 161.582031 246.992188 161.628906 247.875 160.511719 " fill-opacity="1" fill-rule="nonzero"/><path fill="rgb(87.449646%, 71.369934%, 53.729248%)" d="M 329.929688 309.628906 C 320.859375 320.199219 310.628906 329.753906 299.441406 338.058594 L 75.675781 338.058594 C 64.503906 329.722656 54.289062 320.199219 45.230469 309.644531 C 53.730469 287.988281 71.738281 270.71875 94.960938 263.632812 L 133.625 248.785156 C 148.558594 243.875 147.882812 235.613281 147.882812 219.882812 L 147.882812 186.425781 L 227.25 186.425781 L 227.25 219.855469 C 227.25 235.597656 228.042969 244.949219 243.007812 249.84375 L 280.242188 263.589844 C 303.46875 270.703125 321.460938 287.976562 329.929688 309.628906 Z M 329.929688 309.628906 " fill-opacity="1" fill-rule="nonzero"/><path fill="rgb(56.079102%, 34.509277%, 54.508972%)" d="M 329.929688 309.628906 C 295.546875 349.703125 244.535156 375.089844 187.589844 375.089844 C 130.640625 375.089844 79.628906 349.703125 45.246094 309.644531 C 53.742188 287.988281 71.75 270.71875 94.976562 263.632812 L 133.640625 248.785156 C 137.988281 247.34375 141.019531 245.625 143.121094 243.523438 C 150.71875 250.519531 184.441406 281.257812 189.660156 281.332031 C 194.878906 281.40625 227.042969 250.828125 235.144531 245.960938 C 237.1875 247.476562 239.757812 248.769531 243.023438 249.84375 L 280.257812 263.589844 C 303.46875 270.703125 321.460938 287.976562 329.929688 309.628906 Z M 329.929688 309.628906 " fill-opacity="1" fill-rule="nonzero"/><path fill="rgb(98.429871%, 79.60968%, 59.609985%)" d="M 250.753906 120.160156 C 250.59375 75.351562 223.03125 50.097656 187.574219 50.097656 C 187.558594 50.097656 187.589844 50.097656 187.574219 50.097656 C 187.558594 50.097656 187.589844 50.097656 187.574219 50.097656 C 152.117188 50.097656 124.6875 75.351562 124.523438 120.160156 C 124.453125 140.59375 125.15625 154.042969 127.230469 168.875 C 133.683594 214.976562 176.121094 227.894531 187.574219 227.894531 C 201.613281 227.894531 241.597656 214.976562 248.050781 168.875 C 250.121094 154.042969 250.828125 140.59375 250.753906 120.160156 Z M 250.753906 120.160156 " fill-opacity="1" fill-rule="nonzero"/><path fill="rgb(98.429871%, 79.60968%, 59.609985%)" d="M 250.753906 120.160156 C 250.59375 75.351562 223.03125 50.097656 187.574219 50.097656 C 187.558594 50.097656 187.589844 50.097656 187.574219 50.097656 C 187.558594 50.097656 187.589844 50.097656 187.574219 50.097656 C 152.117188 50.097656 124.6875 75.351562 124.523438 120.160156 C 124.453125 140.59375 125.15625 154.042969 127.230469 168.875 C 133.683594 214.976562 176.121094 227.894531 187.574219 227.894531 C 201.613281 227.894531 241.597656 214.976562 248.050781 168.875 C 250.121094 154.042969 250.828125 140.59375 250.753906 120.160156 Z M 250.753906 120.160156 " fill-opacity="1" fill-rule="nonzero"/><path fill="rgb(81.959534%, 67.059326%, 50.588989%)" d="M 138.769531 123.214844 C 148.664062 106.136719 147.898438 87.453125 140.84375 70.515625 C 130.699219 82.351562 124.597656 99.09375 124.523438 120.160156 C 124.496094 128.199219 124.582031 135.152344 124.832031 141.546875 C 129.257812 135.269531 134.875 129.917969 138.769531 123.214844 Z M 138.769531 123.214844 " fill-opacity="1" fill-rule="nonzero"/><path fill="rgb(81.959534%, 67.059326%, 50.588989%)" d="M 236.511719 123.214844 C 226.617188 106.136719 227.382812 87.453125 234.4375 70.515625 C 244.582031 82.351562 250.679688 99.09375 250.753906 120.160156 C 250.785156 128.199219 250.695312 135.152344 250.445312 141.546875 C 246.019531 135.269531 240.40625 129.917969 236.511719 123.214844 Z M 236.511719 123.214844 " fill-opacity="1" fill-rule="nonzero"/><path fill="rgb(100%, 100%, 100%)" d="M 147.617188 231.46875 L 127.257812 251.226562 L 171.578125 306.261719 L 189.660156 281.332031 Z M 147.617188 231.46875 " fill-opacity="1" fill-rule="nonzero"/><path fill="rgb(100%, 100%, 100%)" d="M 227.324219 231.46875 L 247.683594 251.226562 L 203.363281 306.261719 L 185.28125 281.332031 Z M 227.324219 231.46875 " fill-opacity="1" fill-rule="nonzero"/><path fill="rgb(3.529358%, 15.689087%, 21.958923%)" d="M 170.800781 162.511719 C 164.464844 164.523438 160.421875 169.140625 155.703125 173.503906 C 150.941406 177.914062 145.339844 178.503906 139.105469 177.753906 C 141.855469 181.015625 144.941406 184.074219 148.722656 186.03125 C 161.304688 192.527344 197.894531 190.367188 189.382812 168.097656 C 186.722656 161.144531 176.902344 160.554688 170.800781 162.511719 Z M 170.800781 162.511719 " fill-opacity="1" fill-rule="nonzero"/><path fill="rgb(3.529358%, 15.689087%, 21.958923%)" d="M 204.480469 162.511719 C 210.8125 164.523438 214.855469 169.140625 219.574219 173.503906 C 224.339844 177.914062 229.9375 178.503906 236.171875 177.753906 C 233.421875 181.015625 230.335938 184.074219 226.558594 186.03125 C 213.976562 192.527344 177.386719 190.367188 185.898438 168.097656 C 188.558594 161.144531 198.378906 160.554688 204.480469 162.511719 Z M 204.480469 162.511719 " fill-opacity="1" fill-rule="nonzero"/><path fill="rgb(3.529358%, 15.689087%, 21.958923%)" d="M 144.414062 111.175781 C 152.042969 107.132812 158.304688 101.371094 165.699219 96.917969 C 181.695312 87.246094 204.097656 98.007812 221.5 96.933594 C 239.90625 95.800781 256.871094 82.054688 261.792969 64.285156 C 262 63.519531 262.191406 62.667969 261.824219 61.976562 C 261.175781 60.769531 259.472656 60.84375 258.105469 60.976562 C 249.167969 61.875 239.875 57.652344 234.6875 50.320312 C 232.6875 47.496094 231.261719 44.277344 229.160156 41.527344 C 225.410156 36.632812 219.472656 33.472656 213.3125 33.089844 C 200.4375 32.3125 188.558594 42.925781 175.828125 40.910156 C 172.386719 40.367188 169.082031 38.898438 165.597656 38.765625 C 157.777344 38.46875 151.367188 44.835938 146.972656 51.320312 C 142.386719 58.082031 136.167969 66.710938 136.34375 75.222656 C 136.59375 86.6875 141.0625 99.417969 143.296875 110.691406 C 143.339844 110.941406 143.414062 111.207031 143.636719 111.339844 C 143.855469 111.441406 144.164062 111.308594 144.414062 111.175781 Z M 144.414062 111.175781 " fill-opacity="1" fill-rule="nonzero"/></svg>