<svg xmlns="http://www.w3.org/2000/svg" xmlns:xlink="http://www.w3.org/1999/xlink" width="375" zoomAndPan="magnify" viewBox="0 0 375 374.999991" height="374.999991" preserveAspectRatio="xMidYMid meet" version="1.0"><path fill="rgb(68.238831%, 41.569519%, 66.268921%)" d="M 375.089844 187.574219 C 375.089844 234.171875 358.066406 276.832031 329.929688 309.628906 C 320.859375 320.199219 310.613281 329.753906 299.441406 338.058594 C 268.21875 361.328125 229.511719 375.089844 187.589844 375.089844 C 160.789062 375.089844 135.328125 369.472656 112.28125 359.34375 C 99.226562 353.625 86.964844 346.46875 75.675781 338.058594 C 64.519531 329.722656 54.300781 320.199219 45.230469 309.644531 C 17.097656 276.847656 0.0585938 234.1875 0.0585938 187.574219 C 0.0585938 84.011719 84.027344 0.0585938 187.589844 0.0585938 C 258.648438 0.0585938 320.476562 39.601562 352.289062 97.886719 C 366.828125 124.523438 375.089844 155.085938 375.089844 187.574219 Z M 375.089844 187.574219 " fill-opacity="1" fill-rule="nonzero"/><path fill="rgb(56.079102%, 34.509277%, 54.508972%)" d="M 375.089844 187.574219 C 375.089844 234.171875 358.066406 276.832031 329.929688 309.628906 C 320.859375 320.199219 310.613281 329.753906 299.441406 338.058594 C 268.21875 361.328125 229.511719 375.089844 187.589844 375.089844 C 160.789062 375.089844 135.328125 369.472656 112.28125 359.34375 L 196.378906 74.222656 L 239.921875 74.867188 L 234.113281 45.9375 L 352.289062 97.886719 C 366.828125 124.523438 375.089844 155.085938 375.089844 187.574219 Z M 375.089844 187.574219 " fill-opacity="1" fill-rule="nonzero"/><path fill="rgb(100%, 96.078491%, 59.999084%)" d="M 154.984375 39.175781 C 152.410156 40.234375 150.074219 41.5 148.105469 42.894531 C 134.035156 52.875 117.175781 60.066406 106.753906 74.632812 C 98.035156 86.832031 94.84375 102.84375 98.253906 117.453125 C 99.667969 123.496094 102.121094 129.257812 103.3125 135.34375 C 104.339844 140.605469 104.386719 146.0625 103.445312 151.339844 C 101.785156 160.703125 97.257812 171.019531 102.355469 179.0625 C 108.738281 189.117188 122.511719 190.835938 127.847656 202.421875 C 129.667969 206.359375 130.917969 210.609375 133.359375 214.210938 C 139.546875 223.339844 151.515625 226.132812 162.347656 228.203125 C 167.726562 229.234375 173.667969 230.261719 179.089844 228.96875 C 186.28125 227.265625 186.957031 223.089844 189.5 216.796875 C 194.96875 203.273438 200.140625 189.515625 202.816406 175.109375 C 205.476562 160.761719 205.625 146.089844 205.640625 131.492188 C 205.667969 115.601562 205.566406 99.59375 202.597656 83.980469 C 200.011719 70.414062 198.289062 55.964844 190.601562 44.511719 C 183.472656 33.839844 166.832031 34.308594 154.984375 39.175781 Z M 154.984375 39.175781 " fill-opacity="1" fill-rule="nonzero"/><path fill="rgb(100%, 96.078491%, 59.999084%)" d="M 219.941406 39.175781 C 222.515625 40.234375 224.851562 41.5 226.824219 42.894531 C 240.890625 52.875 257.75 60.066406 268.175781 74.632812 C 276.890625 86.832031 280.082031 102.84375 276.671875 117.453125 C 275.257812 123.496094 272.804688 129.257812 271.613281 135.34375 C 270.585938 140.605469 270.539062 146.0625 271.480469 151.339844 C 273.144531 160.703125 277.671875 171.019531 272.570312 179.0625 C 266.191406 189.117188 252.414062 190.835938 247.078125 202.421875 C 245.257812 206.359375 244.007812 210.609375 241.566406 214.210938 C 235.378906 223.339844 223.414062 226.132812 212.578125 228.203125 C 207.199219 229.234375 201.257812 230.261719 195.835938 228.96875 C 188.648438 227.265625 187.96875 223.089844 185.425781 216.796875 C 179.957031 203.273438 174.785156 189.515625 172.109375 175.109375 C 169.449219 160.761719 169.300781 146.089844 169.285156 131.492188 C 169.257812 115.601562 169.359375 99.59375 172.328125 83.980469 C 174.917969 70.414062 176.636719 55.964844 184.324219 44.511719 C 191.46875 33.839844 208.109375 34.308594 219.941406 39.175781 Z M 219.941406 39.175781 " fill-opacity="1" fill-rule="nonzero"/><path fill="rgb(98.429871%, 79.60968%, 59.609985%)" d="M 124.511719 126.980469 C 122.644531 124.9375 119.777344 123.964844 118.160156 126.773438 C 115.835938 130.800781 116.070312 136.210938 116.410156 140.664062 C 116.691406 144.265625 117.128906 147.882812 118.070312 151.398438 C 118.878906 154.425781 119.996094 158.601562 122.703125 160.480469 C 123.320312 160.90625 124.15625 161.335938 124.9375 161.496094 C 125.363281 161.582031 127.949219 161.628906 127.066406 160.511719 " fill-opacity="1" fill-rule="nonzero"/><path fill="rgb(98.429871%, 79.60968%, 59.609985%)" d="M 250.429688 126.980469 C 252.296875 124.9375 255.164062 123.964844 256.78125 126.773438 C 259.105469 130.800781 258.867188 136.210938 258.53125 140.664062 C 258.25 144.265625 257.8125 147.882812 256.871094 151.398438 C 256.0625 154.425781 254.945312 158.601562 252.238281 160.480469 C 251.621094 160.90625 250.785156 161.335938 250.003906 161.496094 C 249.578125 161.582031 246.992188 161.628906 247.875 160.511719 " fill-opacity="1" fill-rule="nonzero"/><path fill="rgb(92.549133%, 75.289917%, 56.469727%)" d="M 329.929688 309.628906 C 320.859375 320.199219 310.628906 329.753906 299.441406 338.058594 L 75.675781 338.058594 C 64.503906 329.722656 54.289062 320.199219 45.230469 309.644531 C 53.730469 287.988281 71.738281 270.71875 94.960938 263.632812 L 133.625 248.785156 C 148.558594 243.875 147.882812 235.613281 147.882812 219.882812 L 147.882812 186.425781 L 227.25 186.425781 L 227.25 219.855469 C 227.25 235.597656 228.042969 244.949219 243.007812 249.84375 L 280.242188 263.589844 C 303.46875 270.703125 321.460938 287.976562 329.929688 309.628906 Z M 329.929688 309.628906 " fill-opacity="1" fill-rule="nonzero"/><path fill="rgb(100%, 100%, 100%)" d="M 329.929688 309.628906 C 295.546875 349.703125 244.535156 375.089844 187.589844 375.089844 C 130.640625 375.089844 79.628906 349.703125 45.246094 309.644531 C 53.742188 287.988281 71.75 270.71875 94.976562 263.632812 L 133.640625 248.785156 C 137.988281 247.34375 141.019531 245.625 143.121094 243.523438 C 143.265625 243.667969 143.429688 243.800781 143.574219 243.949219 C 168.347656 267.128906 206.375 268.792969 232.863281 247.59375 C 233.71875 246.902344 234.480469 246.359375 235.128906 245.960938 C 237.171875 247.476562 239.746094 248.769531 243.007812 249.84375 L 280.242188 263.589844 C 303.46875 270.703125 321.460938 287.976562 329.929688 309.628906 Z M 329.929688 309.628906 " fill-opacity="1" fill-rule="nonzero"/><path fill="rgb(3.529358%, 15.689087%, 21.958923%)" d="M 107.898438 258.664062 L 94.976562 263.632812 C 71.75 270.71875 53.742188 287.988281 45.246094 309.644531 C 62.988281 330.3125 85.171875 347.070312 110.308594 358.449219 C 123.363281 326.3125 124.890625 288.5625 107.898438 258.664062 Z M 107.898438 258.664062 " fill-opacity="1" fill-rule="nonzero"/><path fill="rgb(3.529358%, 15.689087%, 21.958923%)" d="M 280.242188 263.589844 L 275.332031 261.78125 C 263.074219 291.28125 265.117188 323.550781 273.804688 354.097656 C 295.25 342.953125 314.304688 327.8125 329.898438 309.628906 C 321.460938 287.976562 303.46875 270.703125 280.242188 263.589844 Z M 280.242188 263.589844 " fill-opacity="1" fill-rule="nonzero"/><path fill="rgb(98.429871%, 79.60968%, 59.609985%)" d="M 250.753906 120.160156 C 250.59375 75.351562 223.164062 43.160156 187.707031 43.160156 C 187.691406 43.160156 187.660156 43.160156 187.648438 43.160156 C 187.632812 43.160156 187.601562 43.160156 187.589844 43.160156 C 152.132812 43.160156 124.699219 75.351562 124.539062 120.160156 C 124.464844 140.59375 125.171875 154.042969 127.246094 168.875 C 133.699219 214.976562 176.136719 227.894531 187.589844 227.894531 C 201.625 227.894531 241.609375 214.976562 248.066406 168.875 C 250.121094 154.042969 250.828125 140.59375 250.753906 120.160156 Z M 250.753906 120.160156 " fill-opacity="1" fill-rule="nonzero"/><path fill="rgb(27.839661%, 13.729858%, 7.058716%)" d="M 250.753906 120.160156 C 250.679688 100.109375 245.140625 82.601562 235.878906 69.355469 C 233.6875 74.382812 231.453125 79.382812 229.085938 84.335938 C 229.261719 98.152344 229.292969 113.5 238.273438 124.703125 C 242.742188 130.257812 248.050781 134.269531 249.710938 141.636719 C 250.019531 143.003906 250.035156 144.574219 249.945312 146.207031 C 250.050781 146.0625 250.152344 145.898438 250.253906 145.75 C 250.652344 138.226562 250.796875 130.007812 250.753906 120.160156 Z M 250.753906 120.160156 " fill-opacity="1" fill-rule="nonzero"/><path fill="rgb(100%, 96.078491%, 59.999084%)" d="M 124.332031 135.285156 C 124.246094 140.136719 124.128906 144.972656 124.023438 149.851562 C 123.980469 152.441406 124.789062 155.96875 127.375 155.894531 C 128.699219 155.851562 129.730469 154.761719 130.464844 153.675781 C 134.976562 146.882812 134.386719 136.242188 141.679688 132.566406 C 144.632812 131.082031 148.132812 131.273438 151.292969 130.300781 C 157.203125 128.480469 161.097656 122.921875 163.863281 117.394531 C 168.785156 107.5625 171.625 96.667969 172.09375 85.671875 C 179.5625 105.796875 197.097656 120.304688 214.726562 132.535156 C 220.238281 136.359375 225.824219 140.0625 231.496094 143.648438 C 235.703125 146.308594 240.421875 149 245.332031 148.234375 C 247.386719 147.925781 249.460938 146.882812 250.460938 145.0625 C 251.136719 143.839844 251.269531 142.398438 251.386719 141.019531 C 252.519531 127.816406 255.148438 115.074219 252.488281 102.035156 C 250.371094 91.683594 246.828125 82.160156 242.816406 72.472656 C 234.761719 57.34375 215.488281 42.484375 197.703125 41.542969 C 180.296875 40.632812 161.332031 43.308594 147.675781 54.332031 C 125.199219 72.488281 124.613281 92.667969 124.511719 120.160156 C 124.511719 125.230469 124.421875 130.257812 124.332031 135.285156 Z M 124.332031 135.285156 " fill-opacity="1" fill-rule="nonzero"/><path fill="rgb(3.529358%, 15.689087%, 21.958923%)" d="M 133.640625 248.785156 L 143.574219 243.949219 C 143.574219 243.949219 162.878906 262.234375 187.574219 262.410156 C 212.269531 262.589844 227.703125 251.828125 235.144531 245.960938 L 243.023438 249.84375 C 243.023438 249.84375 229.953125 275.628906 188.851562 273.671875 C 147.734375 271.71875 133.640625 248.785156 133.640625 248.785156 Z M 133.640625 248.785156 " fill-opacity="1" fill-rule="nonzero"/></svg>