<svg xmlns="http://www.w3.org/2000/svg" xmlns:xlink="http://www.w3.org/1999/xlink" width="375" zoomAndPan="magnify" viewBox="0 0 375 374.999991" height="374.999991" preserveAspectRatio="xMidYMid meet" version="1.0"><path fill="rgb(66.668701%, 84.709167%, 95.689392%)" d="M 375.089844 187.574219 C 375.089844 234.171875 358.066406 276.832031 329.929688 309.628906 C 320.859375 320.199219 310.613281 329.753906 299.441406 338.058594 C 268.21875 361.328125 229.511719 375.089844 187.589844 375.089844 C 160.789062 375.089844 135.328125 369.472656 112.28125 359.34375 C 99.226562 353.625 86.964844 346.46875 75.675781 338.058594 C 64.519531 329.722656 54.300781 320.199219 45.230469 309.644531 C 17.097656 276.847656 0.0585938 234.1875 0.0585938 187.574219 C 0.0585938 84.011719 84.027344 0.0585938 187.589844 0.0585938 C 258.648438 0.0585938 320.476562 39.601562 352.289062 97.886719 C 366.828125 124.523438 375.089844 155.085938 375.089844 187.574219 Z M 375.089844 187.574219 " fill-opacity="1" fill-rule="nonzero"/><path fill="rgb(36.859131%, 75.689697%, 92.939758%)" d="M 375.089844 187.574219 C 375.089844 234.171875 358.066406 276.832031 329.929688 309.628906 C 320.859375 320.199219 310.613281 329.753906 299.441406 338.058594 C 268.21875 361.328125 229.511719 375.089844 187.589844 375.089844 C 160.789062 375.089844 135.328125 369.472656 112.28125 359.34375 L 196.378906 74.222656 L 239.921875 74.867188 L 268.144531 51.523438 L 352.289062 97.886719 C 366.828125 124.523438 375.089844 155.085938 375.089844 187.574219 Z M 375.089844 187.574219 " fill-opacity="1" fill-rule="nonzero"/><path fill="rgb(96.078491%, 62.748718%, 39.608765%)" d="M 124.511719 126.980469 C 122.644531 124.9375 119.777344 123.964844 118.160156 126.773438 C 115.835938 130.800781 116.070312 136.210938 116.410156 140.664062 C 116.691406 144.265625 117.128906 147.882812 118.070312 151.398438 C 118.878906 154.425781 119.996094 158.597656 122.703125 160.480469 C 123.320312 160.90625 124.15625 161.332031 124.9375 161.496094 C 125.363281 161.582031 127.949219 161.628906 127.066406 160.511719 " fill-opacity="1" fill-rule="nonzero"/><path fill="rgb(96.078491%, 62.748718%, 39.608765%)" d="M 250.429688 126.980469 C 252.296875 124.9375 255.164062 123.964844 256.78125 126.773438 C 259.105469 130.800781 258.867188 136.210938 258.53125 140.664062 C 258.25 144.265625 257.8125 147.882812 256.871094 151.398438 C 256.0625 154.425781 254.945312 158.597656 252.238281 160.480469 C 251.621094 160.90625 250.785156 161.332031 250.003906 161.496094 C 249.578125 161.582031 246.992188 161.628906 247.875 160.511719 " fill-opacity="1" fill-rule="nonzero"/><path fill="rgb(90.979004%, 59.609985%, 37.649536%)" d="M 329.929688 309.628906 C 320.859375 320.199219 310.628906 329.753906 299.441406 338.058594 L 75.675781 338.058594 C 64.503906 329.722656 54.289062 320.199219 45.230469 309.644531 C 53.730469 287.988281 71.738281 270.71875 94.960938 263.632812 L 133.625 248.785156 C 148.558594 243.875 147.882812 235.613281 147.882812 219.882812 L 147.882812 186.425781 L 227.25 186.425781 L 227.25 219.855469 C 227.25 235.597656 228.042969 244.949219 243.007812 249.84375 L 280.242188 263.585938 C 303.46875 270.703125 321.460938 287.976562 329.929688 309.628906 Z M 329.929688 309.628906 " fill-opacity="1" fill-rule="nonzero"/><path fill="rgb(100%, 100%, 100%)" d="M 329.929688 309.628906 C 295.546875 349.699219 244.535156 375.089844 187.589844 375.089844 C 130.640625 375.089844 79.628906 349.699219 45.246094 309.644531 C 53.742188 287.988281 71.75 270.71875 94.976562 263.632812 L 133.640625 248.785156 C 137.988281 247.34375 141.019531 245.625 143.121094 243.523438 C 158.320312 257.503906 187.324219 297.132812 187.324219 297.132812 C 187.324219 297.132812 224.941406 252.09375 235.144531 245.960938 C 237.1875 247.476562 239.757812 248.769531 243.023438 249.84375 L 280.257812 263.585938 C 303.46875 270.703125 321.460938 287.976562 329.929688 309.628906 Z M 329.929688 309.628906 " fill-opacity="1" fill-rule="nonzero"/><path fill="rgb(3.529358%, 15.689087%, 21.958923%)" d="M 280.257812 263.585938 L 243.023438 249.84375 C 239.757812 248.769531 237.1875 247.476562 235.144531 245.960938 C 233.910156 246.710938 232.261719 248.035156 230.335938 249.769531 L 230.335938 370.179688 C 269.777344 360.976562 304.425781 339.351562 329.929688 309.628906 C 321.460938 287.976562 303.46875 270.703125 280.257812 263.585938 Z M 280.257812 263.585938 " fill-opacity="1" fill-rule="nonzero"/><path fill="rgb(3.529358%, 15.689087%, 21.958923%)" d="M 146.238281 246.566406 C 145.148438 245.460938 144.089844 244.433594 143.105469 243.523438 C 141.003906 245.625 137.976562 247.34375 133.625 248.785156 L 94.960938 263.632812 C 71.738281 270.71875 53.730469 287.988281 45.230469 309.644531 C 71.046875 339.703125 106.207031 361.503906 146.238281 370.515625 Z M 146.238281 246.566406 " fill-opacity="1" fill-rule="nonzero"/><path fill="rgb(96.078491%, 62.748718%, 39.608765%)" d="M 250.753906 120.160156 C 250.59375 75.351562 222.78125 51.523438 187.324219 51.523438 C 187.308594 51.523438 187.339844 51.523438 187.324219 51.523438 C 187.308594 51.523438 184.648438 48.597656 184.617188 48.597656 C 149.160156 48.597656 124.671875 75.351562 124.523438 120.171875 C 124.453125 140.605469 125.15625 154.058594 127.230469 168.890625 C 133.683594 214.988281 176.121094 227.910156 187.574219 227.910156 C 201.613281 227.910156 241.597656 214.988281 248.050781 168.890625 C 250.121094 154.042969 250.828125 140.59375 250.753906 120.160156 Z M 250.753906 120.160156 " fill-opacity="1" fill-rule="nonzero"/><path fill="rgb(92.939758%, 92.939758%, 92.939758%)" d="M 238.246094 171.902344 C 225.882812 188.984375 207.023438 200.6875 184.691406 197.835938 C 168.023438 195.703125 153 186.515625 141.578125 174.460938 C 131.933594 164.289062 124.65625 142.328125 124.539062 128.347656 C 124.671875 144.371094 125.4375 156.128906 127.230469 168.875 C 133.683594 214.972656 176.121094 227.894531 187.574219 227.894531 C 201.613281 227.894531 241.597656 214.972656 248.050781 168.875 C 249.003906 162.023438 249.667969 155.453125 250.109375 148.355469 C 247.433594 156.703125 243.40625 164.773438 238.246094 171.902344 Z M 238.246094 171.902344 " fill-opacity="1" fill-rule="nonzero"/><path fill="rgb(92.939758%, 92.939758%, 92.939758%)" d="M 250.753906 120.160156 C 250.679688 100.109375 245.140625 82.601562 235.878906 69.355469 C 233.6875 74.382812 231.453125 79.378906 229.085938 84.335938 C 229.261719 98.152344 229.292969 113.5 238.273438 124.699219 C 242.742188 130.257812 248.050781 134.269531 249.710938 141.636719 C 250.019531 143.003906 250.035156 144.574219 249.945312 146.207031 C 250.050781 146.058594 250.152344 145.898438 250.253906 145.75 C 250.652344 138.226562 250.796875 130.007812 250.753906 120.160156 Z M 250.753906 120.160156 " fill-opacity="1" fill-rule="nonzero"/><path fill="rgb(92.939758%, 92.939758%, 92.939758%)" d="M 133.140625 135.078125 C 133.300781 134.902344 133.449219 134.726562 133.609375 134.550781 C 136.695312 131.273438 140.886719 129.097656 143.546875 125.480469 C 149.25 117.734375 146.148438 106.265625 150.777344 97.828125 C 151.558594 96.402344 152.585938 95.066406 154.011719 94.285156 C 160.027344 90.964844 168.492188 97.828125 174.3125 99.226562 C 182.28125 101.121094 190.792969 100.828125 198.554688 98.210938 C 205.566406 95.84375 213.078125 91.683594 219.855469 94.652344 C 223.105469 96.078125 225.527344 98.976562 228.75 100.503906 C 235.363281 103.636719 244.332031 98.976562 245.582031 91.757812 C 246.183594 88.230469 245.242188 84.335938 247.007812 81.21875 C 247.84375 79.75 249.195312 78.644531 250.550781 77.644531 C 253.5625 75.410156 256.839844 73.398438 259.179688 70.457031 C 261.515625 67.519531 262.75 63.3125 261.042969 59.960938 C 259.398438 56.726562 255.546875 55.242188 251.945312 54.773438 C 248.34375 54.300781 244.609375 54.550781 241.125 53.492188 C 232.910156 51.007812 227.824219 41.867188 219.429688 40.085938 C 213.769531 38.898438 208.199219 41.878906 202.671875 41.160156 C 196.980469 40.425781 191.867188 36.839844 185.941406 36.234375 C 180.019531 35.632812 173.59375 37.074219 169.492188 41.378906 C 166.800781 44.1875 165.273438 48.023438 162.261719 50.496094 C 155.21875 56.273438 143.488281 52.199219 136.402344 57.933594 C 132.375 61.183594 131.035156 66.855469 131.609375 71.988281 C 131.917969 74.71875 132.667969 77.617188 131.507812 80.117188 C 130.699219 81.878906 129.082031 83.101562 127.757812 84.511719 C 118.378906 94.492188 124.570312 108.472656 124.523438 120.144531 C 124.480469 131.964844 124.863281 143.695312 125.597656 155.496094 C 126.847656 148.265625 128.300781 140.578125 133.140625 135.078125 Z M 133.140625 135.078125 " fill-opacity="1" fill-rule="nonzero"/><path fill="rgb(100%, 100%, 100%)" d="M 170.800781 165.242188 C 164.464844 167.257812 160.421875 171.875 155.703125 176.238281 C 150.941406 180.648438 145.339844 181.238281 139.105469 180.488281 C 141.855469 183.75 144.941406 186.808594 148.722656 188.765625 C 161.304688 195.261719 197.894531 193.101562 189.382812 170.832031 C 186.722656 163.875 176.902344 163.304688 170.800781 165.242188 Z M 170.800781 165.242188 " fill-opacity="1" fill-rule="nonzero"/><path fill="rgb(100%, 100%, 100%)" d="M 204.480469 165.242188 C 210.8125 167.257812 214.855469 171.875 219.574219 176.238281 C 224.339844 180.648438 229.9375 181.238281 236.171875 180.488281 C 233.421875 183.75 230.335938 186.808594 226.558594 188.765625 C 213.976562 195.261719 177.386719 193.101562 185.898438 170.832031 C 188.558594 163.875 198.378906 163.304688 204.480469 165.242188 Z M 204.480469 165.242188 " fill-opacity="1" fill-rule="nonzero"/></svg>