<svg xmlns="http://www.w3.org/2000/svg" xmlns:xlink="http://www.w3.org/1999/xlink" width="375" zoomAndPan="magnify" viewBox="0 0 375 374.999991" height="374.999991" preserveAspectRatio="xMidYMid meet" version="1.0"><defs><clipPath id="id1"><path d="M 0 0 L 375 0 L 375 374.25 L 0 374.25 Z M 0 0 " clip-rule="nonzero"/></clipPath><clipPath id="id2"><path d="M 113 59 L 375 59 L 375 374.25 L 113 374.25 Z M 113 59 " clip-rule="nonzero"/></clipPath><clipPath id="id3"><path d="M 45 243 L 330 243 L 330 374.25 L 45 374.25 Z M 45 243 " clip-rule="nonzero"/></clipPath></defs><g clip-path="url(#id1)"><path fill="rgb(78.42865%, 76.858521%, 89.019775%)" d="M 374.269531 187.199219 C 374.269531 233.703125 357.308594 276.277344 329.269531 309.007812 C 320.230469 319.558594 310.019531 329.09375 298.886719 337.382812 C 267.773438 360.605469 229.199219 374.339844 187.421875 374.339844 C 160.714844 374.339844 135.34375 368.734375 112.375 358.625 C 99.363281 352.917969 87.148438 345.773438 75.898438 337.382812 C 64.777344 329.0625 54.597656 319.558594 45.558594 309.023438 C 17.519531 276.292969 0.542969 233.71875 0.542969 187.199219 C 0.542969 83.84375 84.21875 0.0585938 187.421875 0.0585938 C 258.234375 0.0585938 319.847656 39.523438 351.550781 97.691406 C 366.039062 124.277344 374.269531 154.777344 374.269531 187.199219 Z M 374.269531 187.199219 " fill-opacity="1" fill-rule="nonzero"/></g><g clip-path="url(#id2)"><path fill="rgb(58.039856%, 57.249451%, 78.039551%)" d="M 332.214844 117.675781 C 307.339844 104.398438 282.785156 90.460938 257.589844 77.796875 C 244.65625 71.300781 231.164062 65.769531 218.097656 59.476562 L 211.125 74.277344 L 196.972656 74.074219 L 113.164062 358.625 C 136.132812 368.734375 161.507812 374.339844 188.210938 374.339844 C 229.992188 374.339844 268.5625 360.605469 299.675781 337.382812 C 310.8125 329.09375 321.019531 319.558594 330.058594 309.007812 C 358.097656 276.277344 375.0625 233.703125 375.0625 187.199219 C 375.0625 169.417969 372.570312 152.222656 367.941406 135.925781 C 355.945312 130.054688 344.035156 123.996094 332.214844 117.675781 Z M 332.214844 117.675781 " fill-opacity="1" fill-rule="nonzero"/></g><path fill="rgb(66.668701%, 46.269226%, 28.239441%)" d="M 124.574219 126.726562 C 122.714844 124.6875 119.859375 123.71875 118.246094 126.519531 C 115.933594 130.539062 116.167969 135.9375 116.503906 140.382812 C 116.78125 143.976562 117.222656 147.585938 118.160156 151.09375 C 118.964844 154.117188 120.078125 158.28125 122.773438 160.160156 C 123.390625 160.585938 124.222656 161.011719 125 161.171875 C 125.425781 161.261719 128.003906 161.304688 127.125 160.191406 " fill-opacity="1" fill-rule="nonzero"/><path fill="rgb(66.668701%, 46.269226%, 28.239441%)" d="M 250.046875 126.726562 C 251.90625 124.6875 254.761719 123.71875 256.375 126.519531 C 258.6875 130.539062 258.453125 135.9375 258.117188 140.382812 C 257.839844 143.976562 257.398438 147.585938 256.460938 151.09375 C 255.65625 154.117188 254.542969 158.28125 251.847656 160.160156 C 251.234375 160.585938 250.398438 161.011719 249.621094 161.171875 C 249.195312 161.261719 246.617188 161.304688 247.496094 160.191406 " fill-opacity="1" fill-rule="nonzero"/><path fill="rgb(54.508972%, 38.038635%, 22.749329%)" d="M 329.269531 309.007812 C 320.230469 319.558594 310.035156 329.09375 298.886719 337.382812 L 75.910156 337.382812 C 64.777344 329.0625 54.597656 319.558594 45.574219 309.023438 C 54.039062 287.414062 71.984375 270.175781 95.132812 263.105469 L 133.660156 248.289062 C 148.542969 243.386719 147.867188 235.140625 147.867188 219.445312 L 147.867188 186.054688 L 226.960938 186.054688 L 226.960938 219.414062 C 226.960938 235.128906 227.75 244.457031 242.664062 249.34375 L 279.769531 263.0625 C 302.898438 270.160156 320.832031 287.398438 329.269531 309.007812 Z M 329.269531 309.007812 " fill-opacity="1" fill-rule="nonzero"/><g clip-path="url(#id3)"><path fill="rgb(92.939758%, 43.139648%, 29.019165%)" d="M 329.269531 309.007812 C 295.003906 349 244.171875 374.339844 187.421875 374.339844 C 130.671875 374.339844 79.835938 349 45.574219 309.023438 C 54.039062 287.414062 71.984375 270.175781 95.132812 263.105469 L 133.660156 248.289062 C 137.996094 246.847656 141.011719 245.132812 143.105469 243.035156 C 150.679688 250.019531 184.285156 280.695312 189.488281 280.769531 C 194.6875 280.839844 226.738281 250.328125 234.8125 245.46875 C 236.847656 246.980469 239.410156 248.273438 242.664062 249.34375 L 279.769531 263.0625 C 302.898438 270.160156 320.832031 287.398438 329.269531 309.007812 Z M 329.269531 309.007812 " fill-opacity="1" fill-rule="nonzero"/></g><path fill="rgb(66.668701%, 46.269226%, 28.239441%)" d="M 250.367188 119.917969 C 250.207031 75.203125 222.738281 49.996094 187.40625 49.996094 C 187.390625 49.996094 187.421875 49.996094 187.40625 49.996094 C 187.390625 49.996094 187.421875 49.996094 187.40625 49.996094 C 152.074219 49.996094 124.738281 75.203125 124.574219 119.917969 C 124.503906 140.3125 125.207031 153.734375 127.269531 168.539062 C 133.703125 214.542969 175.996094 227.441406 187.40625 227.441406 C 201.394531 227.441406 241.242188 214.542969 247.671875 168.539062 C 249.753906 153.734375 250.441406 140.3125 250.367188 119.917969 Z M 250.367188 119.917969 " fill-opacity="1" fill-rule="nonzero"/><path fill="rgb(66.668701%, 46.269226%, 28.239441%)" d="M 250.367188 119.917969 C 250.207031 75.203125 222.738281 49.996094 187.40625 49.996094 C 187.390625 49.996094 187.421875 49.996094 187.40625 49.996094 C 187.390625 49.996094 187.421875 49.996094 187.40625 49.996094 C 152.074219 49.996094 124.738281 75.203125 124.574219 119.917969 C 124.503906 140.3125 125.207031 153.734375 127.269531 168.539062 C 133.703125 214.542969 175.996094 227.441406 187.40625 227.441406 C 201.394531 227.441406 241.242188 214.542969 247.671875 168.539062 C 249.753906 153.734375 250.441406 140.3125 250.367188 119.917969 Z M 250.367188 119.917969 " fill-opacity="1" fill-rule="nonzero"/><path fill="rgb(27.839661%, 13.729858%, 7.058716%)" d="M 144.980469 95.828125 C 161.226562 87.570312 179.640625 84.285156 197.734375 86.558594 C 217.832031 89.082031 234.988281 98.46875 249.957031 110.984375 C 246.398438 71.855469 247.308594 49.984375 187.421875 49.984375 C 129.308594 49.984375 129.203125 71.3125 125.160156 109.515625 C 131.199219 104.234375 137.746094 99.511719 144.980469 95.828125 Z M 144.980469 95.828125 " fill-opacity="1" fill-rule="nonzero"/><path fill="rgb(100%, 100%, 100%)" d="M 147.589844 231.003906 L 127.316406 250.722656 L 171.46875 305.648438 L 189.488281 280.769531 Z M 147.589844 231.003906 " fill-opacity="1" fill-rule="nonzero"/><path fill="rgb(100%, 100%, 100%)" d="M 227.019531 231.003906 L 247.308594 250.722656 L 203.152344 305.648438 L 185.121094 280.769531 Z M 227.019531 231.003906 " fill-opacity="1" fill-rule="nonzero"/><path fill="rgb(27.839661%, 13.729858%, 7.058716%)" d="M 190.671875 203.644531 C 190.511719 203.394531 190.367188 203.160156 190.21875 202.925781 C 188.828125 200.605469 185.605469 200.34375 183.773438 202.339844 C 181.855469 204.421875 179.539062 206.300781 177.269531 207.898438 C 171.367188 212.050781 163.484375 212.285156 157.417969 208.367188 C 147.253906 201.796875 138.332031 191.570312 129.292969 178.21875 C 139.839844 216.363281 176.84375 227.425781 187.40625 227.425781 C 199.753906 227.425781 232.234375 217.363281 244.113281 183.371094 C 237.183594 195.5625 228.027344 205.699219 215.855469 210.554688 C 205.132812 214.839844 196.003906 212.007812 190.671875 203.644531 Z M 190.671875 203.644531 " fill-opacity="1" fill-rule="nonzero"/></svg>