<svg xmlns="http://www.w3.org/2000/svg" xmlns:xlink="http://www.w3.org/1999/xlink" width="375" zoomAndPan="magnify" viewBox="0 0 375 374.999991" height="374.999991" preserveAspectRatio="xMidYMid meet" version="1.0"><path fill="rgb(66.668701%, 84.709167%, 95.689392%)" d="M 375.089844 187.574219 C 375.089844 234.171875 358.066406 276.832031 329.929688 309.628906 C 320.859375 320.199219 310.613281 329.753906 299.441406 338.058594 C 268.21875 361.328125 229.511719 375.089844 187.589844 375.089844 C 160.789062 375.089844 135.328125 369.472656 112.28125 359.34375 C 99.226562 353.625 86.964844 346.46875 75.675781 338.058594 C 64.519531 329.722656 54.300781 320.199219 45.230469 309.644531 C 17.097656 276.847656 0.0585938 234.1875 0.0585938 187.574219 C 0.0585938 84.011719 84.027344 0.0585938 187.589844 0.0585938 C 258.648438 0.0585938 320.476562 39.601562 352.289062 97.886719 C 366.828125 124.523438 375.089844 155.085938 375.089844 187.574219 Z M 375.089844 187.574219 " fill-opacity="1" fill-rule="nonzero"/><path fill="rgb(36.859131%, 75.689697%, 92.939758%)" d="M 375.089844 187.574219 C 375.089844 234.171875 358.066406 276.832031 329.929688 309.628906 C 320.859375 320.199219 310.613281 329.753906 299.441406 338.058594 C 268.21875 361.328125 229.511719 375.089844 187.589844 375.089844 C 160.789062 375.089844 135.328125 369.472656 112.28125 359.34375 L 196.378906 74.222656 L 187.324219 51.523438 L 237.4375 42.660156 L 352.289062 97.886719 C 366.828125 124.523438 375.089844 155.085938 375.089844 187.574219 Z M 375.089844 187.574219 " fill-opacity="1" fill-rule="nonzero"/><path fill="rgb(98.429871%, 79.60968%, 59.609985%)" d="M 124.511719 126.980469 C 122.644531 124.9375 119.777344 123.964844 118.160156 126.773438 C 115.835938 130.800781 116.070312 136.210938 116.410156 140.664062 C 116.691406 144.265625 117.128906 147.882812 118.070312 151.398438 C 118.878906 154.425781 119.996094 158.597656 122.703125 160.480469 C 123.320312 160.90625 124.15625 161.332031 124.9375 161.496094 C 125.363281 161.582031 127.949219 161.628906 127.066406 160.511719 " fill-opacity="1" fill-rule="nonzero"/><path fill="rgb(98.429871%, 79.60968%, 59.609985%)" d="M 250.429688 126.980469 C 252.296875 124.9375 255.164062 123.964844 256.78125 126.773438 C 259.105469 130.800781 258.867188 136.210938 258.53125 140.664062 C 258.25 144.265625 257.8125 147.882812 256.871094 151.398438 C 256.0625 154.425781 254.945312 158.597656 252.238281 160.480469 C 251.621094 160.90625 250.785156 161.332031 250.003906 161.496094 C 249.578125 161.582031 246.992188 161.628906 247.875 160.511719 " fill-opacity="1" fill-rule="nonzero"/><path fill="rgb(98.429871%, 79.60968%, 59.609985%)" d="M 329.929688 309.628906 C 320.859375 320.199219 310.628906 329.753906 299.441406 338.058594 L 75.675781 338.058594 C 64.503906 329.722656 54.289062 320.199219 45.230469 309.644531 C 53.730469 287.988281 71.738281 270.71875 94.960938 263.632812 L 133.625 248.785156 C 148.558594 243.875 147.882812 235.613281 147.882812 219.882812 L 147.882812 186.425781 L 227.25 186.425781 L 227.25 219.855469 C 227.25 235.597656 228.042969 244.949219 243.007812 249.84375 L 280.242188 263.585938 C 303.46875 270.703125 321.460938 287.976562 329.929688 309.628906 Z M 329.929688 309.628906 " fill-opacity="1" fill-rule="nonzero"/><path fill="rgb(36.468506%, 15.689087%, 10.5896%)" d="M 329.929688 309.628906 C 295.546875 349.699219 244.535156 375.089844 187.589844 375.089844 C 130.640625 375.089844 79.628906 349.699219 45.246094 309.644531 C 53.742188 287.988281 71.75 270.71875 94.976562 263.632812 L 133.640625 248.785156 C 137.988281 247.34375 141.019531 245.625 143.121094 243.523438 C 143.265625 243.667969 143.429688 243.800781 143.574219 243.949219 C 168.347656 267.128906 206.375 268.792969 232.863281 247.59375 C 233.71875 246.902344 234.480469 246.359375 235.128906 245.960938 C 237.171875 247.476562 239.746094 248.769531 243.007812 249.84375 L 280.242188 263.585938 C 303.46875 270.703125 321.460938 287.976562 329.929688 309.628906 Z M 329.929688 309.628906 " fill-opacity="1" fill-rule="nonzero"/><path fill="rgb(98.429871%, 79.60968%, 59.609985%)" d="M 250.753906 120.160156 C 250.59375 75.351562 222.78125 51.523438 187.324219 51.523438 C 187.308594 51.523438 187.339844 51.523438 187.324219 51.523438 C 187.308594 51.523438 184.648438 48.597656 184.617188 48.597656 C 149.160156 48.597656 124.671875 75.351562 124.523438 120.171875 C 124.453125 140.605469 125.15625 154.058594 127.230469 168.890625 C 133.683594 214.988281 176.121094 227.910156 187.574219 227.910156 C 201.613281 227.910156 241.597656 214.988281 248.050781 168.890625 C 250.121094 154.042969 250.828125 140.59375 250.753906 120.160156 Z M 250.753906 120.160156 " fill-opacity="1" fill-rule="nonzero"/><path fill="rgb(55.688477%, 29.019165%, 19.999695%)" d="M 250.753906 120.160156 C 250.679688 100.109375 245.140625 82.601562 235.878906 69.355469 C 233.6875 74.382812 231.453125 79.378906 229.085938 84.335938 C 229.261719 98.152344 229.292969 113.5 238.273438 124.699219 C 242.742188 130.257812 248.050781 134.269531 249.710938 141.636719 C 250.019531 143.003906 250.035156 144.574219 249.945312 146.207031 C 250.050781 146.058594 250.152344 145.898438 250.253906 145.75 C 250.652344 138.226562 250.796875 130.007812 250.753906 120.160156 Z M 250.753906 120.160156 " fill-opacity="1" fill-rule="nonzero"/><path fill="rgb(55.688477%, 29.019165%, 19.999695%)" d="M 131.167969 134.402344 C 132.875 129.492188 135.359375 124.890625 139.152344 121.230469 C 143.136719 117.394531 148.398438 114.765625 151.410156 110.117188 C 153.632812 106.695312 154.367188 102.535156 154.777344 98.476562 C 155.542969 90.992188 155.378906 83.421875 154.292969 75.96875 C 153.542969 70.871094 153.570312 63.167969 148.898438 60.007812 C 146.207031 58.183594 142.605469 58.082031 139.535156 59.152344 C 136.460938 60.226562 133.859375 62.328125 131.59375 64.652344 C 124.421875 72.046875 120.144531 82.1875 119.878906 92.492188 C 119.613281 102.929688 124.730469 116.925781 124.511719 126.964844 C 124.390625 132.769531 124.539062 138.5625 124.878906 144.355469 C 125.023438 146.988281 124.878906 149.207031 124.597656 151.707031 C 124.378906 153.734375 124.699219 156.363281 125.347656 158.261719 C 129.417969 154.996094 128.375 144.988281 129.539062 140.0625 C 129.976562 138.179688 130.523438 136.269531 131.167969 134.402344 Z M 131.167969 134.402344 " fill-opacity="1" fill-rule="nonzero"/><path fill="rgb(62.348938%, 32.548523%, 22.749329%)" d="M 214.035156 170.082031 C 206.785156 167.082031 201.714844 161.332031 195.011719 157.570312 C 187.25 153.21875 179.664062 156.484375 172.753906 160.832031 C 165.742188 165.257812 158.746094 169.800781 150.132812 169.832031 C 141.972656 169.859375 134.285156 166.289062 128.375 160.820312 C 127.390625 159.90625 126.464844 158.9375 125.570312 157.953125 C 125.949219 161.980469 126.40625 165.949219 126.980469 170.007812 C 133.433594 216.105469 175.871094 229.027344 187.324219 229.027344 C 201.363281 229.027344 241.347656 216.105469 247.800781 170.007812 C 248.066406 168.140625 250.300781 157.351562 250.503906 155.527344 C 241.007812 163.730469 226.335938 175.167969 214.035156 170.082031 Z M 194.660156 201.464844 C 194.660156 199.847656 193.351562 198.539062 191.734375 198.539062 L 182.914062 198.539062 C 181.296875 198.539062 179.988281 199.847656 179.988281 201.464844 L 179.988281 201.714844 C 179.988281 203.566406 178.195312 204.875 176.429688 204.332031 C 170.300781 202.464844 163.875 198.730469 157.421875 192.261719 C 157.421875 192.261719 180.839844 192.894531 187.308594 172.417969 C 187.308594 172.417969 194.570312 192.070312 218.03125 192.261719 C 218.03125 192.261719 210.09375 200.363281 198.230469 204.066406 C 196.46875 204.625 194.660156 203.332031 194.660156 201.464844 Z M 194.660156 201.464844 " fill-opacity="1" fill-rule="nonzero"/><path fill="rgb(100%, 100%, 100%)" d="M 164.890625 125.023438 L 151.148438 125.023438 C 159.980469 133.859375 168.832031 142.707031 177.664062 151.542969 C 178.722656 150.160156 179.472656 148.515625 179.8125 146.707031 L 180.871094 140.945312 C 175.546875 135.636719 170.226562 130.332031 164.890625 125.023438 Z M 164.890625 125.023438 " fill-opacity="0.4196" fill-rule="nonzero"/><path fill="rgb(100%, 100%, 100%)" d="M 144.132812 125.6875 C 140.121094 127.039062 137.035156 130.316406 135.902344 134.328125 L 157.613281 156.042969 L 168.625 156.042969 C 170.332031 156.042969 171.960938 155.660156 173.433594 154.984375 Z M 144.132812 125.6875 " fill-opacity="0.4196" fill-rule="nonzero"/><path fill="rgb(0%, 0%, 0%)" d="M 168.625 157.410156 L 148.03125 157.410156 C 141.886719 157.410156 136.609375 153.011719 135.503906 146.972656 L 134.300781 140.386719 C 133.535156 136.242188 134.652344 132.007812 137.359375 128.773438 C 140.046875 125.539062 144.015625 123.6875 148.234375 123.6875 L 168.449219 123.6875 C 172.667969 123.6875 176.621094 125.539062 179.328125 128.773438 C 182.015625 132.007812 183.132812 136.242188 182.382812 140.386719 L 181.179688 146.972656 C 180.03125 153.011719 174.769531 157.410156 168.625 157.410156 Z M 148.222656 126.390625 C 144.8125 126.390625 141.605469 127.890625 139.429688 130.507812 C 137.253906 133.125 136.359375 136.550781 136.960938 139.886719 L 138.167969 146.472656 C 139.035156 151.234375 143.179688 154.6875 148.015625 154.6875 L 168.609375 154.6875 C 173.445312 154.6875 177.59375 151.234375 178.460938 146.472656 L 179.664062 139.886719 C 180.28125 136.535156 179.386719 133.125 177.195312 130.507812 C 175.003906 127.890625 171.816406 126.390625 168.40625 126.390625 Z M 148.222656 126.390625 " fill-opacity="1" fill-rule="nonzero"/><path fill="rgb(100%, 100%, 100%)" d="M 223.382812 125.023438 L 209.636719 125.023438 C 218.472656 133.859375 227.324219 142.707031 236.15625 151.542969 C 237.214844 150.160156 237.964844 148.515625 238.304688 146.707031 L 239.363281 140.945312 C 234.054688 135.636719 228.734375 130.332031 223.382812 125.023438 Z M 223.382812 125.023438 " fill-opacity="0.4196" fill-rule="nonzero"/><path fill="rgb(100%, 100%, 100%)" d="M 202.640625 125.6875 C 198.628906 127.039062 195.539062 130.316406 194.410156 134.328125 L 216.121094 156.042969 L 227.132812 156.042969 C 228.835938 156.042969 230.46875 155.660156 231.9375 154.984375 Z M 202.640625 125.6875 " fill-opacity="0.4196" fill-rule="nonzero"/><path fill="rgb(0%, 0%, 0%)" d="M 227.117188 157.410156 L 206.523438 157.410156 C 200.378906 157.410156 195.101562 153.011719 193.996094 146.972656 L 192.792969 140.386719 C 192.027344 136.242188 193.144531 132.007812 195.851562 128.773438 C 198.539062 125.539062 202.507812 123.6875 206.726562 123.6875 L 226.941406 123.6875 C 231.160156 123.6875 235.113281 125.539062 237.820312 128.773438 C 240.507812 132.007812 241.625 136.242188 240.875 140.386719 L 239.671875 146.972656 C 238.539062 153.011719 233.277344 157.410156 227.117188 157.410156 Z M 206.714844 126.390625 C 203.300781 126.390625 200.097656 127.890625 197.921875 130.507812 C 195.746094 133.125 194.851562 136.550781 195.453125 139.886719 L 196.65625 146.472656 C 197.527344 151.234375 201.671875 154.6875 206.507812 154.6875 L 227.101562 154.6875 C 231.9375 154.6875 236.082031 151.234375 236.953125 146.472656 L 238.15625 139.886719 C 238.773438 136.535156 237.878906 133.109375 235.6875 130.507812 C 233.511719 127.890625 230.308594 126.390625 226.894531 126.390625 Z M 206.714844 126.390625 " fill-opacity="1" fill-rule="nonzero"/><path fill="rgb(0%, 0%, 0%)" d="M 180.871094 131.785156 L 194.980469 131.785156 L 194.980469 140.855469 L 180.871094 140.855469 Z M 180.871094 131.785156 " fill-opacity="1" fill-rule="nonzero"/><path fill="rgb(62.348938%, 32.548523%, 22.749329%)" d="M 153.320312 43.703125 C 144.222656 50.746094 143.355469 62.960938 147.308594 73.058594 C 155.117188 92.976562 179.148438 107.03125 198.304688 114.074219 C 199.699219 114.585938 215.855469 118.984375 215.871094 118.484375 C 216.121094 112.089844 215.796875 106.632812 222.515625 112.46875 C 226.351562 115.792969 230.675781 118.554688 235.289062 120.644531 C 237.597656 121.6875 239.992188 122.585938 242.433594 123.261719 C 245.816406 124.203125 245.933594 124.304688 247.816406 121.496094 C 253.710938 112.734375 255.914062 100.300781 256.074219 89.949219 C 256.3125 74.851562 247.195312 54.597656 230.042969 52.554688 C 226.335938 52.113281 222.824219 52.832031 218.988281 51.921875 C 218.355469 51.773438 217.546875 51.199219 217.914062 50.65625 C 225 49.890625 231.851562 47.085938 237.4375 42.660156 C 224.292969 43.71875 210.886719 43.175781 197.777344 42.308594 C 184.117188 41.394531 165.613281 34.191406 153.320312 43.703125 Z M 153.320312 43.703125 " fill-opacity="1" fill-rule="nonzero"/><path fill="rgb(0%, 0%, 0%)" d="M 135.902344 135.695312 C 135.652344 135.695312 135.386719 135.625 135.167969 135.476562 L 123.789062 128.113281 C 123.15625 127.699219 122.980469 126.863281 123.394531 126.230469 C 123.804688 125.597656 124.640625 125.421875 125.273438 125.832031 L 136.652344 133.199219 C 137.285156 133.609375 137.460938 134.449219 137.050781 135.078125 C 136.785156 135.476562 136.34375 135.695312 135.902344 135.695312 Z M 135.902344 135.695312 " fill-opacity="1" fill-rule="nonzero"/><path fill="rgb(0%, 0%, 0%)" d="M 239.921875 135.695312 C 239.496094 135.695312 239.066406 135.492188 238.804688 135.125 C 238.378906 134.507812 238.523438 133.667969 239.140625 133.226562 L 249.636719 125.863281 C 250.253906 125.4375 251.09375 125.582031 251.535156 126.199219 C 251.960938 126.816406 251.8125 127.65625 251.195312 128.097656 L 240.699219 135.460938 C 240.464844 135.609375 240.199219 135.695312 239.921875 135.695312 Z M 239.921875 135.695312 " fill-opacity="1" fill-rule="nonzero"/></svg>