<svg xmlns="http://www.w3.org/2000/svg" xmlns:xlink="http://www.w3.org/1999/xlink" width="375" zoomAndPan="magnify" viewBox="0 0 375 374.999991" height="374.999991" preserveAspectRatio="xMidYMid meet" version="1.0"><path fill="rgb(78.42865%, 76.858521%, 89.019775%)" d="M 375.089844 187.574219 C 375.089844 234.171875 358.066406 276.832031 329.929688 309.628906 C 320.859375 320.199219 310.613281 329.753906 299.441406 338.058594 C 268.21875 361.328125 229.511719 375.089844 187.589844 375.089844 C 160.789062 375.089844 135.328125 369.472656 112.28125 359.34375 C 99.226562 353.625 86.964844 346.46875 75.675781 338.058594 C 64.519531 329.722656 54.300781 320.199219 45.230469 309.644531 C 17.097656 276.847656 0.0585938 234.1875 0.0585938 187.574219 C 0.0585938 84.011719 84.027344 0.0585938 187.589844 0.0585938 C 258.648438 0.0585938 320.476562 39.601562 352.289062 97.886719 C 366.828125 124.523438 375.089844 155.085938 375.089844 187.574219 Z M 375.089844 187.574219 " fill-opacity="1" fill-rule="nonzero"/><path fill="rgb(58.039856%, 57.249451%, 78.039551%)" d="M 375.089844 187.574219 C 375.089844 234.171875 358.066406 276.832031 329.929688 309.628906 C 320.859375 320.199219 310.613281 329.753906 299.441406 338.058594 C 268.21875 361.328125 229.511719 375.089844 187.589844 375.089844 C 160.789062 375.089844 135.328125 369.472656 112.28125 359.34375 L 196.378906 74.222656 L 239.921875 74.867188 L 224.734375 44.421875 L 352.289062 97.875 C 366.828125 124.523438 375.089844 155.085938 375.089844 187.574219 Z M 375.089844 187.574219 " fill-opacity="1" fill-rule="nonzero"/><path fill="rgb(66.668701%, 46.269226%, 28.239441%)" d="M 124.511719 126.980469 C 122.644531 124.9375 119.777344 123.964844 118.160156 126.773438 C 115.835938 130.800781 116.070312 136.210938 116.410156 140.664062 C 116.691406 144.265625 117.128906 147.882812 118.070312 151.398438 C 118.878906 154.425781 119.996094 158.597656 122.703125 160.480469 C 123.320312 160.90625 124.15625 161.332031 124.9375 161.496094 C 125.363281 161.582031 127.949219 161.628906 127.066406 160.511719 " fill-opacity="1" fill-rule="nonzero"/><path fill="rgb(66.668701%, 46.269226%, 28.239441%)" d="M 250.429688 126.980469 C 252.296875 124.9375 255.164062 123.964844 256.78125 126.773438 C 259.105469 130.800781 258.867188 136.210938 258.53125 140.664062 C 258.25 144.265625 257.8125 147.882812 256.871094 151.398438 C 256.0625 154.425781 254.945312 158.597656 252.238281 160.480469 C 251.621094 160.90625 250.785156 161.332031 250.003906 161.496094 C 249.578125 161.582031 246.992188 161.628906 247.875 160.511719 " fill-opacity="1" fill-rule="nonzero"/><path fill="rgb(54.508972%, 38.038635%, 22.749329%)" d="M 329.929688 309.628906 C 320.859375 320.199219 310.628906 329.753906 299.441406 338.058594 L 75.675781 338.058594 C 64.503906 329.722656 54.289062 320.199219 45.230469 309.644531 C 53.730469 287.988281 71.738281 270.71875 94.960938 263.632812 L 133.625 248.785156 C 148.558594 243.875 147.882812 235.613281 147.882812 219.882812 L 147.882812 186.425781 L 227.25 186.425781 L 227.25 219.855469 C 227.25 235.597656 228.042969 244.949219 243.007812 249.84375 L 280.242188 263.585938 C 303.46875 270.703125 321.460938 287.976562 329.929688 309.628906 Z M 329.929688 309.628906 " fill-opacity="1" fill-rule="nonzero"/><path fill="rgb(90.589905%, 90.589905%, 90.589905%)" d="M 329.929688 309.628906 C 295.546875 349.699219 244.535156 375.089844 187.589844 375.089844 C 130.640625 375.089844 79.628906 349.699219 45.246094 309.644531 C 53.742188 287.988281 71.75 270.71875 94.976562 263.632812 L 133.640625 248.785156 C 137.988281 247.34375 141.019531 245.625 143.121094 243.523438 C 150.71875 250.519531 184.441406 281.257812 189.660156 281.332031 C 194.894531 281.40625 227.042969 250.828125 235.144531 245.960938 C 237.1875 247.476562 239.757812 248.769531 243.023438 249.84375 L 280.257812 263.585938 C 303.46875 270.703125 321.460938 287.976562 329.929688 309.628906 Z M 329.929688 309.628906 " fill-opacity="1" fill-rule="nonzero"/><path fill="rgb(66.668701%, 46.269226%, 28.239441%)" d="M 250.753906 120.160156 C 250.59375 75.351562 223.03125 50.097656 187.574219 50.097656 C 187.558594 50.097656 187.589844 50.097656 187.574219 50.097656 C 187.558594 50.097656 187.589844 50.097656 187.574219 50.097656 C 152.117188 50.097656 124.6875 75.351562 124.523438 120.160156 C 124.453125 140.59375 125.15625 154.042969 127.230469 168.875 C 133.683594 214.972656 176.121094 227.894531 187.574219 227.894531 C 201.613281 227.894531 241.597656 214.972656 248.050781 168.875 C 250.121094 154.042969 250.828125 140.59375 250.753906 120.160156 Z M 250.753906 120.160156 " fill-opacity="1" fill-rule="nonzero"/><path fill="rgb(27.839661%, 13.729858%, 7.058716%)" d="M 255.824219 112.132812 C 260.132812 109.957031 263.867188 106.265625 264.75 101.546875 C 265.691406 96.402344 262.03125 90.433594 256.8125 90.242188 C 258.855469 84.921875 257.855469 78.527344 254.28125 74.089844 C 247.753906 65.972656 236.90625 66.121094 231.777344 75.132812 C 228.277344 81.277344 227.042969 90.214844 227.410156 97.226562 C 227.574219 100.519531 228.027344 103.914062 229.660156 106.78125 C 231.292969 109.648438 234.347656 111.925781 237.640625 111.78125 C 233.894531 116.984375 236.570312 125.480469 242.625 127.613281 C 244.535156 128.289062 247.136719 128.949219 247.183594 130.976562 C 247.195312 131.609375 246.917969 132.199219 246.667969 132.769531 C 245.082031 136.417969 244.390625 140.460938 244.683594 144.429688 C 244.902344 147.5 246.785156 151.324219 249.828125 150.792969 C 251.429688 150.515625 251.738281 140.222656 252.605469 138.871094 C 254.546875 135.84375 257.164062 133.59375 258.648438 130.183594 C 258.855469 129.714844 259.03125 129.214844 259.191406 128.714844 C 259.425781 128.421875 259.691406 128.15625 259.914062 127.847656 C 261.648438 125.320312 262.398438 121.953125 261.25 119.113281 C 260.28125 116.71875 258.191406 115.042969 256.015625 113.585938 C 255.855469 113.101562 255.8125 112.632812 255.824219 112.132812 Z M 255.824219 112.132812 " fill-opacity="1" fill-rule="nonzero"/><path fill="rgb(27.839661%, 13.729858%, 7.058716%)" d="M 132.507812 133.433594 C 136.125 131.714844 138.519531 127.613281 138.152344 123.597656 C 137.917969 121.128906 137.09375 117.9375 139.253906 116.734375 C 140.078125 116.277344 141.078125 116.335938 142.019531 116.25 C 146.429688 115.851562 150.101562 111.542969 149.792969 107.121094 C 149.398438 101.402344 147.632812 93.464844 156.011719 96.507812 C 162.554688 98.871094 166.171875 103.34375 174.003906 100.445312 C 178.09375 98.933594 182.355469 95.828125 186.351562 97.578125 C 187.617188 98.125 188.632812 99.109375 189.71875 99.960938 C 195.96875 104.828125 205.375 105.121094 211.902344 100.636719 C 214.371094 98.945312 216.546875 96.59375 219.457031 95.917969 C 222.558594 95.183594 225.75 96.507812 228.910156 96.84375 C 235.230469 97.519531 238.40625 89.507812 244.007812 87.464844 C 250.476562 85.113281 256.957031 84.070312 259.308594 76.21875 C 260.925781 70.824219 257.28125 63.84375 251.652344 63.855469 C 249.59375 63.855469 246.84375 64.371094 246.078125 62.460938 C 245.828125 61.8125 245.933594 61.109375 245.992188 60.417969 C 246.566406 53.066406 238.816406 46.320312 231.613281 47.90625 C 230.703125 43.292969 227.234375 39.277344 222.796875 37.71875 C 218.371094 36.148438 213.136719 37.089844 209.535156 40.101562 C 203.742188 32.75 192.996094 29.78125 184.25 33.121094 C 180.371094 32.738281 176.476562 32.355469 172.59375 31.972656 C 169.316406 31.648438 165.890625 31.355469 162.847656 32.621094 C 159.804688 33.882812 157.394531 37.28125 158.378906 40.410156 C 153.484375 37.324219 147.425781 35.28125 141.898438 36.972656 C 136.359375 38.660156 132.210938 45.261719 134.726562 50.480469 C 123.746094 50.773438 114.46875 62.195312 116.425781 73 C 113.265625 76.132812 110.058594 79.453125 108.648438 83.671875 C 107.238281 87.890625 108.148438 93.226562 111.910156 95.59375 C 108.058594 98.742188 105.078125 103.371094 105.222656 108.339844 C 105.371094 113.308594 109.488281 118.246094 114.453125 118.070312 C 114.175781 124.804688 120.980469 127.199219 119.21875 133.140625 C 117.9375 137.417969 117.851562 142.636719 119.863281 146.707031 C 126.640625 160.4375 130.097656 144.222656 129.480469 136.960938 C 129.417969 136.300781 129.359375 135.578125 129.699219 135.003906 C 130.125 134.285156 131.007812 134.035156 131.800781 133.757812 C 132.035156 133.640625 132.273438 133.535156 132.507812 133.433594 Z M 132.507812 133.433594 " fill-opacity="1" fill-rule="nonzero"/><path fill="rgb(100%, 100%, 100%)" d="M 147.617188 231.46875 L 127.273438 251.226562 L 171.578125 306.261719 L 189.660156 281.332031 Z M 147.617188 231.46875 " fill-opacity="1" fill-rule="nonzero"/><path fill="rgb(100%, 100%, 100%)" d="M 227.324219 231.46875 L 247.683594 251.226562 L 203.363281 306.261719 L 185.28125 281.332031 Z M 227.324219 231.46875 " fill-opacity="1" fill-rule="nonzero"/><path fill="rgb(49.409485%, 49.409485%, 49.01886%)" d="M 192.761719 311.394531 C 192.761719 311.730469 192.730469 312.0625 192.664062 312.394531 C 192.597656 312.722656 192.5 313.042969 192.371094 313.355469 C 192.242188 313.667969 192.085938 313.960938 191.898438 314.242188 C 191.710938 314.523438 191.5 314.78125 191.261719 315.019531 C 191.023438 315.257812 190.761719 315.472656 190.484375 315.660156 C 190.203125 315.84375 189.90625 316.003906 189.59375 316.132812 C 189.285156 316.261719 188.964844 316.359375 188.632812 316.425781 C 188.304688 316.488281 187.96875 316.523438 187.632812 316.523438 C 187.296875 316.523438 186.960938 316.488281 186.632812 316.425781 C 186.300781 316.359375 185.980469 316.261719 185.667969 316.132812 C 185.359375 316.003906 185.0625 315.84375 184.78125 315.660156 C 184.5 315.472656 184.242188 315.257812 184.003906 315.019531 C 183.765625 314.78125 183.554688 314.523438 183.367188 314.242188 C 183.179688 313.960938 183.019531 313.667969 182.890625 313.355469 C 182.761719 313.042969 182.667969 312.722656 182.601562 312.394531 C 182.535156 312.0625 182.5 311.730469 182.5 311.394531 C 182.5 311.054688 182.535156 310.722656 182.601562 310.390625 C 182.667969 310.0625 182.761719 309.742188 182.890625 309.429688 C 183.019531 309.117188 183.179688 308.824219 183.367188 308.542969 C 183.554688 308.261719 183.765625 308.003906 184.003906 307.765625 C 184.242188 307.527344 184.5 307.3125 184.78125 307.125 C 185.0625 306.941406 185.359375 306.78125 185.667969 306.652344 C 185.980469 306.523438 186.300781 306.425781 186.632812 306.359375 C 186.960938 306.296875 187.296875 306.261719 187.632812 306.261719 C 187.96875 306.261719 188.300781 306.296875 188.632812 306.359375 C 188.964844 306.425781 189.285156 306.523438 189.59375 306.652344 C 189.90625 306.78125 190.203125 306.941406 190.484375 307.125 C 190.761719 307.3125 191.023438 307.527344 191.261719 307.765625 C 191.5 308.003906 191.710938 308.261719 191.898438 308.542969 C 192.085938 308.824219 192.242188 309.117188 192.371094 309.429688 C 192.5 309.742188 192.597656 310.0625 192.664062 310.390625 C 192.730469 310.722656 192.761719 311.054688 192.761719 311.394531 Z M 192.761719 311.394531 " fill-opacity="1" fill-rule="nonzero"/><path fill="rgb(49.409485%, 49.409485%, 49.01886%)" d="M 192.761719 343.1875 C 192.761719 343.527344 192.730469 343.859375 192.664062 344.191406 C 192.597656 344.519531 192.5 344.839844 192.371094 345.152344 C 192.242188 345.464844 192.085938 345.757812 191.898438 346.039062 C 191.710938 346.320312 191.5 346.578125 191.261719 346.816406 C 191.023438 347.054688 190.761719 347.265625 190.484375 347.453125 C 190.203125 347.640625 189.90625 347.800781 189.59375 347.929688 C 189.285156 348.058594 188.964844 348.15625 188.632812 348.222656 C 188.304688 348.285156 187.96875 348.320312 187.632812 348.320312 C 187.296875 348.320312 186.960938 348.285156 186.632812 348.222656 C 186.300781 348.15625 185.980469 348.058594 185.667969 347.929688 C 185.359375 347.800781 185.0625 347.640625 184.78125 347.453125 C 184.5 347.265625 184.242188 347.054688 184.003906 346.816406 C 183.765625 346.578125 183.554688 346.320312 183.367188 346.039062 C 183.179688 345.757812 183.019531 345.464844 182.890625 345.152344 C 182.761719 344.839844 182.667969 344.519531 182.601562 344.191406 C 182.535156 343.859375 182.5 343.527344 182.5 343.1875 C 182.5 342.851562 182.535156 342.519531 182.601562 342.1875 C 182.667969 341.859375 182.761719 341.535156 182.890625 341.226562 C 183.019531 340.914062 183.179688 340.617188 183.367188 340.339844 C 183.554688 340.058594 183.765625 339.800781 184.003906 339.5625 C 184.242188 339.324219 184.5 339.109375 184.78125 338.921875 C 185.0625 338.734375 185.359375 338.578125 185.667969 338.449219 C 185.980469 338.320312 186.300781 338.222656 186.632812 338.15625 C 186.960938 338.089844 187.296875 338.058594 187.632812 338.058594 C 187.96875 338.058594 188.300781 338.089844 188.632812 338.15625 C 188.964844 338.222656 189.285156 338.320312 189.59375 338.449219 C 189.90625 338.578125 190.203125 338.734375 190.484375 338.921875 C 190.761719 339.109375 191.023438 339.324219 191.261719 339.5625 C 191.5 339.800781 191.710938 340.058594 191.898438 340.339844 C 192.085938 340.617188 192.242188 340.914062 192.371094 341.226562 C 192.5 341.535156 192.597656 341.859375 192.664062 342.1875 C 192.730469 342.519531 192.761719 342.851562 192.761719 343.1875 Z M 192.761719 343.1875 " fill-opacity="1" fill-rule="nonzero"/><path fill="rgb(100%, 100%, 100%)" d="M 152.703125 131.066406 L 152.617188 131.066406 C 147.441406 131.066406 143.222656 135.300781 143.222656 140.460938 L 143.222656 140.621094 L 164.15625 161.554688 L 172.816406 161.554688 C 175.636719 161.554688 178.179688 160.277344 179.914062 158.289062 C 170.84375 149.207031 161.773438 140.136719 152.703125 131.066406 Z M 152.703125 131.066406 " fill-opacity="0.4196" fill-rule="nonzero"/><path fill="rgb(92.939758%, 43.139648%, 29.019165%)" d="M 172.800781 163.023438 L 152.617188 163.023438 C 146.617188 163.023438 141.753906 158.144531 141.753906 152.160156 L 141.753906 140.460938 C 141.753906 134.460938 146.632812 129.597656 152.617188 129.597656 L 172.800781 129.597656 C 178.796875 129.597656 183.664062 134.476562 183.664062 140.460938 L 183.664062 152.160156 C 183.679688 158.160156 178.796875 163.023438 172.800781 163.023438 Z M 152.617188 132.535156 C 148.25 132.535156 144.691406 136.09375 144.691406 140.460938 L 144.691406 152.160156 C 144.691406 156.527344 148.25 160.085938 152.617188 160.085938 L 172.800781 160.085938 C 177.164062 160.085938 180.722656 156.527344 180.722656 152.160156 L 180.722656 140.460938 C 180.722656 136.09375 177.164062 132.535156 172.800781 132.535156 Z M 152.617188 132.535156 " fill-opacity="1" fill-rule="nonzero"/><path fill="rgb(100%, 100%, 100%)" d="M 202.433594 131.066406 L 202.347656 131.066406 C 197.171875 131.066406 192.953125 135.300781 192.953125 140.460938 L 192.953125 140.621094 L 213.886719 161.554688 L 222.546875 161.554688 C 225.367188 161.554688 227.910156 160.277344 229.644531 158.289062 C 220.574219 149.207031 211.503906 140.136719 202.433594 131.066406 Z M 202.433594 131.066406 " fill-opacity="0.4196" fill-rule="nonzero"/><path fill="rgb(92.939758%, 43.139648%, 29.019165%)" d="M 222.53125 163.023438 L 202.347656 163.023438 C 196.347656 163.023438 191.484375 158.144531 191.484375 152.160156 L 191.484375 140.460938 C 191.484375 134.460938 196.363281 129.597656 202.347656 129.597656 L 222.53125 129.597656 C 228.527344 129.597656 233.394531 134.476562 233.394531 140.460938 L 233.394531 152.160156 C 233.394531 158.160156 228.527344 163.023438 222.53125 163.023438 Z M 202.347656 132.535156 C 197.980469 132.535156 194.421875 136.09375 194.421875 140.460938 L 194.421875 152.160156 C 194.421875 156.527344 197.980469 160.085938 202.347656 160.085938 L 222.53125 160.085938 C 226.894531 160.085938 230.453125 156.527344 230.453125 152.160156 L 230.453125 140.460938 C 230.453125 136.09375 226.894531 132.535156 222.53125 132.535156 Z M 202.347656 132.535156 " fill-opacity="1" fill-rule="nonzero"/><path fill="rgb(92.939758%, 43.139648%, 29.019165%)" d="M 192.9375 144.296875 L 182.191406 144.296875 C 181.382812 144.296875 180.722656 143.636719 180.722656 142.828125 C 180.722656 142.019531 181.382812 141.355469 182.191406 141.355469 L 192.9375 141.355469 C 193.746094 141.355469 194.410156 142.019531 194.410156 142.828125 C 194.410156 143.636719 193.761719 144.296875 192.9375 144.296875 Z M 192.9375 144.296875 " fill-opacity="1" fill-rule="nonzero"/><path fill="rgb(92.939758%, 43.139648%, 29.019165%)" d="M 143.222656 139.738281 C 143.078125 139.738281 142.929688 139.726562 142.796875 139.679688 L 124.023438 133.902344 C 123.246094 133.667969 122.820312 132.84375 123.054688 132.066406 C 123.289062 131.285156 124.113281 130.859375 124.890625 131.09375 L 143.664062 136.871094 C 144.441406 137.109375 144.871094 137.929688 144.632812 138.710938 C 144.429688 139.328125 143.855469 139.738281 143.222656 139.738281 Z M 143.222656 139.738281 " fill-opacity="1" fill-rule="nonzero"/><path fill="rgb(92.939758%, 43.139648%, 29.019165%)" d="M 231.921875 138.226562 C 231.292969 138.226562 230.71875 137.8125 230.511719 137.179688 C 230.277344 136.402344 230.703125 135.578125 231.484375 135.34375 L 250.253906 129.566406 C 251.035156 129.332031 251.855469 129.757812 252.09375 130.535156 C 252.328125 131.316406 251.902344 132.140625 251.121094 132.375 L 232.351562 138.152344 C 232.21875 138.195312 232.070312 138.226562 231.921875 138.226562 Z M 231.921875 138.226562 " fill-opacity="1" fill-rule="nonzero"/></svg>