<svg xmlns="http://www.w3.org/2000/svg" xmlns:xlink="http://www.w3.org/1999/xlink" width="375" zoomAndPan="magnify" viewBox="0 0 375 374.999991" height="374.999991" preserveAspectRatio="xMidYMid meet" version="1.0"><path fill="rgb(66.668701%, 84.709167%, 95.689392%)" d="M 375.089844 187.574219 C 375.089844 234.171875 358.066406 276.832031 329.929688 309.628906 C 320.859375 320.199219 310.613281 329.753906 299.441406 338.058594 C 268.21875 361.328125 229.511719 375.089844 187.589844 375.089844 C 160.789062 375.089844 135.328125 369.472656 112.28125 359.34375 C 99.226562 353.625 86.964844 346.46875 75.675781 338.058594 C 64.519531 329.722656 54.300781 320.199219 45.230469 309.644531 C 17.097656 276.847656 0.0585938 234.1875 0.0585938 187.574219 C 0.0585938 84.011719 84.027344 0.0585938 187.589844 0.0585938 C 258.648438 0.0585938 320.476562 39.601562 352.289062 97.886719 C 366.828125 124.523438 375.089844 155.085938 375.089844 187.574219 Z M 375.089844 187.574219 " fill-opacity="1" fill-rule="nonzero"/><path fill="rgb(36.859131%, 75.689697%, 92.939758%)" d="M 375.089844 187.574219 C 375.089844 234.171875 358.066406 276.832031 329.929688 309.628906 C 320.859375 320.199219 310.613281 329.753906 299.441406 338.058594 C 268.21875 361.328125 229.511719 375.089844 187.589844 375.089844 C 160.789062 375.089844 135.328125 369.472656 112.28125 359.34375 L 196.378906 74.222656 L 221.355469 52.847656 L 352.289062 97.886719 C 366.828125 124.523438 375.089844 155.085938 375.089844 187.574219 Z M 375.089844 187.574219 " fill-opacity="1" fill-rule="nonzero"/><path fill="rgb(98.429871%, 79.60968%, 59.609985%)" d="M 124.511719 126.980469 C 122.644531 124.9375 119.777344 123.964844 118.160156 126.773438 C 115.835938 130.800781 116.070312 136.210938 116.410156 140.664062 C 116.691406 144.265625 117.128906 147.882812 118.070312 151.398438 C 118.878906 154.425781 119.996094 158.597656 122.703125 160.480469 C 123.320312 160.90625 124.15625 161.332031 124.9375 161.496094 C 125.363281 161.582031 127.949219 161.628906 127.066406 160.511719 " fill-opacity="1" fill-rule="nonzero"/><path fill="rgb(98.429871%, 79.60968%, 59.609985%)" d="M 250.429688 126.980469 C 252.296875 124.9375 255.164062 123.964844 256.78125 126.773438 C 259.105469 130.800781 258.867188 136.210938 258.53125 140.664062 C 258.25 144.265625 257.8125 147.882812 256.871094 151.398438 C 256.0625 154.425781 254.945312 158.597656 252.238281 160.480469 C 251.621094 160.90625 250.785156 161.332031 250.003906 161.496094 C 249.578125 161.582031 246.992188 161.628906 247.875 160.511719 " fill-opacity="1" fill-rule="nonzero"/><path fill="rgb(92.549133%, 75.289917%, 56.469727%)" d="M 329.929688 309.628906 C 320.859375 320.199219 310.628906 329.753906 299.441406 338.058594 L 75.675781 338.058594 C 64.503906 329.722656 54.289062 320.199219 45.230469 309.644531 C 53.730469 287.988281 71.738281 270.71875 94.960938 263.632812 L 133.625 248.785156 C 148.558594 243.875 147.882812 235.613281 147.882812 219.882812 L 147.882812 186.425781 L 227.25 186.425781 L 227.25 219.855469 C 227.25 235.597656 228.042969 244.949219 243.007812 249.84375 L 280.242188 263.585938 C 303.46875 270.703125 321.460938 287.976562 329.929688 309.628906 Z M 329.929688 309.628906 " fill-opacity="1" fill-rule="nonzero"/><path fill="rgb(92.939758%, 43.139648%, 29.019165%)" d="M 329.929688 309.628906 C 295.546875 349.699219 244.535156 375.089844 187.589844 375.089844 C 130.640625 375.089844 79.628906 349.699219 45.246094 309.644531 C 53.742188 287.988281 71.75 270.71875 94.976562 263.632812 L 133.640625 248.785156 C 137.988281 247.34375 141.019531 245.625 143.121094 243.523438 C 150.148438 249.988281 168.933594 243.507812 187.292969 243.523438 C 208.625 243.535156 229.660156 249.253906 235.144531 245.960938 C 237.1875 247.476562 239.757812 248.769531 243.023438 249.84375 L 280.257812 263.585938 C 303.46875 270.703125 321.460938 287.976562 329.929688 309.628906 Z M 329.929688 309.628906 " fill-opacity="1" fill-rule="nonzero"/><path fill="rgb(91.369629%, 27.839661%, 25.878906%)" d="M 187.292969 243.523438 C 185.472656 243.523438 183.632812 243.59375 181.8125 243.714844 L 181.8125 374.984375 C 183.722656 375.042969 185.648438 375.089844 187.574219 375.089844 C 188.910156 375.089844 190.25 375.058594 191.585938 375.03125 L 191.585938 243.59375 C 190.160156 243.550781 188.734375 243.523438 187.292969 243.523438 Z M 187.292969 243.523438 " fill-opacity="1" fill-rule="nonzero"/><path fill="rgb(98.429871%, 79.60968%, 59.609985%)" d="M 250.753906 120.160156 C 250.59375 75.351562 223.164062 43.160156 187.707031 43.160156 C 187.691406 43.160156 187.660156 43.160156 187.648438 43.160156 C 187.632812 43.160156 187.601562 43.160156 187.589844 43.160156 C 152.132812 43.160156 124.699219 75.351562 124.539062 120.160156 C 124.464844 140.59375 125.171875 154.042969 127.246094 168.875 C 133.699219 214.972656 176.136719 227.894531 187.589844 227.894531 C 201.625 227.894531 241.609375 214.972656 248.066406 168.875 C 250.121094 154.042969 250.828125 140.59375 250.753906 120.160156 Z M 250.753906 120.160156 " fill-opacity="1" fill-rule="nonzero"/><path fill="rgb(88.62915%, 88.238525%, 88.238525%)" d="M 146.488281 53.230469 C 132.84375 62.476562 126.582031 77.882812 125.023438 95.742188 C 123.304688 115.367188 124.9375 135.09375 125.273438 154.792969 C 125.214844 151.707031 128.492188 146.5 129.332031 143.324219 C 130.535156 138.738281 131.332031 134.050781 132.023438 129.359375 C 133.402344 119.980469 134.152344 110.484375 136.371094 101.238281 C 140.914062 82.320312 152.074219 69.8125 172.269531 68.589844 C 192.042969 67.398438 215.621094 63.796875 227.953125 83.101562 C 237.070312 97.359375 237.65625 112.542969 240.625 128.480469 C 241.773438 134.625 244.125 140.914062 249.050781 144.78125 C 248.609375 144.429688 248.992188 129.597656 249.035156 127.539062 C 249.253906 118.71875 250.753906 110.132812 250.195312 101.238281 C 248.902344 80.554688 237.539062 56.15625 217.164062 48.039062 C 208.535156 44.601562 199.140625 43.554688 189.851562 43.367188 C 179.460938 43.144531 168.742188 44.042969 158.804688 47.277344 C 154.160156 48.789062 150.074219 50.789062 146.488281 53.230469 Z M 146.488281 53.230469 " fill-opacity="1" fill-rule="nonzero"/><path fill="rgb(92.939758%, 92.939758%, 92.939758%)" d="M 224.5 210.136719 C 223.03125 210.695312 221.574219 211.34375 220.105469 211.902344 C 210.109375 215.679688 201.449219 212.195312 194.777344 204.273438 C 193.394531 202.640625 192.027344 200.730469 189.96875 200.1875 C 188.441406 199.773438 186.78125 200.230469 185.425781 201.054688 C 181.207031 203.625 179.371094 208.949219 175.152344 211.386719 C 171.152344 213.695312 166.300781 212.960938 162.070312 211.8125 C 157.246094 210.503906 152.425781 209.136719 147.5 208.183594 C 147.28125 208.886719 147.707031 209.625 148.148438 210.226562 C 150.867188 213.960938 160.347656 230.246094 194.71875 228.808594 C 216.710938 227.882812 224.941406 215.460938 227.558594 211.828125 C 228.160156 210.992188 228.761719 209.992188 228.558594 208.960938 C 227.144531 209.210938 225.808594 209.636719 224.5 210.136719 Z M 224.5 210.136719 " fill-opacity="1" fill-rule="nonzero"/><path fill="rgb(92.939758%, 92.939758%, 92.939758%)" d="M 139.105469 190 C 145.265625 193.203125 152.574219 192.542969 158.585938 189.335938 C 164.730469 186.058594 167.933594 183.558594 174.929688 184.398438 C 178.78125 184.855469 186.367188 186.722656 188.882812 182.503906 C 191.335938 178.371094 186.414062 174.019531 182.898438 172.800781 C 174.550781 169.917969 166.140625 174.445312 159.496094 179.253906 C 155.878906 181.882812 144.265625 192.6875 139.105469 190 Z M 139.105469 190 " fill-opacity="1" fill-rule="nonzero"/><path fill="rgb(92.939758%, 92.939758%, 92.939758%)" d="M 237.863281 190 C 231.703125 193.203125 224.398438 192.542969 218.386719 189.335938 C 212.242188 186.058594 209.035156 183.558594 202.039062 184.398438 C 198.1875 184.855469 190.601562 186.722656 188.089844 182.503906 C 185.632812 178.371094 190.558594 174.019531 194.070312 172.800781 C 202.421875 169.917969 210.828125 174.445312 217.472656 179.253906 C 221.074219 181.882812 232.703125 192.6875 237.863281 190 Z M 237.863281 190 " fill-opacity="1" fill-rule="nonzero"/><path fill="rgb(95.689392%, 95.689392%, 95.689392%)" d="M 185.941406 37.441406 C 182.382812 36.472656 178.753906 35.792969 175.09375 35.425781 C 164.789062 34.382812 154.71875 39.527344 144.605469 41 C 129.667969 43.160156 116.46875 41.277344 111.28125 38.515625 C 116.203125 48.40625 122.527344 48.144531 125.257812 49.746094 C 121.421875 51.480469 115.277344 48.347656 112.308594 45.910156 C 112.808594 49.332031 114.953125 52.375 117.71875 54.449219 C 127.257812 61.621094 138.710938 62.753906 143.882812 63.710938 C 138.371094 63.679688 132.859375 63.636719 127.363281 63.605469 C 130.65625 65.738281 138.167969 72.222656 157.703125 74.324219 C 165.363281 75.148438 173.136719 75.484375 180.78125 74.5 C 188.101562 73.558594 194.1875 71.308594 198.070312 64.8125 C 199.097656 63.09375 206.566406 47.027344 204.917969 45.953125 C 199.113281 42.144531 192.660156 39.265625 185.941406 37.441406 Z M 185.941406 37.441406 " fill-opacity="1" fill-rule="nonzero"/><path fill="rgb(91.369629%, 27.839661%, 25.878906%)" d="M 147.414062 225.058594 L 187.292969 243.523438 L 168.125 268.570312 L 133.640625 248.785156 Z M 147.414062 225.058594 " fill-opacity="1" fill-rule="nonzero"/><path fill="rgb(91.369629%, 27.839661%, 25.878906%)" d="M 227.175781 225.058594 L 187.292969 243.523438 L 206.464844 268.570312 L 240.949219 248.785156 Z M 227.175781 225.058594 " fill-opacity="1" fill-rule="nonzero"/></svg>