<svg xmlns="http://www.w3.org/2000/svg" xmlns:xlink="http://www.w3.org/1999/xlink" width="375" zoomAndPan="magnify" viewBox="0 0 375 374.999991" height="374.999991" preserveAspectRatio="xMidYMid meet" version="1.0"><defs><clipPath id="id1"><path d="M 0 1.023438 L 374 1.023438 L 374 373.773438 L 0 373.773438 Z M 0 1.023438 " clip-rule="nonzero"/></clipPath><clipPath id="id2"><path d="M 163 63 L 375 63 L 375 373.773438 L 163 373.773438 Z M 163 63 " clip-rule="nonzero"/></clipPath><clipPath id="id3"><path d="M 52 201 L 321 201 L 321 373.773438 L 52 373.773438 Z M 52 201 " clip-rule="nonzero"/></clipPath><clipPath id="id4"><path d="M 52 256 L 321 256 L 321 373.773438 L 52 373.773438 Z M 52 256 " clip-rule="nonzero"/></clipPath></defs><g clip-path="url(#id1)"><path fill="rgb(78.42865%, 76.858521%, 89.019775%)" d="M 373.507812 187.472656 C 373.507812 233.789062 356.578125 276.195312 328.59375 308.792969 C 326.066406 311.746094 323.433594 314.609375 320.714844 317.398438 C 313.785156 324.53125 306.269531 331.121094 298.273438 337.054688 C 267.222656 360.183594 228.726562 373.859375 187.03125 373.859375 C 186.460938 373.859375 185.90625 373.859375 185.335938 373.847656 C 159.3125 373.625 134.578125 368.058594 112.136719 358.210938 C 99.152344 352.527344 86.960938 345.410156 75.730469 337.054688 C 67.605469 330.988281 59.988281 324.296875 52.953125 317.019531 C 50.367188 314.359375 47.867188 311.613281 45.453125 308.808594 C 17.472656 276.210938 0.527344 233.804688 0.527344 187.472656 C 0.527344 84.53125 84.035156 1.082031 187.03125 1.082031 C 257.703125 1.082031 319.195312 40.386719 350.832031 98.324219 C 361.328125 117.539062 368.519531 138.796875 371.695312 161.359375 C 372.894531 169.894531 373.507812 178.617188 373.507812 187.472656 Z M 373.507812 187.472656 " fill-opacity="1" fill-rule="nonzero"/></g><g clip-path="url(#id2)"><path fill="rgb(58.039856%, 57.249451%, 78.039551%)" d="M 374.324219 187.472656 C 374.324219 233.789062 357.394531 276.195312 329.414062 308.792969 C 326.882812 311.746094 324.253906 314.609375 321.535156 317.398438 C 314.605469 324.53125 307.089844 331.121094 299.09375 337.054688 C 268.039062 360.183594 229.546875 373.859375 187.851562 373.859375 C 187.28125 373.859375 186.726562 373.859375 186.15625 373.847656 L 163.582031 333.765625 L 243.480469 63.242188 L 372.511719 161.359375 C 373.710938 169.894531 374.324219 178.617188 374.324219 187.472656 Z M 374.324219 187.472656 " fill-opacity="1" fill-rule="nonzero"/></g><path fill="rgb(36.859131%, 13.328552%, 4.309082%)" d="M 175.570312 44.363281 C 170.351562 41.890625 163.800781 42.535156 159.167969 45.96875 C 154.796875 43.457031 149.195312 43.207031 144.621094 45.355469 C 140.058594 47.503906 136.652344 51.960938 135.789062 56.929688 C 130.148438 54.664062 123.21875 56.050781 118.875 60.316406 C 114.53125 64.585938 113.042969 71.480469 115.207031 77.164062 C 110.234375 77.046875 105.496094 79.925781 102.617188 83.976562 C 99.738281 88.023438 98.566406 93.09375 98.539062 98.0625 C 98.523438 99.582031 98.933594 100.878906 100 101.976562 C 92.472656 106.140625 85.25 115.070312 91.8125 123.96875 C 91.15625 123.074219 86.550781 128.6875 86.214844 129.257812 C 84.738281 131.800781 84.023438 134.839844 84.183594 137.777344 C 84.300781 139.980469 85.9375 141.558594 86.476562 143.589844 C 87.238281 146.457031 86.359375 146.570312 85.074219 149.144531 C 82.207031 154.871094 83.933594 162.03125 89.445312 165.4375 C 89.664062 165.566406 89.898438 165.714844 90.015625 165.949219 C 90.117188 166.152344 90.101562 166.386719 90.101562 166.621094 C 89.648438 176.191406 91.988281 186.742188 103.742188 187.089844 C 102.382812 191.972656 104.589844 197.613281 108.890625 200.300781 C 113.1875 202.972656 119.226562 202.476562 123.011719 199.117188 C 122.089844 199.933594 123.683594 206.554688 124.167969 207.855469 C 125.265625 210.820312 127.910156 213.496094 130.628906 215.015625 C 135.890625 217.9375 142.894531 217.367188 147.601562 213.625 C 145.132812 218.945312 149.679688 225.621094 155.4375 226.703125 C 161.519531 227.84375 166.15625 224.207031 170.511719 220.550781 C 171.125 220.027344 181.183594 208.644531 177.515625 208.191406 C 182.542969 208.820312 187.601562 206.582031 191.359375 203.191406 C 195.117188 199.804688 197.75 195.347656 200.015625 190.832031 C 203.597656 183.699219 206.503906 175.957031 206.257812 167.964844 C 206.007812 159.984375 202.046875 151.730469 194.882812 148.207031 C 200.335938 138.886719 205.132812 128.703125 205.175781 117.902344 C 205.21875 107.105469 199.34375 95.648438 189.121094 92.1875 C 190.425781 84.71875 191.679688 76.757812 188.699219 69.785156 C 186.402344 64.4375 185.144531 61.414062 184.34375 55.976562 C 183.625 50.996094 180.085938 46.496094 175.570312 44.363281 Z M 175.570312 44.363281 " fill-opacity="1" fill-rule="nonzero"/><path fill="rgb(36.859131%, 13.328552%, 4.309082%)" d="M 194.296875 44.363281 C 199.515625 41.890625 206.066406 42.535156 210.703125 45.96875 C 215.074219 43.457031 220.671875 43.207031 225.25 45.355469 C 229.808594 47.503906 233.214844 51.960938 234.078125 56.929688 C 239.722656 54.664062 246.652344 56.050781 250.992188 60.316406 C 255.335938 64.585938 256.828125 71.480469 254.664062 77.164062 C 259.632812 77.046875 264.371094 79.925781 267.25 83.976562 C 270.128906 88.023438 271.300781 93.09375 271.328125 98.0625 C 271.34375 99.582031 270.933594 100.878906 269.867188 101.976562 C 277.398438 106.140625 284.617188 115.070312 278.054688 123.96875 C 278.710938 123.074219 283.316406 128.6875 283.652344 129.257812 C 285.128906 131.800781 285.847656 134.839844 285.6875 137.777344 C 285.570312 139.980469 283.933594 141.558594 283.390625 143.589844 C 282.628906 146.457031 283.507812 146.570312 284.792969 149.144531 C 287.660156 154.871094 285.933594 162.03125 280.421875 165.4375 C 280.203125 165.566406 279.96875 165.714844 279.851562 165.949219 C 279.75 166.152344 279.765625 166.386719 279.765625 166.621094 C 280.21875 176.191406 277.878906 186.742188 266.125 187.089844 C 267.484375 191.972656 265.277344 197.613281 260.980469 200.300781 C 256.679688 202.972656 250.644531 202.476562 246.855469 199.117188 C 247.777344 199.933594 246.183594 206.554688 245.699219 207.855469 C 244.605469 210.820312 241.957031 213.496094 239.238281 215.015625 C 233.976562 217.9375 226.972656 217.367188 222.265625 213.625 C 224.738281 218.945312 220.191406 225.621094 214.429688 226.703125 C 208.347656 227.84375 203.714844 224.207031 199.355469 220.550781 C 198.742188 220.027344 188.683594 208.644531 192.355469 208.191406 C 187.324219 208.820312 182.265625 206.582031 178.507812 203.191406 C 174.75 199.804688 172.121094 195.347656 169.855469 190.832031 C 166.273438 183.699219 163.363281 175.957031 163.613281 167.964844 C 163.859375 159.984375 167.820312 151.730469 174.984375 148.207031 C 169.53125 138.886719 164.738281 128.703125 164.691406 117.902344 C 164.648438 107.105469 170.527344 95.648438 180.746094 92.1875 C 179.445312 84.71875 178.1875 76.757812 181.167969 69.785156 C 183.464844 64.4375 184.722656 61.414062 185.527344 55.976562 C 186.257812 50.996094 189.796875 46.496094 194.296875 44.363281 Z M 194.296875 44.363281 " fill-opacity="1" fill-rule="nonzero"/><g clip-path="url(#id3)"><path fill="rgb(71.369934%, 49.798584%, 36.079407%)" d="M 272.792969 269.472656 L 227.953125 254.875 C 219.679688 252.1875 214.078125 244.472656 214.078125 235.777344 L 214.078125 201.394531 L 159.765625 201.394531 L 159.765625 236.203125 C 159.765625 244.96875 154.078125 252.714844 145.71875 255.359375 L 100.804688 269.53125 C 77.546875 276.617188 59.929688 294.707031 52.941406 317.035156 C 59.972656 324.3125 67.589844 331.003906 75.71875 337.066406 C 86.945312 345.425781 99.136719 352.542969 112.121094 358.226562 C 135.042969 368.292969 160.367188 373.875 187.015625 373.875 C 228.714844 373.875 267.207031 360.199219 298.257812 337.066406 C 306.257812 331.136719 313.769531 324.546875 320.699219 317.414062 C 313.828125 294.882812 296.167969 276.632812 272.792969 269.472656 Z M 272.792969 269.472656 " fill-opacity="1" fill-rule="nonzero"/></g><g clip-path="url(#id4)"><path fill="rgb(82.348633%, 82.348633%, 82.348633%)" d="M 272.792969 269.472656 L 233.597656 256.714844 C 222.761719 264.886719 209.824219 269.53125 194.75 270.234375 C 176.460938 271.066406 156.167969 267.96875 142.136719 256.484375 L 100.820312 269.515625 C 77.558594 276.605469 59.941406 294.691406 52.953125 317.019531 C 59.988281 324.296875 67.605469 330.988281 75.730469 337.054688 C 86.960938 345.410156 99.152344 352.527344 112.136719 358.210938 C 135.058594 368.277344 160.378906 373.859375 187.03125 373.859375 C 228.726562 373.859375 267.222656 360.183594 298.273438 337.054688 C 306.269531 331.121094 313.785156 324.53125 320.714844 317.398438 C 313.828125 294.882812 296.167969 276.632812 272.792969 269.472656 Z M 272.792969 269.472656 " fill-opacity="1" fill-rule="nonzero"/><path fill="rgb(3.529358%, 15.689087%, 21.958923%)" d="M 272.792969 269.472656 L 234.398438 256.980469 C 231.039062 266.039062 222.265625 278.007812 213.699219 283.078125 C 202.96875 289.417969 192.222656 291.363281 180.085938 289.871094 C 161.476562 287.578125 148.480469 271.984375 142.414062 256.703125 C 142.324219 256.628906 142.222656 256.570312 142.136719 256.496094 L 100.820312 269.53125 C 77.558594 276.617188 59.941406 294.707031 52.953125 317.035156 C 59.988281 324.3125 67.605469 331.003906 75.730469 337.066406 C 86.960938 345.425781 99.152344 352.542969 112.136719 358.226562 C 135.058594 368.292969 160.378906 373.875 187.03125 373.875 C 228.726562 373.875 267.222656 360.199219 298.273438 337.066406 C 306.269531 331.136719 313.785156 324.546875 320.714844 317.414062 C 313.828125 294.882812 296.167969 276.632812 272.792969 269.472656 Z M 272.792969 269.472656 " fill-opacity="1" fill-rule="nonzero"/></g><path fill="rgb(92.939758%, 43.139648%, 29.019165%)" d="M 199.386719 339.917969 C 199.386719 339.816406 199.386719 339.710938 199.371094 339.625 L 192.851562 278.941406 L 181.023438 278.941406 L 175.746094 339.917969 L 187.414062 362.507812 Z M 199.386719 339.917969 " fill-opacity="1" fill-rule="nonzero"/><path fill="rgb(76.469421%, 53.329468%, 38.819885%)" d="M 245.511719 124.40625 C 245.363281 82.835938 219.910156 52.984375 186.988281 52.984375 C 186.972656 52.984375 186.945312 52.984375 186.929688 52.984375 C 186.914062 52.984375 186.886719 52.984375 186.871094 52.984375 C 153.960938 52.984375 128.496094 82.835938 128.347656 124.40625 C 128.277344 143.359375 128.800781 148.078125 130.730469 161.828125 C 136.726562 204.582031 176.242188 224.335938 186.871094 224.335938 C 199.898438 224.335938 236.828125 204.582031 242.820312 161.828125 C 244.75 148.078125 245.585938 143.359375 245.511719 124.40625 Z M 245.511719 124.40625 " fill-opacity="1" fill-rule="nonzero"/><path fill="rgb(76.469421%, 53.329468%, 38.819885%)" d="M 128.347656 130.734375 C 126.609375 128.847656 123.949219 127.925781 122.457031 130.542969 C 120.292969 134.285156 120.527344 139.296875 120.835938 143.429688 C 121.082031 146.777344 121.507812 150.136719 122.382812 153.382812 C 123.144531 156.203125 124.183594 160.058594 126.683594 161.8125 C 127.253906 162.207031 128.042969 162.601562 128.757812 162.761719 C 129.152344 162.851562 131.550781 162.894531 130.746094 161.839844 " fill-opacity="1" fill-rule="nonzero"/><path fill="rgb(76.469421%, 53.329468%, 38.819885%)" d="M 245.203125 130.734375 C 246.945312 128.847656 249.605469 127.925781 251.097656 130.542969 C 253.257812 134.285156 253.027344 139.296875 252.71875 143.429688 C 252.46875 146.777344 252.046875 150.136719 251.167969 153.382812 C 250.410156 156.203125 249.371094 160.058594 246.871094 161.8125 C 246.300781 162.207031 245.511719 162.601562 244.792969 162.761719 C 244.398438 162.851562 242.003906 162.894531 242.804688 161.839844 " fill-opacity="1" fill-rule="nonzero"/><path fill="rgb(36.859131%, 13.328552%, 4.309082%)" d="M 228.230469 146.0625 C 230.628906 150.34375 237.691406 158.234375 243.523438 154.855469 C 249.050781 151.65625 250.261719 140.246094 249.488281 134.765625 C 256.300781 129.226562 257.777344 118.195312 252.660156 111.066406 C 252.804688 111.269531 255.804688 103.539062 255.90625 102.605469 C 256.183594 99.976562 256.140625 96.394531 255.613281 93.777344 C 254.414062 87.933594 248.640625 82.835938 243.027344 81.375 C 243.113281 71.511719 234.210938 62.464844 224.339844 62.378906 C 224.5625 56.988281 221.679688 51.566406 217.074219 48.746094 C 212.484375 45.910156 206.34375 45.765625 201.621094 48.394531 C 198.320312 43.910156 192.71875 41.207031 187.148438 41.425781 C 181.578125 41.644531 176.199219 44.757812 173.261719 49.492188 C 169.386719 47.078125 164.226562 46.890625 160.175781 49.023438 C 156.125 51.15625 153.378906 55.511719 153.171875 60.085938 C 149.355469 56.402344 142.617188 57.554688 138.859375 61.3125 C 135.101562 65.050781 133.730469 70.5625 133.113281 75.820312 C 127.089844 75.804688 121.902344 80.890625 120.367188 86.707031 C 118.832031 92.523438 120.351562 98.761719 122.984375 104.183594 C 117.660156 104.636719 113.773438 110.1875 113.890625 115.523438 C 114.007812 120.855469 117.296875 125.691406 121.402344 129.097656 C 118.539062 134.605469 118.875 141.5 121.800781 146.921875 C 123.042969 149.21875 127.632812 155.894531 130.628906 155.96875 C 137.441406 156.128906 138.464844 137.835938 139.855469 137.777344 C 149.460938 137.351562 158.160156 129.316406 159.328125 119.789062 C 159.167969 121.046875 166.871094 121.441406 167.703125 121.394531 C 170.847656 121.207031 174.09375 120.109375 176.929688 118.792969 C 182.238281 116.324219 183.507812 111.765625 187.265625 108.144531 C 188.917969 111.53125 190.160156 114.851562 192.996094 117.539062 C 196.785156 121.132812 202.601562 121.335938 207.5 120.796875 C 207.542969 123.617188 207.9375 126.496094 209.179688 129.023438 C 211.929688 134.621094 219.136719 137.644531 225.042969 137.9375 C 224.589844 137.894531 227.75 145.214844 228.230469 146.0625 Z M 228.230469 146.0625 " fill-opacity="1" fill-rule="nonzero"/><path fill="rgb(92.939758%, 43.139648%, 29.019165%)" d="M 188.230469 286.101562 L 185.804688 286.101562 C 177.777344 286.101562 171.214844 279.539062 171.214844 271.519531 L 171.214844 269.09375 C 171.214844 261.070312 177.777344 254.511719 185.804688 254.511719 L 188.230469 254.511719 C 196.257812 254.511719 202.820312 261.070312 202.820312 269.09375 L 202.820312 271.519531 C 202.820312 279.539062 196.257812 286.101562 188.230469 286.101562 Z M 188.230469 286.101562 " fill-opacity="1" fill-rule="nonzero"/><path fill="rgb(100%, 100%, 100%)" d="M 142.136719 256.484375 L 159.78125 236.203125 L 187.015625 254.40625 L 169.941406 278.691406 Z M 142.136719 256.484375 " fill-opacity="1" fill-rule="nonzero"/><path fill="rgb(100%, 100%, 100%)" d="M 234.96875 256.484375 L 214.664062 236.203125 L 187.425781 254.40625 L 204.503906 278.691406 Z M 234.96875 256.484375 " fill-opacity="1" fill-rule="nonzero"/></svg>