<svg xmlns="http://www.w3.org/2000/svg" xmlns:xlink="http://www.w3.org/1999/xlink" width="375" zoomAndPan="magnify" viewBox="0 0 375 374.999991" height="374.999991" preserveAspectRatio="xMidYMid meet" version="1.0"><defs><clipPath id="id1"><path d="M 0 1.023438 L 374 1.023438 L 374 373.773438 L 0 373.773438 Z M 0 1.023438 " clip-rule="nonzero"/></clipPath><clipPath id="id2"><path d="M 163 57 L 375 57 L 375 373.773438 L 163 373.773438 Z M 163 57 " clip-rule="nonzero"/></clipPath><clipPath id="id3"><path d="M 52 201 L 321 201 L 321 373.773438 L 52 373.773438 Z M 52 201 " clip-rule="nonzero"/></clipPath><clipPath id="id4"><path d="M 52 257 L 321 257 L 321 373.773438 L 52 373.773438 Z M 52 257 " clip-rule="nonzero"/></clipPath></defs><g clip-path="url(#id1)"><path fill="rgb(66.668701%, 84.709167%, 95.689392%)" d="M 373.507812 187.472656 C 373.507812 233.789062 356.578125 276.195312 328.59375 308.792969 C 326.066406 311.746094 323.433594 314.609375 320.714844 317.398438 C 313.785156 324.53125 306.269531 331.121094 298.273438 337.054688 C 267.222656 360.183594 228.726562 373.859375 187.03125 373.859375 C 186.460938 373.859375 185.90625 373.859375 185.335938 373.847656 C 159.3125 373.625 134.578125 368.058594 112.136719 358.210938 C 99.152344 352.527344 86.960938 345.410156 75.730469 337.054688 C 67.605469 330.988281 59.988281 324.296875 52.953125 317.019531 C 50.367188 314.359375 47.867188 311.613281 45.453125 308.808594 C 17.472656 276.210938 0.527344 233.804688 0.527344 187.472656 C 0.527344 84.53125 84.035156 1.082031 187.03125 1.082031 C 257.703125 1.082031 319.195312 40.386719 350.832031 98.324219 C 361.328125 117.539062 368.519531 138.796875 371.695312 161.359375 C 372.894531 169.894531 373.507812 178.617188 373.507812 187.472656 Z M 373.507812 187.472656 " fill-opacity="1" fill-rule="nonzero"/></g><g clip-path="url(#id2)"><path fill="rgb(36.859131%, 75.689697%, 92.939758%)" d="M 374.324219 187.472656 C 374.324219 233.789062 357.394531 276.195312 329.414062 308.792969 C 326.882812 311.746094 324.253906 314.609375 321.535156 317.398438 C 314.605469 324.53125 307.089844 331.121094 299.09375 337.054688 C 268.039062 360.183594 229.546875 373.859375 187.851562 373.859375 C 187.28125 373.859375 186.726562 373.859375 186.15625 373.847656 L 163.582031 333.765625 L 231.914062 57.324219 L 372.511719 161.359375 C 373.710938 169.894531 374.324219 178.617188 374.324219 187.472656 Z M 374.324219 187.472656 " fill-opacity="1" fill-rule="nonzero"/></g><path fill="rgb(3.529358%, 15.689087%, 21.958923%)" d="M 100.382812 108.230469 C 102.910156 101.726562 106.507812 95.605469 110.9375 90.257812 C 120.324219 78.90625 145.570312 55.816406 161.871094 59.164062 C 184.867188 63.898438 204.3125 102.3125 209.34375 122.871094 C 214.648438 144.570312 214.269531 167.21875 213.84375 189.558594 C 213.085938 229.917969 212.265625 270.789062 201.492188 309.699219 C 199.296875 317.605469 196.578125 325.65625 191.140625 331.808594 C 182.953125 341.070312 170.117188 344.492188 157.9375 346.609375 C 131.960938 351.109375 103.128906 344.796875 78.757812 334.90625 C 70.382812 331.5 61.976562 327.117188 56.652344 319.796875 C 50.5 311.292969 49.898438 298.449219 55.074219 289.300781 C 61.667969 277.640625 71.859375 279.25 82.324219 272.554688 C 88.964844 268.320312 93.566406 258.632812 88.40625 252.699219 C 85.746094 249.644531 81.476562 248.710938 77.824219 246.96875 C 65.074219 240.863281 60.804688 222.011719 69.679688 211.011719 C 79.722656 198.5625 101.199219 197.421875 107.28125 182.621094 C 112.542969 169.835938 102.574219 156.40625 98.464844 143.183594 C 94.914062 131.753906 96.039062 119.421875 100.382812 108.230469 Z M 100.382812 108.230469 " fill-opacity="1" fill-rule="nonzero"/><g clip-path="url(#id3)"><path fill="rgb(93.328857%, 75.689697%, 56.858826%)" d="M 272.792969 269.472656 L 227.953125 254.875 C 219.679688 252.1875 214.078125 244.472656 214.078125 235.777344 L 214.078125 201.394531 L 159.765625 201.394531 L 159.765625 236.203125 C 159.765625 244.96875 154.078125 252.714844 145.71875 255.359375 L 100.804688 269.53125 C 77.546875 276.617188 59.929688 294.707031 52.941406 317.035156 C 59.972656 324.3125 67.589844 331.003906 75.71875 337.066406 C 86.945312 345.425781 99.136719 352.542969 112.121094 358.226562 C 135.042969 368.292969 160.367188 373.875 187.015625 373.875 C 228.714844 373.875 267.207031 360.199219 298.257812 337.066406 C 306.257812 331.136719 313.769531 324.546875 320.699219 317.414062 C 313.828125 294.882812 296.167969 276.632812 272.792969 269.472656 Z M 272.792969 269.472656 " fill-opacity="1" fill-rule="nonzero"/></g><g clip-path="url(#id4)"><path fill="rgb(92.939758%, 43.139648%, 29.019165%)" d="M 272.792969 269.472656 L 237.617188 258.015625 C 210.015625 278.285156 168.699219 276.792969 140.46875 257.007812 L 100.820312 269.515625 C 77.558594 276.605469 59.941406 294.691406 52.953125 317.019531 C 59.988281 324.296875 67.605469 330.988281 75.730469 337.054688 C 86.960938 345.410156 99.152344 352.527344 112.136719 358.210938 C 135.058594 368.277344 160.378906 373.859375 187.03125 373.859375 C 228.726562 373.859375 267.222656 360.183594 298.273438 337.054688 C 306.269531 331.121094 313.785156 324.53125 320.714844 317.398438 C 313.828125 294.882812 296.167969 276.632812 272.792969 269.472656 Z M 272.792969 269.472656 " fill-opacity="1" fill-rule="nonzero"/></g><path fill="rgb(98.429871%, 79.60968%, 59.609985%)" d="M 245.511719 124.40625 C 245.363281 82.835938 219.910156 52.984375 186.988281 52.984375 C 186.972656 52.984375 186.945312 52.984375 186.929688 52.984375 C 186.914062 52.984375 186.886719 52.984375 186.871094 52.984375 C 153.960938 52.984375 128.496094 82.835938 128.347656 124.40625 C 128.277344 143.359375 128.800781 148.078125 130.730469 161.828125 C 136.726562 204.582031 176.242188 224.335938 186.871094 224.335938 C 199.898438 224.335938 236.828125 204.582031 242.820312 161.828125 C 244.75 148.078125 245.585938 143.359375 245.511719 124.40625 Z M 245.511719 124.40625 " fill-opacity="1" fill-rule="nonzero"/><path fill="rgb(98.429871%, 79.60968%, 59.609985%)" d="M 128.347656 130.734375 C 126.609375 128.847656 123.949219 127.925781 122.457031 130.542969 C 120.292969 134.285156 120.527344 139.296875 120.835938 143.429688 C 121.082031 146.777344 121.507812 150.136719 122.382812 153.382812 C 123.144531 156.203125 124.183594 160.058594 126.683594 161.8125 C 127.253906 162.207031 128.042969 162.601562 128.757812 162.761719 C 129.152344 162.851562 131.550781 162.894531 130.746094 161.839844 " fill-opacity="1" fill-rule="nonzero"/><path fill="rgb(98.429871%, 79.60968%, 59.609985%)" d="M 245.203125 130.734375 C 246.945312 128.847656 249.605469 127.925781 251.097656 130.542969 C 253.257812 134.285156 253.027344 139.296875 252.71875 143.429688 C 252.46875 146.777344 252.046875 150.136719 251.167969 153.382812 C 250.410156 156.203125 249.371094 160.058594 246.871094 161.8125 C 246.300781 162.207031 245.511719 162.601562 244.792969 162.761719 C 244.398438 162.851562 242.003906 162.894531 242.804688 161.839844 " fill-opacity="1" fill-rule="nonzero"/><path fill="rgb(3.529358%, 15.689087%, 21.958923%)" d="M 220.363281 151.175781 C 219.429688 159.269531 212.761719 167.628906 217.296875 174.277344 C 220.027344 178.28125 225.703125 179.246094 228.800781 182.96875 C 233.347656 188.449219 230.21875 196.851562 225.773438 202.402344 C 221.328125 207.957031 215.453125 213.070312 214.355469 220.097656 C 212.484375 232.109375 225.074219 240.890625 230.480469 251.777344 C 236.855469 264.59375 231.710938 281.921875 219.386719 289.199219 C 231.839844 290.292969 244.003906 281.628906 248.683594 270.042969 C 253.363281 258.457031 251.183594 244.792969 244.664062 234.125 C 242.660156 230.855469 240.234375 227.726562 239.195312 224.03125 C 237.121094 216.636719 241.242188 207.09375 245.46875 201.074219 C 250.453125 194.003906 259.164062 188.375 255.320312 178.367188 C 254.019531 174.992188 251.828125 171.851562 251.535156 168.242188 C 251.167969 163.640625 253.933594 159.460938 256.433594 155.574219 C 261.183594 148.195312 265.480469 140.144531 266.066406 131.390625 C 266.679688 122.34375 263.289062 113.578125 259.957031 105.148438 C 247.953125 74.785156 231.679688 46.058594 196.023438 42.359375 C 163.554688 39 148.378906 70.664062 157.339844 98.820312 C 161.15625 110.789062 170.132812 121.25 181.84375 125.824219 C 189.414062 128.789062 197.761719 129.273438 205.394531 132.078125 C 213.027344 134.882812 220.410156 141.210938 220.4375 149.332031 C 220.46875 149.949219 220.4375 150.5625 220.363281 151.175781 Z M 220.363281 151.175781 " fill-opacity="1" fill-rule="nonzero"/><path fill="rgb(3.529358%, 15.689087%, 21.958923%)" d="M 154.605469 113.300781 C 160.832031 105.308594 167.078125 97.183594 171.167969 87.917969 C 173.128906 83.464844 174.589844 78.65625 174.238281 73.804688 C 173.890625 68.953125 171.476562 64.042969 167.222656 61.691406 C 163.273438 59.5 158.320312 59.777344 154.078125 61.371094 C 149.855469 62.960938 146.183594 65.738281 142.589844 68.484375 C 134.824219 74.390625 126.769531 80.65625 122.707031 89.527344 C 118.113281 99.550781 119.007812 117.625 127.894531 125.546875 C 138.785156 135.246094 147.910156 121.894531 154.605469 113.300781 Z M 154.605469 113.300781 " fill-opacity="1" fill-rule="nonzero"/></svg>