<svg xmlns="http://www.w3.org/2000/svg" xmlns:xlink="http://www.w3.org/1999/xlink" width="375" zoomAndPan="magnify" viewBox="0 0 375 374.999991" height="374.999991" preserveAspectRatio="xMidYMid meet" version="1.0"><defs><clipPath id="id1"><path d="M 0 1.023438 L 374 1.023438 L 374 373.773438 L 0 373.773438 Z M 0 1.023438 " clip-rule="nonzero"/></clipPath><clipPath id="id2"><path d="M 163 63 L 375 63 L 375 373.773438 L 163 373.773438 Z M 163 63 " clip-rule="nonzero"/></clipPath><clipPath id="id3"><path d="M 52 201 L 321 201 L 321 373.773438 L 52 373.773438 Z M 52 201 " clip-rule="nonzero"/></clipPath><clipPath id="id4"><path d="M 53 275 L 321 275 L 321 373.773438 L 53 373.773438 Z M 53 275 " clip-rule="nonzero"/></clipPath></defs><g clip-path="url(#id1)"><path fill="rgb(66.668701%, 84.709167%, 95.689392%)" d="M 373.535156 187.472656 C 373.535156 233.789062 356.605469 276.195312 328.625 308.792969 C 326.09375 311.746094 323.464844 314.609375 320.746094 317.398438 C 313.8125 324.53125 306.300781 331.121094 298.304688 337.054688 C 267.25 360.183594 228.757812 373.859375 187.0625 373.859375 C 186.492188 373.859375 185.9375 373.859375 185.367188 373.847656 C 159.34375 373.625 134.605469 368.058594 112.164062 358.210938 C 99.183594 352.527344 86.988281 345.410156 75.761719 337.054688 C 67.632812 330.988281 60.015625 324.296875 52.984375 317.019531 C 50.394531 314.359375 47.894531 311.613281 45.484375 308.808594 C 17.5 276.210938 0.558594 233.804688 0.558594 187.472656 C 0.558594 84.53125 84.066406 1.082031 187.0625 1.082031 C 257.734375 1.082031 319.222656 40.386719 350.859375 98.324219 C 361.359375 117.539062 368.550781 138.796875 371.722656 161.359375 C 372.921875 169.894531 373.535156 178.617188 373.535156 187.472656 Z M 373.535156 187.472656 " fill-opacity="1" fill-rule="nonzero"/></g><g clip-path="url(#id2)"><path fill="rgb(36.859131%, 75.689697%, 92.939758%)" d="M 374.355469 187.472656 C 374.355469 233.789062 357.425781 276.195312 329.441406 308.792969 C 326.914062 311.746094 324.28125 314.609375 321.5625 317.398438 C 314.632812 324.53125 307.117188 331.121094 299.121094 337.054688 C 268.070312 360.183594 229.574219 373.859375 187.878906 373.859375 C 187.308594 373.859375 186.753906 373.859375 186.183594 373.847656 L 163.613281 333.765625 L 243.507812 63.242188 L 372.542969 161.359375 C 373.742188 169.894531 374.355469 178.617188 374.355469 187.472656 Z M 374.355469 187.472656 " fill-opacity="1" fill-rule="nonzero"/></g><path fill="rgb(62.348938%, 32.548523%, 22.749329%)" d="M 267.515625 247.816406 C 262.234375 238.757812 257.175781 227.84375 261.257812 218.183594 C 264.339844 210.863281 272.03125 206.246094 275.070312 198.898438 C 278.304688 191.078125 275.496094 182.09375 271.710938 174.523438 C 267.921875 166.957031 263.054688 159.621094 261.988281 151.21875 C 260.421875 138.84375 267.894531 127.808594 268.257812 115.535156 C 268.625 103.699219 265.613281 91.75 259.53125 81.578125 C 258.640625 80.085938 257.675781 78.625 256.652344 77.210938 C 245.699219 62.058594 214.621094 39.832031 179.414062 42.753906 C 179.09375 42.785156 178.800781 42.828125 178.507812 42.871094 C 150 44.449219 126.242188 62.789062 115.820312 77.210938 C 114.78125 78.640625 113.832031 80.101562 112.9375 81.578125 C 106.859375 91.75 103.847656 103.699219 104.210938 115.535156 C 104.589844 127.808594 112.046875 138.84375 110.484375 151.21875 C 109.417969 159.621094 104.5625 166.957031 100.761719 174.523438 C 96.976562 182.09375 94.167969 191.066406 97.398438 198.898438 C 100.425781 206.246094 108.113281 210.863281 111.214844 218.183594 C 115.292969 227.84375 110.234375 238.757812 104.957031 247.816406 C 99.679688 256.878906 93.847656 267.0625 96.433594 277.21875 C 98.1875 284.085938 103.699219 289.550781 110.03125 292.75 C 116.359375 295.949219 123.496094 297.191406 130.542969 298.039062 C 143.65625 299.617188 156.914062 299.996094 170.101562 299.164062 C 170.996094 299.105469 171.929688 299.03125 172.675781 298.550781 C 173.582031 297.964844 213.714844 300.582031 214.109375 299.589844 C 214.109375 299.589844 214.109375 299.574219 214.109375 299.574219 C 223.390625 299.644531 232.691406 299.148438 241.914062 298.039062 C 248.960938 297.191406 256.097656 295.964844 262.425781 292.75 C 268.757812 289.550781 274.269531 284.085938 276.023438 277.21875 C 278.640625 267.0625 272.792969 256.878906 267.515625 247.816406 Z M 267.515625 247.816406 " fill-opacity="1" fill-rule="nonzero"/><g clip-path="url(#id3)"><path fill="rgb(93.328857%, 75.689697%, 56.858826%)" d="M 272.820312 269.472656 L 227.980469 254.875 C 219.707031 252.1875 214.109375 244.472656 214.109375 235.777344 L 214.109375 201.394531 L 159.796875 201.394531 L 159.796875 236.203125 C 159.796875 244.96875 154.109375 252.714844 145.746094 255.359375 L 100.835938 269.53125 C 77.574219 276.617188 59.957031 294.707031 52.96875 317.035156 C 60 324.3125 67.617188 331.003906 75.746094 337.066406 C 86.976562 345.425781 99.167969 352.542969 112.148438 358.226562 C 135.074219 368.292969 160.394531 373.875 187.046875 373.875 C 228.742188 373.875 267.234375 360.199219 298.289062 337.066406 C 306.285156 331.136719 313.800781 324.546875 320.730469 317.414062 C 313.859375 294.882812 296.199219 276.632812 272.820312 269.472656 Z M 272.820312 269.472656 " fill-opacity="1" fill-rule="nonzero"/></g><g clip-path="url(#id4)"><path fill="rgb(68.238831%, 41.569519%, 66.268921%)" d="M 291.796875 278.53125 C 287.410156 280.226562 260.6875 314.972656 169.285156 310.445312 C 145.511719 309.261719 103.757812 294.328125 86.449219 275.757812 C 86.433594 275.757812 86.433594 275.742188 86.417969 275.742188 C 70.394531 284.785156 58.453125 299.601562 53 317.019531 C 60.03125 324.296875 67.648438 330.988281 75.777344 337.054688 C 87.003906 345.410156 99.195312 352.527344 112.179688 358.210938 C 135.101562 368.277344 160.425781 373.859375 187.074219 373.859375 C 228.769531 373.859375 267.265625 360.183594 298.316406 337.054688 C 306.316406 331.121094 313.828125 324.53125 320.757812 317.398438 C 315.890625 301.503906 305.628906 287.765625 291.796875 278.53125 Z M 291.796875 278.53125 " fill-opacity="1" fill-rule="nonzero"/></g><path fill="rgb(98.429871%, 79.60968%, 59.609985%)" d="M 245.539062 124.40625 C 245.394531 82.835938 219.941406 52.984375 187.015625 52.984375 C 187.003906 52.984375 186.972656 52.984375 186.960938 52.984375 C 186.945312 52.984375 186.914062 52.984375 186.902344 52.984375 C 153.992188 52.984375 128.523438 82.835938 128.378906 124.40625 C 128.304688 143.359375 128.832031 148.078125 130.761719 161.828125 C 136.753906 204.582031 176.273438 224.335938 186.902344 224.335938 C 199.925781 224.335938 236.855469 204.582031 242.851562 161.828125 C 244.78125 148.078125 245.613281 143.359375 245.539062 124.40625 Z M 245.539062 124.40625 " fill-opacity="1" fill-rule="nonzero"/><path fill="rgb(62.348938%, 32.548523%, 22.749329%)" d="M 147.632812 135.1875 C 158.085938 123.863281 172.808594 97.871094 172.808594 97.871094 C 172.808594 97.871094 186.125 115.84375 201.476562 125.851562 C 212.457031 133.011719 240.597656 149.027344 244.296875 151.175781 C 245.191406 143.914062 248.390625 131.273438 247.804688 118.078125 C 244.457031 42.507812 186.242188 47.898438 186.214844 47.898438 C 153.304688 47.898438 125.921875 74.566406 125.777344 116.136719 C 125.730469 129.550781 128.566406 144.117188 129.386719 151.511719 C 135.921875 146.628906 142.03125 141.253906 147.632812 135.1875 Z M 147.632812 135.1875 " fill-opacity="1" fill-rule="nonzero"/><path fill="rgb(98.429871%, 79.60968%, 59.609985%)" d="M 128.378906 130.734375 C 126.636719 128.847656 123.976562 127.925781 122.484375 130.542969 C 120.324219 134.285156 120.554688 139.296875 120.863281 143.429688 C 121.113281 146.777344 121.535156 150.136719 122.414062 153.382812 C 123.171875 156.203125 124.210938 160.058594 126.710938 161.8125 C 127.28125 162.207031 128.070312 162.601562 128.789062 162.761719 C 129.183594 162.851562 131.578125 162.894531 130.777344 161.839844 " fill-opacity="1" fill-rule="nonzero"/><path fill="rgb(98.429871%, 79.60968%, 59.609985%)" d="M 245.234375 130.734375 C 246.972656 128.847656 249.632812 127.925781 251.125 130.542969 C 253.289062 134.285156 253.054688 139.296875 252.746094 143.429688 C 252.5 146.777344 252.074219 150.136719 251.199219 153.382812 C 250.4375 156.203125 249.398438 160.058594 246.898438 161.8125 C 246.328125 162.207031 245.539062 162.601562 244.824219 162.761719 C 244.429688 162.851562 242.03125 162.894531 242.835938 161.839844 " fill-opacity="1" fill-rule="nonzero"/></svg>