<svg xmlns="http://www.w3.org/2000/svg" xmlns:xlink="http://www.w3.org/1999/xlink" width="375" zoomAndPan="magnify" viewBox="0 0 375 374.999991" height="374.999991" preserveAspectRatio="xMidYMid meet" version="1.0"><path fill="rgb(68.238831%, 41.569519%, 66.268921%)" d="M 375.089844 187.574219 C 375.089844 234.171875 358.066406 276.832031 329.929688 309.628906 C 320.859375 320.199219 310.613281 329.753906 299.441406 338.058594 C 268.21875 361.328125 229.511719 375.089844 187.589844 375.089844 C 160.789062 375.089844 135.328125 369.472656 112.28125 359.34375 C 99.226562 353.625 86.964844 346.46875 75.675781 338.058594 C 64.519531 329.722656 54.300781 320.199219 45.230469 309.644531 C 17.097656 276.847656 0.0585938 234.1875 0.0585938 187.574219 C 0.0585938 84.011719 84.027344 0.0585938 187.589844 0.0585938 C 258.648438 0.0585938 320.476562 39.601562 352.289062 97.886719 C 366.828125 124.523438 375.089844 155.085938 375.089844 187.574219 Z M 375.089844 187.574219 " fill-opacity="1" fill-rule="nonzero"/><path fill="rgb(56.079102%, 34.509277%, 54.508972%)" d="M 375.089844 187.574219 C 375.089844 234.171875 358.066406 276.832031 329.929688 309.628906 C 320.859375 320.199219 310.613281 329.753906 299.441406 338.058594 C 268.21875 361.328125 229.511719 375.089844 187.589844 375.089844 C 160.789062 375.089844 135.328125 369.472656 112.28125 359.34375 L 196.378906 74.222656 L 239.921875 74.867188 L 221.148438 46.804688 L 352.289062 97.875 C 366.828125 124.523438 375.089844 155.085938 375.089844 187.574219 Z M 375.089844 187.574219 " fill-opacity="1" fill-rule="nonzero"/><path fill="rgb(96.078491%, 62.748718%, 39.608765%)" d="M 124.511719 126.980469 C 122.644531 124.9375 119.777344 123.964844 118.160156 126.773438 C 115.835938 130.800781 116.070312 136.210938 116.410156 140.664062 C 116.691406 144.265625 117.128906 147.882812 118.070312 151.398438 C 118.878906 154.425781 119.996094 158.597656 122.703125 160.480469 C 123.320312 160.90625 124.15625 161.332031 124.9375 161.496094 C 125.363281 161.582031 127.949219 161.628906 127.066406 160.511719 " fill-opacity="1" fill-rule="nonzero"/><path fill="rgb(96.078491%, 62.748718%, 39.608765%)" d="M 250.429688 126.980469 C 252.296875 124.9375 255.164062 123.964844 256.78125 126.773438 C 259.105469 130.800781 258.867188 136.210938 258.53125 140.664062 C 258.25 144.265625 257.8125 147.882812 256.871094 151.398438 C 256.0625 154.425781 254.945312 158.597656 252.238281 160.480469 C 251.621094 160.90625 250.785156 161.332031 250.003906 161.496094 C 249.578125 161.582031 246.992188 161.628906 247.875 160.511719 " fill-opacity="1" fill-rule="nonzero"/><path fill="rgb(86.669922%, 56.858826%, 36.079407%)" d="M 329.929688 309.628906 C 320.859375 320.199219 310.628906 329.753906 299.441406 338.058594 L 75.675781 338.058594 C 64.503906 329.722656 54.289062 320.199219 45.230469 309.644531 C 53.730469 287.988281 71.738281 270.71875 94.960938 263.632812 L 133.625 248.785156 C 148.558594 243.875 147.882812 235.613281 147.882812 219.882812 L 147.882812 186.425781 L 227.25 186.425781 L 227.25 219.855469 C 227.25 235.597656 228.042969 244.949219 243.007812 249.84375 L 280.242188 263.585938 C 303.46875 270.703125 321.460938 287.976562 329.929688 309.628906 Z M 329.929688 309.628906 " fill-opacity="1" fill-rule="nonzero"/><path fill="rgb(66.668701%, 84.709167%, 95.689392%)" d="M 329.929688 309.628906 C 295.546875 349.699219 244.535156 375.089844 187.589844 375.089844 C 130.640625 375.089844 79.628906 349.699219 45.246094 309.644531 C 53.742188 287.988281 71.75 270.71875 94.976562 263.632812 L 133.640625 248.785156 C 137.988281 247.34375 141.019531 245.625 143.121094 243.523438 C 158.320312 257.503906 189.292969 301.691406 189.292969 301.691406 C 189.292969 301.691406 224.941406 252.09375 235.144531 245.960938 C 237.1875 247.476562 239.757812 248.769531 243.023438 249.84375 L 280.257812 263.585938 C 303.46875 270.703125 321.460938 287.976562 329.929688 309.628906 Z M 329.929688 309.628906 " fill-opacity="1" fill-rule="nonzero"/><path fill="rgb(96.078491%, 62.748718%, 39.608765%)" d="M 250.753906 120.160156 C 250.59375 75.351562 223.164062 43.160156 187.707031 43.160156 C 187.691406 43.160156 187.660156 43.160156 187.648438 43.160156 C 187.632812 43.160156 187.660156 48.789062 187.648438 48.789062 C 152.191406 48.789062 124.6875 75.339844 124.523438 120.160156 C 124.453125 140.59375 125.15625 154.042969 127.230469 168.875 C 133.683594 214.972656 176.121094 227.894531 187.574219 227.894531 C 201.613281 227.894531 241.597656 214.972656 248.050781 168.875 C 250.121094 154.042969 250.828125 140.59375 250.753906 120.160156 Z M 250.753906 120.160156 " fill-opacity="1" fill-rule="nonzero"/><path fill="rgb(40.388489%, 18.03894%, 3.919983%)" d="M 220.929688 180.78125 C 218.636719 177.769531 215.769531 175.285156 212.445312 173.667969 C 207.816406 171.402344 201.554688 169.332031 196.363281 170.140625 C 195.230469 170.316406 193.953125 170.757812 193.554688 171.828125 C 193.144531 172.933594 193.878906 174.136719 194.6875 174.988281 C 197.113281 177.59375 200.378906 179.136719 203.492188 180.722656 C 206.332031 182.164062 210.386719 183.929688 211.945312 186.898438 C 215.078125 192.894531 211.636719 200.449219 205.226562 202.507812 C 204.523438 202.730469 203.800781 202.863281 203.066406 202.875 C 196.777344 203.023438 193.777344 192.660156 187.25 195.363281 C 180.578125 198.128906 176.8125 208.699219 168.023438 199.039062 C 157.792969 187.792969 178.078125 180.28125 185.058594 176.34375 C 186.265625 175.652344 187.558594 174.695312 187.675781 173.3125 C 187.777344 172.050781 186.808594 170.902344 185.648438 170.402344 C 184.488281 169.902344 183.179688 169.902344 181.914062 169.933594 C 180.28125 169.976562 178.652344 170.035156 177.019531 170.226562 C 167.273438 171.359375 157.542969 175.371094 153.777344 184.28125 C 149.867188 193.570312 150.351562 204.480469 157.203125 214.59375 C 163.539062 223.941406 177.738281 234.878906 189.292969 234.878906 C 201.757812 234.878906 215.828125 222.441406 222.707031 213.296875 C 229.644531 204.082031 227.941406 189.984375 220.929688 180.78125 Z M 220.929688 180.78125 " fill-opacity="1" fill-rule="nonzero"/><path fill="rgb(40.388489%, 18.03894%, 3.919983%)" d="M 250.753906 120.160156 C 250.679688 100.109375 245.140625 82.601562 235.878906 69.355469 C 236.570312 70.355469 231.410156 79.175781 230.851562 80.570312 C 229.484375 83.953125 228.453125 87.554688 227.953125 91.183594 C 226.808594 99.667969 228.277344 108.308594 230.261719 116.558594 C 231.027344 119.746094 231.9375 123.039062 233.996094 125.597656 C 236.847656 129.125 240.15625 130.917969 241.90625 135.300781 C 243.699219 139.796875 244.183594 144.691406 245.390625 149.351562 C 245.785156 150.910156 246.417969 152.632812 247.886719 153.292969 C 248.3125 153.484375 248.8125 153.558594 249.226562 153.335938 C 249.785156 153.027344 249.929688 152.308594 250.003906 151.675781 C 251.371094 141.078125 250.753906 130.832031 250.753906 120.160156 Z M 250.753906 120.160156 " fill-opacity="1" fill-rule="nonzero"/><path fill="rgb(40.388489%, 18.03894%, 3.919983%)" d="M 134.449219 136.3125 C 136.195312 134.519531 138.402344 133.050781 140.179688 131.242188 C 143.398438 127.992188 144.871094 123.613281 146.03125 119.292969 C 150.527344 102.414062 149.808594 91.230469 172.59375 93.757812 C 177.046875 94.257812 180.871094 97.007812 184.972656 98.8125 C 195.703125 103.5625 208.152344 101.785156 219.457031 98.625 C 229.378906 95.84375 240.347656 90.671875 242.757812 80.644531 C 245.535156 69.121094 235.539062 58.800781 226.46875 51.140625 C 220.371094 45.980469 213.84375 40.632812 205.949219 39.410156 C 193.820312 37.53125 182.472656 45.863281 170.269531 47.113281 C 161.289062 48.023438 151.542969 45.1875 143.605469 49.480469 C 134.886719 54.183594 132.332031 65.222656 126.875 73.5 C 125.140625 76.132812 123.054688 78.542969 121.585938 81.351562 C 116.71875 90.613281 121.953125 99.578125 123.1875 108.796875 C 125.199219 123.761719 124.773438 138.960938 125.1875 154.027344 C 125.214844 155.027344 125.304688 156.175781 126.097656 156.792969 C 126.964844 157.480469 128.332031 157.144531 129.097656 156.335938 C 129.859375 155.527344 130.167969 154.394531 130.390625 153.308594 C 130.757812 151.527344 130.976562 149.722656 131.050781 147.914062 C 131.167969 145.121094 130.964844 142.207031 132.09375 139.636719 C 132.652344 138.371094 133.476562 137.300781 134.449219 136.3125 Z M 134.449219 136.3125 " fill-opacity="1" fill-rule="nonzero"/></svg>