<svg xmlns="http://www.w3.org/2000/svg" xmlns:xlink="http://www.w3.org/1999/xlink" width="375" zoomAndPan="magnify" viewBox="0 0 375 374.999991" height="374.999991" preserveAspectRatio="xMidYMid meet" version="1.0"><defs><clipPath id="id1"><path d="M 0 1.023438 L 374 1.023438 L 374 373.773438 L 0 373.773438 Z M 0 1.023438 " clip-rule="nonzero"/></clipPath><clipPath id="id2"><path d="M 163 63 L 375 63 L 375 373.773438 L 163 373.773438 Z M 163 63 " clip-rule="nonzero"/></clipPath><clipPath id="id3"><path d="M 52 201 L 321 201 L 321 373.773438 L 52 373.773438 Z M 52 201 " clip-rule="nonzero"/></clipPath><clipPath id="id4"><path d="M 52 283 L 321 283 L 321 373.773438 L 52 373.773438 Z M 52 283 " clip-rule="nonzero"/></clipPath></defs><g clip-path="url(#id1)"><path fill="rgb(59.609985%, 77.648926%, 38.42926%)" d="M 373.507812 187.472656 C 373.507812 233.789062 356.578125 276.195312 328.59375 308.792969 C 326.066406 311.746094 323.433594 314.609375 320.714844 317.398438 C 313.785156 324.53125 306.269531 331.121094 298.273438 337.054688 C 267.222656 360.183594 228.726562 373.859375 187.03125 373.859375 C 186.460938 373.859375 185.90625 373.859375 185.335938 373.847656 C 159.3125 373.625 134.578125 368.058594 112.136719 358.210938 C 99.152344 352.527344 86.960938 345.410156 75.730469 337.054688 C 67.605469 330.988281 59.988281 324.296875 52.953125 317.019531 C 50.367188 314.359375 47.867188 311.613281 45.453125 308.808594 C 17.472656 276.210938 0.527344 233.804688 0.527344 187.472656 C 0.527344 84.53125 84.035156 1.082031 187.03125 1.082031 C 257.703125 1.082031 319.195312 40.386719 350.832031 98.324219 C 361.328125 117.539062 368.519531 138.796875 371.695312 161.359375 C 372.894531 169.894531 373.507812 178.617188 373.507812 187.472656 Z M 373.507812 187.472656 " fill-opacity="1" fill-rule="nonzero"/></g><g clip-path="url(#id2)"><path fill="rgb(34.509277%, 70.588684%, 39.608765%)" d="M 374.324219 187.472656 C 374.324219 233.789062 357.394531 276.195312 329.414062 308.792969 C 326.882812 311.746094 324.253906 314.609375 321.535156 317.398438 C 314.605469 324.53125 307.089844 331.121094 299.09375 337.054688 C 268.039062 360.183594 229.546875 373.859375 187.851562 373.859375 C 187.28125 373.859375 186.726562 373.859375 186.15625 373.847656 L 163.582031 333.765625 L 243.480469 63.242188 L 372.511719 161.359375 C 373.710938 169.894531 374.324219 178.617188 374.324219 187.472656 Z M 374.324219 187.472656 " fill-opacity="1" fill-rule="nonzero"/></g><path fill="rgb(3.529358%, 15.689087%, 21.958923%)" d="M 260.714844 152.140625 C 266.605469 123.777344 265.335938 93.136719 245.699219 70.898438 C 239.339844 63.691406 231.445312 58.242188 223.097656 54.078125 C 205.394531 45.238281 186.285156 43.617188 167.355469 48.117188 C 149.125 52.457031 136.082031 63.414062 126.652344 81.226562 C 107.5 117.4375 113.246094 171.105469 137.9375 202.449219 C 147.195312 214.195312 160.21875 221.898438 173.875 226.121094 C 181.726562 228.546875 190.015625 229.890625 198.039062 228.28125 C 203.421875 227.199219 208.507812 224.804688 213.332031 221.96875 C 236.738281 208.207031 253.828125 182.925781 260.128906 154.886719 C 260.320312 153.964844 260.527344 153.058594 260.714844 152.140625 Z M 260.714844 152.140625 " fill-opacity="1" fill-rule="nonzero"/><g clip-path="url(#id3)"><path fill="rgb(92.549133%, 75.289917%, 56.469727%)" d="M 272.792969 269.472656 L 227.953125 254.875 C 219.679688 252.1875 214.078125 244.472656 214.078125 235.777344 L 214.078125 201.394531 L 159.765625 201.394531 L 159.765625 236.203125 C 159.765625 244.96875 154.078125 252.714844 145.71875 255.359375 L 100.804688 269.53125 C 77.546875 276.617188 59.929688 294.707031 52.941406 317.035156 C 59.972656 324.3125 67.589844 331.003906 75.71875 337.066406 C 86.945312 345.425781 99.136719 352.542969 112.121094 358.226562 C 135.042969 368.292969 160.367188 373.875 187.015625 373.875 C 228.714844 373.875 267.207031 360.199219 298.257812 337.066406 C 306.257812 331.136719 313.769531 324.546875 320.699219 317.414062 C 313.828125 294.882812 296.167969 276.632812 272.792969 269.472656 Z M 272.792969 269.472656 " fill-opacity="1" fill-rule="nonzero"/></g><g clip-path="url(#id4)"><path fill="rgb(100%, 96.078491%, 59.999084%)" d="M 298.054688 283.222656 L 189.707031 322.089844 L 75.558594 283.222656 C 64.988281 292.0625 57.09375 303.78125 52.953125 317.019531 C 59.988281 324.296875 67.605469 330.988281 75.730469 337.054688 C 86.960938 345.410156 99.152344 352.527344 112.136719 358.210938 C 135.058594 368.277344 160.378906 373.859375 187.03125 373.859375 C 228.726562 373.859375 267.222656 360.183594 298.273438 337.054688 C 306.269531 331.121094 313.785156 324.53125 320.714844 317.398438 C 316.621094 304.015625 308.699219 292.164062 298.054688 283.222656 Z M 298.054688 283.222656 " fill-opacity="1" fill-rule="nonzero"/></g><path fill="rgb(98.429871%, 79.60968%, 59.609985%)" d="M 245.511719 124.40625 C 245.363281 82.835938 219.910156 52.984375 186.988281 52.984375 C 186.972656 52.984375 186.945312 52.984375 186.929688 52.984375 C 186.914062 52.984375 186.886719 52.984375 186.871094 52.984375 C 153.960938 52.984375 128.496094 82.835938 128.347656 124.40625 C 128.277344 143.359375 128.800781 148.078125 130.730469 161.828125 C 136.726562 204.582031 176.242188 224.335938 186.871094 224.335938 C 199.898438 224.335938 236.828125 204.582031 242.820312 161.828125 C 244.75 148.078125 245.585938 143.359375 245.511719 124.40625 Z M 245.511719 124.40625 " fill-opacity="1" fill-rule="nonzero"/><path fill="rgb(98.429871%, 79.60968%, 59.609985%)" d="M 128.347656 130.734375 C 126.609375 128.847656 123.949219 127.925781 122.457031 130.542969 C 120.292969 134.285156 120.527344 139.296875 120.835938 143.429688 C 121.082031 146.777344 121.507812 150.136719 122.382812 153.382812 C 123.144531 156.203125 124.183594 160.058594 126.683594 161.8125 C 127.253906 162.207031 128.042969 162.601562 128.757812 162.761719 C 129.152344 162.851562 131.550781 162.894531 130.746094 161.839844 " fill-opacity="1" fill-rule="nonzero"/><path fill="rgb(98.429871%, 79.60968%, 59.609985%)" d="M 245.203125 130.734375 C 246.945312 128.847656 249.605469 127.925781 251.097656 130.542969 C 253.257812 134.285156 253.027344 139.296875 252.71875 143.429688 C 252.46875 146.777344 252.046875 150.136719 251.167969 153.382812 C 250.410156 156.203125 249.371094 160.058594 246.871094 161.8125 C 246.300781 162.207031 245.511719 162.601562 244.792969 162.761719 C 244.398438 162.851562 242.003906 162.894531 242.804688 161.839844 " fill-opacity="1" fill-rule="nonzero"/><path fill="rgb(3.529358%, 15.689087%, 21.958923%)" d="M 214.546875 153.820312 C 217.542969 154.667969 220.644531 155.179688 223.859375 155.25 C 223.933594 152.621094 224.019531 149.976562 224.09375 147.347656 C 234.707031 151.847656 240.21875 166.414062 242.28125 176.847656 C 242.089844 175.914062 246.050781 170.855469 246.59375 169.628906 C 247.863281 166.796875 248.464844 163.8125 249.457031 160.890625 C 251.550781 154.695312 253.140625 148.691406 254.109375 142.128906 C 256.167969 127.957031 256.183594 113.386719 252.9375 99.390625 C 248.40625 79.867188 229.136719 59.585938 210.015625 51.945312 C 202.296875 48.863281 194.429688 47.882812 186.214844 47.882812 C 183.1875 47.882812 180.175781 48.085938 177.179688 48.539062 C 153.539062 52.121094 136.945312 70.679688 129.34375 92.433594 C 125.425781 103.628906 123.671875 115.582031 123.949219 127.414062 C 124.152344 135.875 124.589844 153.117188 131.054688 159.328125 C 135.863281 150.53125 128.789062 141.078125 136.402344 133.554688 C 141.007812 129.007812 146.625 125.664062 151.59375 121.527344 C 155.863281 117.992188 157.894531 112.292969 161.855469 108.976562 C 169.007812 114.820312 174.808594 123.515625 181.242188 130.25 C 190.6875 140.1875 201.695312 150.179688 214.546875 153.820312 Z M 214.546875 153.820312 " fill-opacity="1" fill-rule="nonzero"/><path fill="rgb(3.529358%, 15.689087%, 21.958923%)" d="M 245.292969 196.808594 C 243.742188 202.390625 242.398438 208.132812 242.703125 213.902344 C 243.097656 221.414062 246.226562 228.5 249.589844 235.238281 C 255.832031 247.730469 263.085938 259.800781 267.675781 272.996094 C 269.808594 279.132812 271.34375 285.546875 271.210938 292.035156 C 270.933594 305.679688 263.289062 318.21875 253.886719 328.125 C 244.488281 338.03125 233.230469 345.996094 223.347656 355.433594 C 229.808594 340.046875 234.488281 323.917969 237.28125 307.464844 C 238.039062 302.964844 238.65625 298.300781 237.457031 293.890625 C 235.585938 286.992188 229.707031 282.082031 225.074219 276.648438 C 210.496094 259.566406 207.527344 233.46875 217.921875 213.554688 C 221.753906 206.203125 227.132812 199.804688 232.148438 193.226562 C 239.632812 183.410156 246.433594 173.0625 252.46875 162.292969 C 251.855469 163.40625 253.828125 169.175781 253.683594 170.855469 C 253.464844 173.222656 252.601562 175.09375 251.769531 177.332031 C 249.339844 183.746094 247.132812 190.203125 245.292969 196.808594 Z M 245.292969 196.808594 " fill-opacity="1" fill-rule="nonzero"/><path fill="rgb(3.529358%, 15.689087%, 21.958923%)" d="M 130.03125 197.304688 C 131.578125 202.886719 132.925781 208.628906 132.617188 214.402344 C 132.222656 221.910156 129.09375 228.996094 125.730469 235.734375 C 119.488281 248.226562 112.238281 260.296875 107.648438 273.492188 C 105.511719 279.628906 103.976562 286.042969 104.109375 292.53125 C 104.386719 306.179688 112.03125 318.714844 121.433594 328.621094 C 130.832031 338.527344 142.089844 346.492188 151.972656 355.933594 C 145.511719 340.546875 140.832031 324.414062 138.042969 307.960938 C 137.28125 303.460938 136.667969 298.800781 137.867188 294.386719 C 139.738281 287.488281 145.613281 282.578125 150.25 277.144531 C 164.824219 260.0625 167.792969 233.964844 157.398438 214.050781 C 153.566406 206.699219 148.1875 200.300781 143.171875 193.726562 C 135.6875 183.90625 128.890625 173.558594 122.851562 162.792969 C 123.464844 163.902344 121.492188 169.671875 121.636719 171.355469 C 121.859375 173.722656 122.71875 175.589844 123.554688 177.828125 C 125.980469 184.242188 128.1875 190.699219 130.03125 197.304688 Z M 130.03125 197.304688 " fill-opacity="1" fill-rule="nonzero"/></svg>