<svg xmlns="http://www.w3.org/2000/svg" xmlns:xlink="http://www.w3.org/1999/xlink" width="375" zoomAndPan="magnify" viewBox="0 0 375 374.999991" height="374.999991" preserveAspectRatio="xMidYMid meet" version="1.0"><defs><clipPath id="id1"><path d="M 0 0 L 375 0 L 375 374.25 L 0 374.25 Z M 0 0 " clip-rule="nonzero"/></clipPath><clipPath id="id2"><path d="M 163 62 L 375 62 L 375 374.25 L 163 374.25 Z M 163 62 " clip-rule="nonzero"/></clipPath><clipPath id="id3"><path d="M 53 201 L 322 201 L 322 374.25 L 53 374.25 Z M 53 201 " clip-rule="nonzero"/></clipPath><clipPath id="id4"><path d="M 53 232 L 322 232 L 322 374.25 L 53 374.25 Z M 53 232 " clip-rule="nonzero"/></clipPath><clipPath id="id5"><path d="M 183 236 L 195 236 L 195 374.25 L 183 374.25 Z M 183 236 " clip-rule="nonzero"/></clipPath></defs><g clip-path="url(#id1)"><path fill="rgb(66.668701%, 84.709167%, 95.689392%)" d="M 374.257812 187.199219 C 374.257812 233.703125 357.292969 276.277344 329.253906 309.007812 C 326.71875 311.972656 324.082031 314.847656 321.359375 317.652344 C 314.414062 324.808594 306.886719 331.425781 298.871094 337.382812 C 267.757812 360.605469 229.1875 374.339844 187.40625 374.339844 C 186.835938 374.339844 186.277344 374.339844 185.707031 374.324219 C 159.632812 374.101562 134.84375 368.515625 112.359375 358.625 C 99.351562 352.917969 87.132812 345.773438 75.882812 337.382812 C 67.738281 331.292969 60.105469 324.574219 53.058594 317.269531 C 50.464844 314.597656 47.960938 311.839844 45.542969 309.023438 C 17.503906 276.292969 0.527344 233.71875 0.527344 187.199219 C 0.527344 83.84375 84.203125 0.0585938 187.40625 0.0585938 C 258.21875 0.0585938 319.835938 39.523438 351.535156 97.691406 C 362.054688 116.984375 369.261719 138.332031 372.441406 160.980469 C 373.640625 169.550781 374.257812 178.308594 374.257812 187.199219 Z M 374.257812 187.199219 " fill-opacity="1" fill-rule="nonzero"/></g><g clip-path="url(#id2)"><path fill="rgb(36.859131%, 75.689697%, 92.939758%)" d="M 375.078125 187.199219 C 375.078125 233.703125 358.113281 276.277344 330.074219 309.007812 C 327.539062 311.972656 324.902344 314.847656 322.179688 317.652344 C 315.234375 324.808594 307.707031 331.425781 299.691406 337.382812 C 268.578125 360.605469 230.007812 374.339844 188.226562 374.339844 C 187.65625 374.339844 187.097656 374.339844 186.527344 374.324219 L 163.910156 334.082031 L 243.964844 62.46875 L 373.261719 160.980469 C 374.460938 169.550781 375.078125 178.308594 375.078125 187.199219 Z M 375.078125 187.199219 " fill-opacity="1" fill-rule="nonzero"/></g><path fill="rgb(3.529358%, 15.689087%, 21.958923%)" d="M 271.59375 135.292969 C 271.375 118.011719 268.019531 99.9375 260.375 84.355469 C 244.714844 52.460938 202.65625 36.722656 168.992188 41.945312 C 151.222656 44.703125 134.128906 55.792969 121.425781 68.144531 C 105.472656 83.667969 99.160156 114.019531 98.894531 135.292969 C 98.632812 156.050781 104.390625 184.867188 84.128906 197.761719 C 81.652344 199.347656 80.644531 202.5 81.960938 205.125 C 89.492188 220.074219 105.589844 229.714844 121.691406 235.257812 C 134.1875 239.558594 147.339844 242.097656 160.570312 242.34375 C 171.335938 242.550781 181.925781 243.886719 185.207031 232.164062 C 185.207031 232.148438 185.222656 232.121094 185.222656 232.105469 C 185.222656 232.121094 185.238281 232.148438 185.238281 232.164062 C 188.535156 243.886719 199.125 242.550781 209.878906 242.34375 C 223.105469 242.097656 236.261719 239.558594 248.757812 235.257812 C 264.855469 229.714844 280.957031 220.074219 288.484375 205.125 C 289.804688 202.5 288.792969 199.347656 286.316406 197.761719 C 266.101562 184.867188 271.84375 156.050781 271.59375 135.292969 Z M 271.59375 135.292969 " fill-opacity="1" fill-rule="nonzero"/><g clip-path="url(#id3)"><path fill="rgb(86.669922%, 56.858826%, 36.079407%)" d="M 273.339844 269.53125 L 228.410156 254.875 C 220.117188 252.175781 214.507812 244.429688 214.507812 235.699219 L 214.507812 201.179688 L 160.085938 201.179688 L 160.085938 236.125 C 160.085938 244.925781 154.386719 252.703125 146.007812 255.359375 L 101.003906 269.589844 C 77.699219 276.703125 60.046875 294.867188 53.042969 317.285156 C 60.089844 324.589844 67.722656 331.308594 75.867188 337.398438 C 87.117188 345.789062 99.335938 352.933594 112.34375 358.640625 C 135.3125 368.75 160.6875 374.351562 187.390625 374.351562 C 229.171875 374.351562 267.742188 360.621094 298.855469 337.398438 C 306.871094 331.441406 314.398438 324.824219 321.34375 317.664062 C 314.457031 295.042969 296.761719 276.71875 273.339844 269.53125 Z M 273.339844 269.53125 " fill-opacity="1" fill-rule="nonzero"/></g><g clip-path="url(#id4)"><path fill="rgb(100%, 86.669922%, 23.529053%)" d="M 273.339844 269.53125 L 228.410156 254.875 C 220.117188 252.175781 214.507812 244.429688 214.507812 235.699219 L 214.507812 234.496094 C 208.398438 236.050781 202.011719 236.699219 196.003906 236.945312 C 184.242188 237.429688 171.585938 236.402344 160.085938 232.914062 L 160.085938 236.125 C 160.085938 244.925781 154.386719 252.703125 146.007812 255.359375 L 101.003906 269.589844 C 77.699219 276.703125 60.046875 294.867188 53.042969 317.285156 C 60.089844 324.589844 67.722656 331.308594 75.867188 337.398438 C 87.117188 345.789062 99.335938 352.933594 112.34375 358.640625 C 135.3125 368.75 160.6875 374.351562 187.390625 374.351562 C 229.171875 374.351562 267.742188 360.621094 298.855469 337.398438 C 306.871094 331.441406 314.398438 324.824219 321.34375 317.664062 C 314.457031 295.042969 296.761719 276.71875 273.339844 269.53125 Z M 273.339844 269.53125 " fill-opacity="1" fill-rule="nonzero"/></g><g clip-path="url(#id5)"><path fill="rgb(98.81897%, 76.469421%, 23.919678%)" d="M 183.039062 236.785156 L 183.039062 374.265625 C 184.492188 374.308594 185.941406 374.339844 187.40625 374.339844 C 189.691406 374.339844 191.976562 374.277344 194.246094 374.191406 L 194.246094 236.992188 C 190.554688 237.09375 186.804688 237.019531 183.039062 236.785156 Z M 183.039062 236.785156 " fill-opacity="1" fill-rule="nonzero"/></g><path fill="rgb(96.078491%, 62.748718%, 39.608765%)" d="M 246.003906 123.878906 C 245.855469 82.140625 220.351562 52.167969 187.363281 52.167969 C 187.347656 52.167969 187.316406 52.167969 187.304688 52.167969 C 187.289062 52.167969 187.257812 52.167969 187.246094 52.167969 C 154.269531 52.167969 128.75 82.140625 128.605469 123.878906 C 128.53125 142.90625 129.058594 147.644531 130.992188 161.453125 C 137 204.378906 176.59375 224.210938 187.246094 224.210938 C 200.296875 224.210938 237.300781 204.378906 243.308594 161.453125 C 245.242188 147.644531 246.078125 142.90625 246.003906 123.878906 Z M 246.003906 123.878906 " fill-opacity="1" fill-rule="nonzero"/><path fill="rgb(96.078491%, 62.748718%, 39.608765%)" d="M 128.605469 130.230469 C 126.859375 128.339844 124.195312 127.414062 122.699219 130.042969 C 120.53125 133.796875 120.765625 138.828125 121.074219 142.980469 C 121.324219 146.339844 121.75 149.714844 122.628906 152.972656 C 123.390625 155.804688 124.429688 159.675781 126.933594 161.4375 C 127.503906 161.832031 128.296875 162.230469 129.015625 162.390625 C 129.410156 162.476562 131.8125 162.523438 131.007812 161.464844 " fill-opacity="1" fill-rule="nonzero"/><path fill="rgb(96.078491%, 62.748718%, 39.608765%)" d="M 245.695312 130.230469 C 247.4375 128.339844 250.105469 127.414062 251.597656 130.042969 C 253.765625 133.796875 253.53125 138.828125 253.226562 142.980469 C 252.976562 146.339844 252.550781 149.714844 251.671875 152.972656 C 250.910156 155.804688 249.871094 159.675781 247.367188 161.4375 C 246.792969 161.832031 246.003906 162.230469 245.285156 162.390625 C 244.890625 162.476562 242.488281 162.523438 243.292969 161.464844 " fill-opacity="1" fill-rule="nonzero"/><path fill="rgb(3.529358%, 15.689087%, 21.958923%)" d="M 239.527344 151.003906 C 241.035156 152.445312 242.53125 153.894531 244.023438 155.347656 C 243.761719 155.097656 248.464844 144.007812 248.832031 142.777344 C 250.25 138.082031 251.085938 133.355469 251.949219 128.542969 C 253.664062 119.023438 252.125 108.445312 250.851562 98.878906 C 248.960938 84.796875 244.390625 70.890625 232.9375 61.675781 C 220.03125 51.304688 202.875 47.050781 186.570312 47.050781 C 153.597656 47.050781 126.15625 73.824219 126.011719 115.5625 C 125.96875 129.027344 128.808594 143.65625 129.628906 151.078125 C 136.164062 146.179688 142.285156 140.78125 147.898438 134.691406 C 152.601562 129.585938 163.804688 108.167969 166.019531 109.078125 C 166.371094 109.222656 166.632812 109.5625 166.765625 109.925781 C 168.917969 116.105469 171.570312 122.355469 175.890625 127.34375 C 180.683594 132.859375 186.730469 135.089844 193.589844 136.9375 C 192.136719 133.988281 190.234375 125.230469 190.335938 121.941406 C 197.808594 133.296875 211.945312 146.632812 225.347656 148.761719 C 224.101562 144.140625 221.890625 140.179688 222.34375 135.308594 C 228.191406 140.414062 233.917969 145.652344 239.527344 151.003906 Z M 239.527344 151.003906 " fill-opacity="1" fill-rule="nonzero"/></svg>