<svg xmlns="http://www.w3.org/2000/svg" xmlns:xlink="http://www.w3.org/1999/xlink" width="375" zoomAndPan="magnify" viewBox="0 0 375 374.999991" height="374.999991" preserveAspectRatio="xMidYMid meet" version="1.0"><defs><clipPath id="id1"><path d="M 0 0 L 375 0 L 375 374.25 L 0 374.25 Z M 0 0 " clip-rule="nonzero"/></clipPath><clipPath id="id2"><path d="M 163 62 L 375 62 L 375 374.25 L 163 374.25 Z M 163 62 " clip-rule="nonzero"/></clipPath><clipPath id="id3"><path d="M 53 201 L 322 201 L 322 374.25 L 53 374.25 Z M 53 201 " clip-rule="nonzero"/></clipPath><clipPath id="id4"><path d="M 99 262 L 276 262 L 276 374.25 L 99 374.25 Z M 99 262 " clip-rule="nonzero"/></clipPath></defs><g clip-path="url(#id1)"><path fill="rgb(78.42865%, 76.858521%, 89.019775%)" d="M 374.257812 187.199219 C 374.257812 233.703125 357.292969 276.277344 329.253906 309.007812 C 326.71875 311.972656 324.082031 314.847656 321.359375 317.652344 C 314.414062 324.808594 306.886719 331.425781 298.871094 337.382812 C 267.757812 360.605469 229.1875 374.339844 187.40625 374.339844 C 186.835938 374.339844 186.277344 374.339844 185.707031 374.324219 C 159.632812 374.101562 134.84375 368.515625 112.359375 358.625 C 99.351562 352.917969 87.132812 345.773438 75.882812 337.382812 C 67.738281 331.292969 60.105469 324.574219 53.058594 317.269531 C 50.464844 314.597656 47.960938 311.839844 45.542969 309.023438 C 17.503906 276.292969 0.527344 233.71875 0.527344 187.199219 C 0.527344 83.84375 84.203125 0.0585938 187.40625 0.0585938 C 258.21875 0.0585938 319.835938 39.523438 351.535156 97.691406 C 362.054688 116.984375 369.261719 138.332031 372.441406 160.980469 C 373.640625 169.550781 374.257812 178.308594 374.257812 187.199219 Z M 374.257812 187.199219 " fill-opacity="1" fill-rule="nonzero"/></g><g clip-path="url(#id2)"><path fill="rgb(58.039856%, 57.249451%, 78.039551%)" d="M 375.078125 187.199219 C 375.078125 233.703125 358.113281 276.277344 330.074219 309.007812 C 327.539062 311.972656 324.902344 314.847656 322.179688 317.652344 C 315.234375 324.808594 307.707031 331.425781 299.691406 337.382812 C 268.578125 360.605469 230.007812 374.339844 188.226562 374.339844 C 187.65625 374.339844 187.097656 374.339844 186.527344 374.324219 L 163.910156 334.082031 L 243.964844 62.46875 L 373.261719 160.980469 C 374.460938 169.550781 375.078125 178.308594 375.078125 187.199219 Z M 375.078125 187.199219 " fill-opacity="1" fill-rule="nonzero"/></g><path fill="rgb(36.468506%, 15.689087%, 10.5896%)" d="M 312.160156 133.519531 C 312.90625 124.878906 307.484375 116.074219 299.457031 112.832031 C 304.496094 108.652344 305.960938 100.730469 302.753906 95.023438 C 299.28125 88.800781 292.410156 87.40625 285.9375 88.082031 C 288.984375 80.953125 288.207031 72.632812 282.082031 67.191406 C 276.195312 61.941406 267.433594 60.808594 259.816406 62.804688 C 262.453125 56.980469 258.761719 49.644531 252.976562 46.929688 C 247.203125 44.21875 240.1875 45.390625 234.589844 48.457031 C 236.144531 41.296875 228.613281 34.785156 221.304688 34.519531 C 217.070312 34.359375 212.691406 35.695312 208.851562 37.511719 C 209.9375 33.054688 207.253906 28.285156 203.359375 25.863281 C 199.460938 23.445312 194.65625 22.972656 190.085938 23.328125 C 187.1875 23.546875 184.226562 24.105469 181.75 25.644531 C 179.277344 27.183594 177.371094 29.882812 177.429688 32.804688 C 176.230469 28.210938 168.699219 26.640625 164.65625 26.039062 C 159.164062 25.21875 153.347656 26.320312 148.613281 29.253906 C 143.238281 32.582031 139.269531 39.304688 140.96875 45.1875 C 135.710938 42.78125 129.511719 42.074219 124.328125 44.511719 C 118.554688 47.226562 114.863281 54.558594 117.484375 60.382812 C 109.851562 58.402344 101.09375 59.535156 95.21875 64.769531 C 89.09375 70.230469 88.320312 78.53125 91.367188 85.664062 C 84.875 84.988281 78.019531 86.382812 74.546875 92.601562 C 71.355469 98.324219 72.820312 106.230469 77.84375 110.410156 C 69.816406 113.640625 64.398438 122.457031 65.144531 131.097656 C 65.890625 139.738281 72.71875 147.484375 81.183594 149.304688 C 73.933594 152.089844 69.203125 160.261719 70.375 167.949219 C 71.546875 175.636719 78.535156 182.003906 86.28125 182.472656 C 81.242188 188.621094 80.804688 198.128906 85.257812 204.730469 C 89.710938 211.316406 98.691406 214.457031 106.265625 212.050781 C 103.628906 219.503906 106.570312 228.570312 113.105469 233.03125 C 119.640625 237.488281 129.132812 236.933594 135.09375 231.738281 C 134.464844 237.445312 139.796875 242.402344 145.4375 243.476562 C 151.0625 244.53125 156.804688 242.742188 162.253906 240.980469 C 161.753906 241.144531 171.496094 247.097656 173.328125 247.320312 C 177.589844 247.816406 183.097656 246.804688 186.308594 243.726562 C 186.835938 243.210938 187.332031 242.640625 187.800781 242.023438 C 188.722656 243.578125 189.765625 244.988281 190.964844 246.144531 C 194.175781 249.226562 199.683594 250.238281 203.945312 249.738281 C 205.777344 249.519531 215.53125 243.5625 215.019531 243.402344 C 220.46875 245.164062 226.210938 246.953125 231.835938 245.894531 C 237.476562 244.839844 242.808594 239.867188 242.179688 234.160156 C 248.140625 239.351562 257.648438 239.910156 264.167969 235.449219 C 270.6875 230.992188 273.644531 221.9375 271.007812 214.472656 C 278.582031 216.863281 287.5625 213.738281 292.015625 207.152344 C 296.46875 200.5625 296.03125 191.058594 290.992188 184.894531 C 298.738281 184.425781 305.710938 178.042969 306.898438 170.371094 C 308.085938 162.699219 303.339844 154.511719 296.089844 151.722656 C 304.585938 149.921875 311.425781 142.160156 312.160156 133.519531 Z M 312.160156 133.519531 " fill-opacity="1" fill-rule="nonzero"/><g clip-path="url(#id3)"><path fill="rgb(66.668701%, 46.269226%, 28.239441%)" d="M 273.339844 269.53125 L 228.410156 254.875 C 220.117188 252.175781 214.507812 244.429688 214.507812 235.699219 L 214.507812 201.179688 L 160.085938 201.179688 L 160.085938 236.125 C 160.085938 244.925781 154.386719 252.703125 146.007812 255.359375 L 101.003906 269.589844 C 77.699219 276.703125 60.046875 294.867188 53.042969 317.285156 C 60.089844 324.589844 67.722656 331.308594 75.867188 337.398438 C 87.117188 345.789062 99.335938 352.933594 112.34375 358.640625 C 135.3125 368.75 160.6875 374.351562 187.390625 374.351562 C 229.171875 374.351562 267.742188 360.621094 298.855469 337.398438 C 306.871094 331.441406 314.398438 324.824219 321.34375 317.664062 C 314.457031 295.042969 296.761719 276.71875 273.339844 269.53125 Z M 273.339844 269.53125 " fill-opacity="1" fill-rule="nonzero"/></g><g clip-path="url(#id4)"><path fill="rgb(100%, 86.669922%, 23.529053%)" d="M 275.609375 270.308594 C 274.847656 270.042969 274.113281 269.765625 273.339844 269.53125 L 253.839844 263.164062 C 245.125 290.816406 189.882812 355.382812 189.882812 355.382812 C 189.882812 355.382812 131.050781 295.070312 122.363281 262.824219 L 101.019531 269.574219 C 100.492188 269.734375 99.996094 269.925781 99.480469 270.101562 C 104.375 276.089844 107.566406 283.953125 109.632812 290.816406 C 113.851562 304.859375 112.710938 320.027344 107.917969 333.757812 C 105.664062 340.230469 102.777344 346.390625 99.453125 352.332031 C 103.671875 354.589844 107.964844 356.6875 112.375 358.625 C 135.34375 368.734375 160.714844 374.339844 187.421875 374.339844 C 218.769531 374.339844 248.316406 366.605469 274.261719 352.933594 C 264.828125 326.027344 263.714844 296.90625 275.609375 270.308594 Z M 275.609375 270.308594 " fill-opacity="1" fill-rule="nonzero"/></g><path fill="rgb(66.668701%, 46.269226%, 28.239441%)" d="M 246.003906 123.878906 C 245.855469 82.140625 220.351562 52.167969 187.363281 52.167969 C 187.347656 52.167969 187.316406 52.167969 187.304688 52.167969 C 187.289062 52.167969 187.257812 52.167969 187.246094 52.167969 C 154.269531 52.167969 128.75 82.140625 128.605469 123.878906 C 128.53125 142.90625 129.058594 147.644531 130.992188 161.453125 C 137 204.378906 176.59375 224.210938 187.246094 224.210938 C 200.296875 224.210938 237.300781 204.378906 243.308594 161.453125 C 245.242188 147.644531 246.078125 142.90625 246.003906 123.878906 Z M 246.003906 123.878906 " fill-opacity="1" fill-rule="nonzero"/><path fill="rgb(36.468506%, 15.689087%, 10.5896%)" d="M 144.058594 133.886719 C 145.011719 130.042969 144.777344 125.949219 144.542969 121.972656 C 147.558594 127.636719 156.820312 126.476562 160.65625 121.339844 C 164.496094 116.207031 164.40625 109.207031 163.910156 102.8125 C 170.179688 102.402344 175.628906 96.664062 175.746094 90.386719 C 175.203125 95.550781 177.824219 100.917969 182.234375 103.664062 C 186.644531 106.40625 192.605469 106.390625 197 103.621094 C 195.535156 108.914062 197.398438 114.972656 201.558594 118.539062 C 205.730469 122.105469 211.988281 122.984375 216.984375 120.710938 C 218.492188 131.082031 230.59375 138.433594 240.480469 135 C 238.632812 140.808594 242.488281 147.761719 248.390625 149.273438 C 248.375 149.273438 248.464844 121.105469 248.304688 117.527344 C 244.949219 41.648438 186.613281 47.0625 186.585938 47.0625 C 153.609375 47.0625 126.171875 73.835938 126.027344 115.574219 C 125.996094 122.53125 122.699219 145.238281 134.316406 143.949219 C 138.769531 143.464844 142.257812 139.578125 143.679688 135.308594 C 143.808594 134.839844 143.941406 134.355469 144.058594 133.886719 Z M 144.058594 133.886719 " fill-opacity="1" fill-rule="nonzero"/><path fill="rgb(66.668701%, 46.269226%, 28.239441%)" d="M 128.605469 130.230469 C 126.859375 128.339844 124.195312 127.414062 122.699219 130.042969 C 120.53125 133.796875 120.765625 138.828125 121.074219 142.980469 C 121.324219 146.339844 121.75 149.714844 122.628906 152.972656 C 123.390625 155.804688 124.429688 159.675781 126.933594 161.4375 C 127.503906 161.832031 128.296875 162.230469 129.015625 162.390625 C 129.410156 162.476562 131.8125 162.523438 131.007812 161.464844 " fill-opacity="1" fill-rule="nonzero"/><path fill="rgb(66.668701%, 46.269226%, 28.239441%)" d="M 245.695312 130.230469 C 247.4375 128.339844 250.105469 127.414062 251.597656 130.042969 C 253.765625 133.796875 253.53125 138.828125 253.226562 142.980469 C 252.976562 146.339844 252.550781 149.714844 251.671875 152.972656 C 250.910156 155.804688 249.871094 159.675781 247.367188 161.4375 C 246.792969 161.832031 246.003906 162.230469 245.285156 162.390625 C 244.890625 162.476562 242.488281 162.523438 243.292969 161.464844 " fill-opacity="1" fill-rule="nonzero"/></svg>