<svg xmlns="http://www.w3.org/2000/svg" xmlns:xlink="http://www.w3.org/1999/xlink" width="375" zoomAndPan="magnify" viewBox="0 0 375 374.999991" height="374.999991" preserveAspectRatio="xMidYMid meet" version="1.0"><path fill="rgb(100%, 86.669922%, 23.529053%)" d="M 374.726562 187.574219 C 374.726562 234.171875 357.691406 276.832031 329.542969 309.628906 C 326.996094 312.597656 324.351562 315.480469 321.613281 318.285156 C 314.644531 325.460938 307.082031 332.089844 299.039062 338.058594 C 267.796875 361.328125 229.074219 375.089844 187.125 375.089844 C 186.550781 375.089844 185.992188 375.089844 185.417969 375.074219 C 159.238281 374.851562 134.355469 369.253906 111.777344 359.34375 C 98.71875 353.625 86.449219 346.46875 75.15625 338.058594 C 66.976562 331.957031 59.316406 325.226562 52.238281 317.90625 C 49.636719 315.230469 47.121094 312.464844 44.695312 309.644531 C 16.542969 276.847656 -0.503906 234.1875 -0.503906 187.574219 C -0.503906 84.011719 83.507812 0.0585938 187.125 0.0585938 C 258.222656 0.0585938 320.085938 39.601562 351.914062 97.886719 C 362.472656 117.21875 369.710938 138.609375 372.902344 161.304688 C 374.105469 169.890625 374.726562 178.664062 374.726562 187.574219 Z M 374.726562 187.574219 " fill-opacity="1" fill-rule="nonzero"/><path fill="rgb(98.81897%, 76.469421%, 23.919678%)" d="M 375.546875 187.574219 C 375.546875 234.171875 358.515625 276.832031 330.367188 309.628906 C 327.820312 312.597656 325.175781 315.480469 322.4375 318.285156 C 315.46875 325.460938 307.90625 332.089844 299.863281 338.058594 C 268.621094 361.328125 229.894531 375.089844 187.949219 375.089844 C 187.375 375.089844 186.816406 375.089844 186.242188 375.074219 L 163.535156 334.75 L 243.914062 62.59375 L 373.726562 161.304688 C 374.929688 169.890625 375.546875 178.664062 375.546875 187.574219 Z M 375.546875 187.574219 " fill-opacity="1" fill-rule="nonzero"/><path fill="rgb(65.098572%, 41.569519%, 26.269531%)" d="M 289.816406 154.910156 C 289.625 154.75 289.417969 154.585938 289.214844 154.425781 C 281.800781 148.648438 270.460938 145.738281 268.84375 136.550781 C 267.109375 126.773438 278.402344 119.421875 280.066406 109.632812 C 281.109375 103.546875 278.226562 97.460938 274.667969 92.40625 C 269.300781 84.761719 262.386719 78.96875 254.472656 74.160156 C 247.296875 69.8125 243.308594 58.886719 237.472656 52.554688 C 231.441406 46.011719 223.882812 40.574219 215.21875 38.5 C 206.554688 36.425781 196.730469 38.117188 190.214844 44.1875 C 189.566406 44.792969 188.832031 45.480469 187.949219 45.421875 C 187.359375 45.378906 186.847656 45.011719 186.375 44.660156 C 175.035156 36.484375 158.679688 36.015625 146.886719 43.511719 C 142.898438 46.054688 139.472656 49.363281 136.074219 52.640625 C 126.660156 61.742188 117.25 70.839844 108.277344 80.367188 C 101.4375 87.628906 92.304688 98.769531 94.15625 109.632812 C 95.835938 119.410156 107.113281 126.773438 105.378906 136.550781 C 103.746094 145.738281 92.421875 148.648438 85.007812 154.425781 C 84.804688 154.585938 84.613281 154.75 84.40625 154.910156 C 75.800781 162.011719 73.492188 175.621094 79.257812 185.175781 C 84.113281 193.234375 93.613281 198.128906 96.921875 206.933594 C 100.921875 217.589844 94.363281 228.941406 89.539062 239.246094 C 84.714844 249.5625 82.507812 264 91.878906 270.46875 C 95.113281 272.703125 99.144531 273.4375 102.554688 275.390625 C 114.558594 282.273438 113.75 299.382812 113.144531 313.199219 C 113.027344 315.933594 113.027344 318.859375 114.484375 321.183594 C 115.894531 323.417969 118.425781 324.695312 120.910156 325.59375 C 142.441406 333.429688 167.476562 320.210938 178.949219 300.382812 C 182.15625 294.824219 184.375 289.226562 185.847656 283.550781 C 188.832031 289.253906 192.039062 294.871094 195.246094 300.382812 C 206.714844 320.210938 231.75 333.429688 253.28125 325.59375 C 255.769531 324.679688 258.296875 323.417969 259.710938 321.183594 C 261.164062 318.859375 261.164062 315.933594 261.046875 313.199219 C 260.445312 299.382812 259.621094 282.273438 271.636719 275.390625 C 275.050781 273.4375 279.078125 272.703125 282.316406 270.46875 C 291.683594 264 289.476562 249.550781 284.652344 239.246094 C 279.828125 228.925781 273.269531 217.589844 277.269531 206.933594 C 280.578125 198.128906 290.082031 193.234375 294.933594 185.175781 C 300.730469 175.636719 298.421875 162.023438 289.816406 154.910156 Z M 289.816406 154.910156 " fill-opacity="1" fill-rule="nonzero"/><path fill="rgb(93.328857%, 75.689697%, 56.858826%)" d="M 273.402344 270.070312 L 228.292969 255.386719 C 219.96875 252.679688 214.335938 244.917969 214.335938 236.171875 L 214.335938 201.582031 L 159.695312 201.582031 L 159.695312 236.597656 C 159.695312 245.417969 153.972656 253.210938 145.5625 255.871094 L 100.378906 270.128906 C 76.980469 277.257812 59.253906 295.457031 52.226562 317.917969 C 59.300781 325.238281 66.960938 331.972656 75.140625 338.074219 C 86.4375 346.480469 98.703125 353.640625 111.761719 359.359375 C 134.824219 369.488281 160.296875 375.101562 187.109375 375.101562 C 229.058594 375.101562 267.785156 361.34375 299.023438 338.074219 C 307.070312 332.105469 314.628906 325.476562 321.601562 318.300781 C 314.6875 295.632812 296.921875 277.273438 273.402344 270.070312 Z M 273.402344 270.070312 " fill-opacity="1" fill-rule="nonzero"/><path fill="rgb(3.529358%, 15.689087%, 21.958923%)" d="M 273.402344 270.070312 L 228.292969 255.386719 C 219.96875 252.679688 214.335938 244.917969 214.335938 236.171875 L 214.335938 229.128906 C 196.921875 233.996094 176.785156 233.289062 159.695312 227.75 L 159.695312 236.597656 C 159.695312 245.417969 153.972656 253.210938 145.5625 255.871094 L 100.378906 270.128906 C 76.980469 277.257812 59.253906 295.457031 52.226562 317.917969 C 59.300781 325.238281 66.960938 331.972656 75.140625 338.074219 C 86.4375 346.480469 98.703125 353.640625 111.761719 359.359375 C 134.824219 369.488281 160.296875 375.101562 187.109375 375.101562 C 229.058594 375.101562 267.785156 361.34375 299.023438 338.074219 C 307.070312 332.105469 314.628906 325.476562 321.601562 318.300781 C 314.6875 295.632812 296.921875 277.273438 273.402344 270.070312 Z M 273.402344 270.070312 " fill-opacity="1" fill-rule="nonzero"/><path fill="rgb(98.429871%, 79.60968%, 59.609985%)" d="M 245.957031 124.128906 C 245.808594 82.304688 220.203125 52.273438 187.082031 52.273438 C 187.066406 52.273438 187.039062 52.273438 187.023438 52.273438 C 187.007812 52.273438 186.980469 52.273438 186.964844 52.273438 C 153.855469 52.273438 128.234375 82.304688 128.089844 124.128906 C 128.015625 143.195312 128.542969 147.941406 130.484375 161.773438 C 136.515625 204.789062 176.273438 224.660156 186.964844 224.660156 C 200.070312 224.660156 237.222656 204.789062 243.25 161.773438 C 245.191406 147.941406 246.03125 143.195312 245.957031 124.128906 Z M 245.957031 124.128906 " fill-opacity="1" fill-rule="nonzero"/><path fill="rgb(65.098572%, 41.569519%, 26.269531%)" d="M 223.308594 139.535156 C 223.761719 136.667969 225.144531 127.523438 228.042969 125.964844 C 232.339844 123.65625 236.117188 133.226562 237.175781 136.183594 C 239.191406 141.8125 240.941406 147.53125 242.457031 153.320312 C 242.691406 154.203125 243.546875 155.320312 244.238281 154.734375 C 244.441406 154.558594 244.53125 154.277344 244.605469 154.011719 C 246.058594 148.53125 247.03125 143.195312 247.03125 137.578125 C 247.03125 130.964844 248.5625 124.453125 248.265625 117.746094 C 244.898438 41.71875 186.332031 47.144531 186.300781 47.144531 C 153.195312 47.144531 125.648438 73.972656 125.5 115.792969 C 125.46875 123.070312 126.132812 130.417969 125.21875 137.578125 C 124.734375 141.355469 125.707031 145.488281 126.46875 149.191406 C 126.898438 151.277344 127.398438 153.351562 127.972656 155.410156 C 128.324219 156.644531 130 159.761719 129.734375 160.953125 C 131.398438 153.5 133.058594 146.046875 134.722656 138.59375 C 135.558594 134.816406 136.472656 130.890625 138.898438 127.875 C 139.398438 127.246094 140 126.640625 140.78125 126.4375 C 141.957031 126.113281 143.207031 126.804688 143.914062 127.804688 C 144.621094 128.789062 144.871094 130.023438 145.089844 131.214844 C 145.648438 134.359375 145.972656 137.550781 146.089844 140.738281 C 159.078125 140.855469 172.152344 140.722656 185.183594 140.722656 C 194.921875 140.695312 223.042969 141.296875 223.308594 139.535156 Z M 223.308594 139.535156 " fill-opacity="1" fill-rule="nonzero"/><path fill="rgb(98.429871%, 79.60968%, 59.609985%)" d="M 128.089844 130.492188 C 126.339844 128.597656 123.660156 127.671875 122.160156 130.300781 C 119.984375 134.066406 120.21875 139.105469 120.527344 143.265625 C 120.777344 146.632812 121.207031 150.015625 122.085938 153.277344 C 122.851562 156.113281 123.898438 159.996094 126.410156 161.761719 C 126.984375 162.15625 127.78125 162.554688 128.5 162.714844 C 128.898438 162.804688 131.308594 162.847656 130.5 161.789062 " fill-opacity="1" fill-rule="nonzero"/><path fill="rgb(98.429871%, 79.60968%, 59.609985%)" d="M 245.648438 130.492188 C 247.398438 128.597656 250.074219 127.671875 251.574219 130.300781 C 253.753906 134.066406 253.515625 139.105469 253.207031 143.265625 C 252.957031 146.632812 252.53125 150.015625 251.648438 153.277344 C 250.882812 156.113281 249.839844 159.996094 247.324219 161.761719 C 246.75 162.15625 245.957031 162.554688 245.238281 162.714844 C 244.839844 162.804688 242.425781 162.847656 243.238281 161.789062 " fill-opacity="1" fill-rule="nonzero"/></svg>