<svg xmlns="http://www.w3.org/2000/svg" xmlns:xlink="http://www.w3.org/1999/xlink" width="375" zoomAndPan="magnify" viewBox="0 0 375 374.999991" height="374.999991" preserveAspectRatio="xMidYMid meet" version="1.0"><path fill="rgb(100%, 86.669922%, 23.529053%)" d="M 374.726562 187.574219 C 374.726562 234.171875 357.691406 276.832031 329.542969 309.628906 C 326.996094 312.597656 324.351562 315.480469 321.613281 318.285156 C 314.644531 325.460938 307.082031 332.089844 299.039062 338.058594 C 267.796875 361.328125 229.074219 375.089844 187.125 375.089844 C 186.550781 375.089844 185.992188 375.089844 185.417969 375.074219 C 159.238281 374.851562 134.355469 369.253906 111.777344 359.34375 C 98.71875 353.625 86.449219 346.46875 75.15625 338.058594 C 66.976562 331.957031 59.316406 325.226562 52.238281 317.90625 C 49.636719 315.230469 47.121094 312.464844 44.695312 309.644531 C 16.542969 276.847656 -0.503906 234.1875 -0.503906 187.574219 C -0.503906 84.011719 83.507812 0.0585938 187.125 0.0585938 C 258.222656 0.0585938 320.085938 39.601562 351.914062 97.886719 C 362.472656 117.21875 369.710938 138.609375 372.902344 161.304688 C 374.105469 169.890625 374.726562 178.664062 374.726562 187.574219 Z M 374.726562 187.574219 " fill-opacity="1" fill-rule="nonzero"/><path fill="rgb(98.81897%, 76.469421%, 23.919678%)" d="M 375.546875 187.574219 C 375.546875 234.171875 358.515625 276.832031 330.367188 309.628906 C 327.820312 312.597656 325.175781 315.480469 322.4375 318.285156 C 315.46875 325.460938 307.90625 332.089844 299.863281 338.058594 C 268.621094 361.328125 229.894531 375.089844 187.949219 375.089844 C 187.375 375.089844 186.816406 375.089844 186.242188 375.074219 L 163.535156 334.75 L 243.914062 62.59375 L 373.726562 161.304688 C 374.929688 169.890625 375.546875 178.664062 375.546875 187.574219 Z M 375.546875 187.574219 " fill-opacity="1" fill-rule="nonzero"/><path fill="rgb(82.749939%, 38.819885%, 25.878906%)" d="M 262.902344 165.640625 C 263.222656 161.230469 263.34375 156.804688 263.253906 152.382812 C 262.652344 125.757812 254.53125 99.621094 241.164062 76.660156 C 235.707031 67.28125 228.410156 53.390625 218.910156 47.644531 C 215.613281 45.660156 185.523438 40.777344 185.523438 41.734375 C 185.523438 67.886719 185.523438 94.035156 185.523438 120.1875 C 185.523438 159.953125 175.226562 196.6875 174.183594 236.523438 C 173.917969 246.699219 174.816406 258.429688 183.039062 264.425781 C 193.449219 272.027344 208.1875 265.261719 218.027344 256.914062 C 244.589844 234.378906 260.3125 200.421875 262.902344 165.640625 Z M 262.902344 165.640625 " fill-opacity="1" fill-rule="nonzero"/><path fill="rgb(82.749939%, 38.819885%, 25.878906%)" d="M 104.304688 165.171875 C 93.65625 104.164062 114.527344 40.644531 188.242188 41.71875 C 186.289062 71.765625 197.890625 96.710938 200.863281 125.757812 C 205.746094 173.652344 197.507812 225.898438 195.449219 273.980469 C 178.226562 276.140625 161.785156 266.117188 149.03125 254.339844 C 126.558594 233.644531 110.351562 199.820312 104.304688 165.171875 Z M 104.304688 165.171875 " fill-opacity="1" fill-rule="nonzero"/><path fill="rgb(93.328857%, 75.689697%, 56.858826%)" d="M 273.402344 270.070312 L 228.292969 255.386719 C 219.96875 252.679688 214.335938 244.917969 214.335938 236.171875 L 214.335938 201.582031 L 159.695312 201.582031 L 159.695312 236.597656 C 159.695312 245.417969 153.972656 253.210938 145.5625 255.871094 L 100.378906 270.128906 C 76.980469 277.257812 59.253906 295.457031 52.226562 317.917969 C 59.300781 325.238281 66.960938 331.972656 75.140625 338.074219 C 86.4375 346.480469 98.703125 353.640625 111.761719 359.359375 C 134.824219 369.488281 160.296875 375.101562 187.109375 375.101562 C 229.058594 375.101562 267.785156 361.34375 299.023438 338.074219 C 307.070312 332.105469 314.628906 325.476562 321.601562 318.300781 C 314.6875 295.632812 296.921875 277.273438 273.402344 270.070312 Z M 273.402344 270.070312 " fill-opacity="1" fill-rule="nonzero"/><path fill="rgb(68.238831%, 41.569519%, 66.268921%)" d="M 276.992188 271.289062 C 275.816406 270.863281 274.625 270.4375 273.402344 270.070312 L 234.175781 257.296875 C 224.011719 268.085938 210.746094 275.332031 195.1875 276.996094 C 178.152344 278.816406 152.003906 273.554688 143.796875 256.414062 L 104.335938 268.863281 C 112.644531 288.445312 110.308594 311.613281 103.394531 331.53125 C 101.085938 338.160156 98.304688 344.671875 95.070312 350.996094 C 100.480469 354.039062 106.042969 356.84375 111.777344 359.34375 C 134.839844 369.472656 160.3125 375.089844 187.125 375.089844 C 219.128906 375.089844 249.253906 367.0625 275.625 352.921875 C 265.886719 326.664062 265.667969 296.839844 276.992188 271.289062 Z M 276.992188 271.289062 " fill-opacity="1" fill-rule="nonzero"/><path fill="rgb(98.429871%, 79.60968%, 59.609985%)" d="M 245.957031 124.128906 C 245.808594 82.304688 220.203125 52.273438 187.082031 52.273438 C 187.066406 52.273438 187.039062 52.273438 187.023438 52.273438 C 187.007812 52.273438 186.980469 52.273438 186.964844 52.273438 C 153.855469 52.273438 128.234375 82.304688 128.089844 124.128906 C 128.015625 143.195312 128.542969 147.941406 130.484375 161.773438 C 136.515625 204.789062 176.273438 224.660156 186.964844 224.660156 C 200.070312 224.660156 237.222656 204.789062 243.25 161.773438 C 245.191406 147.941406 246.03125 143.195312 245.957031 124.128906 Z M 245.957031 124.128906 " fill-opacity="1" fill-rule="nonzero"/><path fill="rgb(98.429871%, 79.60968%, 59.609985%)" d="M 128.089844 130.492188 C 126.339844 128.597656 123.660156 127.671875 122.160156 130.300781 C 119.984375 134.066406 120.21875 139.105469 120.527344 143.265625 C 120.777344 146.632812 121.207031 150.015625 122.085938 153.277344 C 122.851562 156.113281 123.898438 159.996094 126.410156 161.761719 C 126.984375 162.15625 127.78125 162.554688 128.5 162.714844 C 128.898438 162.804688 131.308594 162.847656 130.5 161.789062 " fill-opacity="1" fill-rule="nonzero"/><path fill="rgb(98.429871%, 79.60968%, 59.609985%)" d="M 245.648438 130.492188 C 247.398438 128.597656 250.074219 127.671875 251.574219 130.300781 C 253.753906 134.066406 253.515625 139.105469 253.207031 143.265625 C 252.957031 146.632812 252.53125 150.015625 251.648438 153.277344 C 250.882812 156.113281 249.839844 159.996094 247.324219 161.761719 C 246.75 162.15625 245.957031 162.554688 245.238281 162.714844 C 244.839844 162.804688 242.425781 162.847656 243.238281 161.789062 " fill-opacity="1" fill-rule="nonzero"/><path fill="rgb(92.939758%, 43.139648%, 29.019165%)" d="M 229.265625 144.265625 C 233.015625 153.96875 234.089844 165.40625 234.308594 175.050781 C 234.78125 195.144531 231.207031 215.3125 223.882812 234.027344 C 220.96875 241.449219 217.46875 248.695312 215.554688 256.445312 C 206.128906 294.648438 239.941406 328.09375 275.535156 334.558594 C 266.121094 321.828125 259.0625 306.910156 256.722656 291.179688 C 254.28125 274.699219 250.089844 262.957031 257.53125 246.476562 C 262.355469 235.804688 269.09375 225.957031 272.550781 214.753906 C 275.285156 205.875 275.84375 196.480469 276.375 187.207031 C 278.316406 153.484375 272.210938 111.175781 253.445312 82.144531 C 238.574219 59.136719 228.835938 44.996094 196.230469 41.617188 C 155.035156 37.351562 131.664062 65.0625 125.617188 89.640625 C 122.851562 100.886719 126.191406 113.441406 134.164062 121.835938 C 149.105469 137.578125 174.109375 136.035156 194.921875 142.296875 C 205.761719 145.5625 215.863281 151.207031 224.308594 158.71875 C 223.234375 157.761719 224.144531 137.0625 223.441406 133.769531 C 225.867188 136.859375 227.765625 140.429688 229.265625 144.265625 Z M 229.265625 144.265625 " fill-opacity="1" fill-rule="nonzero"/></svg>