<svg xmlns="http://www.w3.org/2000/svg" xmlns:xlink="http://www.w3.org/1999/xlink" width="375" zoomAndPan="magnify" viewBox="0 0 375 374.999991" height="374.999991" preserveAspectRatio="xMidYMid meet" version="1.0"><defs><clipPath id="id1"><path d="M 0 1.023438 L 374 1.023438 L 374 373.773438 L 0 373.773438 Z M 0 1.023438 " clip-rule="nonzero"/></clipPath><clipPath id="id2"><path d="M 163 63 L 375 63 L 375 373.773438 L 163 373.773438 Z M 163 63 " clip-rule="nonzero"/></clipPath><clipPath id="id3"><path d="M 52 201 L 321 201 L 321 373.773438 L 52 373.773438 Z M 52 201 " clip-rule="nonzero"/></clipPath><clipPath id="id4"><path d="M 52 280 L 321 280 L 321 373.773438 L 52 373.773438 Z M 52 280 " clip-rule="nonzero"/></clipPath></defs><g clip-path="url(#id1)"><path fill="rgb(68.238831%, 41.569519%, 66.268921%)" d="M 373.507812 187.472656 C 373.507812 233.789062 356.578125 276.195312 328.59375 308.792969 C 326.066406 311.746094 323.433594 314.609375 320.714844 317.398438 C 313.785156 324.53125 306.269531 331.121094 298.273438 337.054688 C 267.222656 360.183594 228.726562 373.859375 187.03125 373.859375 C 186.460938 373.859375 185.90625 373.859375 185.335938 373.847656 C 159.3125 373.625 134.578125 368.058594 112.136719 358.210938 C 99.152344 352.527344 86.960938 345.410156 75.730469 337.054688 C 67.605469 330.988281 59.988281 324.296875 52.953125 317.019531 C 50.367188 314.359375 47.867188 311.613281 45.453125 308.808594 C 17.472656 276.207031 0.527344 233.804688 0.527344 187.472656 C 0.527344 84.53125 84.035156 1.082031 187.03125 1.082031 C 257.703125 1.082031 319.195312 40.386719 350.832031 98.324219 C 361.328125 117.539062 368.519531 138.796875 371.695312 161.359375 C 372.894531 169.894531 373.507812 178.617188 373.507812 187.472656 Z M 373.507812 187.472656 " fill-opacity="1" fill-rule="nonzero"/></g><g clip-path="url(#id2)"><path fill="rgb(56.079102%, 34.509277%, 54.508972%)" d="M 374.324219 187.472656 C 374.324219 233.789062 357.394531 276.195312 329.414062 308.792969 C 326.882812 311.746094 324.253906 314.609375 321.535156 317.398438 C 314.605469 324.53125 307.089844 331.121094 299.09375 337.054688 C 268.039062 360.183594 229.546875 373.859375 187.851562 373.859375 C 187.28125 373.859375 186.726562 373.859375 186.15625 373.847656 L 163.582031 333.765625 L 243.480469 63.242188 L 372.511719 161.359375 C 373.710938 169.894531 374.324219 178.617188 374.324219 187.472656 Z M 374.324219 187.472656 " fill-opacity="1" fill-rule="nonzero"/></g><path fill="rgb(100%, 96.078491%, 59.999084%)" d="M 271.183594 153.046875 C 272.058594 145.066406 272.457031 137.046875 272.164062 129.023438 C 271.402344 107.921875 265.4375 86.109375 250.804688 70.898438 C 243.875 63.691406 235.261719 58.242188 226.15625 54.078125 C 202.089844 43.0625 170.058594 40.167969 146.726562 54.621094 C 115.191406 74.15625 96.886719 112.308594 99.226562 149.320312 C 101.566406 186.332031 123.523438 221.0625 154.796875 241.007812 C 159.285156 243.871094 164.007812 247.832031 169.019531 249.277344 C 175.921875 251.265625 185.714844 249.878906 192.851562 249.671875 C 201.492188 249.425781 210.21875 248.722656 218.40625 245.949219 C 232.703125 241.082031 244.339844 230.078125 252.222656 217.207031 C 260.101562 204.332031 264.503906 189.632812 267.617188 174.859375 C 269.136719 167.65625 270.363281 160.367188 271.183594 153.046875 Z M 271.183594 153.046875 " fill-opacity="1" fill-rule="nonzero"/><g clip-path="url(#id3)"><path fill="rgb(92.549133%, 75.289917%, 56.469727%)" d="M 272.792969 269.472656 L 227.953125 254.875 C 219.679688 252.1875 214.078125 244.472656 214.078125 235.777344 L 214.078125 201.394531 L 159.765625 201.394531 L 159.765625 236.203125 C 159.765625 244.96875 154.078125 252.714844 145.71875 255.359375 L 100.804688 269.53125 C 77.546875 276.617188 59.929688 294.707031 52.941406 317.035156 C 59.972656 324.3125 67.589844 331.003906 75.71875 337.066406 C 86.945312 345.425781 99.136719 352.542969 112.121094 358.226562 C 135.042969 368.292969 160.367188 373.875 187.015625 373.875 C 228.714844 373.875 267.207031 360.199219 298.257812 337.066406 C 306.257812 331.136719 313.769531 324.546875 320.699219 317.414062 C 313.828125 294.882812 296.167969 276.632812 272.792969 269.472656 Z M 272.792969 269.472656 " fill-opacity="1" fill-rule="nonzero"/></g><g clip-path="url(#id4)"><path fill="rgb(78.42865%, 76.858521%, 89.019775%)" d="M 304.765625 289.621094 C 297.25 286.21875 289.589844 284.347656 281.328125 287.023438 C 272.921875 289.753906 265.410156 295.027344 257.382812 298.683594 C 247.457031 303.195312 237.921875 304.789062 227.121094 302.875 C 216.285156 300.960938 206.679688 295.65625 196.503906 291.785156 C 175.847656 283.910156 155.425781 297.761719 134.183594 294.285156 C 123.042969 292.457031 113.085938 287.226562 102.601562 283.355469 C 94.839844 280.476562 87.121094 279.875 79.300781 280.300781 C 66.84375 289.402344 57.574219 302.277344 52.953125 317.019531 C 59.988281 324.296875 67.605469 330.988281 75.730469 337.054688 C 86.960938 345.410156 99.152344 352.527344 112.136719 358.210938 C 135.058594 368.277344 160.378906 373.859375 187.03125 373.859375 C 228.726562 373.859375 267.222656 360.183594 298.273438 337.054688 C 306.269531 331.121094 313.785156 324.53125 320.714844 317.398438 C 317.542969 306.996094 312.03125 297.542969 304.765625 289.621094 Z M 304.765625 289.621094 " fill-opacity="1" fill-rule="nonzero"/></g><path fill="rgb(98.429871%, 79.60968%, 59.609985%)" d="M 245.511719 124.40625 C 245.363281 82.835938 219.910156 52.984375 186.988281 52.984375 C 186.972656 52.984375 186.945312 52.984375 186.929688 52.984375 C 186.914062 52.984375 186.886719 52.984375 186.871094 52.984375 C 153.960938 52.984375 128.496094 82.835938 128.347656 124.40625 C 128.277344 143.355469 128.800781 148.078125 130.730469 161.828125 C 136.726562 204.582031 176.242188 224.335938 186.871094 224.335938 C 199.898438 224.335938 236.828125 204.582031 242.820312 161.828125 C 244.75 148.078125 245.585938 143.355469 245.511719 124.40625 Z M 245.511719 124.40625 " fill-opacity="1" fill-rule="nonzero"/><path fill="rgb(98.429871%, 79.60968%, 59.609985%)" d="M 128.347656 130.734375 C 126.609375 128.847656 123.949219 127.925781 122.457031 130.542969 C 120.292969 134.285156 120.527344 139.296875 120.835938 143.429688 C 121.082031 146.777344 121.507812 150.136719 122.382812 153.382812 C 123.144531 156.203125 124.183594 160.058594 126.683594 161.8125 C 127.253906 162.207031 128.042969 162.601562 128.757812 162.761719 C 129.152344 162.851562 131.550781 162.894531 130.746094 161.839844 " fill-opacity="1" fill-rule="nonzero"/><path fill="rgb(98.429871%, 79.60968%, 59.609985%)" d="M 245.203125 130.734375 C 246.945312 128.847656 249.605469 127.925781 251.097656 130.542969 C 253.257812 134.285156 253.027344 139.296875 252.71875 143.429688 C 252.46875 146.777344 252.046875 150.136719 251.167969 153.382812 C 250.410156 156.203125 249.371094 160.058594 246.871094 161.8125 C 246.300781 162.207031 245.511719 162.601562 244.792969 162.761719 C 244.398438 162.851562 242.003906 162.894531 242.804688 161.839844 " fill-opacity="1" fill-rule="nonzero"/><path fill="rgb(100%, 96.078491%, 59.999084%)" d="M 214.003906 151.921875 C 215.421875 153.277344 216.871094 154.667969 218.464844 156.070312 C 229.679688 166.0625 236.636719 180.691406 237.308594 195.695312 C 251.242188 165.832031 260.246094 130.953125 252.9375 99.390625 C 248.40625 79.867188 229.136719 59.585938 210.015625 51.945312 C 202.296875 48.863281 194.429688 47.882812 186.214844 47.882812 C 153.304688 47.882812 125.921875 74.550781 125.777344 116.121094 C 125.746094 123.355469 126.402344 130.660156 125.496094 137.777344 C 125.21875 139.980469 126.023438 160.539062 131.257812 157.296875 C 132.367188 156.609375 132.617188 155.121094 132.734375 153.820312 C 133.1875 149.230469 133.640625 144.65625 134.109375 140.070312 C 134.269531 138.519531 134.429688 136.914062 135.234375 135.582031 C 136.402344 133.640625 138.640625 132.675781 140.644531 131.59375 C 151.785156 125.546875 157.761719 113.242188 163.042969 101.726562 C 166.167969 112.597656 173.800781 121.6875 182.558594 128.847656 C 188.757812 133.917969 195.585938 138.15625 202.382812 142.347656 C 207.03125 145.226562 210.394531 148.472656 214.003906 151.921875 Z M 214.003906 151.921875 " fill-opacity="1" fill-rule="nonzero"/><path fill="rgb(100%, 96.078491%, 59.999084%)" d="M 217.410156 312.722656 C 218.550781 321.652344 226.140625 325.773438 229.75 333.050781 C 233.699219 340.984375 231.257812 355.15625 229.445312 363.398438 C 238.523438 352.511719 252.292969 338.339844 254.589844 323.742188 C 256.839844 309.421875 244.210938 296.914062 245.890625 282.449219 C 247.367188 269.75 259.09375 260.71875 263.390625 248.679688 C 266.167969 240.890625 265.65625 232.328125 264.515625 224.148438 C 262.878906 212.371094 260 200.753906 255.949219 189.574219 C 243.347656 193.167969 229.792969 198.925781 222.777344 209.972656 C 215.761719 221.035156 213.464844 235.179688 217.484375 247.644531 C 219.882812 255.066406 224.371094 261.757812 226.183594 269.355469 C 227.515625 274.921875 227.324219 280.855469 225.628906 286.335938 C 222.878906 295.25 216.226562 303.476562 217.410156 312.722656 Z M 217.410156 312.722656 " fill-opacity="1" fill-rule="nonzero"/></svg>