<svg xmlns="http://www.w3.org/2000/svg" xmlns:xlink="http://www.w3.org/1999/xlink" width="375" zoomAndPan="magnify" viewBox="0 0 375 374.999991" height="374.999991" preserveAspectRatio="xMidYMid meet" version="1.0"><defs><clipPath id="id1"><path d="M 0 1.023438 L 374 1.023438 L 374 373.773438 L 0 373.773438 Z M 0 1.023438 " clip-rule="nonzero"/></clipPath><clipPath id="id2"><path d="M 163 57 L 375 57 L 375 373.773438 L 163 373.773438 Z M 163 57 " clip-rule="nonzero"/></clipPath><clipPath id="id3"><path d="M 52 201 L 321 201 L 321 373.773438 L 52 373.773438 Z M 52 201 " clip-rule="nonzero"/></clipPath><clipPath id="id4"><path d="M 52 258 L 321 258 L 321 373.773438 L 52 373.773438 Z M 52 258 " clip-rule="nonzero"/></clipPath></defs><g clip-path="url(#id1)"><path fill="rgb(68.238831%, 41.569519%, 66.268921%)" d="M 373.507812 187.472656 C 373.507812 233.789062 356.578125 276.195312 328.59375 308.792969 C 326.066406 311.746094 323.433594 314.609375 320.714844 317.398438 C 313.785156 324.53125 306.269531 331.121094 298.273438 337.054688 C 267.222656 360.183594 228.726562 373.859375 187.03125 373.859375 C 186.460938 373.859375 185.90625 373.859375 185.335938 373.847656 C 159.3125 373.625 134.578125 368.058594 112.136719 358.210938 C 99.152344 352.527344 86.960938 345.410156 75.730469 337.054688 C 67.605469 330.988281 59.988281 324.296875 52.953125 317.019531 C 50.367188 314.359375 47.867188 311.613281 45.453125 308.808594 C 17.472656 276.210938 0.527344 233.804688 0.527344 187.472656 C 0.527344 84.53125 84.035156 1.082031 187.03125 1.082031 C 257.703125 1.082031 319.195312 40.386719 350.832031 98.324219 C 361.328125 117.539062 368.519531 138.796875 371.695312 161.359375 C 372.894531 169.894531 373.507812 178.617188 373.507812 187.472656 Z M 373.507812 187.472656 " fill-opacity="1" fill-rule="nonzero"/></g><g clip-path="url(#id2)"><path fill="rgb(56.079102%, 34.509277%, 54.508972%)" d="M 374.324219 187.472656 C 374.324219 233.789062 357.394531 276.195312 329.414062 308.792969 C 326.882812 311.746094 324.253906 314.609375 321.535156 317.398438 C 314.605469 324.53125 307.089844 331.121094 299.09375 337.054688 C 268.039062 360.183594 229.546875 373.859375 187.851562 373.859375 C 187.28125 373.859375 186.726562 373.859375 186.15625 373.847656 L 163.582031 333.765625 L 221.855469 57.777344 L 372.511719 161.359375 C 373.710938 169.894531 374.324219 178.617188 374.324219 187.472656 Z M 374.324219 187.472656 " fill-opacity="1" fill-rule="nonzero"/></g><path fill="rgb(100%, 86.669922%, 23.529053%)" d="M 228.726562 65.738281 C 250.597656 89.21875 257.308594 112.320312 259.691406 144.320312 C 261.242188 165.085938 258.230469 185.894531 255.21875 206.496094 C 254.792969 209.390625 254.339844 212.355469 252.835938 214.855469 C 251.5625 216.957031 249.648438 218.566406 247.761719 220.113281 C 233.144531 232.09375 217.792969 243.199219 201.828125 253.339844 C 199.925781 254.554688 197.835938 255.796875 195.585938 255.636719 C 193.949219 255.519531 188.246094 258.894531 186.828125 258.046875 C 166.960938 246.253906 147.9375 233.058594 129.925781 218.578125 C 124.722656 214.386719 123.699219 205.734375 120.378906 199.933594 C 117.046875 194.132812 115.847656 187.339844 115.527344 180.660156 C 114.664062 163.199219 119.371094 145.839844 126.578125 129.914062 C 133.785156 113.988281 143.449219 99.332031 153.085938 84.734375 C 157.222656 78.464844 161.59375 71.964844 168.128906 68.253906 C 175.085938 64.292969 183.480469 64.042969 191.476562 63.898438 C 206.285156 63.636719 228.011719 71.027344 239.195312 80.730469 " fill-opacity="1" fill-rule="nonzero"/><g clip-path="url(#id3)"><path fill="rgb(93.328857%, 75.689697%, 56.858826%)" d="M 272.792969 269.472656 L 227.953125 254.875 C 219.679688 252.1875 214.078125 244.472656 214.078125 235.777344 L 214.078125 201.394531 L 159.765625 201.394531 L 159.765625 236.203125 C 159.765625 244.96875 154.078125 252.714844 145.71875 255.359375 L 100.804688 269.53125 C 77.546875 276.617188 59.929688 294.707031 52.941406 317.035156 C 59.972656 324.3125 67.589844 331.003906 75.71875 337.066406 C 86.945312 345.425781 99.136719 352.542969 112.121094 358.226562 C 135.042969 368.292969 160.367188 373.875 187.015625 373.875 C 228.714844 373.875 267.207031 360.199219 298.257812 337.066406 C 306.257812 331.136719 313.769531 324.546875 320.699219 317.414062 C 313.828125 294.882812 296.167969 276.632812 272.792969 269.472656 Z M 272.792969 269.472656 " fill-opacity="1" fill-rule="nonzero"/></g><g clip-path="url(#id4)"><path fill="rgb(66.668701%, 84.709167%, 95.689392%)" d="M 272.792969 269.472656 L 244.488281 260.253906 L 244.488281 304.9375 L 135.585938 304.9375 L 135.585938 258.558594 L 100.820312 269.515625 C 77.558594 276.605469 59.941406 294.691406 52.953125 317.019531 C 59.988281 324.296875 67.605469 330.988281 75.730469 337.054688 C 86.960938 345.410156 99.152344 352.527344 112.136719 358.210938 C 135.058594 368.277344 160.378906 373.859375 187.03125 373.859375 C 228.726562 373.859375 267.222656 360.183594 298.273438 337.054688 C 306.269531 331.121094 313.785156 324.53125 320.714844 317.398438 C 313.828125 294.882812 296.167969 276.632812 272.792969 269.472656 Z M 272.792969 269.472656 " fill-opacity="1" fill-rule="nonzero"/></g><path fill="rgb(98.429871%, 79.60968%, 59.609985%)" d="M 245.511719 124.40625 C 245.363281 82.835938 219.910156 52.984375 186.988281 52.984375 C 186.972656 52.984375 186.945312 52.984375 186.929688 52.984375 C 186.914062 52.984375 186.886719 52.984375 186.871094 52.984375 C 153.960938 52.984375 128.496094 82.835938 128.347656 124.40625 C 128.277344 143.359375 128.800781 148.078125 130.730469 161.828125 C 136.726562 204.582031 176.242188 224.335938 186.871094 224.335938 C 199.898438 224.335938 236.828125 204.582031 242.820312 161.828125 C 244.75 148.078125 245.585938 143.359375 245.511719 124.40625 Z M 245.511719 124.40625 " fill-opacity="1" fill-rule="nonzero"/><path fill="rgb(98.429871%, 79.60968%, 59.609985%)" d="M 128.347656 130.734375 C 126.609375 128.847656 123.949219 127.925781 122.457031 130.542969 C 120.292969 134.285156 120.527344 139.296875 120.835938 143.429688 C 121.082031 146.777344 121.507812 150.136719 122.382812 153.382812 C 123.144531 156.203125 124.183594 160.058594 126.683594 161.8125 C 127.253906 162.207031 128.042969 162.601562 128.757812 162.761719 C 129.152344 162.851562 131.550781 162.894531 130.746094 161.839844 " fill-opacity="1" fill-rule="nonzero"/><path fill="rgb(98.429871%, 79.60968%, 59.609985%)" d="M 245.203125 130.734375 C 246.945312 128.847656 249.605469 127.925781 251.097656 130.542969 C 253.257812 134.285156 253.027344 139.296875 252.71875 143.429688 C 252.46875 146.777344 252.046875 150.136719 251.167969 153.382812 C 250.410156 156.203125 249.371094 160.058594 246.871094 161.8125 C 246.300781 162.207031 245.511719 162.601562 244.792969 162.761719 C 244.398438 162.851562 242.003906 162.894531 242.804688 161.839844 " fill-opacity="1" fill-rule="nonzero"/><path fill="rgb(100%, 86.669922%, 23.529053%)" d="M 157.367188 138.449219 C 161.828125 125.019531 167.515625 112.015625 174.402344 99.636719 C 172.265625 103.480469 198.625 124.011719 201.445312 125.835938 C 212.425781 132.996094 240.570312 149.011719 244.269531 151.160156 C 245.160156 143.898438 248.363281 131.257812 247.777344 118.0625 C 244.429688 42.507812 186.226562 47.882812 186.183594 47.882812 C 144.664062 49.886719 121.84375 86.589844 112.824219 123.703125 C 100.496094 174.421875 117.894531 229.902344 152.515625 268.992188 C 141.550781 226.234375 143.464844 180.324219 157.367188 138.449219 Z M 157.367188 138.449219 " fill-opacity="1" fill-rule="nonzero"/></svg>