<svg xmlns="http://www.w3.org/2000/svg" xmlns:xlink="http://www.w3.org/1999/xlink" width="375" zoomAndPan="magnify" viewBox="0 0 375 374.999991" height="374.999991" preserveAspectRatio="xMidYMid meet" version="1.0"><defs><clipPath id="id1"><path d="M 0 1.023438 L 374 1.023438 L 374 373.773438 L 0 373.773438 Z M 0 1.023438 " clip-rule="nonzero"/></clipPath><clipPath id="id2"><path d="M 163 61 L 375 61 L 375 373.773438 L 163 373.773438 Z M 163 61 " clip-rule="nonzero"/></clipPath><clipPath id="id3"><path d="M 52 201 L 321 201 L 321 373.773438 L 52 373.773438 Z M 52 201 " clip-rule="nonzero"/></clipPath><clipPath id="id4"><path d="M 52 259 L 321 259 L 321 373.773438 L 52 373.773438 Z M 52 259 " clip-rule="nonzero"/></clipPath></defs><g clip-path="url(#id1)"><path fill="rgb(59.609985%, 77.648926%, 38.42926%)" d="M 373.507812 187.46875 C 373.507812 233.789062 356.578125 276.195312 328.59375 308.792969 C 326.066406 311.746094 323.433594 314.609375 320.714844 317.398438 C 313.785156 324.53125 306.269531 331.121094 298.273438 337.054688 C 267.222656 360.183594 228.726562 373.859375 187.03125 373.859375 C 186.460938 373.859375 185.90625 373.859375 185.335938 373.84375 C 159.3125 373.625 134.578125 368.058594 112.136719 358.210938 C 99.152344 352.527344 86.960938 345.410156 75.730469 337.054688 C 67.605469 330.988281 59.988281 324.296875 52.953125 317.019531 C 50.367188 314.359375 47.867188 311.613281 45.453125 308.808594 C 17.472656 276.207031 0.527344 233.804688 0.527344 187.46875 C 0.527344 84.53125 84.035156 1.082031 187.03125 1.082031 C 257.703125 1.082031 319.195312 40.386719 350.832031 98.324219 C 361.328125 117.539062 368.519531 138.796875 371.695312 161.359375 C 372.894531 169.890625 373.507812 178.617188 373.507812 187.46875 Z M 373.507812 187.46875 " fill-opacity="1" fill-rule="nonzero"/></g><g clip-path="url(#id2)"><path fill="rgb(34.509277%, 70.588684%, 39.608765%)" d="M 374.324219 187.46875 C 374.324219 233.789062 357.394531 276.195312 329.414062 308.792969 C 326.882812 311.746094 324.253906 314.609375 321.535156 317.398438 C 314.605469 324.53125 307.089844 331.121094 299.09375 337.054688 C 268.039062 360.183594 229.546875 373.859375 187.851562 373.859375 C 187.28125 373.859375 186.726562 373.859375 186.15625 373.84375 L 163.582031 333.765625 L 225.277344 61.339844 L 372.511719 161.359375 C 373.710938 169.890625 374.324219 178.617188 374.324219 187.46875 Z M 374.324219 187.46875 " fill-opacity="1" fill-rule="nonzero"/></g><path fill="rgb(95.689392%, 95.689392%, 95.689392%)" d="M 259.605469 91.644531 C 264.121094 102.472656 266.898438 113.988281 269.210938 125.515625 C 270.863281 133.742188 272.28125 142.101562 271.679688 150.457031 C 271.082031 158.816406 268.289062 167.277344 262.484375 173.328125 C 259.707031 176.21875 256.328125 178.484375 253.640625 181.4375 C 249.691406 185.777344 247.398438 191.5625 247.28125 197.421875 C 247.191406 201.703125 248.214844 206.058594 247.191406 210.222656 C 245.21875 218.242188 236.535156 222.539062 228.597656 224.847656 C 220.65625 227.15625 211.828125 228.953125 206.5625 235.339844 C 204.515625 237.808594 203.1875 240.820312 201.039062 243.199219 C 198.890625 245.582031 195.46875 247.304688 192.5 246.09375 C 188.992188 244.660156 188.144531 240.015625 184.34375 239.242188 C 181.050781 238.570312 179.152344 241.417969 175.746094 239.519531 C 168.15625 235.28125 167.851562 220.214844 168.640625 213.042969 C 169.621094 204.1875 172.558594 195.683594 174.226562 186.929688 C 177.03125 172.230469 176.257812 157.105469 176.988281 142.160156 C 177.792969 125.925781 180.410156 109.777344 179.765625 93.5 C 179.503906 87 134.152344 60.363281 139.808594 57.160156 C 173.390625 38.152344 190.132812 42.226562 204.605469 43.953125 C 217.863281 45.53125 225.714844 52.148438 233.128906 57.160156 C 244.09375 64.570312 252.234375 75.632812 257.820312 87.613281 C 258.449219 88.941406 259.035156 90.285156 259.605469 91.644531 Z M 259.605469 91.644531 " fill-opacity="1" fill-rule="nonzero"/><path fill="rgb(95.689392%, 95.689392%, 95.689392%)" d="M 113.320312 91.644531 C 108.800781 102.472656 106.023438 113.988281 103.714844 125.515625 C 102.0625 133.742188 100.644531 142.101562 101.242188 150.457031 C 101.84375 158.816406 104.636719 167.277344 110.4375 173.328125 C 113.21875 176.21875 116.59375 178.484375 119.285156 181.4375 C 123.230469 185.777344 125.527344 191.5625 125.644531 197.421875 C 125.730469 201.703125 124.707031 206.058594 125.730469 210.222656 C 127.707031 218.242188 136.390625 222.539062 144.328125 224.847656 C 152.265625 227.15625 161.097656 228.953125 166.359375 235.339844 C 168.40625 237.808594 169.738281 240.820312 171.886719 243.199219 C 174.035156 245.582031 177.457031 247.304688 180.425781 246.09375 C 183.933594 244.660156 184.78125 240.015625 188.582031 239.242188 C 191.871094 238.570312 193.773438 241.417969 197.179688 239.519531 C 204.765625 235.28125 205.074219 220.214844 204.285156 213.042969 C 203.304688 204.1875 200.367188 195.683594 198.699219 186.929688 C 195.890625 172.230469 196.667969 157.105469 195.9375 142.160156 C 195.132812 125.925781 192.515625 109.777344 193.15625 93.5 C 193.421875 87 192.71875 80.511719 191.039062 74.226562 C 187.574219 61.210938 179.519531 50.5 164.984375 49.503906 C 156.066406 48.890625 147.195312 52.164062 139.78125 57.175781 C 128.816406 64.585938 120.671875 75.644531 115.089844 87.628906 C 114.472656 88.941406 113.890625 90.285156 113.320312 91.644531 Z M 113.320312 91.644531 " fill-opacity="1" fill-rule="nonzero"/><g clip-path="url(#id3)"><path fill="rgb(89.7995%, 72.938538%, 54.899597%)" d="M 272.792969 269.472656 L 227.953125 254.875 C 219.679688 252.1875 214.078125 244.472656 214.078125 235.777344 L 214.078125 201.394531 L 159.765625 201.394531 L 159.765625 236.203125 C 159.765625 244.96875 154.078125 252.710938 145.71875 255.359375 L 100.804688 269.53125 C 77.546875 276.617188 59.929688 294.707031 52.941406 317.035156 C 59.972656 324.3125 67.589844 331.003906 75.71875 337.066406 C 86.945312 345.425781 99.136719 352.542969 112.121094 358.226562 C 135.042969 368.292969 160.367188 373.875 187.015625 373.875 C 228.714844 373.875 267.207031 360.199219 298.257812 337.066406 C 306.257812 331.136719 313.769531 324.546875 320.699219 317.414062 C 313.828125 294.882812 296.167969 276.632812 272.792969 269.472656 Z M 272.792969 269.472656 " fill-opacity="1" fill-rule="nonzero"/></g><g clip-path="url(#id4)"><path fill="rgb(100%, 96.078491%, 59.999084%)" d="M 272.792969 269.472656 L 242.410156 259.582031 L 242.410156 296.140625 L 127.675781 296.140625 L 127.675781 261.042969 L 100.820312 269.515625 C 77.558594 276.601562 59.941406 294.691406 52.953125 317.019531 C 59.988281 324.296875 67.605469 330.988281 75.730469 337.054688 C 86.960938 345.410156 99.152344 352.527344 112.136719 358.210938 C 135.058594 368.277344 160.378906 373.859375 187.03125 373.859375 C 228.726562 373.859375 267.222656 360.183594 298.273438 337.054688 C 306.269531 331.121094 313.785156 324.53125 320.714844 317.398438 C 313.828125 294.882812 296.167969 276.632812 272.792969 269.472656 Z M 272.792969 269.472656 " fill-opacity="1" fill-rule="nonzero"/></g><path fill="rgb(98.429871%, 79.60968%, 59.609985%)" d="M 245.511719 124.40625 C 245.363281 82.835938 219.910156 52.984375 186.988281 52.984375 C 186.972656 52.984375 186.945312 52.984375 186.929688 52.984375 C 186.914062 52.984375 186.886719 52.984375 186.871094 52.984375 C 153.960938 52.984375 128.496094 82.835938 128.347656 124.40625 C 128.277344 143.355469 128.800781 148.078125 130.730469 161.828125 C 136.726562 204.582031 176.242188 224.335938 186.871094 224.335938 C 199.898438 224.335938 236.828125 204.582031 242.820312 161.828125 C 244.75 148.078125 245.585938 143.355469 245.511719 124.40625 Z M 245.511719 124.40625 " fill-opacity="1" fill-rule="nonzero"/><path fill="rgb(98.429871%, 79.60968%, 59.609985%)" d="M 128.347656 130.734375 C 126.609375 128.847656 123.949219 127.925781 122.457031 130.542969 C 120.292969 134.285156 120.527344 139.296875 120.835938 143.429688 C 121.082031 146.777344 121.507812 150.136719 122.382812 153.382812 C 123.144531 156.199219 124.183594 160.058594 126.683594 161.8125 C 127.253906 162.207031 128.042969 162.601562 128.757812 162.761719 C 129.152344 162.847656 131.550781 162.894531 130.746094 161.839844 " fill-opacity="1" fill-rule="nonzero"/><path fill="rgb(98.429871%, 79.60968%, 59.609985%)" d="M 245.203125 130.734375 C 246.945312 128.847656 249.605469 127.925781 251.097656 130.542969 C 253.257812 134.285156 253.027344 139.296875 252.71875 143.429688 C 252.46875 146.777344 252.046875 150.136719 251.167969 153.382812 C 250.410156 156.199219 249.371094 160.058594 246.871094 161.8125 C 246.300781 162.207031 245.511719 162.601562 244.792969 162.761719 C 244.398438 162.847656 242.003906 162.894531 242.804688 161.839844 " fill-opacity="1" fill-rule="nonzero"/><path fill="rgb(100%, 100%, 100%)" d="M 143.042969 132.675781 C 143.992188 131.054688 145.117188 129.535156 146.492188 128.261719 C 151.066406 124.070312 157.703125 123.28125 163.726562 121.789062 C 174.546875 119.117188 185.144531 112.980469 190.058594 102.984375 C 193.304688 96.378906 193.773438 88.8125 194.152344 81.476562 C 194.589844 73.21875 194.75 64.144531 189.589844 57.6875 C 183.097656 49.535156 170.308594 49.039062 160.996094 53.714844 C 140.980469 63.765625 125.921875 88.417969 125.921875 110.613281 C 125.921875 118.574219 124.679688 126.789062 125.160156 134.679688 C 125.730469 143.984375 129.578125 153.949219 133.113281 162.484375 C 134.578125 153.585938 137.222656 144.875 140.980469 136.664062 C 141.625 135.304688 142.28125 133.960938 143.042969 132.675781 Z M 143.042969 132.675781 " fill-opacity="1" fill-rule="nonzero"/><path fill="rgb(100%, 100%, 100%)" d="M 229.882812 136.257812 C 228.933594 134.632812 227.804688 133.113281 226.433594 131.84375 C 221.855469 127.648438 215.21875 126.859375 209.195312 125.371094 C 198.378906 122.695312 187.777344 116.558594 182.867188 106.566406 C 179.621094 99.960938 179.152344 92.390625 178.773438 85.054688 C 178.332031 76.800781 169.914062 60.785156 175.074219 54.328125 C 181.5625 46.171875 202.617188 52.617188 211.929688 57.292969 C 231.945312 67.347656 247.003906 91.996094 247.003906 114.191406 C 247.003906 122.15625 248.246094 130.367188 247.761719 138.257812 C 247.191406 147.566406 243.347656 157.53125 239.808594 166.0625 C 238.347656 157.164062 235.703125 148.457031 231.945312 140.246094 C 231.300781 138.886719 230.628906 137.542969 229.882812 136.257812 Z M 229.882812 136.257812 " fill-opacity="1" fill-rule="nonzero"/></svg>