<svg xmlns="http://www.w3.org/2000/svg" xmlns:xlink="http://www.w3.org/1999/xlink" width="375" zoomAndPan="magnify" viewBox="0 0 375 374.999991" height="374.999991" preserveAspectRatio="xMidYMid meet" version="1.0"><path fill="rgb(66.668701%, 84.709167%, 95.689392%)" d="M 374.726562 187.574219 C 374.726562 234.171875 357.691406 276.832031 329.542969 309.628906 C 326.996094 312.597656 324.351562 315.480469 321.613281 318.285156 C 314.644531 325.460938 307.082031 332.089844 299.039062 338.058594 C 267.796875 361.328125 229.074219 375.089844 187.125 375.089844 C 186.550781 375.089844 185.992188 375.089844 185.417969 375.074219 C 159.238281 374.851562 134.355469 369.253906 111.777344 359.34375 C 98.71875 353.625 86.449219 346.46875 75.15625 338.058594 C 66.976562 331.957031 59.316406 325.226562 52.238281 317.90625 C 49.636719 315.230469 47.121094 312.464844 44.695312 309.644531 C 16.542969 276.847656 -0.503906 234.1875 -0.503906 187.574219 C -0.503906 84.011719 83.507812 0.0585938 187.125 0.0585938 C 258.222656 0.0585938 320.085938 39.601562 351.914062 97.886719 C 362.472656 117.21875 369.710938 138.609375 372.902344 161.304688 C 374.105469 169.890625 374.726562 178.664062 374.726562 187.574219 Z M 374.726562 187.574219 " fill-opacity="1" fill-rule="nonzero"/><path fill="rgb(36.859131%, 75.689697%, 92.939758%)" d="M 375.546875 187.574219 C 375.546875 234.171875 358.515625 276.832031 330.367188 309.628906 C 327.820312 312.597656 325.175781 315.480469 322.4375 318.285156 C 315.46875 325.460938 307.90625 332.089844 299.863281 338.058594 C 268.621094 361.328125 229.894531 375.089844 187.949219 375.089844 C 187.375 375.089844 186.816406 375.089844 186.242188 375.074219 L 163.535156 334.75 L 225.601562 60.683594 L 373.726562 161.304688 C 374.929688 169.890625 375.546875 178.664062 375.546875 187.574219 Z M 375.546875 187.574219 " fill-opacity="1" fill-rule="nonzero"/><path fill="rgb(100%, 100%, 100%)" d="M 123.132812 199.4375 C 115.984375 208.976562 106.761719 209.933594 96.613281 205.125 C 97.230469 215.605469 106.171875 227.015625 113.910156 233.527344 C 126.542969 244.152344 144.472656 248.152344 160.695312 246.726562 C 170.242188 245.890625 180.390625 242.183594 185.15625 233.878906 C 187.109375 230.453125 187.992188 226.515625 188.539062 222.605469 C 191.15625 203.816406 186.214844 184.089844 175.050781 168.742188 C 166.769531 157.351562 151.871094 147.074219 137.179688 148.222656 C 132.734375 148.574219 127.839844 150.382812 126.148438 154.511719 C 123.234375 161.628906 126.824219 168.773438 128.574219 175.535156 C 130.707031 183.738281 128.132812 192.761719 123.132812 199.4375 Z M 123.132812 199.4375 " fill-opacity="1" fill-rule="nonzero"/><path fill="rgb(100%, 100%, 100%)" d="M 252.621094 199.4375 C 259.769531 208.976562 268.988281 209.933594 279.136719 205.125 C 278.519531 215.605469 269.578125 227.015625 261.84375 233.527344 C 249.207031 244.152344 231.277344 248.152344 215.054688 246.726562 C 205.511719 245.890625 195.363281 242.183594 190.597656 233.878906 C 188.640625 230.453125 187.757812 226.515625 187.214844 222.605469 C 184.597656 203.816406 189.539062 184.089844 200.703125 168.742188 C 208.980469 157.351562 223.882812 147.074219 238.574219 148.222656 C 243.015625 148.574219 247.914062 150.382812 249.605469 154.511719 C 252.515625 161.628906 248.929688 168.773438 247.179688 175.535156 C 245.046875 183.738281 247.621094 192.761719 252.621094 199.4375 Z M 252.621094 199.4375 " fill-opacity="1" fill-rule="nonzero"/><path fill="rgb(89.7995%, 72.938538%, 54.899597%)" d="M 273.402344 270.070312 L 228.292969 255.386719 C 219.96875 252.679688 214.335938 244.917969 214.335938 236.171875 L 214.335938 201.582031 L 159.695312 201.582031 L 159.695312 236.597656 C 159.695312 245.417969 153.972656 253.210938 145.5625 255.871094 L 100.378906 270.128906 C 76.980469 277.257812 59.253906 295.457031 52.226562 317.917969 C 59.300781 325.238281 66.960938 331.972656 75.140625 338.074219 C 86.4375 346.480469 98.703125 353.640625 111.761719 359.359375 C 134.824219 369.488281 160.296875 375.101562 187.109375 375.101562 C 229.058594 375.101562 267.785156 361.34375 299.023438 338.074219 C 307.070312 332.105469 314.628906 325.476562 321.601562 318.300781 C 314.6875 295.632812 296.921875 277.273438 273.402344 270.070312 Z M 273.402344 270.070312 " fill-opacity="1" fill-rule="nonzero"/><path fill="rgb(100%, 86.669922%, 23.529053%)" d="M 273.402344 270.070312 L 259.089844 265.410156 C 243.074219 278.316406 226.234375 281.15625 204.980469 283.050781 C 177.242188 285.535156 143.03125 281.757812 120.042969 263.910156 L 100.394531 270.113281 C 76.992188 277.246094 59.269531 295.441406 52.238281 317.90625 C 59.3125 325.226562 66.976562 331.957031 75.15625 338.058594 C 86.449219 346.46875 98.71875 353.625 111.777344 359.34375 C 134.839844 369.472656 160.3125 375.089844 187.125 375.089844 C 229.074219 375.089844 267.796875 361.328125 299.039062 338.058594 C 307.082031 332.089844 314.644531 325.460938 321.613281 318.285156 C 314.6875 295.632812 296.921875 277.273438 273.402344 270.070312 Z M 273.402344 270.070312 " fill-opacity="1" fill-rule="nonzero"/><path fill="rgb(3.529358%, 15.689087%, 21.958923%)" d="M 145.238281 277.054688 C 136.074219 273.964844 127.472656 269.671875 120.042969 263.910156 L 100.394531 270.113281 C 76.992188 277.246094 59.269531 295.441406 52.238281 317.90625 C 59.316406 325.226562 66.976562 331.957031 75.15625 338.058594 C 86.449219 346.46875 98.71875 353.625 111.777344 359.34375 C 122.457031 364.035156 133.648438 367.738281 145.238281 370.382812 Z M 145.238281 277.054688 " fill-opacity="1" fill-rule="nonzero"/><path fill="rgb(3.529358%, 15.689087%, 21.958923%)" d="M 273.402344 270.070312 L 259.089844 265.410156 C 251.457031 271.570312 243.632812 275.40625 235.234375 277.980469 L 235.234375 368.824219 C 258.589844 362.636719 280.183594 352.097656 299.039062 338.058594 C 307.082031 332.089844 314.644531 325.460938 321.613281 318.285156 C 314.6875 295.632812 296.921875 277.273438 273.402344 270.070312 Z M 273.402344 270.070312 " fill-opacity="1" fill-rule="nonzero"/><path fill="rgb(98.429871%, 79.60968%, 59.609985%)" d="M 245.957031 124.128906 C 245.808594 82.304688 220.203125 52.273438 187.082031 52.273438 C 187.066406 52.273438 187.039062 52.273438 187.023438 52.273438 C 187.007812 52.273438 186.980469 52.273438 186.964844 52.273438 C 153.855469 52.273438 128.234375 82.304688 128.089844 124.128906 C 128.015625 143.195312 128.542969 147.941406 130.484375 161.773438 C 136.515625 204.789062 176.273438 224.660156 186.964844 224.660156 C 200.070312 224.660156 237.222656 204.789062 243.25 161.773438 C 245.191406 147.941406 246.03125 143.195312 245.957031 124.128906 Z M 245.957031 124.128906 " fill-opacity="1" fill-rule="nonzero"/><path fill="rgb(98.429871%, 79.60968%, 59.609985%)" d="M 128.089844 130.492188 C 126.339844 128.597656 123.660156 127.671875 122.160156 130.300781 C 119.984375 134.066406 120.21875 139.105469 120.527344 143.265625 C 120.777344 146.632812 121.207031 150.015625 122.085938 153.277344 C 122.851562 156.113281 123.898438 159.996094 126.410156 161.761719 C 126.984375 162.15625 127.78125 162.554688 128.5 162.714844 C 128.898438 162.804688 131.308594 162.847656 130.5 161.789062 " fill-opacity="1" fill-rule="nonzero"/><path fill="rgb(98.429871%, 79.60968%, 59.609985%)" d="M 245.648438 130.492188 C 247.398438 128.597656 250.074219 127.671875 251.574219 130.300781 C 253.753906 134.066406 253.515625 139.105469 253.207031 143.265625 C 252.957031 146.632812 252.53125 150.015625 251.648438 153.277344 C 250.882812 156.113281 249.839844 159.996094 247.324219 161.761719 C 246.75 162.15625 245.957031 162.554688 245.238281 162.714844 C 244.839844 162.804688 242.425781 162.847656 243.238281 161.789062 " fill-opacity="1" fill-rule="nonzero"/><path fill="rgb(100%, 100%, 100%)" d="M 141.339844 130.785156 C 142.632812 129.007812 143.914062 127.214844 145.074219 125.40625 C 147.738281 121.21875 149.796875 116.660156 151.195312 111.898438 C 152.210938 108.441406 151.914062 101.503906 154.285156 99.136719 C 161.710938 104.753906 166.125 109.972656 176.609375 110.425781 C 185.699219 110.808594 194.65625 108.398438 203.730469 107.765625 C 212.804688 107.148438 222.820312 108.765625 228.894531 115.511719 C 231.617188 118.527344 233.308594 122.320312 234.808594 126.082031 C 237.972656 133.992188 240.546875 142.136719 242.488281 150.425781 C 244.957031 133.609375 249.503906 117.628906 246.398438 100.769531 C 244.355469 89.613281 240.484375 78.585938 233.707031 69.382812 C 224.941406 57.507812 211.746094 49.90625 197.214844 47.703125 C 193.554688 47.144531 189.980469 47.128906 186.300781 47.128906 C 165.136719 47.128906 145.898438 58.710938 135.324219 76.925781 C 129.542969 86.890625 126.132812 98.710938 125.675781 110.222656 C 125.425781 116.734375 126.367188 123.761719 126.957031 130.300781 C 127.558594 137.0625 131.398438 145.28125 131.132812 151.777344 C 131.425781 143.871094 136.53125 137.359375 141.339844 130.785156 Z M 141.339844 130.785156 " fill-opacity="1" fill-rule="nonzero"/></svg>