<svg xmlns="http://www.w3.org/2000/svg" xmlns:xlink="http://www.w3.org/1999/xlink" width="375" zoomAndPan="magnify" viewBox="0 0 375 374.999991" height="374.999991" preserveAspectRatio="xMidYMid meet" version="1.0"><defs><clipPath id="id1"><path d="M 0 1.023438 L 374 1.023438 L 374 373.773438 L 0 373.773438 Z M 0 1.023438 " clip-rule="nonzero"/></clipPath><clipPath id="id2"><path d="M 164 63 L 375 63 L 375 373.773438 L 164 373.773438 Z M 164 63 " clip-rule="nonzero"/></clipPath><clipPath id="id3"><path d="M 53 201 L 322 201 L 322 373.773438 L 53 373.773438 Z M 53 201 " clip-rule="nonzero"/></clipPath><clipPath id="id4"><path d="M 53 256 L 322 256 L 322 373.773438 L 53 373.773438 Z M 53 256 " clip-rule="nonzero"/></clipPath><clipPath id="id5"><path d="M 181 277 L 192 277 L 192 373.773438 L 181 373.773438 Z M 181 277 " clip-rule="nonzero"/></clipPath></defs><g clip-path="url(#id1)"><path fill="rgb(100%, 86.669922%, 23.529053%)" d="M 373.082031 187.46875 C 373.082031 233.789062 356.152344 276.195312 328.171875 308.792969 C 325.640625 311.746094 323.011719 314.609375 320.289062 317.398438 C 313.359375 324.53125 305.847656 331.121094 297.851562 337.054688 C 266.796875 360.183594 228.304688 373.859375 186.609375 373.859375 C 186.039062 373.859375 185.484375 373.859375 184.914062 373.84375 C 158.890625 373.625 134.152344 368.058594 111.710938 358.210938 C 98.730469 352.527344 86.535156 345.410156 75.308594 337.054688 C 67.179688 330.988281 59.5625 324.296875 52.53125 317.019531 C 49.941406 314.359375 47.441406 311.613281 45.03125 308.808594 C 17.046875 276.207031 0.105469 233.804688 0.105469 187.46875 C 0.105469 84.53125 83.613281 1.082031 186.609375 1.082031 C 257.28125 1.082031 318.769531 40.386719 350.40625 98.324219 C 360.90625 117.539062 368.097656 138.796875 371.269531 161.359375 C 372.46875 169.890625 373.082031 178.617188 373.082031 187.46875 Z M 373.082031 187.46875 " fill-opacity="1" fill-rule="nonzero"/></g><g clip-path="url(#id2)"><path fill="rgb(98.81897%, 76.469421%, 23.919678%)" d="M 374.984375 187.46875 C 374.984375 233.789062 358.054688 276.195312 330.070312 308.792969 C 327.542969 311.746094 324.910156 314.609375 322.191406 317.398438 C 315.261719 324.53125 307.746094 331.121094 299.75 337.054688 C 268.699219 360.183594 230.203125 373.859375 188.507812 373.859375 C 187.9375 373.859375 187.382812 373.859375 186.8125 373.84375 L 164.238281 333.765625 L 244.136719 63.238281 L 373.171875 161.359375 C 374.371094 169.890625 374.984375 178.617188 374.984375 187.46875 Z M 374.984375 187.46875 " fill-opacity="1" fill-rule="nonzero"/></g><path fill="rgb(92.939758%, 92.939758%, 92.939758%)" d="M 105.367188 165.203125 C 94.78125 104.5625 115.527344 41.425781 188.800781 42.492188 C 186.855469 72.359375 198.390625 97.15625 201.34375 126.027344 C 206.199219 173.632812 198.011719 225.5625 195.964844 273.359375 C 178.84375 275.507812 162.5 265.542969 149.824219 253.839844 C 127.484375 233.265625 111.375 199.640625 105.367188 165.203125 Z M 105.367188 165.203125 " fill-opacity="1" fill-rule="nonzero"/><path fill="rgb(92.939758%, 92.939758%, 92.939758%)" d="M 269.632812 165.203125 C 280.21875 104.5625 259.472656 41.425781 186.199219 42.492188 C 188.144531 72.359375 176.609375 97.15625 173.65625 126.027344 C 168.800781 173.632812 176.988281 225.5625 179.035156 273.359375 C 196.15625 275.507812 212.5 265.542969 225.175781 253.839844 C 247.5 233.265625 263.609375 199.640625 269.632812 165.203125 Z M 269.632812 165.203125 " fill-opacity="1" fill-rule="nonzero"/><g clip-path="url(#id3)"><path fill="rgb(93.328857%, 75.689697%, 56.858826%)" d="M 273.449219 269.472656 L 228.609375 254.875 C 220.335938 252.1875 214.738281 244.472656 214.738281 235.777344 L 214.738281 201.394531 L 160.425781 201.394531 L 160.425781 236.203125 C 160.425781 244.96875 154.738281 252.710938 146.375 255.359375 L 101.464844 269.53125 C 78.203125 276.617188 60.585938 294.707031 53.597656 317.035156 C 60.628906 324.3125 68.246094 331.003906 76.375 337.066406 C 87.601562 345.425781 99.796875 352.542969 112.777344 358.226562 C 135.703125 368.292969 161.023438 373.875 187.675781 373.875 C 229.371094 373.875 267.863281 360.199219 298.917969 337.066406 C 306.914062 331.136719 314.429688 324.546875 321.359375 317.414062 C 314.488281 294.882812 296.828125 276.632812 273.449219 269.472656 Z M 273.449219 269.472656 " fill-opacity="1" fill-rule="nonzero"/></g><g clip-path="url(#id4)"><path fill="rgb(68.238831%, 41.569519%, 66.268921%)" d="M 273.449219 269.472656 L 236.375 257.402344 C 224.78125 268.171875 210.085938 275.464844 194.121094 277.421875 C 175.160156 279.746094 152.367188 272.996094 142.222656 256.671875 L 101.492188 269.515625 C 78.230469 276.601562 60.617188 294.691406 53.628906 317.019531 C 60.660156 324.296875 68.277344 330.988281 76.40625 337.054688 C 87.632812 345.410156 99.824219 352.527344 112.808594 358.210938 C 135.730469 368.277344 161.054688 373.859375 187.703125 373.859375 C 229.398438 373.859375 267.894531 360.183594 298.945312 337.054688 C 306.941406 331.121094 314.457031 324.53125 321.386719 317.398438 C 314.488281 294.882812 296.828125 276.632812 273.449219 269.472656 Z M 273.449219 269.472656 " fill-opacity="1" fill-rule="nonzero"/></g><g clip-path="url(#id5)"><path fill="rgb(56.079102%, 34.509277%, 54.508972%)" d="M 191.519531 277.65625 C 188.128906 277.917969 184.648438 277.890625 181.15625 277.582031 L 181.15625 373.730469 C 183.332031 373.800781 185.496094 373.859375 187.691406 373.859375 C 188.976562 373.859375 190.25 373.800781 191.519531 373.789062 Z M 191.519531 277.65625 " fill-opacity="1" fill-rule="nonzero"/></g><path fill="rgb(98.429871%, 79.60968%, 59.609985%)" d="M 246.167969 124.40625 C 246.023438 82.835938 220.570312 52.984375 187.644531 52.984375 C 187.632812 52.984375 187.601562 52.984375 187.585938 52.984375 C 187.574219 52.984375 187.542969 52.984375 187.527344 52.984375 C 154.621094 52.984375 129.152344 82.835938 129.007812 124.40625 C 128.933594 143.355469 129.460938 148.078125 131.390625 161.828125 C 137.382812 204.582031 176.902344 224.335938 187.527344 224.335938 C 200.554688 224.335938 237.484375 204.582031 243.480469 161.828125 C 245.410156 148.078125 246.242188 143.355469 246.167969 124.40625 Z M 246.167969 124.40625 " fill-opacity="1" fill-rule="nonzero"/><path fill="rgb(98.429871%, 79.60968%, 59.609985%)" d="M 129.007812 130.734375 C 127.265625 128.847656 124.605469 127.925781 123.113281 130.542969 C 120.949219 134.285156 121.183594 139.296875 121.492188 143.429688 C 121.742188 146.777344 122.164062 150.136719 123.042969 153.382812 C 123.800781 156.199219 124.839844 160.058594 127.339844 161.8125 C 127.910156 162.207031 128.699219 162.601562 129.414062 162.761719 C 129.8125 162.847656 132.207031 162.894531 131.402344 161.839844 " fill-opacity="1" fill-rule="nonzero"/><path fill="rgb(98.429871%, 79.60968%, 59.609985%)" d="M 245.863281 130.734375 C 247.601562 128.847656 250.261719 127.925781 251.753906 130.542969 C 253.917969 134.285156 253.683594 139.296875 253.375 143.429688 C 253.128906 146.777344 252.703125 150.136719 251.828125 153.382812 C 251.066406 156.199219 250.027344 160.058594 247.527344 161.8125 C 246.957031 162.207031 246.167969 162.601562 245.453125 162.761719 C 245.058594 162.847656 242.660156 162.894531 243.464844 161.839844 " fill-opacity="1" fill-rule="nonzero"/><path fill="rgb(100%, 100%, 100%)" d="M 141.417969 98.675781 C 142.996094 106.433594 141.578125 115.859375 141.8125 123.851562 C 149.007812 113.59375 156.695312 103.6875 164.839844 94.160156 C 163.683594 96.496094 163.15625 99.15625 163.363281 101.773438 C 169.167969 97.269531 174.519531 92.171875 179.296875 86.574219 C 187.28125 95.855469 196.738281 104.898438 203.054688 115.347656 C 205.980469 120.183594 209.179688 124.875 212.835938 129.183594 C 216.097656 133.011719 221.109375 135.949219 224.0625 139.804688 C 219.429688 133.742188 216.066406 126.730469 214.226562 119.335938 C 221.972656 128.453125 234.984375 138.886719 247.585938 138.960938 C 249.910156 133.011719 251.257812 126.714844 252.0625 120.386719 C 252.6875 115.535156 253.011719 110.625 252.777344 105.730469 C 251.972656 88.765625 243.902344 72.503906 231.5625 60.945312 C 226.023438 55.757812 218.128906 49.316406 210.394531 48.203125 C 200.480469 46.773438 190.804688 46.070312 180.773438 47.296875 C 166.375 49.050781 151.476562 53.085938 141.097656 63.226562 C 132.925781 71.203125 128.332031 82.339844 126.695312 93.648438 C 124.402344 109.414062 125.074219 131.652344 133.027344 146.058594 C 132.207031 144.585938 135.542969 136.210938 135.949219 134.285156 C 136.796875 130.28125 137.53125 126.261719 138.1875 122.226562 C 139.445312 114.46875 139.722656 106.285156 141.417969 98.675781 Z M 141.417969 98.675781 " fill-opacity="1" fill-rule="nonzero"/><path fill="rgb(56.079102%, 34.509277%, 54.508972%)" d="M 187.585938 277.84375 C 187.585938 277.84375 167.484375 283.179688 158.464844 305.214844 C 158.464844 305.214844 116.695312 278.96875 126.417969 260.179688 C 126.417969 260.179688 143.785156 236.828125 158.742188 244.238281 C 158.742188 244.253906 179.210938 282.332031 187.585938 277.84375 Z M 187.585938 277.84375 " fill-opacity="1" fill-rule="nonzero"/><path fill="rgb(56.079102%, 34.509277%, 54.508972%)" d="M 186.59375 277.84375 C 186.59375 277.84375 206.695312 283.179688 215.714844 305.214844 C 215.714844 305.214844 257.484375 278.96875 247.761719 260.179688 C 247.761719 260.179688 230.394531 236.828125 215.4375 244.238281 C 215.4375 244.253906 194.984375 282.332031 186.59375 277.84375 Z M 186.59375 277.84375 " fill-opacity="1" fill-rule="nonzero"/></svg>