<svg xmlns="http://www.w3.org/2000/svg" xmlns:xlink="http://www.w3.org/1999/xlink" width="375" zoomAndPan="magnify" viewBox="0 0 375 374.999991" height="374.999991" preserveAspectRatio="xMidYMid meet" version="1.0"><path fill="rgb(59.609985%, 77.648926%, 38.42926%)" d="M 375.089844 187.574219 C 375.089844 234.171875 358.066406 276.832031 329.929688 309.628906 C 320.859375 320.199219 310.613281 329.753906 299.441406 338.058594 C 268.21875 361.328125 229.511719 375.089844 187.589844 375.089844 C 160.789062 375.089844 135.328125 369.472656 112.28125 359.34375 C 99.226562 353.625 86.964844 346.46875 75.675781 338.058594 C 64.519531 329.722656 54.300781 320.199219 45.230469 309.644531 C 17.097656 276.847656 0.0585938 234.1875 0.0585938 187.574219 C 0.0585938 84.011719 84.027344 0.0585938 187.589844 0.0585938 C 258.648438 0.0585938 320.476562 39.601562 352.289062 97.886719 C 366.828125 124.523438 375.089844 155.085938 375.089844 187.574219 Z M 375.089844 187.574219 " fill-opacity="1" fill-rule="nonzero"/><path fill="rgb(34.509277%, 70.588684%, 39.608765%)" d="M 375.089844 187.574219 C 375.089844 234.171875 358.066406 276.832031 329.929688 309.628906 C 320.859375 320.199219 310.613281 329.753906 299.441406 338.058594 C 268.21875 361.328125 229.511719 375.089844 187.589844 375.089844 C 160.789062 375.089844 135.328125 369.472656 112.28125 359.34375 L 196.378906 74.222656 L 239.921875 74.867188 L 224.734375 44.421875 L 352.289062 97.875 C 366.828125 124.523438 375.089844 155.085938 375.089844 187.574219 Z M 375.089844 187.574219 " fill-opacity="1" fill-rule="nonzero"/><path fill="rgb(98.429871%, 79.60968%, 59.609985%)" d="M 124.511719 126.980469 C 122.644531 124.9375 119.777344 123.964844 118.160156 126.773438 C 115.835938 130.800781 116.070312 136.210938 116.410156 140.664062 C 116.691406 144.265625 117.128906 147.882812 118.070312 151.398438 C 118.878906 154.425781 119.996094 158.597656 122.703125 160.480469 C 123.320312 160.90625 124.15625 161.332031 124.9375 161.496094 C 125.363281 161.582031 127.949219 161.628906 127.066406 160.511719 " fill-opacity="1" fill-rule="nonzero"/><path fill="rgb(98.429871%, 79.60968%, 59.609985%)" d="M 250.429688 126.980469 C 252.296875 124.9375 255.164062 123.964844 256.78125 126.773438 C 259.105469 130.800781 258.867188 136.210938 258.53125 140.664062 C 258.25 144.265625 257.8125 147.882812 256.871094 151.398438 C 256.0625 154.425781 254.945312 158.597656 252.238281 160.480469 C 251.621094 160.90625 250.785156 161.332031 250.003906 161.496094 C 249.578125 161.582031 246.992188 161.628906 247.875 160.511719 " fill-opacity="1" fill-rule="nonzero"/><path fill="rgb(98.429871%, 79.60968%, 59.609985%)" d="M 329.929688 309.628906 C 320.859375 320.199219 310.628906 329.753906 299.441406 338.058594 L 75.675781 338.058594 C 64.503906 329.722656 54.289062 320.199219 45.230469 309.644531 C 53.730469 287.988281 71.738281 270.71875 94.960938 263.632812 L 133.625 248.785156 C 148.558594 243.875 147.882812 235.613281 147.882812 219.882812 L 147.882812 186.425781 L 227.25 186.425781 L 227.25 219.855469 C 227.25 235.597656 228.042969 244.949219 243.007812 249.84375 L 280.242188 263.585938 C 303.46875 270.703125 321.460938 287.976562 329.929688 309.628906 Z M 329.929688 309.628906 " fill-opacity="1" fill-rule="nonzero"/><path fill="rgb(3.529358%, 15.689087%, 21.958923%)" d="M 329.929688 309.628906 C 295.546875 349.699219 244.535156 375.089844 187.589844 375.089844 C 130.640625 375.089844 79.628906 349.699219 45.246094 309.644531 C 53.742188 287.988281 71.75 270.71875 94.976562 263.632812 L 133.640625 248.785156 C 137.988281 247.34375 141.019531 245.625 143.121094 243.523438 C 150.71875 250.519531 160.289062 254.664062 170.476562 256.722656 C 175.5625 257.75 182.414062 292.503906 187.648438 292.5625 C 192.878906 292.636719 196.480469 258.03125 201.507812 257.324219 C 203.859375 256.988281 206.242188 256.574219 208.640625 256.0625 C 217.796875 254.105469 227.058594 250.8125 235.144531 245.960938 C 237.1875 247.476562 239.757812 248.769531 243.023438 249.84375 L 280.257812 263.585938 C 303.46875 270.703125 321.460938 287.976562 329.929688 309.628906 Z M 329.929688 309.628906 " fill-opacity="1" fill-rule="nonzero"/><path fill="rgb(98.429871%, 79.60968%, 59.609985%)" d="M 250.753906 120.160156 C 250.59375 75.351562 223.105469 50.097656 187.632812 50.097656 C 187.617188 50.097656 187.632812 57.035156 187.632812 50.097656 C 187.632812 50.082031 187.648438 50.097656 187.632812 50.097656 C 152.175781 50.097656 124.671875 75.351562 124.511719 120.160156 C 124.4375 140.59375 125.140625 154.042969 127.214844 168.875 C 133.667969 214.972656 176.105469 227.894531 187.558594 227.894531 C 201.597656 227.894531 241.582031 214.972656 248.035156 168.875 C 250.121094 154.042969 250.828125 140.59375 250.753906 120.160156 Z M 250.753906 120.160156 " fill-opacity="1" fill-rule="nonzero"/><path fill="rgb(92.939758%, 43.139648%, 29.019165%)" d="M 237.449219 171.328125 C 230.703125 178.53125 221.796875 182.265625 210.992188 176.285156 C 207.832031 174.535156 205.140625 172.035156 201.980469 170.269531 C 193.277344 165.421875 182.164062 166.949219 173.375 171.625 C 166.625 175.210938 159.496094 181.074219 151.324219 179.195312 C 144.179688 177.5625 139.003906 171.050781 135.875 164.816406 C 129.976562 153.058594 126.289062 140.871094 124.539062 128.332031 C 124.671875 144.355469 125.4375 156.113281 127.230469 168.859375 C 133.683594 214.960938 176.121094 227.882812 187.574219 227.882812 C 201.613281 227.882812 241.597656 214.960938 248.050781 168.859375 C 249.003906 162.011719 249.667969 155.4375 250.109375 148.339844 C 249.328125 150.777344 248.019531 142.386719 247.683594 145.25 C 246.386719 156.042969 241.480469 167.039062 237.449219 171.328125 Z M 237.449219 171.328125 " fill-opacity="1" fill-rule="nonzero"/><path fill="rgb(92.939758%, 43.139648%, 29.019165%)" d="M 256.914062 115.484375 C 256.679688 115.175781 256.472656 114.851562 256.296875 114.5 C 254.988281 111.792969 256.589844 108.679688 257.691406 105.871094 C 259.414062 101.476562 259.414062 95.535156 255.414062 93.023438 C 254.578125 92.492188 253.589844 92.15625 252.84375 91.492188 C 250.886719 89.789062 251.152344 86.761719 250.976562 84.15625 C 250.609375 78.675781 246.492188 71.5 240.847656 69.855469 C 233.453125 67.695312 231.644531 78.941406 229.070312 84.335938 C 227.324219 87.980469 229.367188 97.476562 229.808594 101.476562 C 230.484375 107.53125 231.910156 113.21875 234.453125 118.761719 C 239.40625 129.550781 247.84375 136.753906 247.035156 149.78125 C 248.375 150.441406 250.050781 149.367188 250.59375 147.972656 C 251.738281 145.003906 250.667969 141.828125 252.5625 138.855469 C 254.503906 135.828125 257.121094 133.578125 258.605469 130.167969 C 260.472656 125.890625 260.675781 120.601562 257.941406 116.835938 C 257.621094 116.378906 257.253906 115.941406 256.914062 115.484375 Z M 256.914062 115.484375 " fill-opacity="1" fill-rule="nonzero"/><path fill="rgb(92.939758%, 43.139648%, 29.019165%)" d="M 133.710938 136.226562 C 134.757812 135.683594 135.875 135.226562 136.886719 134.609375 C 149.75 126.757812 144.648438 108.988281 150.792969 97.816406 C 151.574219 96.386719 152.601562 95.050781 154.027344 94.273438 C 156.820312 92.726562 160.277344 93.699219 163.332031 94.59375 C 179.296875 99.242188 196.128906 100.929688 212.710938 99.535156 C 221.339844 98.8125 228.878906 95.449219 236.378906 91.375 C 241.347656 88.6875 248.871094 86.6875 252.035156 81.675781 C 253.960938 78.632812 253.355469 74.425781 251.195312 71.53125 C 249.035156 68.636719 245.609375 66.929688 242.109375 66.078125 C 239.40625 65.429688 236.128906 64.886719 234.996094 62.34375 C 234.511719 61.242188 234.554688 60.003906 234.539062 58.800781 C 234.40625 52.523438 230.910156 45.613281 224.75 44.410156 C 217.988281 43.085938 211.019531 49.054688 204.507812 46.777344 C 201.332031 45.671875 199.140625 42.835938 196.453125 40.820312 C 188.542969 34.839844 175.710938 37.191406 170.417969 45.570312 C 169.714844 46.6875 169.09375 47.921875 168.082031 48.773438 C 165.890625 50.582031 162.597656 50.023438 159.996094 48.863281 C 157.394531 47.703125 154.910156 46.039062 152.058594 45.878906 C 145.605469 45.511719 141.546875 52.671875 139.84375 58.902344 C 138.753906 62.859375 137.609375 67.386719 133.976562 69.3125 C 132.460938 70.121094 130.699219 70.324219 129.140625 71.03125 C 125.304688 72.75 123.304688 77.058594 122.628906 81.203125 C 121.804688 86.261719 123.347656 92.507812 121.203125 96.976562 C 119.820312 99.84375 117.320312 100.621094 116.734375 104.238281 C 116.308594 106.882812 117.070312 109.839844 117.953125 112.324219 C 119.46875 116.570312 121.6875 120.789062 121.335938 125.289062 C 121.128906 127.992188 119.996094 130.523438 119.21875 133.109375 C 117.9375 137.386719 117.851562 142.605469 119.863281 146.679688 C 121.113281 149.207031 126.15625 155.496094 128.730469 150.632812 C 129.375 149.398438 129.359375 147.941406 129.332031 146.546875 C 129.257812 143.414062 129.359375 139.929688 131.566406 137.726562 C 132.183594 137.109375 132.933594 136.636719 133.710938 136.226562 Z M 133.710938 136.226562 " fill-opacity="1" fill-rule="nonzero"/><path fill="rgb(98.429871%, 79.60968%, 59.609985%)" d="M 210.050781 189.910156 C 210.050781 198.90625 200.023438 210.742188 187.648438 210.742188 C 175.269531 210.742188 165.242188 198.921875 165.242188 189.910156 C 165.242188 180.914062 175.269531 178.152344 187.648438 178.152344 C 200.023438 178.152344 210.050781 180.914062 210.050781 189.910156 Z M 210.050781 189.910156 " fill-opacity="1" fill-rule="nonzero"/></svg>