<svg xmlns="http://www.w3.org/2000/svg" xmlns:xlink="http://www.w3.org/1999/xlink" width="375" zoomAndPan="magnify" viewBox="0 0 375 374.999991" height="374.999991" preserveAspectRatio="xMidYMid meet" version="1.0"><defs><clipPath id="id1"><path d="M 0 1.023438 L 374 1.023438 L 374 373.773438 L 0 373.773438 Z M 0 1.023438 " clip-rule="nonzero"/></clipPath><clipPath id="id2"><path d="M 163 63 L 375 63 L 375 373.773438 L 163 373.773438 Z M 163 63 " clip-rule="nonzero"/></clipPath><clipPath id="id3"><path d="M 52 201 L 321 201 L 321 373.773438 L 52 373.773438 Z M 52 201 " clip-rule="nonzero"/></clipPath><clipPath id="id4"><path d="M 95 255 L 277 255 L 277 373.773438 L 95 373.773438 Z M 95 255 " clip-rule="nonzero"/></clipPath></defs><g clip-path="url(#id1)"><path fill="rgb(100%, 86.669922%, 23.529053%)" d="M 373.535156 187.472656 C 373.535156 233.789062 356.605469 276.195312 328.625 308.792969 C 326.09375 311.746094 323.464844 314.609375 320.746094 317.398438 C 313.8125 324.53125 306.300781 331.121094 298.304688 337.054688 C 267.25 360.183594 228.757812 373.859375 187.0625 373.859375 C 186.492188 373.859375 185.9375 373.859375 185.367188 373.847656 C 159.34375 373.628906 134.605469 368.058594 112.164062 358.210938 C 99.183594 352.527344 86.988281 345.410156 75.761719 337.054688 C 67.632812 330.988281 60.015625 324.296875 52.984375 317.019531 C 50.394531 314.359375 47.894531 311.613281 45.484375 308.808594 C 17.5 276.210938 0.558594 233.804688 0.558594 187.472656 C 0.558594 84.53125 84.066406 1.082031 187.0625 1.082031 C 257.734375 1.082031 319.222656 40.386719 350.859375 98.324219 C 361.359375 117.539062 368.550781 138.796875 371.722656 161.359375 C 372.921875 169.894531 373.535156 178.617188 373.535156 187.472656 Z M 373.535156 187.472656 " fill-opacity="1" fill-rule="nonzero"/></g><g clip-path="url(#id2)"><path fill="rgb(98.81897%, 76.469421%, 23.919678%)" d="M 374.355469 187.472656 C 374.355469 233.789062 357.425781 276.195312 329.441406 308.792969 C 326.914062 311.746094 324.28125 314.609375 321.5625 317.398438 C 314.632812 324.53125 307.117188 331.121094 299.121094 337.054688 C 268.070312 360.183594 229.574219 373.859375 187.878906 373.859375 C 187.308594 373.859375 186.753906 373.859375 186.183594 373.847656 L 163.613281 333.765625 L 243.507812 63.242188 L 372.542969 161.359375 C 373.742188 169.894531 374.355469 178.617188 374.355469 187.472656 Z M 374.355469 187.472656 " fill-opacity="1" fill-rule="nonzero"/></g><path fill="rgb(26.669312%, 11.369324%, 0%)" d="M 277.058594 166.765625 C 273.128906 162.046875 268.828125 159.488281 267.265625 153.277344 C 265.539062 146.398438 267.382812 138.683594 268.945312 131.945312 C 280.351562 82.734375 231.269531 42.359375 185.46875 42.507812 L 185.46875 232.15625 C 190.308594 231.789062 195.117188 230.808594 199.707031 229.277344 C 206.226562 227.097656 212.382812 223.871094 219.035156 222.160156 C 227.308594 220.027344 235.804688 220.992188 243.933594 223.226562 C 250.875 225.140625 257.792969 229.730469 265.1875 228.824219 C 266.316406 228.691406 267.410156 228.414062 268.523438 227.976562 C 273.375 226.015625 276.519531 220.773438 276.09375 215.570312 C 275.757812 211.40625 273.289062 207.488281 273.625 203.324219 C 273.960938 199.117188 277.03125 195.742188 279.046875 192.03125 C 283.375 184.066406 282.9375 173.824219 277.058594 166.765625 Z M 277.058594 166.765625 " fill-opacity="1" fill-rule="nonzero"/><path fill="rgb(26.669312%, 11.369324%, 0%)" d="M 96.289062 166.765625 C 100.21875 162.046875 104.519531 159.488281 106.082031 153.277344 C 107.808594 146.398438 105.964844 138.683594 104.402344 131.945312 C 93 82.734375 142.078125 42.359375 187.878906 42.507812 L 187.878906 232.15625 C 183.042969 231.789062 178.230469 230.808594 173.640625 229.277344 C 167.121094 227.097656 160.964844 223.871094 154.3125 222.160156 C 146.039062 220.027344 137.542969 220.992188 129.414062 223.226562 C 122.472656 225.140625 115.554688 229.730469 108.160156 228.824219 C 107.03125 228.691406 105.9375 228.414062 104.824219 227.976562 C 99.972656 226.015625 96.828125 220.773438 97.253906 215.570312 C 97.589844 211.40625 100.058594 207.488281 99.722656 203.324219 C 99.386719 199.117188 96.316406 195.742188 94.300781 192.03125 C 89.957031 184.066406 90.394531 173.824219 96.289062 166.765625 Z M 96.289062 166.765625 " fill-opacity="1" fill-rule="nonzero"/><g clip-path="url(#id3)"><path fill="rgb(93.328857%, 75.689697%, 56.858826%)" d="M 272.820312 269.472656 L 227.980469 254.875 C 219.707031 252.1875 214.109375 244.472656 214.109375 235.777344 L 214.109375 201.394531 L 159.796875 201.394531 L 159.796875 236.203125 C 159.796875 244.96875 154.109375 252.714844 145.746094 255.359375 L 100.835938 269.53125 C 77.574219 276.617188 59.957031 294.707031 52.96875 317.035156 C 60 324.3125 67.617188 331.003906 75.746094 337.066406 C 86.976562 345.425781 99.167969 352.542969 112.148438 358.226562 C 135.074219 368.292969 160.394531 373.875 187.046875 373.875 C 228.742188 373.875 267.234375 360.199219 298.289062 337.066406 C 306.285156 331.136719 313.800781 324.546875 320.730469 317.414062 C 313.859375 294.882812 296.199219 276.632812 272.820312 269.472656 Z M 272.820312 269.472656 " fill-opacity="1" fill-rule="nonzero"/></g><g clip-path="url(#id4)"><path fill="rgb(68.238831%, 41.569519%, 66.268921%)" d="M 276.386719 270.6875 C 275.21875 270.261719 274.035156 269.839844 272.820312 269.472656 L 233.828125 256.777344 C 223.726562 267.5 210.539062 274.703125 195.074219 276.355469 C 178.144531 278.167969 152.148438 272.9375 143.992188 255.898438 L 104.765625 268.273438 C 113.027344 287.738281 110.703125 310.765625 103.832031 330.566406 C 101.535156 337.15625 98.773438 343.628906 95.554688 349.910156 C 100.9375 352.9375 106.460938 355.726562 112.164062 358.210938 C 135.089844 368.277344 160.410156 373.859375 187.0625 373.859375 C 218.875 373.859375 248.816406 365.882812 275.027344 351.824219 C 265.351562 325.730469 265.128906 296.082031 276.386719 270.6875 Z M 276.386719 270.6875 " fill-opacity="1" fill-rule="nonzero"/></g><path fill="rgb(98.429871%, 79.60968%, 59.609985%)" d="M 245.539062 124.40625 C 245.394531 82.835938 219.941406 52.984375 187.015625 52.984375 C 187.003906 52.984375 186.972656 52.984375 186.960938 52.984375 C 186.945312 52.984375 186.914062 52.984375 186.902344 52.984375 C 153.992188 52.984375 128.523438 82.835938 128.378906 124.40625 C 128.304688 143.359375 128.832031 148.078125 130.761719 161.828125 C 136.753906 204.582031 176.273438 224.335938 186.902344 224.335938 C 199.925781 224.335938 236.855469 204.582031 242.851562 161.828125 C 244.78125 148.078125 245.613281 143.359375 245.539062 124.40625 Z M 245.539062 124.40625 " fill-opacity="1" fill-rule="nonzero"/><path fill="rgb(26.669312%, 11.369324%, 0%)" d="M 223.421875 140.261719 C 224.605469 136.78125 226.007812 126.203125 227.191406 122.710938 C 232.542969 134.855469 238.609375 144.03125 243.492188 151.816406 C 242.878906 150.855469 246.066406 140.363281 246.328125 138.726562 C 247.382812 131.886719 248.128906 124.992188 247.820312 118.066406 C 244.472656 42.492188 186.257812 47.882812 186.226562 47.882812 C 153.320312 47.882812 125.9375 74.550781 125.789062 116.121094 C 125.761719 125.675781 125.453125 140.273438 129.578125 148.984375 C 134.753906 142.628906 140.015625 128.980469 142.851562 121.25 C 142.878906 126.640625 143.332031 132.910156 145.773438 140.523438 C 148.085938 140.625 198.113281 141.414062 223.421875 140.261719 Z M 223.421875 140.261719 " fill-opacity="1" fill-rule="nonzero"/><path fill="rgb(98.429871%, 79.60968%, 59.609985%)" d="M 128.378906 130.734375 C 126.636719 128.847656 123.976562 127.925781 122.484375 130.542969 C 120.324219 134.285156 120.554688 139.296875 120.863281 143.429688 C 121.113281 146.777344 121.535156 150.136719 122.414062 153.382812 C 123.171875 156.203125 124.210938 160.058594 126.710938 161.8125 C 127.28125 162.207031 128.070312 162.601562 128.789062 162.761719 C 129.183594 162.851562 131.578125 162.894531 130.777344 161.839844 " fill-opacity="1" fill-rule="nonzero"/><path fill="rgb(98.429871%, 79.60968%, 59.609985%)" d="M 245.234375 130.734375 C 246.972656 128.847656 249.632812 127.925781 251.125 130.542969 C 253.289062 134.285156 253.054688 139.296875 252.746094 143.429688 C 252.5 146.777344 252.074219 150.136719 251.199219 153.382812 C 250.4375 156.203125 249.398438 160.058594 246.898438 161.8125 C 246.328125 162.207031 245.539062 162.601562 244.824219 162.761719 C 244.429688 162.851562 242.03125 162.894531 242.835938 161.839844 " fill-opacity="1" fill-rule="nonzero"/></svg>