<svg xmlns="http://www.w3.org/2000/svg" xmlns:xlink="http://www.w3.org/1999/xlink" width="375" zoomAndPan="magnify" viewBox="0 0 375 374.999991" height="374.999991" preserveAspectRatio="xMidYMid meet" version="1.0"><path fill="rgb(66.668701%, 84.709167%, 95.689392%)" d="M 375.089844 187.574219 C 375.089844 234.171875 358.066406 276.832031 329.929688 309.628906 C 320.859375 320.199219 310.613281 329.753906 299.441406 338.058594 C 268.21875 361.328125 229.511719 375.089844 187.589844 375.089844 C 160.789062 375.089844 135.328125 369.472656 112.28125 359.34375 C 99.226562 353.625 86.964844 346.46875 75.675781 338.058594 C 64.519531 329.722656 54.300781 320.199219 45.230469 309.644531 C 17.097656 276.847656 0.0585938 234.1875 0.0585938 187.574219 C 0.0585938 84.011719 84.027344 0.0585938 187.589844 0.0585938 C 258.648438 0.0585938 320.476562 39.601562 352.289062 97.886719 C 366.828125 124.523438 375.089844 155.085938 375.089844 187.574219 Z M 375.089844 187.574219 " fill-opacity="1" fill-rule="nonzero"/><path fill="rgb(36.859131%, 75.689697%, 92.939758%)" d="M 375.089844 187.574219 C 375.089844 234.171875 358.066406 276.832031 329.929688 309.628906 C 320.859375 320.199219 310.613281 329.753906 299.441406 338.058594 C 268.21875 361.328125 229.511719 375.089844 187.589844 375.089844 C 160.789062 375.089844 135.328125 369.472656 112.28125 359.34375 L 196.378906 74.222656 L 239.921875 74.867188 L 268.144531 51.523438 L 352.289062 97.886719 C 366.828125 124.523438 375.089844 155.085938 375.089844 187.574219 Z M 375.089844 187.574219 " fill-opacity="1" fill-rule="nonzero"/><path fill="rgb(98.429871%, 79.60968%, 59.609985%)" d="M 124.511719 126.980469 C 122.644531 124.9375 119.777344 123.964844 118.160156 126.773438 C 115.835938 130.800781 116.070312 136.210938 116.410156 140.664062 C 116.691406 144.265625 117.128906 147.882812 118.070312 151.398438 C 118.878906 154.425781 119.996094 158.597656 122.703125 160.480469 C 123.320312 160.90625 124.15625 161.332031 124.9375 161.496094 C 125.363281 161.582031 127.949219 161.628906 127.066406 160.511719 " fill-opacity="1" fill-rule="nonzero"/><path fill="rgb(98.429871%, 79.60968%, 59.609985%)" d="M 250.429688 126.980469 C 252.296875 124.9375 255.164062 123.964844 256.78125 126.773438 C 259.105469 130.800781 258.867188 136.210938 258.53125 140.664062 C 258.25 144.265625 257.8125 147.882812 256.871094 151.398438 C 256.0625 154.425781 254.945312 158.597656 252.238281 160.480469 C 251.621094 160.90625 250.785156 161.332031 250.003906 161.496094 C 249.578125 161.582031 246.992188 161.628906 247.875 160.511719 " fill-opacity="1" fill-rule="nonzero"/><path fill="rgb(98.429871%, 79.60968%, 59.609985%)" d="M 329.929688 309.628906 C 320.859375 320.199219 310.628906 329.753906 299.441406 338.058594 L 75.675781 338.058594 C 64.503906 329.722656 54.289062 320.199219 45.230469 309.644531 C 53.730469 287.988281 71.738281 270.71875 94.960938 263.632812 L 133.625 248.785156 C 148.558594 243.875 147.882812 235.613281 147.882812 219.882812 L 147.882812 186.425781 L 227.25 186.425781 L 227.25 219.855469 C 227.25 235.597656 228.042969 244.949219 243.007812 249.84375 L 280.242188 263.585938 C 303.46875 270.703125 321.460938 287.976562 329.929688 309.628906 Z M 329.929688 309.628906 " fill-opacity="1" fill-rule="nonzero"/><path fill="rgb(98.039246%, 71.369934%, 19.60907%)" d="M 329.929688 309.628906 C 295.546875 349.699219 244.535156 375.089844 187.589844 375.089844 C 130.640625 375.089844 79.628906 349.699219 45.246094 309.644531 C 53.742188 287.988281 71.75 270.71875 94.976562 263.632812 L 133.640625 248.785156 C 137.988281 247.34375 141.019531 245.625 143.121094 243.523438 C 158.320312 257.503906 187.324219 297.132812 187.324219 297.132812 C 187.324219 297.132812 224.941406 252.09375 235.144531 245.960938 C 237.1875 247.476562 239.757812 248.769531 243.023438 249.84375 L 280.257812 263.585938 C 303.46875 270.703125 321.460938 287.976562 329.929688 309.628906 Z M 329.929688 309.628906 " fill-opacity="1" fill-rule="nonzero"/><path fill="rgb(98.429871%, 79.60968%, 59.609985%)" d="M 250.753906 120.160156 C 250.59375 75.351562 223.164062 43.160156 187.707031 43.160156 C 187.691406 43.160156 187.660156 43.160156 187.648438 43.160156 C 187.632812 43.160156 187.601562 43.160156 187.589844 43.160156 C 152.132812 43.160156 124.699219 75.351562 124.539062 120.160156 C 124.464844 140.59375 125.171875 154.042969 127.246094 168.875 C 133.699219 214.972656 176.136719 227.894531 187.589844 227.894531 C 201.625 227.894531 241.609375 214.972656 248.066406 168.875 C 250.121094 154.042969 250.828125 140.59375 250.753906 120.160156 Z M 250.753906 120.160156 " fill-opacity="1" fill-rule="nonzero"/><path fill="rgb(62.348938%, 32.548523%, 22.749329%)" d="M 237.449219 171.328125 C 230.703125 178.53125 221.796875 182.265625 210.992188 176.285156 C 207.832031 174.535156 205.140625 172.035156 201.980469 170.269531 C 193.277344 165.421875 182.164062 166.949219 173.375 171.625 C 166.625 175.210938 159.496094 181.074219 151.324219 179.195312 C 144.179688 177.5625 139.003906 171.050781 135.875 164.816406 C 129.976562 153.058594 126.289062 140.871094 124.539062 128.332031 C 124.671875 144.355469 125.4375 156.113281 127.230469 168.859375 C 133.683594 214.960938 176.121094 227.882812 187.574219 227.882812 C 201.613281 227.882812 241.597656 214.960938 248.050781 168.859375 C 249.003906 162.011719 249.667969 155.4375 250.109375 148.339844 C 247.695312 155.878906 243.417969 164.964844 237.449219 171.328125 Z M 237.449219 171.328125 " fill-opacity="1" fill-rule="nonzero"/><path fill="rgb(62.348938%, 32.548523%, 22.749329%)" d="M 250.753906 120.160156 C 250.679688 100.109375 245.140625 82.601562 235.878906 69.355469 C 233.6875 74.382812 231.453125 79.378906 229.085938 84.335938 C 229.261719 98.152344 229.292969 113.5 238.273438 124.699219 C 242.742188 130.257812 248.050781 134.269531 249.710938 141.636719 C 250.019531 143.003906 250.035156 144.574219 249.945312 146.207031 C 250.050781 146.058594 250.152344 145.898438 250.253906 145.75 C 250.652344 138.226562 250.796875 130.007812 250.753906 120.160156 Z M 250.753906 120.160156 " fill-opacity="1" fill-rule="nonzero"/><path fill="rgb(62.348938%, 32.548523%, 22.749329%)" d="M 133.140625 135.078125 C 133.300781 134.902344 133.449219 134.726562 133.609375 134.550781 C 136.695312 131.273438 140.886719 129.097656 143.546875 125.480469 C 149.25 117.734375 146.148438 106.265625 150.777344 97.828125 C 151.558594 96.402344 152.585938 95.066406 154.011719 94.285156 C 156.804688 92.742188 160.261719 93.714844 163.316406 94.609375 C 179.28125 99.253906 196.113281 100.945312 212.695312 99.550781 C 229.191406 98.167969 243.917969 87.613281 255.515625 76.277344 C 262.382812 69.574219 269.175781 61.078125 268.144531 51.523438 C 260.308594 57.710938 248.992188 57.210938 239.554688 53.949219 C 230.117188 50.6875 221.632812 45.085938 212.242188 41.691406 C 194.921875 35.425781 165.847656 39.675781 147.691406 54.332031 C 125.214844 72.484375 124.628906 92.667969 124.523438 120.160156 C 124.480469 131.976562 124.863281 143.707031 125.597656 155.511719 C 126.847656 148.265625 128.300781 140.578125 133.140625 135.078125 Z M 133.140625 135.078125 " fill-opacity="1" fill-rule="nonzero"/></svg>