<svg xmlns="http://www.w3.org/2000/svg" xmlns:xlink="http://www.w3.org/1999/xlink" width="375" zoomAndPan="magnify" viewBox="0 0 375 374.999991" height="374.999991" preserveAspectRatio="xMidYMid meet" version="1.0"><path fill="rgb(100%, 86.669922%, 23.529053%)" d="M 375.089844 187.574219 C 375.089844 234.171875 358.066406 276.832031 329.929688 309.628906 C 320.859375 320.199219 310.613281 329.753906 299.441406 338.058594 C 268.21875 361.328125 229.511719 375.089844 187.589844 375.089844 C 160.789062 375.089844 135.328125 369.472656 112.28125 359.34375 C 99.226562 353.625 86.964844 346.46875 75.675781 338.058594 C 64.519531 329.722656 54.300781 320.199219 45.230469 309.644531 C 17.097656 276.847656 0.0585938 234.1875 0.0585938 187.574219 C 0.0585938 84.011719 84.027344 0.0585938 187.589844 0.0585938 C 258.648438 0.0585938 320.476562 39.601562 352.289062 97.886719 C 366.828125 124.523438 375.089844 155.085938 375.089844 187.574219 Z M 375.089844 187.574219 " fill-opacity="1" fill-rule="nonzero"/><path fill="rgb(98.81897%, 76.469421%, 23.919678%)" d="M 375.089844 187.574219 C 375.089844 234.171875 358.066406 276.832031 329.929688 309.628906 C 320.859375 320.199219 310.613281 329.753906 299.441406 338.058594 C 268.21875 361.328125 229.511719 375.089844 187.589844 375.089844 C 160.789062 375.089844 135.328125 369.472656 112.28125 359.34375 L 196.378906 74.222656 L 213.269531 51.523438 L 244.300781 44.453125 L 352.273438 97.886719 C 366.828125 124.523438 375.089844 155.085938 375.089844 187.574219 Z M 375.089844 187.574219 " fill-opacity="1" fill-rule="nonzero"/><path fill="rgb(98.429871%, 79.60968%, 59.609985%)" d="M 124.511719 126.980469 C 122.644531 124.9375 119.777344 123.964844 118.160156 126.773438 C 115.835938 130.800781 116.070312 136.210938 116.410156 140.664062 C 116.691406 144.265625 117.128906 147.882812 118.070312 151.398438 C 118.878906 154.425781 119.996094 158.597656 122.703125 160.480469 C 123.320312 160.90625 124.15625 161.332031 124.9375 161.496094 C 125.363281 161.582031 127.949219 161.628906 127.066406 160.511719 " fill-opacity="1" fill-rule="nonzero"/><path fill="rgb(98.429871%, 79.60968%, 59.609985%)" d="M 250.429688 126.980469 C 252.296875 124.9375 255.164062 123.964844 256.78125 126.773438 C 259.105469 130.800781 258.867188 136.210938 258.53125 140.664062 C 258.25 144.265625 257.8125 147.882812 256.871094 151.398438 C 256.0625 154.425781 254.945312 158.597656 252.238281 160.480469 C 251.621094 160.90625 250.785156 161.332031 250.003906 161.496094 C 249.578125 161.582031 246.992188 161.628906 247.875 160.511719 " fill-opacity="1" fill-rule="nonzero"/><path fill="rgb(91.758728%, 74.899292%, 56.079102%)" d="M 329.929688 309.628906 C 320.859375 320.199219 310.628906 329.753906 299.441406 338.058594 L 75.675781 338.058594 C 64.503906 329.722656 54.289062 320.199219 45.230469 309.644531 C 53.730469 287.988281 71.738281 270.71875 94.960938 263.632812 L 133.625 248.785156 C 148.558594 243.875 147.882812 235.613281 147.882812 219.882812 L 147.882812 186.425781 L 227.25 186.425781 L 227.25 219.855469 C 227.25 235.597656 228.042969 244.949219 243.007812 249.84375 L 280.242188 263.585938 C 303.46875 270.703125 321.460938 287.976562 329.929688 309.628906 Z M 329.929688 309.628906 " fill-opacity="1" fill-rule="nonzero"/><path fill="rgb(100%, 100%, 100%)" d="M 329.929688 309.628906 C 295.546875 349.699219 244.535156 375.089844 187.589844 375.089844 C 130.640625 375.089844 79.628906 349.699219 45.246094 309.644531 C 53.742188 287.988281 71.75 270.71875 94.976562 263.632812 L 133.640625 248.785156 C 137.988281 247.34375 141.019531 245.625 143.121094 243.523438 C 158.320312 257.503906 181.414062 260.148438 201.507812 257.324219 C 212.886719 255.722656 224.941406 252.09375 235.144531 245.960938 C 237.1875 247.476562 239.757812 248.769531 243.023438 249.84375 L 280.257812 263.585938 C 303.46875 270.703125 321.460938 287.976562 329.929688 309.628906 Z M 329.929688 309.628906 " fill-opacity="1" fill-rule="nonzero"/><path fill="rgb(3.529358%, 15.689087%, 21.958923%)" d="M 142.3125 244.273438 C 140.269531 246.035156 137.460938 247.519531 133.640625 248.785156 L 94.976562 263.632812 C 71.75 270.71875 53.742188 287.988281 45.246094 309.644531 C 70.207031 338.71875 103.929688 360.050781 142.3125 369.574219 Z M 142.3125 244.273438 " fill-opacity="1" fill-rule="nonzero"/><path fill="rgb(3.529358%, 15.689087%, 21.958923%)" d="M 280.257812 263.585938 L 243.023438 249.84375 C 240.949219 249.167969 239.199219 248.386719 237.640625 247.535156 L 237.640625 368.324219 C 274.054688 358.269531 306.011719 337.515625 329.929688 309.628906 C 321.460938 287.976562 303.46875 270.703125 280.257812 263.585938 Z M 280.257812 263.585938 " fill-opacity="1" fill-rule="nonzero"/><path fill="rgb(98.429871%, 79.60968%, 59.609985%)" d="M 250.753906 120.160156 C 250.59375 75.351562 223.164062 43.160156 187.707031 43.160156 C 187.691406 43.160156 187.660156 43.160156 187.648438 43.160156 C 187.632812 43.160156 187.601562 43.160156 187.589844 43.160156 C 152.132812 43.160156 124.699219 75.351562 124.539062 120.160156 C 124.464844 140.59375 125.171875 154.042969 127.246094 168.875 C 133.699219 214.972656 176.136719 227.894531 187.589844 227.894531 C 201.625 227.894531 241.609375 214.972656 248.066406 168.875 C 250.121094 154.042969 250.828125 140.59375 250.753906 120.160156 Z M 250.753906 120.160156 " fill-opacity="1" fill-rule="nonzero"/><path fill="rgb(26.669312%, 11.369324%, 0%)" d="M 237.449219 171.328125 C 230.367188 178.902344 220.0625 181.398438 210.609375 176.546875 C 206.917969 174.652344 203.789062 171.800781 200.113281 169.890625 C 193.425781 166.421875 185.191406 166.421875 178.195312 169.242188 C 173.960938 170.949219 170.199219 173.609375 166.082031 175.578125 C 160.9375 178.03125 152.703125 179.578125 147.175781 177.429688 C 141.8125 175.359375 138.34375 169.726562 135.875 164.832031 C 129.976562 153.074219 126.289062 140.886719 124.539062 128.347656 C 124.671875 144.371094 125.4375 156.128906 127.230469 168.875 C 133.683594 214.972656 176.121094 227.894531 187.574219 227.894531 C 201.613281 227.894531 241.597656 214.972656 248.050781 168.875 C 249.003906 162.023438 250.328125 147.796875 250.753906 140.695312 C 248.359375 148.222656 243.417969 164.964844 237.449219 171.328125 Z M 205.214844 202.523438 C 204.507812 202.742188 203.789062 202.875 203.050781 202.890625 C 196.761719 203.039062 193.761719 192.675781 187.234375 195.378906 C 180.5625 198.144531 176.796875 208.710938 168.007812 199.054688 C 159.921875 190.160156 172.066406 183.164062 177.519531 180.253906 C 188.71875 174.269531 203.347656 177.59375 211.742188 187.574219 C 215.886719 192.527344 210.960938 200.671875 205.214844 202.523438 Z M 205.214844 202.523438 " fill-opacity="1" fill-rule="nonzero"/><path fill="rgb(26.669312%, 11.369324%, 0%)" d="M 250.753906 120.160156 C 250.679688 100.109375 245.140625 82.601562 235.878906 69.355469 C 233.6875 74.382812 231.453125 79.378906 229.085938 84.335938 C 227.761719 87.113281 229.261719 94.257812 229.46875 97.34375 C 229.792969 102.152344 230.410156 106.972656 231.734375 111.617188 C 233.71875 118.554688 234.761719 126.789062 239.933594 132.285156 C 241.050781 133.476562 242.433594 134.375 243.59375 135.519531 C 245.183594 137.109375 246.285156 139.179688 246.710938 141.386719 C 247.285156 144.355469 246.886719 147.925781 249.226562 149.839844 C 252.652344 140.828125 250.785156 129.742188 250.753906 120.160156 Z M 250.753906 120.160156 " fill-opacity="1" fill-rule="nonzero"/><path fill="rgb(26.669312%, 11.369324%, 0%)" d="M 133.59375 135.460938 C 135.066406 133.742188 136.652344 132.140625 138.238281 130.667969 C 141.8125 127.40625 144.753906 124.039062 146.015625 119.292969 C 147.414062 114.074219 146.972656 108.546875 148.5 103.34375 C 149.03125 101.535156 149.824219 99.742188 151.117188 98.375 C 153.734375 95.625 158.011719 95.066406 161.730469 95.875 C 165.449219 96.667969 168.800781 98.609375 172.210938 100.253906 C 189.085938 108.398438 209.875 109.53125 226.351562 100.609375 C 236.65625 95.023438 245.566406 85.628906 257.238281 84.628906 C 259.296875 84.453125 261.648438 84.671875 262.941406 86.273438 C 258.664062 77.25 249.050781 71 239.066406 70.765625 C 239.496094 67.914062 242.492188 66.28125 245.183594 65.238281 C 252.238281 62.488281 259.648438 60.667969 267.160156 59.816406 C 257.429688 52.613281 244.332031 50.15625 232.644531 53.363281 C 234.363281 48.613281 239.566406 46.277344 244.273438 44.421875 C 236.9375 37.351562 226.101562 35.296875 215.914062 34.972656 C 195.394531 34.308594 174.726562 39.457031 156.910156 49.640625 C 155.070312 50.6875 153.21875 51.816406 151.132812 52.171875 C 149.042969 52.523438 146.648438 51.921875 145.5 50.15625 C 143.945312 47.761719 145.28125 44.601562 146.617188 42.070312 C 130.625 47.847656 126.449219 67.386719 124.613281 82.246094 C 121.597656 106.457031 123.746094 130.992188 125.890625 155.308594 C 125.257812 147.839844 128.859375 141.019531 133.59375 135.460938 Z M 133.59375 135.460938 " fill-opacity="1" fill-rule="nonzero"/></svg>