<svg xmlns="http://www.w3.org/2000/svg" xmlns:xlink="http://www.w3.org/1999/xlink" width="375" zoomAndPan="magnify" viewBox="0 0 375 374.999991" height="374.999991" preserveAspectRatio="xMidYMid meet" version="1.0"><path fill="rgb(100%, 86.669922%, 23.529053%)" d="M 375.089844 187.574219 C 375.089844 234.171875 358.066406 276.832031 329.929688 309.628906 C 320.859375 320.199219 310.613281 329.753906 299.441406 338.058594 C 268.21875 361.328125 229.511719 375.089844 187.589844 375.089844 C 160.789062 375.089844 135.328125 369.472656 112.28125 359.34375 C 99.226562 353.625 86.964844 346.46875 75.675781 338.058594 C 64.519531 329.722656 54.300781 320.199219 45.230469 309.644531 C 17.097656 276.847656 0.0585938 234.1875 0.0585938 187.574219 C 0.0585938 84.011719 84.027344 0.0585938 187.589844 0.0585938 C 258.648438 0.0585938 320.476562 39.601562 352.289062 97.886719 C 366.828125 124.523438 375.089844 155.085938 375.089844 187.574219 Z M 375.089844 187.574219 " fill-opacity="1" fill-rule="nonzero"/><path fill="rgb(98.81897%, 76.469421%, 23.919678%)" d="M 375.089844 187.574219 C 375.089844 234.171875 358.066406 276.832031 329.929688 309.628906 C 320.859375 320.199219 310.613281 329.753906 299.441406 338.058594 C 268.21875 361.328125 229.511719 375.089844 187.589844 375.089844 C 160.789062 375.089844 135.328125 369.472656 112.28125 359.34375 L 196.378906 74.222656 L 187.324219 51.523438 L 233.101562 55.917969 L 352.289062 97.886719 C 366.828125 124.523438 375.089844 155.085938 375.089844 187.574219 Z M 375.089844 187.574219 " fill-opacity="1" fill-rule="nonzero"/><path fill="rgb(98.429871%, 79.60968%, 59.609985%)" d="M 124.511719 126.980469 C 122.644531 124.9375 119.777344 123.964844 118.160156 126.773438 C 115.835938 130.800781 116.070312 136.210938 116.410156 140.664062 C 116.691406 144.265625 117.128906 147.882812 118.070312 151.398438 C 118.878906 154.425781 119.996094 158.601562 122.703125 160.480469 C 123.320312 160.90625 124.15625 161.332031 124.9375 161.496094 C 125.363281 161.582031 127.949219 161.628906 127.066406 160.511719 " fill-opacity="1" fill-rule="nonzero"/><path fill="rgb(98.429871%, 79.60968%, 59.609985%)" d="M 250.429688 126.980469 C 252.296875 124.9375 255.164062 123.964844 256.78125 126.773438 C 259.105469 130.800781 258.867188 136.210938 258.53125 140.664062 C 258.25 144.265625 257.8125 147.882812 256.871094 151.398438 C 256.0625 154.425781 254.945312 158.601562 252.238281 160.480469 C 251.621094 160.90625 250.785156 161.332031 250.003906 161.496094 C 249.578125 161.582031 246.992188 161.628906 247.875 160.511719 " fill-opacity="1" fill-rule="nonzero"/><path fill="rgb(90.979004%, 74.119568%, 55.688477%)" d="M 329.929688 309.628906 C 320.859375 320.199219 310.628906 329.753906 299.441406 338.058594 L 75.675781 338.058594 C 64.503906 329.722656 54.289062 320.199219 45.230469 309.644531 C 53.730469 287.988281 71.738281 270.71875 94.960938 263.632812 L 133.625 248.785156 C 148.558594 243.875 147.882812 235.613281 147.882812 219.882812 L 147.882812 186.425781 L 227.25 186.425781 L 227.25 219.855469 C 227.25 235.597656 228.042969 244.949219 243.007812 249.84375 L 280.242188 263.589844 C 303.46875 270.703125 321.460938 287.976562 329.929688 309.628906 Z M 329.929688 309.628906 " fill-opacity="1" fill-rule="nonzero"/><path fill="rgb(36.859131%, 75.689697%, 92.939758%)" d="M 329.929688 309.628906 C 295.546875 349.703125 244.535156 375.089844 187.589844 375.089844 C 130.640625 375.089844 79.628906 349.703125 45.246094 309.644531 C 53.742188 287.988281 71.75 270.71875 94.976562 263.632812 L 133.640625 248.785156 C 137.988281 247.34375 141.019531 245.625 143.121094 243.523438 C 143.265625 243.667969 143.429688 243.800781 143.574219 243.949219 C 168.347656 267.128906 206.375 268.792969 232.863281 247.59375 C 233.71875 246.902344 234.480469 246.359375 235.128906 245.960938 C 237.171875 247.476562 239.746094 248.769531 243.007812 249.84375 L 280.242188 263.589844 C 303.46875 270.703125 321.460938 287.976562 329.929688 309.628906 Z M 329.929688 309.628906 " fill-opacity="1" fill-rule="nonzero"/><path fill="rgb(3.529358%, 15.689087%, 21.958923%)" d="M 133.640625 248.785156 L 94.976562 263.632812 C 71.75 270.71875 53.742188 287.988281 45.246094 309.644531 C 73.664062 342.761719 116.203125 369.222656 172.136719 374.457031 C 156.378906 332.074219 147.941406 288.167969 133.640625 248.785156 Z M 133.640625 248.785156 " fill-opacity="1" fill-rule="nonzero"/><path fill="rgb(3.529358%, 15.689087%, 21.958923%)" d="M 280.242188 263.589844 L 248.769531 251.976562 C 231.527344 291.578125 218.546875 332.855469 205.757812 374.207031 C 255.3125 369.429688 299.222656 345.394531 329.898438 309.628906 C 321.460938 287.976562 303.46875 270.703125 280.242188 263.589844 Z M 280.242188 263.589844 " fill-opacity="1" fill-rule="nonzero"/><path fill="rgb(98.429871%, 79.60968%, 59.609985%)" d="M 250.753906 120.160156 C 250.59375 75.351562 222.78125 51.523438 187.324219 51.523438 C 187.308594 51.523438 187.339844 51.523438 187.324219 51.523438 C 187.308594 51.523438 184.648438 48.597656 184.617188 48.597656 C 149.160156 48.597656 124.671875 75.351562 124.523438 120.171875 C 124.453125 140.605469 125.15625 154.058594 127.230469 168.890625 C 133.683594 214.988281 176.121094 227.910156 187.574219 227.910156 C 201.613281 227.910156 241.597656 214.988281 248.050781 168.890625 C 250.121094 154.042969 250.828125 140.59375 250.753906 120.160156 Z M 250.753906 120.160156 " fill-opacity="1" fill-rule="nonzero"/><path fill="rgb(65.098572%, 41.569519%, 26.269531%)" d="M 130.226562 134.242188 C 131.714844 122.980469 135.933594 113.21875 141.945312 103.238281 C 144.253906 99.417969 147.324219 95.34375 151.765625 94.832031 C 156.4375 94.285156 160.4375 97.859375 163.996094 100.945312 C 169.152344 105.429688 174.902344 109.457031 181.445312 111.472656 C 187.984375 113.484375 195.4375 113.292969 201.304688 109.75 C 206.726562 106.472656 210.683594 100.519531 216.886719 99.152344 C 221.222656 98.195312 225.824219 99.84375 229.320312 102.5625 C 232.835938 105.296875 235.40625 109.015625 237.804688 112.765625 C 244.757812 123.703125 248.300781 134.886719 249.429688 147.898438 C 248.136719 132.960938 253.519531 117.628906 254.445312 102.738281 C 255.089844 92.359375 254.664062 81.910156 253.164062 71.617188 C 252.636719 68.019531 250.785156 47.394531 247.402344 45.644531 C 245.652344 44.746094 244.332031 47.527344 242.507812 48.261719 C 240.066406 49.261719 237.863281 46.261719 237.332031 43.675781 C 236.804688 41.085938 236.539062 37.925781 234.1875 36.734375 C 229.484375 34.367188 225.117188 43.203125 220.0625 41.734375 C 217.179688 40.894531 216.339844 37.324219 215.429688 34.472656 C 214.519531 31.605469 211.726562 28.445312 209.066406 29.828125 C 208.066406 30.355469 207.449219 31.398438 206.859375 32.355469 C 204.449219 36.28125 201.023438 39.984375 196.511719 40.910156 C 191.085938 42.011719 185.148438 38.160156 183.941406 32.753906 C 183.558594 31.046875 183.308594 28.871094 181.648438 28.328125 C 180.839844 28.0625 179.957031 28.3125 179.164062 28.621094 C 175.210938 30.136719 171.742188 32.914062 169.390625 36.425781 C 167.726562 38.910156 166.582031 41.808594 164.40625 43.867188 C 162.230469 45.921875 158.453125 46.789062 156.335938 44.671875 C 154.703125 43.027344 154.761719 40.410156 154.527344 38.101562 C 154.292969 35.792969 153.160156 33.0625 150.851562 32.839844 C 148.617188 32.621094 147.03125 34.882812 145.941406 36.839844 C 143.886719 40.574219 141.386719 48.039062 137.785156 50.082031 C 136.0625 47.613281 134.769531 44.761719 133.34375 42.070312 C 132.609375 40.691406 131.699219 39.148438 130.15625 38.835938 C 127.554688 38.339844 125.949219 41.527344 125.320312 44.101562 C 120.9375 61.859375 118.394531 80.058594 117.746094 98.328125 C 117.1875 114.058594 123.964844 128.464844 124.890625 144.339844 C 125.039062 146.972656 124.890625 149.191406 124.613281 151.691406 C 124.390625 153.71875 124.714844 156.351562 125.363281 158.246094 C 123.261719 152.042969 129.375 141.796875 130.097656 135.445312 C 130.125 135.066406 130.183594 134.652344 130.226562 134.242188 Z M 130.226562 134.242188 " fill-opacity="1" fill-rule="nonzero"/></svg>