<svg xmlns="http://www.w3.org/2000/svg" xmlns:xlink="http://www.w3.org/1999/xlink" width="375" zoomAndPan="magnify" viewBox="0 0 375 374.999991" height="374.999991" preserveAspectRatio="xMidYMid meet" version="1.0"><path fill="rgb(59.609985%, 77.648926%, 38.42926%)" d="M 375.089844 187.574219 C 375.089844 234.171875 358.066406 276.832031 329.929688 309.628906 C 320.859375 320.199219 310.613281 329.753906 299.441406 338.058594 C 268.21875 361.328125 229.511719 375.089844 187.589844 375.089844 C 160.789062 375.089844 135.328125 369.472656 112.28125 359.34375 C 99.226562 353.625 86.964844 346.46875 75.675781 338.058594 C 64.519531 329.722656 54.300781 320.199219 45.230469 309.644531 C 17.097656 276.847656 0.0585938 234.1875 0.0585938 187.574219 C 0.0585938 84.011719 84.027344 0.0585938 187.589844 0.0585938 C 258.648438 0.0585938 320.476562 39.601562 352.289062 97.886719 C 366.828125 124.523438 375.089844 155.085938 375.089844 187.574219 Z M 375.089844 187.574219 " fill-opacity="1" fill-rule="nonzero"/><path fill="rgb(34.509277%, 70.588684%, 39.608765%)" d="M 375.089844 187.574219 C 375.089844 234.171875 358.066406 276.832031 329.929688 309.628906 C 320.859375 320.199219 310.613281 329.753906 299.441406 338.058594 C 268.21875 361.328125 229.511719 375.089844 187.589844 375.089844 C 160.789062 375.089844 135.328125 369.472656 112.28125 359.34375 L 196.378906 74.222656 L 239.921875 74.867188 L 211.242188 42.9375 L 352.289062 97.875 C 366.828125 124.523438 375.089844 155.085938 375.089844 187.574219 Z M 375.089844 187.574219 " fill-opacity="1" fill-rule="nonzero"/><path fill="rgb(98.429871%, 79.60968%, 59.609985%)" d="M 124.511719 126.980469 C 122.644531 124.9375 119.777344 123.964844 118.160156 126.773438 C 115.835938 130.800781 116.070312 136.210938 116.410156 140.664062 C 116.691406 144.265625 117.128906 147.882812 118.070312 151.398438 C 118.878906 154.425781 119.996094 158.597656 122.703125 160.480469 C 123.320312 160.90625 124.15625 161.332031 124.9375 161.496094 C 125.363281 161.582031 127.949219 161.628906 127.066406 160.511719 " fill-opacity="1" fill-rule="nonzero"/><path fill="rgb(98.429871%, 79.60968%, 59.609985%)" d="M 250.429688 126.980469 C 252.296875 124.9375 255.164062 123.964844 256.78125 126.773438 C 259.105469 130.800781 258.867188 136.210938 258.53125 140.664062 C 258.25 144.265625 257.8125 147.882812 256.871094 151.398438 C 256.0625 154.425781 254.945312 158.597656 252.238281 160.480469 C 251.621094 160.90625 250.785156 161.332031 250.003906 161.496094 C 249.578125 161.582031 246.992188 161.628906 247.875 160.511719 " fill-opacity="1" fill-rule="nonzero"/><path fill="rgb(92.549133%, 75.289917%, 56.469727%)" d="M 329.929688 309.628906 C 320.859375 320.199219 310.628906 329.753906 299.441406 338.058594 L 75.675781 338.058594 C 64.503906 329.722656 54.289062 320.199219 45.230469 309.644531 C 53.730469 287.988281 71.738281 270.71875 94.960938 263.632812 L 133.625 248.785156 C 148.558594 243.875 147.882812 235.613281 147.882812 219.882812 L 147.882812 186.425781 L 227.25 186.425781 L 227.25 219.855469 C 227.25 235.597656 228.042969 244.949219 243.007812 249.84375 L 280.242188 263.585938 C 303.46875 270.703125 321.460938 287.976562 329.929688 309.628906 Z M 329.929688 309.628906 " fill-opacity="1" fill-rule="nonzero"/><path fill="rgb(100%, 86.669922%, 23.529053%)" d="M 280.242188 263.585938 L 249.667969 252.296875 C 218.753906 283.710938 149.96875 286.050781 127.066406 251.296875 L 94.960938 263.632812 C 71.738281 270.71875 53.730469 287.988281 45.230469 309.644531 C 79.617188 349.699219 130.625 375.089844 187.574219 375.089844 C 244.523438 375.089844 295.53125 349.699219 329.914062 309.628906 C 321.460938 287.976562 303.453125 270.703125 280.242188 263.585938 Z M 280.242188 263.585938 " fill-opacity="1" fill-rule="nonzero"/><path fill="rgb(98.429871%, 79.60968%, 59.609985%)" d="M 250.753906 120.160156 C 250.59375 75.351562 223.105469 50.097656 187.632812 50.097656 C 187.617188 50.097656 187.632812 57.035156 187.632812 50.097656 C 187.632812 50.082031 187.648438 50.097656 187.632812 50.097656 C 152.175781 50.097656 124.671875 75.351562 124.511719 120.160156 C 124.4375 140.59375 125.140625 154.042969 127.214844 168.875 C 133.667969 214.972656 176.105469 227.894531 187.558594 227.894531 C 201.597656 227.894531 241.582031 214.972656 248.035156 168.875 C 250.121094 154.042969 250.828125 140.59375 250.753906 120.160156 Z M 250.753906 120.160156 " fill-opacity="1" fill-rule="nonzero"/><path fill="rgb(3.529358%, 15.689087%, 21.958923%)" d="M 255.019531 115.527344 C 254.957031 113.308594 254.855469 111.132812 254.707031 109.046875 C 254.136719 100.859375 252.105469 93.375 249.476562 85.644531 C 248.253906 82.042969 247.695312 74.824219 245.050781 72 C 236.1875 62.535156 231.628906 78.984375 229.070312 84.347656 C 227.335938 87.996094 229.367188 97.492188 229.808594 101.488281 C 230.484375 107.546875 231.910156 113.234375 234.453125 118.777344 C 239.40625 129.566406 247.84375 136.769531 247.035156 149.792969 C 248.375 150.457031 250.050781 149.382812 250.59375 147.984375 C 254.328125 138.386719 255.28125 126.347656 255.019531 115.527344 Z M 255.019531 115.527344 " fill-opacity="1" fill-rule="nonzero"/><path fill="rgb(3.529358%, 15.689087%, 21.958923%)" d="M 131.109375 136.800781 C 132.859375 135.007812 135.066406 133.535156 136.84375 131.726562 C 142.988281 125.523438 140.722656 117.746094 144.882812 110.925781 C 147.117188 107.265625 151.957031 104.828125 155.792969 106.707031 C 160.214844 108.882812 161.128906 115.335938 165.539062 117.527344 C 166.773438 118.144531 168.167969 118.351562 169.535156 118.496094 C 181.3125 119.792969 193.484375 117.1875 203.699219 111.191406 C 202.199219 113.425781 202.246094 116.585938 203.800781 118.777344 C 218.457031 114.96875 231.835938 106.324219 241.316406 94.523438 C 248.695312 85.335938 245.992188 74.441406 240.023438 65.035156 C 238.070312 61.960938 235.804688 58.992188 232.761719 56.976562 C 229.058594 54.523438 224.53125 53.699219 220.148438 52.921875 C 215.652344 52.125 211.152344 51.332031 206.640625 50.539062 C 208.300781 48.394531 210.253906 46.480469 212.429688 44.863281 C 202.230469 41.675781 191.277344 46.128906 180.578125 45.777344 C 180.929688 42.835938 182.382812 40.042969 184.605469 38.074219 C 177.386719 38.191406 170.199219 39.425781 163.347656 41.644531 C 153.25 44.910156 143.839844 50.289062 135.933594 57.375 C 132.460938 60.492188 128.140625 64.210938 126.363281 68.574219 C 124.453125 73.265625 123.246094 78.941406 122.214844 83.921875 C 117.484375 107.191406 121.21875 131.050781 121.863281 154.5 C 121.894531 155.496094 121.980469 156.644531 122.773438 157.261719 C 123.644531 157.953125 125.011719 157.613281 125.773438 156.804688 C 126.539062 155.996094 126.847656 154.867188 127.066406 153.777344 C 127.433594 152 127.65625 150.191406 127.730469 148.382812 C 127.847656 145.589844 127.640625 142.679688 128.773438 140.105469 C 129.316406 138.855469 130.140625 137.785156 131.109375 136.800781 Z M 131.109375 136.800781 " fill-opacity="1" fill-rule="nonzero"/></svg>