<svg xmlns="http://www.w3.org/2000/svg" xmlns:xlink="http://www.w3.org/1999/xlink" width="375" zoomAndPan="magnify" viewBox="0 0 375 374.999991" height="374.999991" preserveAspectRatio="xMidYMid meet" version="1.0"><path fill="rgb(66.668701%, 84.709167%, 95.689392%)" d="M 375.089844 187.574219 C 375.089844 234.171875 358.066406 276.832031 329.929688 309.628906 C 320.859375 320.199219 310.613281 329.753906 299.441406 338.058594 C 268.21875 361.328125 229.511719 375.089844 187.589844 375.089844 C 160.789062 375.089844 135.328125 369.472656 112.28125 359.34375 C 99.226562 353.625 86.964844 346.46875 75.675781 338.058594 C 64.519531 329.722656 54.300781 320.199219 45.230469 309.644531 C 17.097656 276.847656 0.0585938 234.1875 0.0585938 187.574219 C 0.0585938 84.011719 84.027344 0.0585938 187.589844 0.0585938 C 258.648438 0.0585938 320.476562 39.601562 352.289062 97.886719 C 366.828125 124.523438 375.089844 155.085938 375.089844 187.574219 Z M 375.089844 187.574219 " fill-opacity="1" fill-rule="nonzero"/><path fill="rgb(36.859131%, 75.689697%, 92.939758%)" d="M 375.089844 187.574219 C 375.089844 234.171875 358.066406 276.832031 329.929688 309.628906 C 320.859375 320.199219 310.613281 329.753906 299.441406 338.058594 C 268.21875 361.328125 229.511719 375.089844 187.589844 375.089844 C 160.789062 375.089844 135.328125 369.472656 112.28125 359.34375 L 196.378906 74.222656 L 239.921875 74.867188 L 234.113281 45.9375 L 352.289062 97.886719 C 366.828125 124.523438 375.089844 155.085938 375.089844 187.574219 Z M 375.089844 187.574219 " fill-opacity="1" fill-rule="nonzero"/><path fill="rgb(27.839661%, 13.729858%, 7.058716%)" d="M 155.117188 39.484375 C 145.839844 42.761719 137.710938 48.6875 130.300781 55.167969 C 108.191406 74.5 94.34375 102.09375 95.125 131.917969 C 95.167969 133.402344 95.316406 135.050781 96.386719 136.078125 C 97.519531 137.167969 99.210938 136.695312 99.886719 135.445312 C 100.371094 138.929688 99.242188 140.679688 97.933594 143.636719 C 96.269531 147.355469 95.742188 151.457031 95.242188 155.484375 C 94.09375 164.816406 94.34375 174.328125 96.035156 183.574219 C 96.316406 185.117188 96.800781 186.867188 98.226562 187.53125 C 100.226562 188.46875 102.945312 186.675781 104.648438 188.074219 C 105.238281 188.558594 105.53125 189.324219 105.738281 190.058594 C 106.855469 194.042969 106.457031 198.273438 106.148438 202.40625 C 105.839844 206.535156 105.648438 210.8125 107.148438 214.679688 C 108.648438 218.546875 112.28125 221.867188 116.410156 221.722656 C 118.792969 221.632812 120.996094 220.457031 123.347656 220.105469 C 122.9375 220.164062 124.863281 228.351562 125.082031 229.085938 C 125.9375 231.96875 126.6875 233.378906 128.773438 235.335938 C 132.949219 239.257812 138.371094 241.597656 143.707031 243.464844 C 152.5 246.550781 162.4375 249.300781 170.84375 245.285156 C 179.105469 241.347656 183.238281 232.160156 186.707031 223.691406 C 193.1875 207.859375 199.714844 191.910156 202.847656 175.09375 C 205.507812 160.746094 205.65625 146.074219 205.667969 131.476562 C 205.699219 115.585938 205.597656 99.578125 202.625 83.96875 C 200.039062 70.398438 198.320312 55.949219 190.632812 44.496094 C 183.089844 33.265625 167.625 35.058594 155.117188 39.484375 Z M 155.117188 39.484375 " fill-opacity="1" fill-rule="nonzero"/><path fill="rgb(27.839661%, 13.729858%, 7.058716%)" d="M 221.308594 39.484375 C 230.585938 42.761719 238.714844 48.6875 246.125 55.167969 C 268.234375 74.5 282.082031 102.09375 281.300781 131.917969 C 281.257812 133.402344 281.109375 135.050781 280.039062 136.078125 C 278.90625 137.167969 277.214844 136.695312 276.539062 135.445312 C 276.054688 138.929688 277.183594 140.679688 278.492188 143.636719 C 280.15625 147.355469 280.683594 151.457031 281.183594 155.484375 C 282.332031 164.816406 282.082031 174.328125 280.390625 183.574219 C 280.109375 185.117188 279.625 186.867188 278.199219 187.53125 C 276.199219 188.46875 273.480469 186.675781 271.777344 188.074219 C 271.1875 188.558594 270.894531 189.324219 270.6875 190.058594 C 269.570312 194.042969 269.96875 198.273438 270.277344 202.40625 C 270.585938 206.535156 270.777344 210.8125 269.277344 214.679688 C 267.777344 218.546875 264.144531 221.867188 260.015625 221.722656 C 257.632812 221.632812 255.429688 220.457031 253.078125 220.105469 C 253.488281 220.164062 251.5625 228.351562 251.34375 229.085938 C 250.488281 231.96875 249.742188 233.378906 247.652344 235.335938 C 243.476562 239.257812 238.054688 241.597656 232.71875 243.464844 C 223.925781 246.550781 213.988281 249.300781 205.582031 245.285156 C 197.320312 241.347656 193.1875 232.160156 189.71875 223.691406 C 183.238281 207.859375 176.710938 191.910156 173.578125 175.09375 C 170.917969 160.746094 170.769531 146.074219 170.757812 131.476562 C 170.726562 115.585938 170.832031 99.578125 173.800781 83.96875 C 176.386719 70.398438 178.105469 55.949219 185.792969 44.496094 C 193.351562 33.265625 208.800781 35.058594 221.308594 39.484375 Z M 221.308594 39.484375 " fill-opacity="1" fill-rule="nonzero"/><path fill="rgb(97.24884%, 72.549438%, 58.039856%)" d="M 124.511719 126.980469 C 122.644531 124.9375 119.777344 123.964844 118.160156 126.773438 C 115.835938 130.800781 116.070312 136.210938 116.410156 140.664062 C 116.691406 144.265625 117.128906 147.882812 118.070312 151.398438 C 118.878906 154.425781 119.996094 158.597656 122.703125 160.480469 C 123.320312 160.90625 124.15625 161.332031 124.9375 161.496094 C 125.363281 161.582031 127.949219 161.628906 127.066406 160.511719 " fill-opacity="1" fill-rule="nonzero"/><path fill="rgb(97.24884%, 72.549438%, 58.039856%)" d="M 250.429688 126.980469 C 252.296875 124.9375 255.164062 123.964844 256.78125 126.773438 C 259.105469 130.800781 258.867188 136.210938 258.53125 140.664062 C 258.25 144.265625 257.8125 147.882812 256.871094 151.398438 C 256.0625 154.425781 254.945312 158.597656 252.238281 160.480469 C 251.621094 160.90625 250.785156 161.332031 250.003906 161.496094 C 249.578125 161.582031 246.992188 161.628906 247.875 160.511719 " fill-opacity="1" fill-rule="nonzero"/><path fill="rgb(97.24884%, 72.549438%, 58.039856%)" d="M 329.929688 309.628906 C 320.859375 320.199219 310.628906 329.753906 299.441406 338.058594 L 75.675781 338.058594 C 64.503906 329.722656 54.289062 320.199219 45.230469 309.644531 C 53.730469 287.988281 71.738281 270.71875 94.960938 263.632812 L 133.625 248.785156 C 148.558594 243.875 147.882812 235.613281 147.882812 219.882812 L 147.882812 186.425781 L 227.25 186.425781 L 227.25 219.855469 C 227.25 235.597656 228.042969 244.949219 243.007812 249.84375 L 280.242188 263.585938 C 303.46875 270.703125 321.460938 287.976562 329.929688 309.628906 Z M 329.929688 309.628906 " fill-opacity="1" fill-rule="nonzero"/><path fill="rgb(92.939758%, 43.139648%, 29.019165%)" d="M 329.929688 309.628906 C 295.546875 349.699219 244.535156 375.089844 187.589844 375.089844 C 130.640625 375.089844 79.628906 349.699219 45.246094 309.644531 C 53.742188 287.988281 71.75 270.71875 94.976562 263.632812 L 133.640625 248.785156 C 137.988281 247.34375 141.019531 245.625 143.121094 243.523438 C 143.265625 243.667969 143.429688 243.800781 143.574219 243.949219 C 168.347656 267.128906 206.375 268.792969 232.863281 247.59375 C 233.71875 246.902344 234.480469 246.359375 235.128906 245.960938 C 237.171875 247.476562 239.746094 248.769531 243.007812 249.84375 L 280.242188 263.585938 C 303.46875 270.703125 321.460938 287.976562 329.929688 309.628906 Z M 329.929688 309.628906 " fill-opacity="1" fill-rule="nonzero"/><path fill="rgb(97.24884%, 72.549438%, 58.039856%)" d="M 250.753906 120.160156 C 250.59375 75.351562 223.164062 43.160156 187.707031 43.160156 C 187.691406 43.160156 187.660156 43.160156 187.648438 43.160156 C 187.632812 43.160156 187.601562 43.160156 187.589844 43.160156 C 152.132812 43.160156 124.699219 75.351562 124.539062 120.160156 C 124.464844 140.59375 125.171875 154.042969 127.246094 168.875 C 133.699219 214.972656 176.136719 227.894531 187.589844 227.894531 C 201.625 227.894531 241.609375 214.972656 248.066406 168.875 C 250.121094 154.042969 250.828125 140.59375 250.753906 120.160156 Z M 250.753906 120.160156 " fill-opacity="1" fill-rule="nonzero"/><path fill="rgb(27.839661%, 13.729858%, 7.058716%)" d="M 237.449219 171.328125 C 230.703125 178.53125 221.796875 182.265625 210.992188 176.285156 C 207.832031 174.535156 205.140625 172.035156 201.980469 170.269531 C 193.277344 165.421875 182.164062 166.949219 173.375 171.625 C 166.625 175.210938 159.496094 181.074219 151.324219 179.195312 C 144.179688 177.5625 139.003906 171.050781 135.875 164.816406 C 129.976562 153.058594 126.289062 140.871094 124.539062 128.332031 C 124.671875 144.355469 125.4375 156.113281 127.230469 168.859375 C 133.683594 214.960938 176.121094 227.882812 187.574219 227.882812 C 201.613281 227.882812 241.597656 214.960938 248.050781 168.859375 C 249.003906 162.011719 249.667969 155.4375 250.109375 148.339844 C 247.695312 155.878906 243.417969 164.964844 237.449219 171.328125 Z M 237.449219 171.328125 " fill-opacity="1" fill-rule="nonzero"/><path fill="rgb(27.839661%, 13.729858%, 7.058716%)" d="M 250.753906 120.160156 C 250.679688 100.109375 245.140625 82.601562 235.878906 69.355469 C 233.6875 74.382812 231.453125 79.378906 229.085938 84.335938 C 229.261719 98.152344 229.292969 113.5 238.273438 124.699219 C 242.742188 130.257812 248.050781 134.269531 249.710938 141.636719 C 250.019531 143.003906 250.035156 144.574219 249.945312 146.207031 C 250.050781 146.058594 250.152344 145.898438 250.253906 145.75 C 250.652344 138.226562 250.796875 130.007812 250.753906 120.160156 Z M 250.753906 120.160156 " fill-opacity="1" fill-rule="nonzero"/><path fill="rgb(27.839661%, 13.729858%, 7.058716%)" d="M 124.6875 135.285156 C 124.832031 141.019531 125.789062 146.617188 126.582031 152.292969 C 126.582031 152.292969 129.625 146.914062 133.167969 144.445312 C 154.601562 129.550781 192.511719 91.933594 192.511719 91.933594 C 192.511719 91.933594 206.464844 112.175781 216.03125 125.023438 C 223.367188 134.886719 238.65625 147.589844 250.109375 152.292969 C 251.417969 144.929688 254.386719 125.773438 254.414062 118.042969 C 254.445312 103.621094 247.433594 81.101562 242.832031 72.457031 C 234.777344 57.332031 215.503906 42.46875 197.714844 41.527344 C 180.3125 40.617188 161.347656 43.292969 147.691406 54.316406 C 125.214844 72.472656 124.628906 92.65625 124.523438 120.144531 C 124.511719 125.199219 124.554688 130.242188 124.6875 135.285156 Z M 124.6875 135.285156 " fill-opacity="1" fill-rule="nonzero"/><path fill="rgb(97.24884%, 72.549438%, 58.039856%)" d="M 209.726562 192.484375 C 209.726562 201.480469 199.699219 213.3125 187.324219 213.3125 C 174.945312 213.3125 164.921875 201.496094 164.921875 192.484375 C 164.921875 183.488281 174.945312 180.722656 187.324219 180.722656 C 199.699219 180.722656 209.726562 183.488281 209.726562 192.484375 Z M 209.726562 192.484375 " fill-opacity="1" fill-rule="nonzero"/></svg>