<svg xmlns="http://www.w3.org/2000/svg" xmlns:xlink="http://www.w3.org/1999/xlink" width="375" zoomAndPan="magnify" viewBox="0 0 375 374.999991" height="374.999991" preserveAspectRatio="xMidYMid meet" version="1.0"><path fill="rgb(100%, 86.669922%, 23.529053%)" d="M 375.089844 187.574219 C 375.089844 234.171875 358.066406 276.832031 329.929688 309.628906 C 320.859375 320.199219 310.613281 329.753906 299.441406 338.058594 C 268.21875 361.328125 229.511719 375.089844 187.589844 375.089844 C 160.789062 375.089844 135.328125 369.472656 112.28125 359.34375 C 99.226562 353.625 86.964844 346.46875 75.675781 338.058594 C 64.519531 329.722656 54.300781 320.199219 45.230469 309.644531 C 17.097656 276.847656 0.0585938 234.1875 0.0585938 187.574219 C 0.0585938 84.011719 84.027344 0.0585938 187.589844 0.0585938 C 258.648438 0.0585938 320.476562 39.601562 352.289062 97.886719 C 366.828125 124.523438 375.089844 155.085938 375.089844 187.574219 Z M 375.089844 187.574219 " fill-opacity="1" fill-rule="nonzero"/><path fill="rgb(98.81897%, 76.469421%, 23.919678%)" d="M 375.089844 187.574219 C 375.089844 234.171875 358.066406 276.832031 329.929688 309.628906 C 320.859375 320.199219 310.613281 329.753906 299.441406 338.058594 C 268.21875 361.328125 229.511719 375.089844 187.589844 375.089844 C 160.789062 375.089844 135.328125 369.472656 112.28125 359.34375 L 196.378906 74.222656 L 196.953125 67.707031 L 209.019531 27.429688 L 352.304688 97.886719 C 366.828125 124.523438 375.089844 155.085938 375.089844 187.574219 Z M 375.089844 187.574219 " fill-opacity="1" fill-rule="nonzero"/><path fill="rgb(98.429871%, 79.60968%, 59.609985%)" d="M 124.511719 126.980469 C 122.644531 124.9375 119.777344 123.964844 118.160156 126.773438 C 115.835938 130.800781 116.070312 136.210938 116.410156 140.664062 C 116.691406 144.265625 117.128906 147.882812 118.070312 151.398438 C 118.878906 154.425781 119.996094 158.597656 122.703125 160.480469 C 123.320312 160.90625 124.15625 161.332031 124.9375 161.496094 C 125.363281 161.582031 127.949219 161.628906 127.066406 160.511719 " fill-opacity="1" fill-rule="nonzero"/><path fill="rgb(98.429871%, 79.60968%, 59.609985%)" d="M 250.429688 126.980469 C 252.296875 124.9375 255.164062 123.964844 256.78125 126.773438 C 259.105469 130.800781 258.867188 136.210938 258.53125 140.664062 C 258.25 144.265625 257.8125 147.882812 256.871094 151.398438 C 256.0625 154.425781 254.945312 158.597656 252.238281 160.480469 C 251.621094 160.90625 250.785156 161.332031 250.003906 161.496094 C 249.578125 161.582031 246.992188 161.628906 247.875 160.511719 " fill-opacity="1" fill-rule="nonzero"/><path fill="rgb(98.429871%, 79.60968%, 59.609985%)" d="M 329.929688 309.628906 C 320.859375 320.199219 310.628906 329.753906 299.441406 338.058594 L 75.675781 338.058594 C 64.503906 329.722656 54.289062 320.199219 45.230469 309.644531 C 53.730469 287.988281 71.738281 270.71875 94.960938 263.632812 L 133.625 248.785156 C 148.558594 243.875 147.882812 235.613281 147.882812 219.882812 L 147.882812 186.425781 L 227.25 186.425781 L 227.25 219.855469 C 227.25 235.597656 228.042969 244.949219 243.007812 249.84375 L 280.242188 263.585938 C 303.46875 270.703125 321.460938 287.976562 329.929688 309.628906 Z M 329.929688 309.628906 " fill-opacity="1" fill-rule="nonzero"/><path fill="rgb(36.859131%, 75.689697%, 92.939758%)" d="M 329.929688 309.628906 C 295.546875 349.699219 244.535156 375.089844 187.589844 375.089844 C 130.640625 375.089844 79.628906 349.699219 45.246094 309.644531 C 53.742188 287.988281 71.75 270.71875 94.976562 263.632812 L 133.640625 248.785156 C 137.988281 247.34375 141.019531 245.625 143.121094 243.523438 C 150.71875 250.519531 160.289062 254.664062 170.476562 256.722656 C 175.5625 257.75 196.480469 258.03125 201.507812 257.324219 C 203.859375 256.988281 206.242188 256.574219 208.640625 256.0625 C 217.796875 254.105469 227.058594 250.8125 235.144531 245.960938 C 237.1875 247.476562 239.757812 248.769531 243.023438 249.84375 L 280.257812 263.585938 C 303.46875 270.703125 321.460938 287.976562 329.929688 309.628906 Z M 329.929688 309.628906 " fill-opacity="1" fill-rule="nonzero"/><path fill="rgb(98.429871%, 79.60968%, 59.609985%)" d="M 250.753906 120.160156 C 250.59375 75.351562 223.105469 50.097656 187.632812 50.097656 C 187.617188 50.097656 187.632812 57.035156 187.632812 50.097656 C 187.632812 50.082031 187.648438 50.097656 187.632812 50.097656 C 152.175781 50.097656 124.671875 75.351562 124.511719 120.160156 C 124.4375 140.59375 125.140625 154.042969 127.214844 168.875 C 133.667969 214.972656 176.105469 227.894531 187.558594 227.894531 C 201.597656 227.894531 241.582031 214.972656 248.035156 168.875 C 250.121094 154.042969 250.828125 140.59375 250.753906 120.160156 Z M 250.753906 120.160156 " fill-opacity="1" fill-rule="nonzero"/><path fill="rgb(65.098572%, 41.569519%, 26.269531%)" d="M 125.246094 143.8125 C 126.6875 152.96875 124.523438 165.390625 134.636719 169.84375 C 132.417969 158.21875 128.332031 147.207031 130.289062 135.109375 C 131.84375 125.496094 131.917969 115.308594 138.429688 107.382812 C 145.972656 98.210938 157.277344 103.710938 166.109375 107.132812 C 177.855469 111.707031 189.335938 115.691406 201.730469 110.398438 C 210.769531 106.53125 219.414062 98.328125 228.867188 101.019531 C 243.226562 105.105469 243.214844 128.332031 244.390625 140.121094 C 245.199219 148.222656 245.417969 156.453125 243.832031 164.433594 C 244.464844 164.996094 244.640625 166.007812 244.242188 166.757812 C 247.535156 158.113281 251.652344 154.042969 251.753906 144.222656 C 251.84375 136.195312 250.785156 128.214844 250.753906 120.1875 C 250.59375 75.382812 223.105469 50.128906 187.632812 50.128906 C 152.175781 50.128906 124.671875 75.382812 124.511719 120.1875 C 124.480469 127.054688 124.730469 133.859375 124.890625 140.652344 C 124.921875 141.460938 125.054688 142.546875 125.246094 143.8125 Z M 125.246094 143.8125 " fill-opacity="1" fill-rule="nonzero"/><path fill="rgb(3.529358%, 15.689087%, 21.958923%)" d="M 130.816406 240.347656 C 124.171875 247.710938 109.03125 248.417969 109.488281 261.308594 C 109.75 268.71875 116.953125 273.820312 123.761719 276.789062 C 139.535156 283.667969 156.96875 285.609375 174.109375 287.152344 C 196.554688 289.164062 220.148438 290.429688 240.65625 281.082031 C 247.507812 277.949219 253.972656 273.570312 258.265625 267.394531 C 263.96875 259.207031 265.792969 246.800781 256.945312 240.140625 C 251.914062 236.363281 244.316406 235.261719 241.832031 229.5 C 241.039062 227.644531 240.921875 225.542969 240.125 223.691406 C 238.039062 218.855469 231.804688 217.105469 226.617188 218.046875 C 221.429688 218.988281 216.839844 221.882812 211.992188 223.941406 C 197.953125 229.925781 187.53125 225.367188 172.328125 224.148438 C 166.789062 223.707031 155.820312 226.324219 150.96875 223.472656 C 148.398438 221.957031 144.972656 216.078125 141.769531 216.164062 C 131.464844 216.460938 135.683594 232.394531 132.375 238.214844 C 131.933594 238.980469 131.40625 239.683594 130.816406 240.347656 Z M 130.816406 240.347656 " fill-opacity="1" fill-rule="nonzero"/><path fill="rgb(65.098572%, 41.569519%, 26.269531%)" d="M 237.449219 171.328125 C 230.703125 178.53125 221.796875 182.265625 210.992188 176.285156 C 207.832031 174.535156 205.140625 172.035156 201.980469 170.269531 C 193.277344 165.421875 182.164062 166.949219 173.375 171.625 C 166.625 175.210938 159.496094 181.074219 151.324219 179.195312 C 144.179688 177.5625 139.003906 171.050781 135.875 164.816406 C 129.976562 153.058594 126.289062 140.871094 124.539062 128.332031 C 124.789062 157.9375 123.9375 190.660156 142.339844 215.78125 C 156.585938 235.246094 177.695312 238.054688 199.980469 234.6875 C 220.164062 231.628906 236.4375 217.898438 243.609375 198.890625 C 246.902344 190.175781 248.578125 180.988281 249.710938 171.769531 C 250.238281 167.433594 251.09375 162.804688 251.046875 158.4375 C 251.019531 155.378906 249.152344 151.324219 250.109375 148.339844 C 249.328125 150.777344 248.019531 142.386719 247.683594 145.25 C 246.386719 156.042969 241.480469 167.039062 237.449219 171.328125 Z M 237.449219 171.328125 " fill-opacity="1" fill-rule="nonzero"/><path fill="rgb(65.098572%, 41.569519%, 26.269531%)" d="M 213.285156 38.617188 C 213.285156 39.296875 213.242188 39.976562 213.152344 40.652344 C 213.066406 41.332031 212.9375 42.003906 212.765625 42.667969 C 212.59375 43.335938 212.378906 43.996094 212.121094 44.648438 C 211.863281 45.296875 211.566406 45.9375 211.226562 46.566406 C 210.890625 47.195312 210.511719 47.808594 210.09375 48.410156 C 209.679688 49.007812 209.222656 49.589844 208.734375 50.15625 C 208.242188 50.722656 207.714844 51.269531 207.15625 51.792969 C 206.59375 52.320312 206 52.824219 205.375 53.304688 C 204.75 53.785156 204.09375 54.242188 203.410156 54.671875 C 202.726562 55.105469 202.019531 55.511719 201.28125 55.886719 C 200.546875 56.265625 199.789062 56.613281 199.007812 56.9375 C 198.230469 57.257812 197.429688 57.546875 196.613281 57.808594 C 195.796875 58.066406 194.964844 58.296875 194.117188 58.492188 C 193.273438 58.691406 192.414062 58.855469 191.546875 58.988281 C 190.679688 59.121094 189.808594 59.222656 188.925781 59.289062 C 188.046875 59.355469 187.164062 59.386719 186.28125 59.386719 C 185.394531 59.386719 184.511719 59.355469 183.632812 59.289062 C 182.753906 59.222656 181.878906 59.121094 181.011719 58.988281 C 180.144531 58.855469 179.289062 58.691406 178.441406 58.492188 C 177.59375 58.296875 176.761719 58.066406 175.945312 57.808594 C 175.128906 57.546875 174.332031 57.257812 173.550781 56.9375 C 172.769531 56.613281 172.011719 56.265625 171.277344 55.886719 C 170.542969 55.511719 169.832031 55.105469 169.148438 54.671875 C 168.464844 54.242188 167.808594 53.785156 167.183594 53.304688 C 166.558594 52.824219 165.964844 52.320312 165.40625 51.792969 C 164.84375 51.269531 164.316406 50.722656 163.828125 50.15625 C 163.335938 49.589844 162.882812 49.007812 162.464844 48.410156 C 162.046875 47.808594 161.667969 47.195312 161.332031 46.566406 C 160.992188 45.9375 160.695312 45.296875 160.4375 44.648438 C 160.183594 43.996094 159.96875 43.335938 159.792969 42.667969 C 159.621094 42.003906 159.492188 41.332031 159.40625 40.652344 C 159.320312 39.976562 159.277344 39.296875 159.277344 38.617188 C 159.277344 37.9375 159.320312 37.257812 159.40625 36.582031 C 159.492188 35.902344 159.621094 35.230469 159.792969 34.566406 C 159.96875 33.898438 160.183594 33.238281 160.4375 32.585938 C 160.695312 31.9375 160.992188 31.296875 161.332031 30.667969 C 161.667969 30.039062 162.046875 29.425781 162.464844 28.824219 C 162.882812 28.226562 163.335938 27.644531 163.828125 27.078125 C 164.316406 26.511719 164.84375 25.964844 165.40625 25.441406 C 165.964844 24.914062 166.558594 24.410156 167.183594 23.929688 C 167.808594 23.449219 168.464844 22.992188 169.148438 22.5625 C 169.832031 22.128906 170.542969 21.722656 171.277344 21.347656 C 172.011719 20.96875 172.769531 20.621094 173.550781 20.296875 C 174.332031 19.976562 175.128906 19.6875 175.945312 19.425781 C 176.761719 19.167969 177.59375 18.9375 178.441406 18.742188 C 179.289062 18.542969 180.144531 18.378906 181.011719 18.246094 C 181.878906 18.113281 182.753906 18.011719 183.632812 17.945312 C 184.511719 17.878906 185.394531 17.847656 186.28125 17.847656 C 187.164062 17.847656 188.046875 17.878906 188.925781 17.945312 C 189.808594 18.011719 190.679688 18.113281 191.546875 18.246094 C 192.414062 18.378906 193.273438 18.542969 194.117188 18.742188 C 194.964844 18.9375 195.796875 19.167969 196.613281 19.425781 C 197.429688 19.6875 198.230469 19.976562 199.007812 20.296875 C 199.789062 20.621094 200.546875 20.96875 201.28125 21.347656 C 202.019531 21.722656 202.726562 22.128906 203.410156 22.5625 C 204.09375 22.992188 204.75 23.449219 205.375 23.929688 C 206 24.410156 206.59375 24.914062 207.15625 25.441406 C 207.714844 25.964844 208.242188 26.511719 208.734375 27.078125 C 209.222656 27.644531 209.679688 28.226562 210.09375 28.824219 C 210.511719 29.425781 210.890625 30.039062 211.226562 30.667969 C 211.566406 31.296875 211.863281 31.9375 212.121094 32.585938 C 212.378906 33.238281 212.59375 33.898438 212.765625 34.566406 C 212.9375 35.230469 213.066406 35.902344 213.152344 36.582031 C 213.242188 37.257812 213.285156 37.9375 213.285156 38.617188 Z M 213.285156 38.617188 " fill-opacity="1" fill-rule="nonzero"/></svg>