<svg xmlns="http://www.w3.org/2000/svg" xmlns:xlink="http://www.w3.org/1999/xlink" width="50" zoomAndPan="magnify" viewBox="0 0 37.5 37.499999" height="50" preserveAspectRatio="xMidYMid meet" version="1.0"><defs><clipPath id="id1"><path d="M 0.75 0.75 L 36.75 0.75 L 36.75 36.75 L 0.75 36.75 Z M 0.75 0.75 " clip-rule="nonzero"/></clipPath><clipPath id="id2"><path d="M 3 21 L 34 21 L 34 36.75 L 3 36.75 Z M 3 21 " clip-rule="nonzero"/></clipPath></defs><g clip-path="url(#id1)"><path fill="rgb(71.759033%, 86.669922%, 54.119873%)" d="M 36.75 18.75 C 36.75 19.339844 36.722656 19.925781 36.664062 20.515625 C 36.605469 21.101562 36.519531 21.683594 36.402344 22.261719 C 36.289062 22.839844 36.144531 23.410156 35.976562 23.976562 C 35.804688 24.539062 35.605469 25.09375 35.378906 25.636719 C 35.152344 26.183594 34.902344 26.714844 34.625 27.234375 C 34.347656 27.753906 34.042969 28.261719 33.714844 28.75 C 33.390625 29.242188 33.039062 29.714844 32.664062 30.167969 C 32.289062 30.625 31.894531 31.0625 31.476562 31.476562 C 31.0625 31.894531 30.625 32.289062 30.167969 32.664062 C 29.714844 33.039062 29.242188 33.390625 28.75 33.714844 C 28.261719 34.042969 27.753906 34.347656 27.234375 34.625 C 26.714844 34.902344 26.183594 35.152344 25.636719 35.378906 C 25.09375 35.605469 24.539062 35.804688 23.976562 35.976562 C 23.410156 36.144531 22.839844 36.289062 22.261719 36.402344 C 21.683594 36.519531 21.101562 36.605469 20.515625 36.664062 C 19.925781 36.722656 19.339844 36.75 18.75 36.75 C 18.160156 36.75 17.574219 36.722656 16.984375 36.664062 C 16.398438 36.605469 15.816406 36.519531 15.238281 36.402344 C 14.660156 36.289062 14.089844 36.144531 13.523438 35.976562 C 12.960938 35.804688 12.40625 35.605469 11.863281 35.378906 C 11.316406 35.152344 10.785156 34.902344 10.265625 34.625 C 9.746094 34.347656 9.238281 34.042969 8.75 33.714844 C 8.257812 33.390625 7.785156 33.039062 7.332031 32.664062 C 6.875 32.289062 6.4375 31.894531 6.023438 31.476562 C 5.605469 31.0625 5.210938 30.625 4.835938 30.167969 C 4.460938 29.714844 4.109375 29.242188 3.785156 28.75 C 3.457031 28.261719 3.152344 27.753906 2.875 27.234375 C 2.597656 26.714844 2.347656 26.183594 2.121094 25.636719 C 1.894531 25.09375 1.695312 24.539062 1.523438 23.976562 C 1.355469 23.410156 1.210938 22.839844 1.097656 22.261719 C 0.980469 21.683594 0.894531 21.101562 0.835938 20.515625 C 0.777344 19.925781 0.75 19.339844 0.75 18.75 C 0.75 18.160156 0.777344 17.574219 0.835938 16.984375 C 0.894531 16.398438 0.980469 15.816406 1.097656 15.238281 C 1.210938 14.660156 1.355469 14.089844 1.523438 13.523438 C 1.695312 12.960938 1.894531 12.40625 2.121094 11.863281 C 2.347656 11.316406 2.597656 10.785156 2.875 10.265625 C 3.152344 9.746094 3.457031 9.238281 3.785156 8.75 C 4.109375 8.257812 4.460938 7.785156 4.835938 7.332031 C 5.210938 6.875 5.605469 6.4375 6.023438 6.023438 C 6.4375 5.605469 6.875 5.210938 7.332031 4.835938 C 7.785156 4.460938 8.257812 4.109375 8.75 3.785156 C 9.238281 3.457031 9.746094 3.152344 10.265625 2.875 C 10.785156 2.597656 11.316406 2.347656 11.863281 2.121094 C 12.40625 1.894531 12.960938 1.695312 13.523438 1.523438 C 14.089844 1.355469 14.660156 1.210938 15.238281 1.097656 C 15.816406 0.980469 16.398438 0.894531 16.984375 0.835938 C 17.574219 0.777344 18.160156 0.75 18.75 0.75 C 19.339844 0.75 19.925781 0.777344 20.515625 0.835938 C 21.101562 0.894531 21.683594 0.980469 22.261719 1.097656 C 22.839844 1.210938 23.410156 1.355469 23.976562 1.523438 C 24.539062 1.695312 25.09375 1.894531 25.636719 2.121094 C 26.183594 2.347656 26.714844 2.597656 27.234375 2.875 C 27.753906 3.152344 28.261719 3.457031 28.75 3.785156 C 29.242188 4.109375 29.714844 4.460938 30.167969 4.835938 C 30.625 5.210938 31.0625 5.605469 31.476562 6.023438 C 31.894531 6.4375 32.289062 6.875 32.664062 7.332031 C 33.039062 7.785156 33.390625 8.257812 33.714844 8.75 C 34.042969 9.238281 34.347656 9.746094 34.625 10.265625 C 34.902344 10.785156 35.152344 11.316406 35.378906 11.863281 C 35.605469 12.40625 35.804688 12.960938 35.976562 13.523438 C 36.144531 14.089844 36.289062 14.660156 36.402344 15.238281 C 36.519531 15.816406 36.605469 16.398438 36.664062 16.984375 C 36.722656 17.574219 36.75 18.160156 36.75 18.75 Z M 36.75 18.75 " fill-opacity="1" fill-rule="nonzero"/></g><path fill="rgb(41.569519%, 74.508667%, 32.159424%)" d="M 25.5 12 C 25.5 12.441406 25.457031 12.882812 25.371094 13.316406 C 25.285156 13.75 25.15625 14.171875 24.984375 14.582031 C 24.816406 14.992188 24.609375 15.382812 24.363281 15.75 C 24.117188 16.117188 23.835938 16.460938 23.523438 16.773438 C 23.210938 17.085938 22.867188 17.367188 22.5 17.613281 C 22.132812 17.859375 21.742188 18.066406 21.332031 18.234375 C 20.921875 18.40625 20.5 18.535156 20.066406 18.621094 C 19.632812 18.707031 19.191406 18.75 18.75 18.75 C 18.308594 18.75 17.867188 18.707031 17.433594 18.621094 C 17 18.535156 16.578125 18.40625 16.167969 18.234375 C 15.757812 18.066406 15.367188 17.859375 15 17.613281 C 14.632812 17.367188 14.289062 17.085938 13.976562 16.773438 C 13.664062 16.460938 13.382812 16.117188 13.136719 15.75 C 12.890625 15.382812 12.683594 14.992188 12.515625 14.582031 C 12.34375 14.171875 12.214844 13.75 12.128906 13.316406 C 12.042969 12.882812 12 12.441406 12 12 C 12 11.558594 12.042969 11.117188 12.128906 10.683594 C 12.214844 10.25 12.34375 9.828125 12.515625 9.417969 C 12.683594 9.007812 12.890625 8.617188 13.136719 8.25 C 13.382812 7.882812 13.664062 7.539062 13.976562 7.226562 C 14.289062 6.914062 14.632812 6.632812 15 6.386719 C 15.367188 6.140625 15.757812 5.933594 16.167969 5.765625 C 16.578125 5.59375 17 5.464844 17.433594 5.378906 C 17.867188 5.292969 18.308594 5.25 18.75 5.25 C 19.191406 5.25 19.632812 5.292969 20.066406 5.378906 C 20.5 5.464844 20.921875 5.59375 21.332031 5.765625 C 21.742188 5.933594 22.132812 6.140625 22.5 6.386719 C 22.867188 6.632812 23.210938 6.914062 23.523438 7.226562 C 23.835938 7.539062 24.117188 7.882812 24.363281 8.25 C 24.609375 8.617188 24.816406 9.007812 24.984375 9.417969 C 25.15625 9.828125 25.285156 10.25 25.371094 10.683594 C 25.457031 11.117188 25.5 11.558594 25.5 12 Z M 25.5 12 " fill-opacity="1" fill-rule="nonzero"/><g clip-path="url(#id2)"><path fill="rgb(41.569519%, 74.508667%, 32.159424%)" d="M 18.75 21 C 12.164062 21 6.398438 23.996094 3.636719 28.496094 C 4.042969 29.125 4.484375 29.726562 4.964844 30.300781 C 5.445312 30.878906 5.960938 31.421875 6.507812 31.929688 C 7.058594 32.441406 7.632812 32.917969 8.242188 33.355469 C 8.851562 33.792969 9.484375 34.191406 10.140625 34.550781 C 10.796875 34.910156 11.476562 35.226562 12.171875 35.5 C 12.871094 35.777344 13.582031 36.007812 14.308594 36.191406 C 15.03125 36.378906 15.765625 36.515625 16.511719 36.609375 C 17.253906 36.703125 18 36.75 18.75 36.75 C 19.5 36.75 20.246094 36.703125 20.988281 36.609375 C 21.734375 36.515625 22.46875 36.378906 23.191406 36.191406 C 23.917969 36.007812 24.628906 35.777344 25.328125 35.5 C 26.023438 35.226562 26.703125 34.910156 27.359375 34.550781 C 28.015625 34.191406 28.648438 33.792969 29.257812 33.355469 C 29.867188 32.917969 30.441406 32.441406 30.992188 31.929688 C 31.539062 31.421875 32.054688 30.878906 32.535156 30.300781 C 33.015625 29.726562 33.457031 29.125 33.863281 28.496094 C 31.101562 23.996094 25.335938 21 18.75 21 Z M 18.75 21 " fill-opacity="1" fill-rule="nonzero"/></g></svg>